<svg width="536" height="271" viewBox="0 0 536 271" fill="none" xmlns="http://www.w3.org/2000/svg">
<path opacity="0.1" d="M80.602 267.757C80.602 164.598 164.797 80.4029 267.956 80.4029C371.872 80.4029 456.068 164.598 456.068 267.757H535.713C523.576 267.757 476.548 262.447 468.963 253.345C465.929 208.592 448.483 168.391 420.418 136.533C419.66 124.397 424.211 112.261 433.313 103.158H432.555C423.453 112.261 412.075 116.053 399.939 115.295C368.081 87.9881 327.12 70.5422 283.126 66.7496C274.024 59.1644 267.956 12.8948 267.956 0C267.956 12.8948 262.647 59.1644 253.544 66.7496C208.792 70.5422 168.591 87.9881 136.733 115.295C124.597 116.053 112.46 112.261 103.358 103.158C112.46 112.261 117.012 124.397 115.495 136.533C88.1879 168.391 70.7416 208.592 67.7075 253.345C59.3638 262.447 13.095 267.757 0.200195 267.757H80.602ZM103.358 266.24C104.116 175.218 177.693 102.4 268.715 102.4C356.703 102.4 428.004 170.667 434.072 257.138C428.004 257.896 412.074 258.655 374.148 248.794C324.086 235.899 292.987 251.069 292.987 251.069C324.845 247.277 382.492 267.757 385.526 267.757C368.838 276.1 343.05 266.24 326.363 261.689C314.985 257.896 302.09 254.862 289.954 256.379C277.059 258.655 262.647 262.447 249.752 267.757C326.362 216.178 382.492 242.726 382.492 242.726C335.464 213.143 271.749 219.97 225.48 251.828C225.48 251.828 203.483 266.24 178.452 267.757C187.554 264.723 197.413 260.172 207.274 253.345C264.163 215.419 311.192 217.695 311.192 217.695C311.192 217.695 198.931 180.527 103.358 266.24Z" fill="#F39232"/>
</svg>
