<svg width="1440" height="246" viewBox="0 0 1440 246" fill="none" xmlns="http://www.w3.org/2000/svg">
<g opacity="0.1">
<path opacity="0.1" d="M967.65 133.551C1103.53 133.551 1441 0.769531 1441 0.769531H0C0 0.769531 785.337 133.551 967.65 133.551Z" fill="#002F52"/>
<path opacity="0.2" d="M376.382 246C558.325 246 1438.87 0.769531 1438.87 0.769531H0C0 0.769531 197.724 246 376.382 246Z" fill="#002F52"/>
<path opacity="0.3" d="M760.858 158.032C919.706 158.032 1438.87 0.769531 1438.87 0.769531H0C0 0.769531 423.031 158.032 760.858 158.032Z" fill="#002F52"/>
<path opacity="0.5" d="M963.473 139.36C1142.53 139.36 1438.87 0.769531 1438.87 0.769531H0C0 0.769531 637.543 139.36 963.473 139.36Z" fill="#002F52"/>
<path opacity="0.7" d="M695.033 79.4009C856.293 79.4009 1438.87 0.769531 1438.87 0.769531H0C0 0.769531 346.508 79.4009 695.033 79.4009Z" fill="#002F52"/>
<path opacity="0.3" d="M1176.7 214.257C1356.83 214.257 1438.87 0.769531 1438.87 0.769531H0C0 0.769531 997.644 214.257 1176.7 214.257Z" fill="#002F52"/>
</g>
</svg>
