<svg width="1440" height="246" viewBox="0 0 1440 246" fill="none" xmlns="http://www.w3.org/2000/svg">
<g opacity="0.1">
<path opacity="0.1" d="M967.65 113.219C1103.53 113.219 1441 246 1441 246H0C0 246 785.337 113.219 967.65 113.219Z" fill="#002F52"/>
<path opacity="0.2" d="M376.382 0.769562C558.325 0.769562 1438.87 246 1438.87 246H0C0 246 197.724 0.769562 376.382 0.769562Z" fill="#002F52"/>
<path opacity="0.3" d="M760.858 88.7372C919.706 88.7372 1438.87 246 1438.87 246H0C0 246 423.031 88.7372 760.858 88.7372Z" fill="#002F52"/>
<path opacity="0.5" d="M963.473 107.41C1142.53 107.41 1438.87 246 1438.87 246H0C0 246 637.543 107.41 963.473 107.41Z" fill="#002F52"/>
<path opacity="0.7" d="M695.033 167.369C856.293 167.369 1438.87 246 1438.87 246H0C0 246 346.508 167.369 695.033 167.369Z" fill="#002F52"/>
<path opacity="0.3" d="M1176.7 32.5126C1356.83 32.5126 1438.87 246 1438.87 246H0C0 246 997.644 32.5126 1176.7 32.5126Z" fill="#002F52"/>
</g>
</svg>
