<svg width="68" height="68" viewBox="0 0 68 68" fill="none" xmlns="http://www.w3.org/2000/svg">
<path d="M12.0859 39.9766L6.93547 45.127C5.13164 46.9315 4.11797 49.3782 4.11719 51.9297C4.11719 52.9864 4.53697 53.9998 5.28418 54.7471C6.0314 55.4943 7.04484 55.9141 8.10156 55.9141H59.8984C60.9552 55.9141 61.9686 55.4943 62.7158 54.7471C63.463 53.9998 63.8828 52.9864 63.8828 51.9297C63.882 49.3782 62.8684 46.9315 61.0645 45.127L57.9062 41.9688" stroke="#361452" stroke-linecap="round" stroke-linejoin="round"/>
<path d="M4.98047 47.9453H16.0703" stroke="#361452" stroke-linecap="round" stroke-linejoin="round"/>
<path d="M63.0195 47.9453H51.9297" stroke="#361452" stroke-linecap="round" stroke-linejoin="round"/>
<path d="M35.9922 39.9766H12.0859L16.6016 27.9172C17.0288 26.7769 17.7943 25.7943 18.7955 25.1012C19.7967 24.4081 20.9859 24.0375 22.2036 24.0391H24.0391" stroke="#361452" stroke-linecap="round" stroke-linejoin="round"/>
<path d="M8.10156 55.9141V59.8984C8.10156 60.9552 8.52134 61.9686 9.26856 62.7158C10.0158 63.463 11.0292 63.8828 12.0859 63.8828C13.1427 63.8828 14.1561 63.463 14.9033 62.7158C15.6505 61.9686 16.0703 60.9552 16.0703 59.8984V55.9141H8.10156Z" stroke="#361452" stroke-linecap="round" stroke-linejoin="round"/>
<path d="M59.8984 55.9141V59.8984C59.8984 60.9552 59.4787 61.9686 58.7314 62.7158C57.9842 63.463 56.9708 63.8828 55.9141 63.8828C54.8573 63.8828 53.8439 63.463 53.0967 62.7158C52.3495 61.9686 51.9297 60.9552 51.9297 59.8984V55.9141H59.8984Z" stroke="#361452" stroke-linecap="round" stroke-linejoin="round"/>
<path d="M32.0078 20.0547C32.0078 24.2816 33.6869 28.3353 36.6758 31.3242C39.6647 34.3131 43.7184 35.9922 47.9453 35.9922C52.1722 35.9922 56.226 34.3131 59.2148 31.3242C62.2037 28.3353 63.8828 24.2816 63.8828 20.0547C63.8828 15.8278 62.2037 11.774 59.2148 8.78517C56.226 5.79631 52.1722 4.11719 47.9453 4.11719C43.7184 4.11719 39.6647 5.79631 36.6758 8.78517C33.6869 11.774 32.0078 15.8278 32.0078 20.0547Z" stroke="#361452" stroke-linecap="round" stroke-linejoin="round"/>
<path d="M43.9609 20.0547H47.9453C49.002 20.0547 50.0155 19.6349 50.7627 18.8877C51.5099 18.1405 51.9297 17.127 51.9297 16.0703C51.9297 15.0136 51.5099 14.0001 50.7627 13.2529C50.0155 12.5057 49.002 12.0859 47.9453 12.0859H43.9609V28.0234" stroke="#361452" stroke-linecap="round" stroke-linejoin="round"/>
</svg>
