<svg width="1440" height="120" viewBox="0 0 1440 120" fill="none" xmlns="http://www.w3.org/2000/svg">
<g opacity="0.1">
<rect width="1439" height="120" transform="matrix(1 0 0 -1 0 120)" fill="white"/>
<path opacity="0.1" d="M966.979 55.0254C1102.77 55.0254 1440 120 1440 120H0C0 120 784.792 55.0254 966.979 55.0254Z" fill="#4F70AF"/>
<path opacity="0.2" d="M376.121 0C557.937 0 1437.87 120 1437.87 120H0C0 120 197.587 0 376.121 0Z" fill="#4F70AF"/>
<path opacity="0.3" d="M760.33 43.0457C919.068 43.0457 1437.87 120 1437.87 120H0C0 120 422.738 43.0457 760.33 43.0457Z" fill="#4F70AF"/>
<path opacity="0.5" d="M962.804 52.1827C1141.74 52.1827 1437.87 120 1437.87 120H0C0 120 637.101 52.1827 962.804 52.1827Z" fill="#4F70AF"/>
<path opacity="0.7" d="M694.551 81.5228C855.698 81.5228 1437.87 120 1437.87 120H0C0 120 346.268 81.5228 694.551 81.5228Z" fill="#4F70AF"/>
<path opacity="0.3" d="M1175.89 15.533C1355.89 15.533 1437.87 120 1437.87 120H0C0 120 996.951 15.533 1175.89 15.533Z" fill="#4F70AF"/>
</g>
</svg>
