<svg width="24" height="24" viewBox="0 0 24 24" fill="none" xmlns="http://www.w3.org/2000/svg">
<g clip-path="url(#clip0_2008_9094)">
<path d="M17.8438 4.52441L17.4238 4.45605C16.7394 4.34499 16.0495 4.27243 15.3574 4.2373L14.6641 4.21484H14.6572C13.1851 4.21485 11.9131 4.66549 11.0088 5.57617C10.1043 6.48707 9.62501 7.80016 9.625 9.41211V11.5723H6.57812V16.0625H9.625V23.3965C7.67446 22.9821 5.86026 22.0655 4.36426 20.7285C2.72113 19.2599 1.52983 17.3478 0.932617 15.2188C0.372748 13.2227 0.357058 11.1144 0.882812 9.11426L0.995117 8.71582C1.59312 6.73104 2.70868 4.94668 4.22266 3.54785L4.53125 3.27344C6.20217 1.83706 8.24667 0.912614 10.4229 0.609375C12.4632 0.325061 14.5396 0.597769 16.4355 1.39551L16.8115 1.56152C18.6824 2.42898 20.2862 3.78535 21.4561 5.48633L21.6836 5.83105C22.8691 7.69377 23.4996 9.85983 23.5 12.0723L23.4883 12.5879C23.3823 14.9891 22.5359 17.2976 21.0674 19.1924L20.7432 19.5918C19.0919 21.5371 16.8509 22.8705 14.375 23.3965V16.0625H17.1006L17.165 15.6377L17.6982 12.1475L17.7852 11.5723H14.375V9.78613L14.373 9.76367C14.3605 9.62381 14.3715 9.48314 14.4053 9.34766L14.4463 9.21387C14.4952 9.08244 14.5657 8.96062 14.6543 8.85352L14.749 8.75195C14.8495 8.65504 14.9651 8.57628 15.0908 8.51855L15.2188 8.46777C15.3943 8.41 15.5807 8.3926 15.7637 8.41699L15.7969 8.42188H17.8438V4.52441Z" stroke="#5C5F68"/>
</g>
<defs>
<clipPath id="clip0_2008_9094">
<rect width="24" height="24" fill="white"/>
</clipPath>
</defs>
</svg>
