<svg width="20" height="20" viewBox="0 0 20 20" fill="none" xmlns="http://www.w3.org/2000/svg">
<path d="M17.9163 16.6667C17.9163 16.9982 17.7846 17.3161 17.5502 17.5505C17.3158 17.785 16.9979 17.9167 16.6663 17.9167C16.3348 17.9167 16.0169 17.785 15.7825 17.5505C15.548 17.3161 15.4163 16.9982 15.4163 16.6667V6.86665C15.4165 6.82599 15.4047 6.78618 15.3825 6.75212C15.3603 6.71806 15.3286 6.69125 15.2913 6.67498C15.2526 6.65851 15.2099 6.65368 15.1685 6.66108C15.127 6.66848 15.0886 6.68779 15.058 6.71665L4.22467 17.55C4.10867 17.6665 3.97085 17.7591 3.81908 17.8224C3.66731 17.8857 3.50456 17.9184 3.34012 17.9188C3.17568 17.9192 3.01278 17.8872 2.86071 17.8246C2.70864 17.7621 2.57039 17.6702 2.45384 17.5542C2.21846 17.3199 2.08579 17.0017 2.08501 16.6696C2.08422 16.3375 2.2154 16.0187 2.44967 15.7833L13.283 4.94999C13.3056 4.91681 13.3176 4.87761 13.3176 4.83749C13.3176 4.79736 13.3056 4.75816 13.283 4.72499C13.2667 4.68772 13.2399 4.65603 13.2059 4.63381C13.1718 4.6116 13.132 4.59984 13.0913 4.59999H3.33301C3.00149 4.59999 2.68354 4.46829 2.44912 4.23387C2.2147 3.99945 2.08301 3.68151 2.08301 3.34999C2.08301 3.01847 2.2147 2.70052 2.44912 2.4661C2.68354 2.23168 3.00149 2.09999 3.33301 2.09999H15.833C16.1088 2.09949 16.3819 2.15374 16.6365 2.2596C16.8911 2.36546 17.1222 2.52081 17.3163 2.71665C17.6955 3.10478 17.9104 3.62412 17.9163 4.16665V16.6667Z" fill="#DE804B"/>
</svg>
