<svg width="68" height="68" viewBox="0 0 68 68" fill="none" xmlns="http://www.w3.org/2000/svg">
<path d="M6.10938 63.8828V24.0391H30.0156V63.8828" stroke="#361452" stroke-linecap="round" stroke-linejoin="round"/>
<path d="M14.0781 63.8828V32.0078" stroke="#361452" stroke-linecap="round" stroke-linejoin="round"/>
<path d="M22.0469 63.8828V32.0078" stroke="#361452" stroke-linecap="round" stroke-linejoin="round"/>
<path d="M6.10938 24.0391L18.0625 10.0938L30.0156 24.0391" stroke="#361452" stroke-linecap="round" stroke-linejoin="round"/>
<path d="M18.0625 4.11719V10.0938" stroke="#361452" stroke-linecap="round" stroke-linejoin="round"/>
<path d="M61.8906 63.882V31.4519C61.8905 31.0336 61.7588 30.6259 61.5143 30.2865C61.2698 29.9471 60.9247 29.6932 60.528 29.5606L40.6061 22.92C40.3065 22.8196 39.9874 22.792 39.6751 22.8395C39.3627 22.8869 39.0662 23.0081 38.81 23.1929C38.5537 23.3777 38.3452 23.6209 38.2017 23.9023C38.0581 24.1838 37.9836 24.4953 37.9844 24.8113V63.882" stroke="#361452" stroke-linecap="round" stroke-linejoin="round"/>
<path d="M54.0469 54.0156V59.0156" stroke="#361452" stroke-linecap="round" stroke-linejoin="round"/>
<path d="M54.0469 44.0156V49.0156" stroke="#361452" stroke-linecap="round" stroke-linejoin="round"/>
<path d="M54.0469 34.0156V39.0156" stroke="#361452" stroke-linecap="round" stroke-linejoin="round"/>
<path d="M46.0469 54.0156V59.0156" stroke="#361452" stroke-linecap="round" stroke-linejoin="round"/>
<path d="M46 43.9609L46.0578 48.9606" stroke="#361452" stroke-linecap="round" stroke-linejoin="round"/>
<path d="M46 34L46.0584 38.9997" stroke="#361452" stroke-linecap="round" stroke-linejoin="round"/>
</svg>
