<svg width="24" height="24" viewBox="0 0 24 24" fill="none" xmlns="http://www.w3.org/2000/svg">
<path d="M12 17.5C15.0375 17.5 17.5 15.0375 17.5 12C17.5 8.96243 15.0375 6.5 12 6.5C8.96243 6.5 6.5 8.96243 6.5 12C6.5 15.0375 8.96243 17.5 12 17.5Z" stroke="#5C5F68" stroke-linecap="round" stroke-linejoin="round"/>
<path d="M17.5 1H6.5C3.46243 1 1 3.46243 1 6.5V17.5C1 20.5375 3.46243 23 6.5 23H17.5C20.5375 23 23 20.5375 23 17.5V6.5C23 3.46243 20.5375 1 17.5 1Z" stroke="#5C5F68" stroke-linecap="round" stroke-linejoin="round"/>
<path d="M18.875 6.5C18.4954 6.5 18.1875 6.19219 18.1875 5.8125C18.1875 5.43281 18.4954 5.125 18.875 5.125" stroke="#5C5F68"/>
<path d="M18.875 6.5C19.2546 6.5 19.5625 6.19219 19.5625 5.8125C19.5625 5.43281 19.2546 5.125 18.875 5.125" stroke="#5C5F68"/>
</svg>
