<svg width="243" height="64" viewBox="0 0 243 64" fill="none" xmlns="http://www.w3.org/2000/svg">
<g clip-path="url(#clip0_1703_10998)">
<path d="M40.6825 14.5454V26.1818H29.0462V49.4545H17.4098V26.1818H5.77344V14.5454H40.6825ZM75.5914 14.5455H52.3187V26.1818H75.5914V14.5455Z" fill="#949CB2"/>
<path d="M75.5917 37.8182V49.4545H40.6826L40.6828 26.1818H52.319V37.8182H75.5917ZM97.5843 22.691H81.6037V27.3067H86.9565V41.7746H92.2316V27.3067H97.5843V22.691ZM103.596 27.1515C99.834 27.1515 97.0412 29.6728 97.0412 34.6376C97.0412 39.0206 99.4073 42.0849 103.712 42.0849C105.962 42.0849 107.785 41.5031 109.531 40.4558L107.669 37.314C106.234 38.0509 105.225 38.3225 103.945 38.3225C102.626 38.3225 101.695 37.6243 101.502 36.034H109.919C109.957 35.8012 109.957 35.4909 109.957 35.0643C109.996 29.7503 107.552 27.1515 103.596 27.1515ZM101.579 32.9697C101.734 31.5346 102.355 30.7976 103.48 30.7976C104.915 30.7976 105.419 31.5346 105.652 32.9697H101.579ZM119.305 38.0897C117.986 38.0897 117.288 36.9261 117.288 34.6376C117.288 32.3879 117.909 31.1079 119.189 31.1079C120.236 31.1079 120.702 31.6897 121.4 32.9697L124.774 30.4097C123.533 28.3928 121.982 27.1515 119.266 27.1515C114.689 27.1515 112.44 30.177 112.44 34.56C112.44 39.3697 114.961 42.0461 119.15 42.0461C121.671 42.0461 123.223 41.0764 124.891 38.6328L121.788 36.1891C120.857 37.5855 120.236 38.0897 119.305 38.0897ZM136.217 27.1516C134.51 27.1516 133.502 27.7334 132.609 28.3928V21.9152L127.683 23.8934V41.8134H132.609V33.6292C132.609 31.8449 133.23 31.3407 134.277 31.3407C135.286 31.3407 135.906 31.8449 135.906 33.6679V41.8134H140.832V33.0473C140.832 29.2849 139.32 27.1516 136.217 27.1516ZM152.663 37.4691C150.374 37.4691 149.443 35.1418 149.443 32.2327C149.443 29.2073 150.413 26.9963 152.624 26.9963C154.369 26.9963 155.029 28.1212 155.688 29.9054L160.498 28.0048C159.179 24.3976 157.317 22.3806 152.624 22.3806C147.504 22.3806 143.897 26.1042 143.897 32.2327C143.897 37.8957 146.922 42.0848 152.585 42.0848C157.123 42.0848 159.257 39.6412 160.537 37.1588L156.076 34.7927C155.029 36.577 154.331 37.4691 152.663 37.4691ZM168.45 28.5091V27.4618H163.524V41.7746H168.45V33.9782C168.45 32.2328 169.187 31.6509 170.389 31.6509C171.359 31.6509 172.057 32.1552 172.677 32.8534L173.841 27.7722C173.259 27.4231 172.561 27.1515 171.514 27.1515C170.234 27.1515 169.264 27.6946 168.45 28.5091ZM184.353 35.6462C184.353 37.4304 183.732 37.9346 182.724 37.9346C181.715 37.9346 181.094 37.4304 181.094 35.6074V27.4619H176.168V36.228C176.168 39.9904 177.681 42.0849 180.823 42.0849C182.491 42.0849 183.538 41.5031 184.391 40.8437V41.8134H189.318V27.5007H184.391L184.353 35.6462ZM201.38 27.1515C199.674 27.1515 198.665 27.7334 197.773 28.3928V27.4231H192.847V41.7358H197.773V33.5515C197.773 31.7673 198.394 31.2631 199.441 31.2631C200.449 31.2631 201.07 31.7673 201.07 33.5903V41.7358H205.996V32.9697C205.996 29.2849 204.522 27.1515 201.38 27.1515ZM215.771 38.0897C214.452 38.0897 213.754 36.9261 213.754 34.6376C213.754 32.3879 214.374 31.1079 215.616 31.1079C216.663 31.1079 217.128 31.6897 217.827 32.9697L221.201 30.4097C219.96 28.3928 218.408 27.1515 215.693 27.1515C211.116 27.1515 208.867 30.177 208.867 34.56C208.867 39.3697 211.388 42.0461 215.577 42.0461C218.098 42.0461 219.65 41.0764 221.317 38.6328L218.214 36.1891C217.361 37.5855 216.702 38.0897 215.771 38.0897ZM232.682 27.1516C230.976 27.1516 229.967 27.7334 229.075 28.3928V21.9152L224.149 23.8934V41.8134H229.075V33.6292C229.075 31.8449 229.696 31.3407 230.743 31.3407C231.751 31.3407 232.372 31.8449 232.372 33.6679V41.8134H237.298V33.0473C237.337 29.2849 235.824 27.1516 232.682 27.1516Z" fill="#949CB2"/>
</g>
<defs>
<clipPath id="clip0_1703_10998">
<rect width="243" height="64" fill="white"/>
</clipPath>
</defs>
</svg>
