<svg width="162" height="76" viewBox="0 0 162 76" fill="none" xmlns="http://www.w3.org/2000/svg">
<path fill-rule="evenodd" clip-rule="evenodd" d="M22.6068 52.4853C23.5787 53.8622 24.5508 54.5102 25.9277 54.5102V54.8342H23.2548C22.2829 54.8342 18.314 54.9152 16.1272 52.1613C15.4792 51.2704 10.2145 44.0618 10.2145 43.9808L18.0712 33.6134C18.6381 32.8844 18.1522 32.0745 17.2612 32.0745H16.9371V31.7505H24.5508V32.0745H24.3887C22.9307 32.0745 21.6348 32.7224 20.7439 33.6944L14.3453 41.3079L22.6068 52.4853ZM9.16169 52.4043C9.24269 53.6192 10.1336 54.5102 11.3485 54.5102H11.7535V54.8342H1.70996V54.5102H2.11494C3.24887 54.5102 4.2209 53.6192 4.2209 52.4043V34.0993C4.2209 32.9654 3.24887 32.0745 2.11494 32.0745H1.70996V31.7505H11.7535V32.0745H11.3485C10.1336 32.0745 9.24269 32.9654 9.16169 34.0993V52.4043Z" fill="white"/>
<path fill-rule="evenodd" clip-rule="evenodd" d="M51.6851 43.4951C51.6851 50.8656 46.6634 55.4824 38.7259 55.4824C30.7883 55.4824 25.7666 50.8656 25.7666 43.4951C25.7666 36.0435 30.7883 31.4268 38.7259 31.4268C46.6634 31.4268 51.6851 36.0435 51.6851 43.4951ZM46.2583 43.4951C46.2583 36.9344 43.3426 32.8847 38.7259 32.8847C34.0281 32.8847 31.1122 36.9344 31.1122 43.4951C31.1122 50.0557 34.0281 54.1054 38.7259 54.1054C43.3426 54.1054 46.2583 50.0557 46.2583 43.4951ZM70.881 54.9964H53.7909V54.6724H54.2769C55.4109 54.6724 56.3017 53.7815 56.3827 52.6475V34.3426C56.3017 33.2087 55.4109 32.2367 54.2769 32.2367H53.7909V31.9127H63.8344V32.2367H63.4294C62.2955 32.2367 61.3235 33.2087 61.3235 34.3426V53.6195H65.6163C68.9371 53.6195 71.043 51.5946 72.0959 48.2738H72.4198L70.881 54.9964ZM94.8555 52.6475C95.8274 53.9435 96.8804 54.6724 98.1764 54.6724V54.9964H95.5035C94.5315 54.9964 90.5627 55.0774 88.3758 52.2426C87.8089 51.4326 82.4633 44.143 82.4633 44.143L90.3198 33.7756C90.8868 33.0467 90.4818 32.1557 89.5099 32.1557H89.2669V31.9127H96.7995V32.2367H96.6375C95.1796 32.2367 93.8836 32.8037 93.0736 33.7756L86.6751 41.3892L94.8555 52.6475ZM81.4104 52.6475C81.4104 53.7815 82.3822 54.7534 83.5161 54.7534H83.9211V55.0774H73.8778V54.7534H74.3638C75.4977 54.7534 76.3886 53.7815 76.4696 52.6475V34.3426C76.3886 33.2087 75.4977 32.2367 74.3638 32.2367H73.8778V31.9127H83.9211V32.2367H83.5161C82.3822 32.2367 81.4104 33.2087 81.4104 34.3426V52.6475Z" fill="white"/>
<path fill-rule="evenodd" clip-rule="evenodd" d="M119.072 52.8094C119.801 54.1053 120.935 54.6723 121.907 54.6723H122.15V54.9963H111.621V54.6723H111.945C112.836 54.6723 113.727 53.9434 113.241 52.6474L111.621 48.5167H103.845L102.144 52.6474C101.658 53.9434 102.549 54.6723 103.44 54.6723H103.683V54.9963H96.6367V54.6723H96.9606C97.8516 54.6723 98.9854 54.1863 99.7144 52.8094L107.328 35.5574C107.571 35.0714 108.867 32.2366 108.948 31.2646H109.272L119.072 52.8094ZM111.054 47.1397L107.814 39.0402L104.412 47.1397H111.054ZM139.888 37.0963L139.564 37.0153V36.6913C139.564 34.6665 138.268 33.3705 136.243 33.2895H131.789V52.6474C131.87 53.7814 132.761 54.6723 133.895 54.6723H134.3V55.0773H124.337V54.6723H124.742C125.876 54.6723 126.767 53.7814 126.848 52.7284V33.2895H122.393C120.368 33.3705 119.072 34.6665 119.072 36.6913V37.0153L118.748 37.0963V31.3456C119.396 31.5886 121.259 31.9126 122.717 31.9126H136C137.377 31.9126 139.24 31.5886 139.888 31.3456V37.0963Z" fill="white"/>
<path fill-rule="evenodd" clip-rule="evenodd" d="M158.841 52.8093C159.57 54.1052 160.704 54.6722 161.676 54.6722H162V54.9961H151.47V54.6722H151.713C152.604 54.6722 153.495 53.9432 153.009 52.6473L151.389 48.5165H143.614L141.994 52.6473C141.427 53.9432 142.399 54.6722 143.209 54.6722H143.533V54.9961H136.405V54.6722H136.729C137.701 54.6722 138.835 54.1862 139.483 52.8093L147.178 35.5573C147.421 35.0713 148.717 32.2364 148.798 31.2645H149.041L158.841 52.8093ZM150.822 47.1396L147.583 39.0401L144.181 47.1396H150.822ZM14.3453 18.0623V18.2243H14.0214C13.4544 18.2243 13.0493 18.6292 13.0493 19.1152V27.2147C13.0493 28.3487 13.2115 29.1586 13.2115 29.1586H13.1304L5.1928 21.6261V27.8627C5.1928 28.3487 5.59774 28.8346 6.1647 28.8346H6.4888V28.9966H1.70996V28.8346H2.03406C2.52003 28.8346 3.00597 28.3487 3.00597 27.8627V19.7632C3.00597 18.5482 2.76294 17.8193 2.76294 17.8193H2.92489L10.8625 25.2708V19.1152C10.7815 18.6292 10.3765 18.2243 9.89057 18.2243H9.56667V18.0623H14.3453ZM23.3359 28.9966H15.2363V28.8346H15.3983C15.9653 28.8346 16.3702 28.3487 16.3702 27.7817V19.1152C16.3702 18.6292 15.9653 18.2243 15.3983 18.2243H15.2363V18.0623H21.2299C21.8779 17.9813 22.7689 17.9003 23.0929 17.7383V20.4921H22.9309V20.2491C22.9309 19.3582 22.2828 18.7102 21.3919 18.7102H18.719V23.246H20.8249C21.6349 23.246 22.1209 22.679 22.1209 21.869V21.788H22.2829V25.3518H22.1209V25.2708C22.1209 24.4609 21.6349 23.8939 20.8249 23.8939H18.719V28.2677H20.8249C22.3639 28.2677 23.4168 27.2957 23.9028 25.7568H23.9837L23.3359 28.9966ZM40.1019 18.0623V18.2243H39.9399C39.5349 18.2243 38.8869 18.4672 38.6439 19.1152L35.971 27.5387C35.971 27.5387 35.647 28.5107 35.728 29.3206H35.5661L32.1643 21.788L29.6534 27.5387C29.6534 27.5387 29.3295 28.4297 29.3295 29.3206H29.1675L25.4416 19.1152C25.1177 18.4672 24.5507 18.2243 24.0648 18.2243H23.9837V18.0623H28.7625V18.2243H28.6006C28.1956 18.2243 27.7906 18.5482 27.9526 19.1962L29.8964 24.6229L32.7312 17.8193H32.8932L35.971 24.7039L37.5909 19.1962C37.7529 18.5482 37.4289 18.2243 36.9429 18.2243H36.8621V18.0623H40.1019Z" fill="white"/>
<path d="M48.5258 28.5914C48.5258 17.576 57.5163 8.5855 68.5316 8.5855C79.628 8.5855 88.6185 17.576 88.6185 28.5914H97.123C95.8271 28.5914 90.8053 28.0244 89.9954 27.0524C89.6714 22.2737 87.8086 17.981 84.8118 14.5792C84.7308 13.2832 85.2167 11.9873 86.1886 11.0154H86.1078C85.1358 11.9873 83.9209 12.3923 82.6249 12.3113C79.2231 9.39546 74.8493 7.53257 70.1515 7.12759C69.1796 6.31764 68.5316 1.37692 68.5316 0C68.5316 1.37692 67.9647 6.31764 66.9928 7.12759C62.2141 7.53257 57.9214 9.39546 54.5196 12.3113C53.2237 12.3923 51.9276 11.9873 50.9557 11.0154C51.9276 11.9873 52.4137 13.2832 52.2517 14.5792C49.3358 17.981 47.4729 22.2737 47.1489 27.0524C46.258 28.0244 41.3174 28.5914 39.9404 28.5914H48.5258ZM50.9557 28.4294C51.0367 18.7099 58.8933 10.9344 68.6127 10.9344C78.0082 10.9344 85.6218 18.224 86.2697 27.4574C85.6218 27.5384 83.9207 27.6194 79.871 26.5665C74.5253 25.1896 71.2045 26.8095 71.2045 26.8095C74.6063 26.4045 80.7619 28.5914 81.0859 28.5914C79.304 29.4823 76.5503 28.4294 74.7684 27.9434C73.5535 27.5384 72.1765 27.2144 70.8806 27.3764C69.5037 27.6194 67.9647 28.0244 66.5878 28.5914C74.7683 23.0837 80.762 25.9185 80.762 25.9185C75.7403 22.7597 68.9367 23.4887 63.996 26.8905C63.996 26.8905 61.6472 28.4294 58.9743 28.5914C59.9463 28.2674 60.9991 27.7814 62.052 27.0524C68.1266 23.0027 73.1485 23.2457 73.1485 23.2457C73.1485 23.2457 61.1611 19.2769 50.9557 28.4294Z" fill="white"/>
<path d="M103.39 69.113L103.713 67.9044C104.013 68.3822 104.481 68.7851 105.118 69.113C105.746 69.4315 106.369 69.5908 106.987 69.5908C107.615 69.5908 108.111 69.4221 108.477 69.0849C108.852 68.7476 109.039 68.3167 109.039 67.792C109.039 67.3985 108.926 67.066 108.702 66.7943C108.496 66.532 108.257 66.3165 107.985 66.1479C107.713 65.9792 107.315 65.7825 106.79 65.5576L106.088 65.2625C105.563 65.0283 105.151 64.8128 104.851 64.6161C103.952 64.0353 103.502 63.2343 103.502 62.2131C103.502 61.3606 103.825 60.6533 104.472 60.0911C105.128 59.529 105.975 59.248 107.015 59.248C107.577 59.248 108.14 59.3276 108.702 59.4869C109.254 59.6461 109.676 59.8007 109.966 59.9506L109.685 61.0327C108.786 59.9928 107.835 59.4728 106.833 59.4728C106.252 59.4728 105.788 59.6321 105.441 59.9506C105.104 60.2691 104.936 60.672 104.936 61.1591C104.964 61.6744 105.142 62.0773 105.47 62.3677C105.797 62.6487 106.331 62.9532 107.072 63.2811L107.774 63.5762C108.224 63.7636 108.664 63.9931 109.095 64.2648C110.004 64.8269 110.458 65.6373 110.458 66.6959C110.458 67.5765 110.126 68.3167 109.46 68.9162C108.805 69.5158 107.919 69.8156 106.805 69.8156C106.214 69.8156 105.559 69.736 104.837 69.5767C104.144 69.4081 103.661 69.2535 103.39 69.113ZM115.855 66.3446H112.327C111.915 67.4407 111.709 68.3588 111.709 69.0989C111.709 69.1458 111.719 69.3284 111.737 69.647H110.374C110.768 68.935 111.091 68.3073 111.344 67.7639C111.531 67.3611 111.925 66.4851 112.524 65.1361L115.11 59.1215H115.166L119.705 69.647H117.274L115.855 66.3446ZM112.426 66.0916H115.756L114.084 62.199L112.777 65.2485C112.609 65.6232 112.491 65.9043 112.426 66.0916ZM127.345 59.4166H128.497C128.206 60.6158 128.061 62.1054 128.061 63.8854V69.8156H127.879L121.119 61.0608V65.1782C121.119 66.9582 121.264 68.4478 121.555 69.647H120.402C120.693 68.4478 120.838 66.9582 120.838 65.1782V60.6954L119.883 59.4588V59.4166H122.539L127.78 66.3446V63.8854C127.78 62.1054 127.635 60.6158 127.345 59.4166ZM135.099 65.0096H139.273V68.6352C138.111 69.4221 136.781 69.8156 135.282 69.8156C133.511 69.8156 132.11 69.3566 131.08 68.4384C130.049 67.5203 129.534 66.2415 129.534 64.6021C129.515 63.0094 130.035 61.7166 131.094 60.7235C132.152 59.7211 133.483 59.2292 135.085 59.248C135.862 59.248 136.593 59.3979 137.277 59.6977C137.961 59.9975 138.551 60.3956 139.048 60.8921L138.078 61.7634C137.76 61.0701 137.338 60.5174 136.813 60.1052C136.298 59.6836 135.694 59.4728 135 59.4728C134.007 59.4728 133.253 59.9131 132.738 60.7938C132.223 61.6744 131.965 62.911 131.965 64.5037C131.965 66.012 132.27 67.2346 132.879 68.1714C133.497 69.0989 134.317 69.5627 135.338 69.5627C136.115 69.5627 136.757 69.4034 137.263 69.0849V65.2625H135.253L135.099 65.0096ZM144.893 66.3446H141.366C140.954 67.4407 140.748 68.3588 140.748 69.0989C140.748 69.1458 140.757 69.3284 140.776 69.647H139.413C139.806 68.935 140.129 68.3073 140.382 67.7639C140.57 67.3611 140.963 66.4851 141.563 65.1361L144.148 59.1215H144.205L148.744 69.647H146.313L144.893 66.3446ZM141.464 66.0916H144.795L143.123 62.199L141.816 65.2485C141.647 65.6232 141.53 65.9043 141.464 66.0916ZM160.584 69.647H158.391L157.52 60.4565L154.246 69.0005H154.19L150.409 60.9343L150.044 65.1642C149.997 65.745 149.974 66.3118 149.974 66.8645C149.974 67.9232 150.063 68.8507 150.241 69.647H149.074C149.384 68.4572 149.613 66.9629 149.763 65.1642L150.17 60.4144L149.721 59.4588V59.4166H152.11L155.131 65.9371L157.632 59.4166H159.628L160.584 69.647Z" fill="white"/>
<path d="M0.900391 63.9863H91.2102" stroke="white" stroke-width="0.809953"/>
</svg>
