<svg width="42" height="32" viewBox="0 0 42 32" fill="none" xmlns="http://www.w3.org/2000/svg">
<path d="M2.66406 22.8161C2.66406 21.8561 2.66406 20.8961 2.66406 19.8401C2.66406 19.5521 2.76006 19.4561 3.04806 19.4561C4.20006 19.4561 5.44806 19.4561 6.60006 19.4561C6.88806 19.4561 6.98406 19.5521 6.98406 19.9361C6.98406 20.8961 6.98406 21.8561 6.98406 22.9121C6.98406 23.2001 6.88806 23.2961 6.60006 23.2961C6.02406 23.2961 5.44806 23.2961 4.87206 23.2961C4.29606 23.2961 3.72006 23.2961 3.14406 23.2961C2.85606 23.2961 2.66406 23.1041 2.66406 22.8161Z" fill="#361452"/>
<path d="M7.08006 17.3441C7.08006 17.6321 6.98406 17.8241 6.60006 17.8241C6.02406 17.8241 5.44806 17.8241 4.87206 17.8241C4.29606 17.8241 3.62406 17.8241 3.04806 17.8241C2.76006 17.8241 2.66406 17.7281 2.66406 17.4401C2.66406 16.4801 2.66406 15.5201 2.66406 14.5601C2.66406 14.2721 2.85606 14.0801 3.14406 14.0801C4.29606 14.0801 5.44806 14.0801 6.60006 14.0801C6.88806 14.0801 7.08006 14.1761 7.08006 14.5601C7.08006 15.4241 7.08006 16.3841 7.08006 17.3441Z" fill="#361452"/>
<path d="M13.0322 19.9361C13.0322 20.8961 13.0322 21.8561 13.0322 22.8161C13.0322 23.1041 12.9362 23.2961 12.5522 23.2961C11.4002 23.2961 10.2482 23.2961 9.09621 23.2961C8.80821 23.2961 8.61621 23.2001 8.61621 22.8161C8.61621 21.8561 8.61621 20.8961 8.61621 19.9361C8.61621 19.6481 8.71221 19.4561 9.09621 19.4561C9.67221 19.4561 10.2482 19.4561 10.8242 19.4561C11.4002 19.4561 11.9762 19.4561 12.5522 19.4561C12.8402 19.4561 13.0322 19.5521 13.0322 19.9361Z" fill="#361452"/>
<path d="M13.0322 28.2879C13.0322 28.6719 12.9362 28.7679 12.5522 28.7679C11.4002 28.7679 10.2482 28.7679 9.09621 28.7679C8.71221 28.7679 8.61621 28.6719 8.61621 28.2879C8.61621 27.3279 8.61621 26.4639 8.61621 25.5039C8.61621 25.1199 8.80821 25.0239 9.09621 25.0239C9.67221 25.0239 10.2482 25.0239 10.8242 25.0239C11.4002 25.0239 11.9762 25.0239 12.5522 25.0239C12.8402 25.0239 13.0322 25.1199 13.0322 25.5039C13.0322 26.3679 13.0322 27.3279 13.0322 28.2879Z" fill="#361452"/>
<path d="M19.7518 13.6H16.3918C16.1038 13.6 16.0078 13.696 16.0078 13.984V17.344C16.0078 17.632 16.1038 17.728 16.3918 17.728H19.7518C20.0398 17.728 20.1358 17.632 20.1358 17.344V13.984C20.1358 13.696 20.0398 13.6 19.7518 13.6ZM25.7998 8.22398H22.4398C22.1518 8.22398 22.0558 8.31998 22.0558 8.60798V11.968C22.0558 12.16 22.1518 12.256 22.2478 12.352C22.2478 12.352 22.3438 12.352 22.4398 12.352H25.7998C26.0878 12.352 26.1838 12.256 26.1838 11.968V8.60798C26.1838 8.31998 26.0878 8.22398 25.7998 8.22398ZM25.7998 13.6H22.4398C22.1518 13.6 22.0558 13.696 22.0558 13.984V17.344C22.0558 17.632 22.1518 17.728 22.4398 17.728H25.7038C25.9918 17.728 26.1838 17.632 26.1838 17.344V13.984C26.1838 13.696 26.0878 13.6 25.7998 13.6ZM25.7998 13.6H22.4398C22.1518 13.6 22.0558 13.696 22.0558 13.984V17.344C22.0558 17.632 22.1518 17.728 22.4398 17.728H25.7038C25.9918 17.728 26.1838 17.632 26.1838 17.344V13.984C26.1838 13.696 26.0878 13.6 25.7998 13.6ZM25.7998 8.22398H22.4398C22.1518 8.22398 22.0558 8.31998 22.0558 8.60798V11.968C21.9598 12.16 22.0558 12.256 22.2478 12.352C22.2478 12.352 22.3438 12.352 22.4398 12.352H25.7998C26.0878 12.352 26.1838 12.256 26.1838 11.968V8.60798C26.1838 8.31998 26.0878 8.22398 25.7998 8.22398ZM19.6558 8.22398H16.3918C16.1038 8.22398 16.0078 8.31998 16.0078 8.60798V11.872C16.0078 12.16 16.1998 12.352 16.4878 12.352H19.7518C20.0398 12.352 20.2318 12.256 20.2318 11.872V8.60798C20.1358 8.31998 19.9438 8.22398 19.6558 8.22398ZM19.7518 13.6H16.3918C16.1038 13.6 16.0078 13.696 16.0078 13.984V17.344C16.0078 17.632 16.1038 17.728 16.3918 17.728H19.7518C20.0398 17.728 20.1358 17.632 20.1358 17.344V13.984C20.1358 13.696 20.0398 13.6 19.7518 13.6ZM19.7518 13.6H16.3918C16.1038 13.6 16.0078 13.696 16.0078 13.984V17.344C16.0078 17.632 16.1038 17.728 16.3918 17.728H19.7518C20.0398 17.728 20.1358 17.632 20.1358 17.344V13.984C20.1358 13.696 20.0398 13.6 19.7518 13.6ZM19.6558 8.22398H16.3918C16.1038 8.22398 16.0078 8.31998 16.0078 8.60798V11.872C16.0078 12.16 16.1998 12.352 16.4878 12.352H19.7518C20.0398 12.352 20.2318 12.256 20.2318 11.872V8.60798C20.1358 8.31998 19.9438 8.22398 19.6558 8.22398ZM25.7998 8.22398H22.4398C22.1518 8.22398 22.0558 8.31998 22.0558 8.60798V11.968C21.9598 12.16 22.0558 12.256 22.2478 12.352C22.2478 12.352 22.3438 12.352 22.4398 12.352H25.7998C26.0878 12.352 26.1838 12.256 26.1838 11.968V8.60798C26.1838 8.31998 26.0878 8.22398 25.7998 8.22398ZM25.7998 13.6H22.4398C22.1518 13.6 22.0558 13.696 22.0558 13.984V17.344C22.0558 17.632 22.1518 17.728 22.4398 17.728H25.7038C25.9918 17.728 26.1838 17.632 26.1838 17.344V13.984C26.1838 13.696 26.0878 13.6 25.7998 13.6ZM32.9998 13.984H29.3518C29.0638 13.984 28.9678 14.08 28.9678 14.368V17.344C28.9678 17.632 29.1598 17.728 29.4478 17.728H32.9998C33.2878 17.728 33.3838 17.632 33.3838 17.344V14.368C33.3838 14.08 33.2878 13.984 32.9998 13.984ZM32.9038 19.456H29.4478C29.1598 19.456 28.9678 19.552 28.9678 19.936V22.816C28.9678 23.104 29.1598 23.296 29.4478 23.296H32.9038C33.1918 23.296 33.3838 23.2 33.3838 22.816V19.936C33.3838 19.648 33.2878 19.456 32.9038 19.456ZM32.9038 25.024H29.3518C29.0638 25.024 28.9678 25.12 28.9678 25.408V28.288C28.9678 28.576 29.0638 28.768 29.4478 28.768H32.9038C33.2878 28.768 33.3838 28.576 33.3838 28.288V25.504C33.3838 25.12 33.2878 25.024 32.9038 25.024ZM38.8558 13.984H35.3998C35.1118 13.984 34.9198 14.08 34.9198 14.464V17.344C34.9198 17.728 35.0158 17.824 35.3998 17.824H38.8558C39.2398 17.824 39.3358 17.728 39.3358 17.344V14.464C39.3358 14.176 39.2398 13.984 38.8558 13.984ZM38.8558 19.456H35.3998C35.1118 19.456 34.9198 19.552 34.9198 19.936V22.816C34.9198 23.104 35.0158 23.296 35.3998 23.296H38.8558C39.2398 23.296 39.3358 23.104 39.3358 22.816V19.936C39.3358 19.552 39.2398 19.36 38.8558 19.456ZM38.8558 19.456H35.3998C35.1118 19.456 34.9198 19.552 34.9198 19.936V22.816C34.9198 23.104 35.0158 23.296 35.3998 23.296H38.8558C39.2398 23.296 39.3358 23.104 39.3358 22.816V19.936C39.3358 19.552 39.2398 19.36 38.8558 19.456ZM38.8558 13.984H35.3998C35.1118 13.984 34.9198 14.08 34.9198 14.464V17.344C34.9198 17.728 35.0158 17.824 35.3998 17.824H38.8558C39.2398 17.824 39.3358 17.728 39.3358 17.344V14.464C39.3358 14.176 39.2398 13.984 38.8558 13.984ZM32.9038 25.024H29.3518C29.0638 25.024 28.9678 25.12 28.9678 25.408V28.288C28.9678 28.576 29.0638 28.768 29.4478 28.768H32.9038C33.2878 28.768 33.3838 28.576 33.3838 28.288V25.504C33.3838 25.12 33.2878 25.024 32.9038 25.024ZM32.9038 19.456H29.4478C29.1598 19.456 28.9678 19.552 28.9678 19.936V22.816C28.9678 23.104 29.1598 23.296 29.4478 23.296H32.9038C33.1918 23.296 33.3838 23.2 33.3838 22.816V19.936C33.3838 19.648 33.2878 19.456 32.9038 19.456ZM32.9998 13.984H29.3518C29.0638 13.984 28.9678 14.08 28.9678 14.368V17.344C28.9678 17.632 29.1598 17.728 29.4478 17.728H32.9998C33.2878 17.728 33.3838 17.632 33.3838 17.344V14.368C33.3838 14.08 33.2878 13.984 32.9998 13.984ZM25.7998 13.6H22.4398C22.1518 13.6 22.0558 13.696 22.0558 13.984V17.344C22.0558 17.632 22.1518 17.728 22.4398 17.728H25.7038C25.9918 17.728 26.1838 17.632 26.1838 17.344V13.984C26.1838 13.696 26.0878 13.6 25.7998 13.6ZM25.7998 8.22398H22.4398C22.1518 8.22398 22.0558 8.31998 22.0558 8.60798V11.968C21.9598 12.16 22.0558 12.256 22.2478 12.352C22.2478 12.352 22.3438 12.352 22.4398 12.352H25.7998C26.0878 12.352 26.1838 12.256 26.1838 11.968V8.60798C26.1838 8.31998 26.0878 8.22398 25.7998 8.22398ZM19.6558 8.22398H16.3918C16.1038 8.22398 16.0078 8.31998 16.0078 8.60798V11.872C16.0078 12.16 16.1998 12.352 16.4878 12.352H19.7518C20.0398 12.352 20.2318 12.256 20.2318 11.872V8.60798C20.1358 8.31998 19.9438 8.22398 19.6558 8.22398ZM19.7518 13.6H16.3918C16.1038 13.6 16.0078 13.696 16.0078 13.984V17.344C16.0078 17.632 16.1038 17.728 16.3918 17.728H19.7518C20.0398 17.728 20.1358 17.632 20.1358 17.344V13.984C20.1358 13.696 20.0398 13.6 19.7518 13.6ZM19.7518 13.6H16.3918C16.1038 13.6 16.0078 13.696 16.0078 13.984V17.344C16.0078 17.632 16.1038 17.728 16.3918 17.728H19.7518C20.0398 17.728 20.1358 17.632 20.1358 17.344V13.984C20.1358 13.696 20.0398 13.6 19.7518 13.6ZM19.6558 8.22398H16.3918C16.1038 8.22398 16.0078 8.31998 16.0078 8.60798V11.872C16.0078 12.16 16.1998 12.352 16.4878 12.352H19.7518C20.0398 12.352 20.2318 12.256 20.2318 11.872V8.60798C20.1358 8.31998 19.9438 8.22398 19.6558 8.22398ZM25.7998 8.22398H22.4398C22.1518 8.22398 22.0558 8.31998 22.0558 8.60798V11.968C21.9598 12.16 22.0558 12.256 22.2478 12.352C22.2478 12.352 22.3438 12.352 22.4398 12.352H25.7998C26.0878 12.352 26.1838 12.256 26.1838 11.968V8.60798C26.1838 8.31998 26.0878 8.22398 25.7998 8.22398ZM25.7998 13.6H22.4398C22.1518 13.6 22.0558 13.696 22.0558 13.984V17.344C22.0558 17.632 22.1518 17.728 22.4398 17.728H25.7038C25.9918 17.728 26.1838 17.632 26.1838 17.344V13.984C26.1838 13.696 26.0878 13.6 25.7998 13.6ZM32.9998 13.984H29.3518C29.0638 13.984 28.9678 14.08 28.9678 14.368V17.344C28.9678 17.632 29.1598 17.728 29.4478 17.728H32.9998C33.2878 17.728 33.3838 17.632 33.3838 17.344V14.368C33.3838 14.08 33.2878 13.984 32.9998 13.984ZM32.9038 19.456H29.4478C29.1598 19.456 28.9678 19.552 28.9678 19.936V22.816C28.9678 23.104 29.1598 23.296 29.4478 23.296H32.9038C33.1918 23.296 33.3838 23.2 33.3838 22.816V19.936C33.3838 19.648 33.2878 19.456 32.9038 19.456ZM32.9038 25.024H29.3518C29.0638 25.024 28.9678 25.12 28.9678 25.408V28.288C28.9678 28.576 29.0638 28.768 29.4478 28.768H32.9038C33.2878 28.768 33.3838 28.576 33.3838 28.288V25.504C33.3838 25.12 33.2878 25.024 32.9038 25.024ZM38.8558 13.984H35.3998C35.1118 13.984 34.9198 14.08 34.9198 14.464V17.344C34.9198 17.728 35.0158 17.824 35.3998 17.824H38.8558C39.2398 17.824 39.3358 17.728 39.3358 17.344V14.464C39.3358 14.176 39.2398 13.984 38.8558 13.984ZM38.8558 19.456H35.3998C35.1118 19.456 34.9198 19.552 34.9198 19.936V22.816C34.9198 23.104 35.0158 23.296 35.3998 23.296H38.8558C39.2398 23.296 39.3358 23.104 39.3358 22.816V19.936C39.3358 19.552 39.2398 19.36 38.8558 19.456ZM38.8558 19.456H35.3998C35.1118 19.456 34.9198 19.552 34.9198 19.936V22.816C34.9198 23.104 35.0158 23.296 35.3998 23.296H38.8558C39.2398 23.296 39.3358 23.104 39.3358 22.816V19.936C39.3358 19.552 39.2398 19.36 38.8558 19.456ZM38.8558 13.984H35.3998C35.1118 13.984 34.9198 14.08 34.9198 14.464V17.344C34.9198 17.728 35.0158 17.824 35.3998 17.824H38.8558C39.2398 17.824 39.3358 17.728 39.3358 17.344V14.464C39.3358 14.176 39.2398 13.984 38.8558 13.984ZM32.9038 25.024H29.3518C29.0638 25.024 28.9678 25.12 28.9678 25.408V28.288C28.9678 28.576 29.0638 28.768 29.4478 28.768H32.9038C33.2878 28.768 33.3838 28.576 33.3838 28.288V25.504C33.3838 25.12 33.2878 25.024 32.9038 25.024ZM32.9038 19.456H29.4478C29.1598 19.456 28.9678 19.552 28.9678 19.936V22.816C28.9678 23.104 29.1598 23.296 29.4478 23.296H32.9038C33.1918 23.296 33.3838 23.2 33.3838 22.816V19.936C33.3838 19.648 33.2878 19.456 32.9038 19.456ZM32.9998 13.984H29.3518C29.0638 13.984 28.9678 14.08 28.9678 14.368V17.344C28.9678 17.632 29.1598 17.728 29.4478 17.728H32.9998C33.2878 17.728 33.3838 17.632 33.3838 17.344V14.368C33.3838 14.08 33.2878 13.984 32.9998 13.984ZM25.7998 13.6H22.4398C22.1518 13.6 22.0558 13.696 22.0558 13.984V17.344C22.0558 17.632 22.1518 17.728 22.4398 17.728H25.7038C25.9918 17.728 26.1838 17.632 26.1838 17.344V13.984C26.1838 13.696 26.0878 13.6 25.7998 13.6ZM25.7998 8.22398H22.4398C22.1518 8.22398 22.0558 8.31998 22.0558 8.60798V11.968C21.9598 12.16 22.0558 12.256 22.2478 12.352C22.2478 12.352 22.3438 12.352 22.4398 12.352H25.7998C26.0878 12.352 26.1838 12.256 26.1838 11.968V8.60798C26.1838 8.31998 26.0878 8.22398 25.7998 8.22398ZM19.6558 8.22398H16.3918C16.1038 8.22398 16.0078 8.31998 16.0078 8.60798V11.872C16.0078 12.16 16.1998 12.352 16.4878 12.352H19.7518C20.0398 12.352 20.2318 12.256 20.2318 11.872V8.60798C20.1358 8.31998 19.9438 8.22398 19.6558 8.22398ZM19.7518 13.6H16.3918C16.1038 13.6 16.0078 13.696 16.0078 13.984V17.344C16.0078 17.632 16.1038 17.728 16.3918 17.728H19.7518C20.0398 17.728 20.1358 17.632 20.1358 17.344V13.984C20.1358 13.696 20.0398 13.6 19.7518 13.6ZM19.7518 13.6H16.3918C16.1038 13.6 16.0078 13.696 16.0078 13.984V17.344C16.0078 17.632 16.1038 17.728 16.3918 17.728H19.7518C20.0398 17.728 20.1358 17.632 20.1358 17.344V13.984C20.1358 13.696 20.0398 13.6 19.7518 13.6ZM19.6558 8.22398H16.3918C16.1038 8.22398 16.0078 8.31998 16.0078 8.60798V11.872C16.0078 12.16 16.1998 12.352 16.4878 12.352H19.7518C20.0398 12.352 20.2318 12.256 20.2318 11.872V8.60798C20.1358 8.31998 19.9438 8.22398 19.6558 8.22398ZM25.7998 8.22398H22.4398C22.1518 8.22398 22.0558 8.31998 22.0558 8.60798V11.968C21.9598 12.16 22.0558 12.256 22.2478 12.352C22.2478 12.352 22.3438 12.352 22.4398 12.352H25.7998C26.0878 12.352 26.1838 12.256 26.1838 11.968V8.60798C26.1838 8.31998 26.0878 8.22398 25.7998 8.22398ZM25.7998 13.6H22.4398C22.1518 13.6 22.0558 13.696 22.0558 13.984V17.344C22.0558 17.632 22.1518 17.728 22.4398 17.728H25.7038C25.9918 17.728 26.1838 17.632 26.1838 17.344V13.984C26.1838 13.696 26.0878 13.6 25.7998 13.6ZM32.9998 13.984H29.3518C29.0638 13.984 28.9678 14.08 28.9678 14.368V17.344C28.9678 17.632 29.1598 17.728 29.4478 17.728H32.9998C33.2878 17.728 33.3838 17.632 33.3838 17.344V14.368C33.3838 14.08 33.2878 13.984 32.9998 13.984ZM32.9038 19.456H29.4478C29.1598 19.456 28.9678 19.552 28.9678 19.936V22.816C28.9678 23.104 29.1598 23.296 29.4478 23.296H32.9038C33.1918 23.296 33.3838 23.2 33.3838 22.816V19.936C33.3838 19.648 33.2878 19.456 32.9038 19.456ZM32.9038 25.024H29.3518C29.0638 25.024 28.9678 25.12 28.9678 25.408V28.288C28.9678 28.576 29.0638 28.768 29.4478 28.768H32.9038C33.2878 28.768 33.3838 28.576 33.3838 28.288V25.504C33.3838 25.12 33.2878 25.024 32.9038 25.024ZM38.8558 13.984H35.3998C35.1118 13.984 34.9198 14.08 34.9198 14.464V17.344C34.9198 17.728 35.0158 17.824 35.3998 17.824H38.8558C39.2398 17.824 39.3358 17.728 39.3358 17.344V14.464C39.3358 14.176 39.2398 13.984 38.8558 13.984ZM38.8558 19.456H35.3998C35.1118 19.456 34.9198 19.552 34.9198 19.936V22.816C34.9198 23.104 35.0158 23.296 35.3998 23.296H38.8558C39.2398 23.296 39.3358 23.104 39.3358 22.816V19.936C39.3358 19.552 39.2398 19.36 38.8558 19.456ZM38.8558 19.456H35.3998C35.1118 19.456 34.9198 19.552 34.9198 19.936V22.816C34.9198 23.104 35.0158 23.296 35.3998 23.296H38.8558C39.2398 23.296 39.3358 23.104 39.3358 22.816V19.936C39.3358 19.552 39.2398 19.36 38.8558 19.456ZM38.8558 13.984H35.3998C35.1118 13.984 34.9198 14.08 34.9198 14.464V17.344C34.9198 17.728 35.0158 17.824 35.3998 17.824H38.8558C39.2398 17.824 39.3358 17.728 39.3358 17.344V14.464C39.3358 14.176 39.2398 13.984 38.8558 13.984ZM32.9038 25.024H29.3518C29.0638 25.024 28.9678 25.12 28.9678 25.408V28.288C28.9678 28.576 29.0638 28.768 29.4478 28.768H32.9038C33.2878 28.768 33.3838 28.576 33.3838 28.288V25.504C33.3838 25.12 33.2878 25.024 32.9038 25.024ZM32.9038 19.456H29.4478C29.1598 19.456 28.9678 19.552 28.9678 19.936V22.816C28.9678 23.104 29.1598 23.296 29.4478 23.296H32.9038C33.1918 23.296 33.3838 23.2 33.3838 22.816V19.936C33.3838 19.648 33.2878 19.456 32.9038 19.456ZM32.9998 13.984H29.3518C29.0638 13.984 28.9678 14.08 28.9678 14.368V17.344C28.9678 17.632 29.1598 17.728 29.4478 17.728H32.9998C33.2878 17.728 33.3838 17.632 33.3838 17.344V14.368C33.3838 14.08 33.2878 13.984 32.9998 13.984ZM25.7998 13.6H22.4398C22.1518 13.6 22.0558 13.696 22.0558 13.984V17.344C22.0558 17.632 22.1518 17.728 22.4398 17.728H25.7038C25.9918 17.728 26.1838 17.632 26.1838 17.344V13.984C26.1838 13.696 26.0878 13.6 25.7998 13.6ZM25.7998 8.22398H22.4398C22.1518 8.22398 22.0558 8.31998 22.0558 8.60798V11.968C21.9598 12.16 22.0558 12.256 22.2478 12.352C22.2478 12.352 22.3438 12.352 22.4398 12.352H25.7998C26.0878 12.352 26.1838 12.256 26.1838 11.968V8.60798C26.1838 8.31998 26.0878 8.22398 25.7998 8.22398ZM19.6558 8.22398H16.3918C16.1038 8.22398 16.0078 8.31998 16.0078 8.60798V11.872C16.0078 12.16 16.1998 12.352 16.4878 12.352H19.7518C20.0398 12.352 20.2318 12.256 20.2318 11.872V8.60798C20.1358 8.31998 19.9438 8.22398 19.6558 8.22398ZM19.7518 13.6H16.3918C16.1038 13.6 16.0078 13.696 16.0078 13.984V17.344C16.0078 17.632 16.1038 17.728 16.3918 17.728H19.7518C20.0398 17.728 20.1358 17.632 20.1358 17.344V13.984C20.1358 13.696 20.0398 13.6 19.7518 13.6ZM40.5838 12.16H28.3918C28.1038 12.16 27.9118 12.064 27.9118 11.776V1.50398C27.9118 0.927978 27.9118 0.927979 27.3358 0.927979H14.6638C14.0878 0.927979 14.0878 0.927978 14.0878 1.50398V11.68C14.0878 12.064 13.9918 12.16 13.6078 12.16H1.41584C1.22384 12.16 1.03184 12.16 0.839844 12.352V30.976C1.03184 31.168 1.22384 31.168 1.41584 31.168H40.5838C41.1598 31.168 41.1598 31.168 41.1598 30.592V12.832C41.1598 12.16 41.1598 12.16 40.5838 12.16ZM14.0878 30.016C14.0878 30.4 13.9918 30.4 13.7038 30.4H1.89584C1.60784 30.4 1.51184 30.304 1.51184 30.016V13.12C1.51184 12.832 1.60784 12.736 1.89584 12.736H13.7038C14.0878 12.736 14.0878 12.832 14.0878 13.12V30.016ZM27.3358 30.112C27.3358 30.304 27.3358 30.496 27.0478 30.496H24.3598C24.0718 30.496 24.0718 30.4 24.0718 30.208V26.656C24.0718 25.504 23.3998 24.544 22.3438 24.064C21.2878 23.584 20.2318 23.68 19.1758 24.352C18.4078 24.832 18.0238 25.6 18.0238 26.56V30.208C18.0238 30.496 17.9278 30.592 17.6398 30.592H15.0478C14.7598 30.592 14.7598 30.496 14.7598 30.208V22.144C14.7598 21.856 14.8558 21.856 15.0478 21.856H26.9518C27.2398 21.856 27.3358 21.952 27.3358 22.24V30.112ZM27.3358 18.784C27.3358 19.072 27.2398 19.168 26.9518 19.168H15.0478C14.7598 19.168 14.6638 19.072 14.6638 18.784V1.88798C14.6638 1.59998 14.7598 1.50398 15.0478 1.50398H26.9518C27.2398 1.50398 27.3358 1.59998 27.3358 1.88798V18.784ZM40.5838 30.112C40.5838 30.4 40.3918 30.4 40.1998 30.4H28.3918C28.0078 30.4 28.0078 30.304 28.0078 30.016V13.12C28.0078 12.832 28.0078 12.736 28.3918 12.736H40.1998C40.4878 12.736 40.5838 12.832 40.5838 13.12V30.112ZM38.8558 19.456H35.3998C35.1118 19.456 34.9198 19.552 34.9198 19.936V22.816C34.9198 23.104 35.0158 23.296 35.3998 23.296H38.8558C39.2398 23.296 39.3358 23.104 39.3358 22.816V19.936C39.3358 19.552 39.2398 19.36 38.8558 19.456ZM38.8558 13.984H35.3998C35.1118 13.984 34.9198 14.08 34.9198 14.464V17.344C34.9198 17.728 35.0158 17.824 35.3998 17.824H38.8558C39.2398 17.824 39.3358 17.728 39.3358 17.344V14.464C39.3358 14.176 39.2398 13.984 38.8558 13.984ZM32.9038 25.024H29.3518C29.0638 25.024 28.9678 25.12 28.9678 25.408V28.288C28.9678 28.576 29.0638 28.768 29.4478 28.768H32.9038C33.2878 28.768 33.3838 28.576 33.3838 28.288V25.504C33.3838 25.12 33.2878 25.024 32.9038 25.024ZM32.9038 19.456H29.4478C29.1598 19.456 28.9678 19.552 28.9678 19.936V22.816C28.9678 23.104 29.1598 23.296 29.4478 23.296H32.9038C33.1918 23.296 33.3838 23.2 33.3838 22.816V19.936C33.3838 19.648 33.2878 19.456 32.9038 19.456ZM32.9998 13.984H29.3518C29.0638 13.984 28.9678 14.08 28.9678 14.368V17.344C28.9678 17.632 29.1598 17.728 29.4478 17.728H32.9998C33.2878 17.728 33.3838 17.632 33.3838 17.344V14.368C33.3838 14.08 33.2878 13.984 32.9998 13.984ZM25.7998 13.6H22.4398C22.1518 13.6 22.0558 13.696 22.0558 13.984V17.344C22.0558 17.632 22.1518 17.728 22.4398 17.728H25.7038C25.9918 17.728 26.1838 17.632 26.1838 17.344V13.984C26.1838 13.696 26.0878 13.6 25.7998 13.6ZM25.7998 8.22398H22.4398C22.1518 8.22398 22.0558 8.31998 22.0558 8.60798V11.968C21.9598 12.16 22.0558 12.256 22.2478 12.352C22.2478 12.352 22.3438 12.352 22.4398 12.352H25.7998C26.0878 12.352 26.1838 12.256 26.1838 11.968V8.60798C26.1838 8.31998 26.0878 8.22398 25.7998 8.22398ZM19.6558 8.22398H16.3918C16.1038 8.22398 16.0078 8.31998 16.0078 8.60798V11.872C16.0078 12.16 16.1998 12.352 16.4878 12.352H19.7518C20.0398 12.352 20.2318 12.256 20.2318 11.872V8.60798C20.1358 8.31998 19.9438 8.22398 19.6558 8.22398ZM19.7518 13.6H16.3918C16.1038 13.6 16.0078 13.696 16.0078 13.984V17.344C16.0078 17.632 16.1038 17.728 16.3918 17.728H19.7518C20.0398 17.728 20.1358 17.632 20.1358 17.344V13.984C20.1358 13.696 20.0398 13.6 19.7518 13.6ZM19.7518 13.6H16.3918C16.1038 13.6 16.0078 13.696 16.0078 13.984V17.344C16.0078 17.632 16.1038 17.728 16.3918 17.728H19.7518C20.0398 17.728 20.1358 17.632 20.1358 17.344V13.984C20.1358 13.696 20.0398 13.6 19.7518 13.6ZM19.6558 8.22398H16.3918C16.1038 8.22398 16.0078 8.31998 16.0078 8.60798V11.872C16.0078 12.16 16.1998 12.352 16.4878 12.352H19.7518C20.0398 12.352 20.2318 12.256 20.2318 11.872V8.60798C20.1358 8.31998 19.9438 8.22398 19.6558 8.22398ZM25.7998 8.22398H22.4398C22.1518 8.22398 22.0558 8.31998 22.0558 8.60798V11.968C21.9598 12.16 22.0558 12.256 22.2478 12.352C22.2478 12.352 22.3438 12.352 22.4398 12.352H25.7998C26.0878 12.352 26.1838 12.256 26.1838 11.968V8.60798C26.1838 8.31998 26.0878 8.22398 25.7998 8.22398ZM25.7998 13.6H22.4398C22.1518 13.6 22.0558 13.696 22.0558 13.984V17.344C22.0558 17.632 22.1518 17.728 22.4398 17.728H25.7038C25.9918 17.728 26.1838 17.632 26.1838 17.344V13.984C26.1838 13.696 26.0878 13.6 25.7998 13.6ZM32.9998 13.984H29.3518C29.0638 13.984 28.9678 14.08 28.9678 14.368V17.344C28.9678 17.632 29.1598 17.728 29.4478 17.728H32.9998C33.2878 17.728 33.3838 17.632 33.3838 17.344V14.368C33.3838 14.08 33.2878 13.984 32.9998 13.984ZM32.9038 19.456H29.4478C29.1598 19.456 28.9678 19.552 28.9678 19.936V22.816C28.9678 23.104 29.1598 23.296 29.4478 23.296H32.9038C33.1918 23.296 33.3838 23.2 33.3838 22.816V19.936C33.3838 19.648 33.2878 19.456 32.9038 19.456ZM32.9038 25.024H29.3518C29.0638 25.024 28.9678 25.12 28.9678 25.408V28.288C28.9678 28.576 29.0638 28.768 29.4478 28.768H32.9038C33.2878 28.768 33.3838 28.576 33.3838 28.288V25.504C33.3838 25.12 33.2878 25.024 32.9038 25.024ZM38.8558 13.984H35.3998C35.1118 13.984 34.9198 14.08 34.9198 14.464V17.344C34.9198 17.728 35.0158 17.824 35.3998 17.824H38.8558C39.2398 17.824 39.3358 17.728 39.3358 17.344V14.464C39.3358 14.176 39.2398 13.984 38.8558 13.984ZM38.8558 19.456H35.3998C35.1118 19.456 34.9198 19.552 34.9198 19.936V22.816C34.9198 23.104 35.0158 23.296 35.3998 23.296H38.8558C39.2398 23.296 39.3358 23.104 39.3358 22.816V19.936C39.3358 19.552 39.2398 19.36 38.8558 19.456ZM38.8558 19.456H35.3998C35.1118 19.456 34.9198 19.552 34.9198 19.936V22.816C34.9198 23.104 35.0158 23.296 35.3998 23.296H38.8558C39.2398 23.296 39.3358 23.104 39.3358 22.816V19.936C39.3358 19.552 39.2398 19.36 38.8558 19.456ZM38.8558 13.984H35.3998C35.1118 13.984 34.9198 14.08 34.9198 14.464V17.344C34.9198 17.728 35.0158 17.824 35.3998 17.824H38.8558C39.2398 17.824 39.3358 17.728 39.3358 17.344V14.464C39.3358 14.176 39.2398 13.984 38.8558 13.984ZM32.9038 25.024H29.3518C29.0638 25.024 28.9678 25.12 28.9678 25.408V28.288C28.9678 28.576 29.0638 28.768 29.4478 28.768H32.9038C33.2878 28.768 33.3838 28.576 33.3838 28.288V25.504C33.3838 25.12 33.2878 25.024 32.9038 25.024ZM32.9038 19.456H29.4478C29.1598 19.456 28.9678 19.552 28.9678 19.936V22.816C28.9678 23.104 29.1598 23.296 29.4478 23.296H32.9038C33.1918 23.296 33.3838 23.2 33.3838 22.816V19.936C33.3838 19.648 33.2878 19.456 32.9038 19.456ZM32.9998 13.984H29.3518C29.0638 13.984 28.9678 14.08 28.9678 14.368V17.344C28.9678 17.632 29.1598 17.728 29.4478 17.728H32.9998C33.2878 17.728 33.3838 17.632 33.3838 17.344V14.368C33.3838 14.08 33.2878 13.984 32.9998 13.984ZM25.7998 13.6H22.4398C22.1518 13.6 22.0558 13.696 22.0558 13.984V17.344C22.0558 17.632 22.1518 17.728 22.4398 17.728H25.7038C25.9918 17.728 26.1838 17.632 26.1838 17.344V13.984C26.1838 13.696 26.0878 13.6 25.7998 13.6ZM25.7998 8.22398H22.4398C22.1518 8.22398 22.0558 8.31998 22.0558 8.60798V11.968C21.9598 12.16 22.0558 12.256 22.2478 12.352C22.2478 12.352 22.3438 12.352 22.4398 12.352H25.7998C26.0878 12.352 26.1838 12.256 26.1838 11.968V8.60798C26.1838 8.31998 26.0878 8.22398 25.7998 8.22398ZM19.6558 8.22398H16.3918C16.1038 8.22398 16.0078 8.31998 16.0078 8.60798V11.872C16.0078 12.16 16.1998 12.352 16.4878 12.352H19.7518C20.0398 12.352 20.2318 12.256 20.2318 11.872V8.60798C20.1358 8.31998 19.9438 8.22398 19.6558 8.22398ZM19.7518 13.6H16.3918C16.1038 13.6 16.0078 13.696 16.0078 13.984V17.344C16.0078 17.632 16.1038 17.728 16.3918 17.728H19.7518C20.0398 17.728 20.1358 17.632 20.1358 17.344V13.984C20.1358 13.696 20.0398 13.6 19.7518 13.6ZM19.7518 13.6H16.3918C16.1038 13.6 16.0078 13.696 16.0078 13.984V17.344C16.0078 17.632 16.1038 17.728 16.3918 17.728H19.7518C20.0398 17.728 20.1358 17.632 20.1358 17.344V13.984C20.1358 13.696 20.0398 13.6 19.7518 13.6ZM19.6558 8.22398H16.3918C16.1038 8.22398 16.0078 8.31998 16.0078 8.60798V11.872C16.0078 12.16 16.1998 12.352 16.4878 12.352H19.7518C20.0398 12.352 20.2318 12.256 20.2318 11.872V8.60798C20.1358 8.31998 19.9438 8.22398 19.6558 8.22398ZM25.7998 8.22398H22.4398C22.1518 8.22398 22.0558 8.31998 22.0558 8.60798V11.968C21.9598 12.16 22.0558 12.256 22.2478 12.352C22.2478 12.352 22.3438 12.352 22.4398 12.352H25.7998C26.0878 12.352 26.1838 12.256 26.1838 11.968V8.60798C26.1838 8.31998 26.0878 8.22398 25.7998 8.22398ZM25.7998 13.6H22.4398C22.1518 13.6 22.0558 13.696 22.0558 13.984V17.344C22.0558 17.632 22.1518 17.728 22.4398 17.728H25.7038C25.9918 17.728 26.1838 17.632 26.1838 17.344V13.984C26.1838 13.696 26.0878 13.6 25.7998 13.6ZM32.9998 13.984H29.3518C29.0638 13.984 28.9678 14.08 28.9678 14.368V17.344C28.9678 17.632 29.1598 17.728 29.4478 17.728H32.9998C33.2878 17.728 33.3838 17.632 33.3838 17.344V14.368C33.3838 14.08 33.2878 13.984 32.9998 13.984ZM32.9038 19.456H29.4478C29.1598 19.456 28.9678 19.552 28.9678 19.936V22.816C28.9678 23.104 29.1598 23.296 29.4478 23.296H32.9038C33.1918 23.296 33.3838 23.2 33.3838 22.816V19.936C33.3838 19.648 33.2878 19.456 32.9038 19.456ZM32.9038 25.024H29.3518C29.0638 25.024 28.9678 25.12 28.9678 25.408V28.288C28.9678 28.576 29.0638 28.768 29.4478 28.768H32.9038C33.2878 28.768 33.3838 28.576 33.3838 28.288V25.504C33.3838 25.12 33.2878 25.024 32.9038 25.024ZM38.8558 13.984H35.3998C35.1118 13.984 34.9198 14.08 34.9198 14.464V17.344C34.9198 17.728 35.0158 17.824 35.3998 17.824H38.8558C39.2398 17.824 39.3358 17.728 39.3358 17.344V14.464C39.3358 14.176 39.2398 13.984 38.8558 13.984ZM38.8558 19.456H35.3998C35.1118 19.456 34.9198 19.552 34.9198 19.936V22.816C34.9198 23.104 35.0158 23.296 35.3998 23.296H38.8558C39.2398 23.296 39.3358 23.104 39.3358 22.816V19.936C39.3358 19.552 39.2398 19.36 38.8558 19.456ZM38.8558 19.456H35.3998C35.1118 19.456 34.9198 19.552 34.9198 19.936V22.816C34.9198 23.104 35.0158 23.296 35.3998 23.296H38.8558C39.2398 23.296 39.3358 23.104 39.3358 22.816V19.936C39.3358 19.552 39.2398 19.36 38.8558 19.456ZM38.8558 13.984H35.3998C35.1118 13.984 34.9198 14.08 34.9198 14.464V17.344C34.9198 17.728 35.0158 17.824 35.3998 17.824H38.8558C39.2398 17.824 39.3358 17.728 39.3358 17.344V14.464C39.3358 14.176 39.2398 13.984 38.8558 13.984ZM32.9038 25.024H29.3518C29.0638 25.024 28.9678 25.12 28.9678 25.408V28.288C28.9678 28.576 29.0638 28.768 29.4478 28.768H32.9038C33.2878 28.768 33.3838 28.576 33.3838 28.288V25.504C33.3838 25.12 33.2878 25.024 32.9038 25.024ZM32.9038 19.456H29.4478C29.1598 19.456 28.9678 19.552 28.9678 19.936V22.816C28.9678 23.104 29.1598 23.296 29.4478 23.296H32.9038C33.1918 23.296 33.3838 23.2 33.3838 22.816V19.936C33.3838 19.648 33.2878 19.456 32.9038 19.456ZM32.9998 13.984H29.3518C29.0638 13.984 28.9678 14.08 28.9678 14.368V17.344C28.9678 17.632 29.1598 17.728 29.4478 17.728H32.9998C33.2878 17.728 33.3838 17.632 33.3838 17.344V14.368C33.3838 14.08 33.2878 13.984 32.9998 13.984ZM25.7998 13.6H22.4398C22.1518 13.6 22.0558 13.696 22.0558 13.984V17.344C22.0558 17.632 22.1518 17.728 22.4398 17.728H25.7038C25.9918 17.728 26.1838 17.632 26.1838 17.344V13.984C26.1838 13.696 26.0878 13.6 25.7998 13.6ZM25.7998 8.22398H22.4398C22.1518 8.22398 22.0558 8.31998 22.0558 8.60798V11.968C21.9598 12.16 22.0558 12.256 22.2478 12.352C22.2478 12.352 22.3438 12.352 22.4398 12.352H25.7998C26.0878 12.352 26.1838 12.256 26.1838 11.968V8.60798C26.1838 8.31998 26.0878 8.22398 25.7998 8.22398ZM19.6558 8.22398H16.3918C16.1038 8.22398 16.0078 8.31998 16.0078 8.60798V11.872C16.0078 12.16 16.1998 12.352 16.4878 12.352H19.7518C20.0398 12.352 20.2318 12.256 20.2318 11.872V8.60798C20.1358 8.31998 19.9438 8.22398 19.6558 8.22398ZM19.7518 13.6H16.3918C16.1038 13.6 16.0078 13.696 16.0078 13.984V17.344C16.0078 17.632 16.1038 17.728 16.3918 17.728H19.7518C20.0398 17.728 20.1358 17.632 20.1358 17.344V13.984C20.1358 13.696 20.0398 13.6 19.7518 13.6ZM19.7518 13.6H16.3918C16.1038 13.6 16.0078 13.696 16.0078 13.984V17.344C16.0078 17.632 16.1038 17.728 16.3918 17.728H19.7518C20.0398 17.728 20.1358 17.632 20.1358 17.344V13.984C20.1358 13.696 20.0398 13.6 19.7518 13.6ZM19.6558 8.22398H16.3918C16.1038 8.22398 16.0078 8.31998 16.0078 8.60798V11.872C16.0078 12.16 16.1998 12.352 16.4878 12.352H19.7518C20.0398 12.352 20.2318 12.256 20.2318 11.872V8.60798C20.1358 8.31998 19.9438 8.22398 19.6558 8.22398ZM25.7998 8.22398H22.4398C22.1518 8.22398 22.0558 8.31998 22.0558 8.60798V11.968C21.9598 12.16 22.0558 12.256 22.2478 12.352C22.2478 12.352 22.3438 12.352 22.4398 12.352H25.7998C26.0878 12.352 26.1838 12.256 26.1838 11.968V8.60798C26.1838 8.31998 26.0878 8.22398 25.7998 8.22398ZM25.7998 13.6H22.4398C22.1518 13.6 22.0558 13.696 22.0558 13.984V17.344C22.0558 17.632 22.1518 17.728 22.4398 17.728H25.7038C25.9918 17.728 26.1838 17.632 26.1838 17.344V13.984C26.1838 13.696 26.0878 13.6 25.7998 13.6ZM32.9998 13.984H29.3518C29.0638 13.984 28.9678 14.08 28.9678 14.368V17.344C28.9678 17.632 29.1598 17.728 29.4478 17.728H32.9998C33.2878 17.728 33.3838 17.632 33.3838 17.344V14.368C33.3838 14.08 33.2878 13.984 32.9998 13.984ZM32.9038 19.456H29.4478C29.1598 19.456 28.9678 19.552 28.9678 19.936V22.816C28.9678 23.104 29.1598 23.296 29.4478 23.296H32.9038C33.1918 23.296 33.3838 23.2 33.3838 22.816V19.936C33.3838 19.648 33.2878 19.456 32.9038 19.456ZM32.9038 25.024H29.3518C29.0638 25.024 28.9678 25.12 28.9678 25.408V28.288C28.9678 28.576 29.0638 28.768 29.4478 28.768H32.9038C33.2878 28.768 33.3838 28.576 33.3838 28.288V25.504C33.3838 25.12 33.2878 25.024 32.9038 25.024ZM38.8558 13.984H35.3998C35.1118 13.984 34.9198 14.08 34.9198 14.464V17.344C34.9198 17.728 35.0158 17.824 35.3998 17.824H38.8558C39.2398 17.824 39.3358 17.728 39.3358 17.344V14.464C39.3358 14.176 39.2398 13.984 38.8558 13.984ZM38.8558 19.456H35.3998C35.1118 19.456 34.9198 19.552 34.9198 19.936V22.816C34.9198 23.104 35.0158 23.296 35.3998 23.296H38.8558C39.2398 23.296 39.3358 23.104 39.3358 22.816V19.936C39.3358 19.552 39.2398 19.36 38.8558 19.456ZM38.8558 13.984H35.3998C35.1118 13.984 34.9198 14.08 34.9198 14.464V17.344C34.9198 17.728 35.0158 17.824 35.3998 17.824H38.8558C39.2398 17.824 39.3358 17.728 39.3358 17.344V14.464C39.3358 14.176 39.2398 13.984 38.8558 13.984ZM38.8558 19.456H35.3998C35.1118 19.456 34.9198 19.552 34.9198 19.936V22.816C34.9198 23.104 35.0158 23.296 35.3998 23.296H38.8558C39.2398 23.296 39.3358 23.104 39.3358 22.816V19.936C39.3358 19.552 39.2398 19.36 38.8558 19.456ZM32.9038 25.024H29.3518C29.0638 25.024 28.9678 25.12 28.9678 25.408V28.288C28.9678 28.576 29.0638 28.768 29.4478 28.768H32.9038C33.2878 28.768 33.3838 28.576 33.3838 28.288V25.504C33.3838 25.12 33.2878 25.024 32.9038 25.024ZM32.9038 19.456H29.4478C29.1598 19.456 28.9678 19.552 28.9678 19.936V22.816C28.9678 23.104 29.1598 23.296 29.4478 23.296H32.9038C33.1918 23.296 33.3838 23.2 33.3838 22.816V19.936C33.3838 19.648 33.2878 19.456 32.9038 19.456ZM32.9998 13.984H29.3518C29.0638 13.984 28.9678 14.08 28.9678 14.368V17.344C28.9678 17.632 29.1598 17.728 29.4478 17.728H32.9998C33.2878 17.728 33.3838 17.632 33.3838 17.344V14.368C33.3838 14.08 33.2878 13.984 32.9998 13.984ZM25.7998 13.6H22.4398C22.1518 13.6 22.0558 13.696 22.0558 13.984V17.344C22.0558 17.632 22.1518 17.728 22.4398 17.728H25.7038C25.9918 17.728 26.1838 17.632 26.1838 17.344V13.984C26.1838 13.696 26.0878 13.6 25.7998 13.6ZM25.7998 8.22398H22.4398C22.1518 8.22398 22.0558 8.31998 22.0558 8.60798V11.968C21.9598 12.16 22.0558 12.256 22.2478 12.352C22.2478 12.352 22.3438 12.352 22.4398 12.352H25.7998C26.0878 12.352 26.1838 12.256 26.1838 11.968V8.60798C26.1838 8.31998 26.0878 8.22398 25.7998 8.22398ZM19.7518 13.6H16.3918C16.1038 13.6 16.0078 13.696 16.0078 13.984V17.344C16.0078 17.632 16.1038 17.728 16.3918 17.728H19.7518C20.0398 17.728 20.1358 17.632 20.1358 17.344V13.984C20.1358 13.696 20.0398 13.6 19.7518 13.6ZM19.7518 13.6H16.3918C16.1038 13.6 16.0078 13.696 16.0078 13.984V17.344C16.0078 17.632 16.1038 17.728 16.3918 17.728H19.7518C20.0398 17.728 20.1358 17.632 20.1358 17.344V13.984C20.1358 13.696 20.0398 13.6 19.7518 13.6ZM25.7998 8.22398H22.4398C22.1518 8.22398 22.0558 8.31998 22.0558 8.60798V11.968C22.0558 12.16 22.1518 12.256 22.2478 12.352C22.2478 12.352 22.3438 12.352 22.4398 12.352H25.7998C26.0878 12.352 26.1838 12.256 26.1838 11.968V8.60798C26.1838 8.31998 26.0878 8.22398 25.7998 8.22398ZM25.7998 13.6H22.4398C22.1518 13.6 22.0558 13.696 22.0558 13.984V17.344C22.0558 17.632 22.1518 17.728 22.4398 17.728H25.7038C25.9918 17.728 26.1838 17.632 26.1838 17.344V13.984C26.1838 13.696 26.0878 13.6 25.7998 13.6ZM25.7998 13.6H22.4398C22.1518 13.6 22.0558 13.696 22.0558 13.984V17.344C22.0558 17.632 22.1518 17.728 22.4398 17.728H25.7038C25.9918 17.728 26.1838 17.632 26.1838 17.344V13.984C26.1838 13.696 26.0878 13.6 25.7998 13.6ZM25.7998 8.22398H22.4398C22.1518 8.22398 22.0558 8.31998 22.0558 8.60798V11.968C22.0558 12.16 22.1518 12.256 22.2478 12.352C22.2478 12.352 22.3438 12.352 22.4398 12.352H25.7998C26.0878 12.352 26.1838 12.256 26.1838 11.968V8.60798C26.1838 8.31998 26.0878 8.22398 25.7998 8.22398ZM19.7518 13.6H16.3918C16.1038 13.6 16.0078 13.696 16.0078 13.984V17.344C16.0078 17.632 16.1038 17.728 16.3918 17.728H19.7518C20.0398 17.728 20.1358 17.632 20.1358 17.344V13.984C20.1358 13.696 20.0398 13.6 19.7518 13.6ZM26.3758 3.23198V6.39998C26.3758 6.59198 26.3758 6.78398 26.1838 6.78398C26.0878 6.87998 25.9918 6.87998 25.7998 6.87998H22.5358C22.1518 6.87998 22.0558 6.68798 22.0558 6.39998V3.03998C22.0558 2.75198 22.1518 2.55998 22.5358 2.55998H25.7998C26.0878 2.55998 26.2798 2.65598 26.2798 2.75198C26.4718 2.94398 26.3758 3.03998 26.3758 3.23198ZM38.8558 28.768C37.7038 28.768 36.5518 28.768 35.3998 28.768C35.0158 28.768 34.9198 28.672 34.9198 28.288C34.9198 27.328 34.9198 26.464 34.9198 25.504C34.9198 25.12 35.1118 25.024 35.3998 25.024C35.9758 25.024 36.5518 25.024 37.1278 25.024C37.7038 25.024 38.2798 25.024 38.8558 25.024C39.1438 25.024 39.3358 25.12 39.3358 25.504C39.3358 26.464 39.3358 27.424 39.3358 28.384C39.3358 28.672 39.1438 28.768 38.8558 28.768Z" fill="#361452"/>
<path d="M28.9678 17.3439C28.9678 16.3839 28.9678 15.4239 28.9678 14.3679C28.9678 14.0799 29.0638 13.9839 29.3518 13.9839C30.5998 13.9839 31.7518 13.9839 32.9998 13.9839C33.2878 13.9839 33.3838 14.0799 33.3838 14.3679C33.3838 15.3279 33.3838 16.3839 33.3838 17.3439C33.3838 17.6319 33.2878 17.7279 32.9998 17.7279C32.4238 17.7279 31.7518 17.7279 31.1758 17.7279C30.5998 17.7279 30.0238 17.7279 29.4478 17.7279C29.1598 17.7279 28.9678 17.6319 28.9678 17.3439Z" fill="#FEFEFE"/>
<path d="M28.9678 22.8161C28.9678 21.8561 28.9678 20.8961 28.9678 19.9361C28.9678 19.6481 29.0638 19.4561 29.4478 19.4561C30.5998 19.4561 31.7518 19.4561 32.9038 19.4561C33.2878 19.4561 33.3838 19.6481 33.3838 19.9361C33.3838 20.8961 33.3838 21.8561 33.3838 22.8161C33.3838 23.1041 33.2878 23.2961 32.9038 23.2961C32.3278 23.2961 31.7518 23.2961 31.1758 23.2961C30.5998 23.2961 30.0238 23.2961 29.4478 23.2961C29.1598 23.2961 28.9678 23.1041 28.9678 22.8161Z" fill="#FEFEFE"/>
<path d="M33.3838 28.2879C33.3838 28.6719 33.2878 28.7679 32.9038 28.7679C31.7518 28.7679 30.5998 28.7679 29.4478 28.7679C29.1598 28.7679 28.9678 28.6719 28.9678 28.2879C28.9678 27.3279 28.9678 26.3679 28.9678 25.4079C28.9678 25.1199 29.0638 25.0239 29.3518 25.0239C29.9278 25.0239 30.5998 25.0239 31.1758 25.0239C31.7518 25.0239 32.3278 25.0239 32.9038 25.0239C33.2878 25.0239 33.3838 25.2159 33.3838 25.5039C33.3838 26.4639 33.3838 27.3279 33.3838 28.2879Z" fill="#FEFEFE"/>
<path d="M39.3359 22.8161C39.3359 23.1041 39.2399 23.2961 38.8559 23.2961C37.7039 23.2961 36.5519 23.2961 35.3999 23.2961C35.1119 23.2961 34.9199 23.2001 34.9199 22.8161C34.9199 21.8561 34.9199 20.8961 34.9199 19.9361C34.9199 19.6481 35.0159 19.4561 35.3999 19.4561C35.9759 19.4561 36.5519 19.4561 37.1279 19.4561C37.7039 19.4561 38.2799 19.4561 38.8559 19.4561C39.2399 19.4561 39.3359 19.6481 39.3359 19.9361C39.3359 20.8961 39.3359 21.8561 39.3359 22.8161Z" fill="#FEFEFE"/>
<path d="M34.9199 17.2479C34.9199 16.2879 34.9199 15.3279 34.9199 14.3679C34.9199 14.0799 35.0159 13.8879 35.3999 13.8879C36.5519 13.8879 37.7039 13.8879 38.8559 13.8879C39.1439 13.8879 39.3359 13.9839 39.3359 14.3679C39.3359 15.3279 39.3359 16.2879 39.3359 17.2479C39.3359 17.6319 39.1439 17.7279 38.8559 17.7279C38.2799 17.7279 37.7039 17.7279 37.1279 17.7279C36.5519 17.7279 35.9759 17.7279 35.3999 17.7279C35.0159 17.7279 34.9199 17.6319 34.9199 17.2479Z" fill="#FEFEFE"/>
<path d="M2.75977 28.3839C2.75977 27.4239 2.75977 26.3679 2.75977 25.4079C2.75977 25.1199 2.85577 25.0239 3.14377 25.0239C4.39177 25.0239 5.54377 25.0239 6.79177 25.0239C7.07977 25.0239 7.17577 25.1199 7.17577 25.4079C7.07977 26.3679 7.07977 27.4239 7.07977 28.3839C7.07977 28.6719 6.98377 28.7679 6.69577 28.7679C6.11977 28.7679 5.44777 28.7679 4.87177 28.7679C4.29577 28.7679 3.71977 28.7679 3.14377 28.7679" fill="#FEFEFE"/>
<path d="M7.08006 17.3441C7.08006 17.6321 6.98406 17.8241 6.60006 17.8241C6.02406 17.8241 5.44806 17.8241 4.87206 17.8241C4.29606 17.8241 3.62406 17.8241 3.04806 17.8241C2.76006 17.8241 2.66406 17.7281 2.66406 17.4401C2.66406 16.4801 2.66406 15.5201 2.66406 14.5601C2.66406 14.2721 2.85606 14.0801 3.14406 14.0801C4.29606 14.0801 5.44806 14.0801 6.60006 14.0801C6.88806 14.0801 7.08006 14.1761 7.08006 14.5601C7.08006 15.4241 7.08006 16.3841 7.08006 17.3441Z" fill="#FEFEFE"/>
<path d="M13.0322 19.9361C13.0322 20.8961 13.0322 21.8561 13.0322 22.8161C13.0322 23.1041 12.9362 23.2961 12.5522 23.2961C11.4002 23.2961 10.2482 23.2961 9.09621 23.2961C8.80821 23.2961 8.61621 23.2001 8.61621 22.8161C8.61621 21.8561 8.61621 20.8961 8.61621 19.9361C8.61621 19.6481 8.71221 19.4561 9.09621 19.4561C9.67221 19.4561 10.2482 19.4561 10.8242 19.4561C11.4002 19.4561 11.9762 19.4561 12.5522 19.4561C12.8402 19.4561 13.0322 19.5521 13.0322 19.9361Z" fill="#FEFEFE"/>
<path d="M12.5522 28.7679C11.4002 28.7679 10.2482 28.7679 9.09621 28.7679C8.71221 28.7679 8.61621 28.6719 8.61621 28.2879C8.61621 27.3279 8.61621 26.4639 8.61621 25.5039C8.61621 25.1199 8.80821 25.0239 9.09621 25.0239C9.67221 25.0239 10.2482 25.0239 10.8242 25.0239C11.4002 25.0239 11.9762 25.0239 12.5522 25.0239C12.8402 25.0239 13.0322 25.1199 13.0322 25.5039C13.0322 26.4639 13.0322 27.4239 13.0322 28.3839C13.0322 28.6719 12.8402 28.7679 12.5522 28.7679Z" fill="#FEFEFE"/>
<path d="M20.1358 13.9841C20.1358 15.1361 20.1358 16.1921 20.1358 17.3441C20.1358 17.6321 20.0398 17.7281 19.7518 17.7281C18.5998 17.7281 17.5438 17.7281 16.3918 17.7281C16.1038 17.7281 16.0078 17.6321 16.0078 17.3441C16.0078 16.7681 16.0078 16.1921 16.0078 15.6161C16.0078 15.0401 16.0078 14.5601 16.0078 13.9841C16.0078 13.6961 16.1038 13.6001 16.3918 13.6001C17.5438 13.6001 18.5998 13.6001 19.7518 13.6001C20.0398 13.6001 20.1358 13.6961 20.1358 13.9841Z" fill="#FEFEFE"/>
<path d="M20.1361 3.23201C20.1361 4.28801 20.1361 5.34401 20.1361 6.40001C20.1361 6.78401 20.0401 6.88001 19.6561 6.88001C19.0801 6.88001 18.6001 6.88001 18.0241 6.88001C17.4481 6.88001 16.9681 6.88001 16.3921 6.88001C16.1041 6.88001 15.9121 6.78401 15.9121 6.40001C15.9121 5.34401 15.9121 4.28801 15.9121 3.13601C15.9121 2.84801 16.0081 2.65601 16.3921 2.65601C17.4481 2.65601 18.6001 2.65601 19.6561 2.65601C20.0401 2.75201 20.1361 2.94401 20.1361 3.23201Z" fill="#FEFEFE"/>
<path d="M22.0562 11.9679C22.0562 11.3919 22.0562 10.8159 22.0562 10.2399C22.0562 9.66388 22.0562 9.18388 22.0562 8.60788C22.0562 8.31988 22.1522 8.22388 22.4402 8.22388C23.5922 8.22388 24.6482 8.22388 25.8002 8.22388C26.0882 8.22388 26.1842 8.31988 26.1842 8.60788C26.1842 9.75988 26.1842 10.8159 26.1842 11.9679C26.1842 12.2559 25.9922 12.3519 25.8002 12.3519C24.6482 12.3519 23.5922 12.3519 22.4402 12.3519C22.1522 12.3519 21.9602 12.2559 22.0562 11.9679Z" fill="#FEFEFE"/>
<path d="M26.1837 17.3441C26.1837 17.6321 25.9917 17.7281 25.7037 17.7281C24.6477 17.7281 23.4957 17.7281 22.4397 17.7281C22.1517 17.7281 22.0557 17.6321 22.0557 17.3441C22.0557 16.7681 22.0557 16.1921 22.0557 15.6161C22.0557 15.0401 22.0557 14.5601 22.0557 13.9841C22.0557 13.6961 22.1517 13.6001 22.4397 13.6001C23.5917 13.6001 24.6477 13.6001 25.7997 13.6001C26.0877 13.6001 26.1837 13.6961 26.1837 13.9841C26.1837 15.1361 26.1837 16.1921 26.1837 17.3441Z" fill="#FEFEFE"/>
<path d="M21.0002 30.3999C20.3282 30.3999 19.5602 30.3999 18.8882 30.3999C18.6962 30.3999 18.6002 30.3999 18.6002 30.2079C18.6002 28.9599 18.5042 27.6159 18.6962 26.3679C18.8882 24.7359 20.9042 23.7759 22.3442 24.7359C23.1122 25.2159 23.4002 25.9839 23.4002 26.8479C23.4002 27.9999 23.4002 29.0559 23.4002 30.2079C23.4002 30.4959 23.3042 30.4959 23.0162 30.4959C22.3442 30.3999 21.6722 30.3999 21.0002 30.3999Z" fill="white"/>
<path d="M27.2401 21.088C27.1441 21.184 26.9521 21.184 26.8561 21.184C22.9201 21.184 18.9841 21.184 15.0481 21.184C14.7601 21.184 14.6641 21.088 14.6641 20.8C14.6641 20.512 14.6641 20.224 14.6641 19.936C14.7601 19.84 14.9521 19.936 15.0481 19.936C18.9841 19.936 22.8241 19.936 26.7601 19.936C27.2401 19.936 27.2401 19.936 27.2401 20.416C27.2401 20.512 27.3361 20.8 27.2401 21.088Z" fill="white"/>
<path d="M27.2401 21.0879C27.2401 20.7999 27.2401 20.5119 27.2401 20.2239C27.2401 19.9359 27.1441 19.9359 26.8561 19.9359C26.3761 19.9359 25.8961 19.9359 25.4161 19.9359C21.8641 19.9359 18.2161 19.9359 14.6641 19.9359C14.7601 19.7439 14.8561 19.8399 15.0481 19.8399C18.9841 19.8399 22.9201 19.8399 26.9521 19.8399C27.2401 19.8399 27.3361 19.9359 27.3361 20.2239C27.2401 20.4159 27.4321 20.7039 27.2401 21.0879Z" fill="#FEF0DD"/>
<path d="M39.3359 22.8161C39.3359 23.1041 39.2399 23.2961 38.8559 23.2961C37.7039 23.2961 36.5519 23.2961 35.3999 23.2961C35.1119 23.2961 34.9199 23.2001 34.9199 22.8161C34.9199 21.8561 34.9199 20.8961 34.9199 19.9361C34.9199 19.6481 35.0159 19.4561 35.3999 19.4561C35.9759 19.4561 36.5519 19.4561 37.1279 19.4561C37.7039 19.4561 38.2799 19.4561 38.8559 19.4561C39.2399 19.4561 39.3359 19.6481 39.3359 19.9361C39.3359 20.8961 39.3359 21.8561 39.3359 22.8161Z" fill="#361452"/>
<path d="M33.3838 22.8161C33.3838 23.1041 33.2878 23.2961 32.9038 23.2961C32.3278 23.2961 31.7518 23.2961 31.1758 23.2961C30.5998 23.2961 30.0238 23.2961 29.4478 23.2961C29.0638 23.2961 28.9678 23.2001 28.9678 22.8161C28.9678 21.8561 28.9678 20.8961 28.9678 19.9361C28.9678 19.6481 29.0638 19.4561 29.4478 19.4561C30.5998 19.4561 31.7518 19.4561 32.9038 19.4561C33.2878 19.4561 33.3838 19.6481 33.3838 19.9361C33.3838 20.8961 33.3838 21.8561 33.3838 22.8161Z" fill="#361452"/>
<path d="M38.8559 17.7279C38.2799 17.7279 37.7039 17.7279 37.1279 17.7279C36.5519 17.7279 35.9759 17.7279 35.3999 17.7279C35.0159 17.7279 34.9199 17.6319 34.9199 17.2479C34.9199 16.2879 34.9199 15.3279 34.9199 14.3679C34.9199 14.0799 35.0159 13.8879 35.3999 13.8879C36.5519 13.8879 37.7039 13.8879 38.8559 13.8879C39.1439 13.8879 39.3359 13.9839 39.3359 14.3679C39.3359 15.3279 39.3359 16.2879 39.3359 17.2479C39.3359 17.6319 39.1439 17.7279 38.8559 17.7279Z" fill="#361452"/>
<path d="M33.3835 17.3439C33.3835 17.6319 33.2875 17.7279 32.9995 17.7279C32.4235 17.7279 31.7515 17.7279 31.1755 17.7279C30.5995 17.7279 30.0235 17.7279 29.4475 17.7279C29.1595 17.7279 29.0635 17.6319 29.0635 17.3439C29.0635 16.3839 29.0635 15.4239 29.0635 14.3679C29.0635 14.0799 29.1595 13.9839 29.4475 13.9839C30.6955 13.9839 31.8475 13.9839 33.0955 13.9839C33.3835 13.9839 33.4795 14.0799 33.4795 14.3679C33.3835 15.3279 33.3835 16.3839 33.3835 17.3439Z" fill="#361452"/>
<path d="M32.9038 28.7679C31.7518 28.7679 30.5998 28.7679 29.4478 28.7679C29.1598 28.7679 28.9678 28.6719 28.9678 28.2879C28.9678 27.3279 28.9678 26.3679 28.9678 25.4079C28.9678 25.1199 29.0638 25.0239 29.3518 25.0239C29.9278 25.0239 30.5998 25.0239 31.1758 25.0239C31.7518 25.0239 32.3278 25.0239 32.9038 25.0239C33.2878 25.0239 33.3838 25.2159 33.3838 25.5039C33.3838 26.4639 33.3838 27.3279 33.3838 28.2879C33.3838 28.6719 33.2878 28.7679 32.9038 28.7679Z" fill="#361452"/>
<path d="M13.0322 22.8161C13.0322 23.1041 12.9362 23.2961 12.5522 23.2961C11.4002 23.2961 10.2482 23.2961 9.09621 23.2961C8.80821 23.2961 8.61621 23.2001 8.61621 22.8161C8.61621 21.8561 8.61621 20.8961 8.61621 19.9361C8.61621 19.6481 8.71221 19.4561 9.09621 19.4561C9.67221 19.4561 10.2482 19.4561 10.8242 19.4561C11.4002 19.4561 11.9762 19.4561 12.5522 19.4561C12.9362 19.4561 13.0322 19.5521 13.0322 19.9361C13.0322 20.8961 13.0322 21.8561 13.0322 22.8161Z" fill="#361452"/>
<path d="M7.17577 28.3839C7.17577 28.6719 6.98377 28.7679 6.69577 28.7679C6.11977 28.7679 5.44777 28.7679 4.87177 28.7679C4.29577 28.7679 3.71977 28.7679 3.14377 28.7679C2.85577 28.7679 2.75977 28.7679 2.75977 28.3839C2.75977 27.4239 2.75977 26.3679 2.75977 25.4079C2.75977 25.1199 2.85577 25.0239 3.14377 25.0239C4.39177 25.0239 5.54377 25.0239 6.79177 25.0239C7.07977 25.0239 7.17577 25.1199 7.17577 25.4079C7.17577 26.3679 7.17577 27.4239 7.17577 28.3839Z" fill="#361452"/>
<path d="M7.08006 17.3441C7.08006 17.6321 6.98406 17.8241 6.60006 17.8241C6.02406 17.8241 5.44806 17.8241 4.87206 17.8241C4.29606 17.8241 3.62406 17.8241 3.04806 17.8241C2.76006 17.8241 2.66406 17.7281 2.66406 17.4401C2.66406 16.4801 2.66406 15.5201 2.66406 14.5601C2.66406 14.2721 2.85606 14.0801 3.14406 14.0801C4.29606 14.0801 5.44806 14.0801 6.60006 14.0801C6.88806 14.0801 7.08006 14.1761 7.08006 14.5601C7.08006 15.4241 7.08006 16.3841 7.08006 17.3441Z" fill="#361452"/>
<path d="M13.1279 17.3441C13.1279 17.6321 12.9359 17.8241 12.5519 17.8241C11.9759 17.8241 11.3999 17.8241 10.8239 17.8241C10.2479 17.8241 9.67191 17.8241 9.09591 17.8241C8.80791 17.8241 8.71191 17.7281 8.71191 17.4401C8.71191 16.4801 8.71191 15.5201 8.71191 14.5601C8.71191 14.2721 8.80791 14.0801 9.19191 14.0801C10.3439 14.0801 11.4959 14.0801 12.6479 14.0801C13.0319 14.0801 13.1279 14.1761 13.1279 14.5601C13.1279 15.5201 13.1279 16.3841 13.1279 17.3441Z" fill="#361452"/>
<path d="M12.5522 28.7679C11.4002 28.7679 10.2482 28.7679 9.09621 28.7679C8.71221 28.7679 8.61621 28.6719 8.61621 28.2879C8.61621 27.3279 8.61621 26.4639 8.61621 25.5039C8.61621 25.1199 8.80821 25.0239 9.09621 25.0239C9.67221 25.0239 10.2482 25.0239 10.8242 25.0239C11.4002 25.0239 11.9762 25.0239 12.5522 25.0239C12.8402 25.0239 13.0322 25.1199 13.0322 25.5039C13.0322 26.4639 13.0322 27.4239 13.0322 28.3839C13.0322 28.6719 12.8402 28.7679 12.5522 28.7679Z" fill="#361452"/>
<path d="M26.1837 11.9679C26.1837 12.2559 25.9917 12.3519 25.7997 12.3519C24.6477 12.3519 23.5917 12.3519 22.4397 12.3519C22.1517 12.3519 22.0557 12.2559 22.0557 11.9679C22.0557 11.3919 22.0557 10.8159 22.0557 10.2399C22.0557 9.66388 22.0557 9.18388 22.0557 8.60788C22.0557 8.31988 22.1517 8.22388 22.4397 8.22388C23.5917 8.22388 24.6477 8.22388 25.7997 8.22388C26.0877 8.22388 26.1837 8.31988 26.1837 8.60788C26.1837 9.66388 26.1837 10.8159 26.1837 11.9679Z" fill="#361552"/>
<path d="M26.1837 17.3441C26.1837 17.6321 25.9917 17.7281 25.7037 17.7281C24.6477 17.7281 23.4957 17.7281 22.4397 17.7281C22.1517 17.7281 22.0557 17.6321 22.0557 17.3441C22.0557 16.7681 22.0557 16.1921 22.0557 15.6161C22.0557 15.0401 22.0557 14.5601 22.0557 13.9841C22.0557 13.6961 22.1517 13.6001 22.4397 13.6001C23.5917 13.6001 24.6477 13.6001 25.7997 13.6001C26.0877 13.6001 26.1837 13.6961 26.1837 13.9841C26.1837 15.1361 26.1837 16.1921 26.1837 17.3441Z" fill="#361452"/>
<path d="M20.1358 17.3441C20.1358 17.6321 20.0398 17.7281 19.7518 17.7281C18.5998 17.7281 17.5438 17.7281 16.3918 17.7281C16.1038 17.7281 16.0078 17.6321 16.0078 17.3441C16.0078 16.7681 16.0078 16.1921 16.0078 15.6161C16.0078 15.0401 16.0078 14.5601 16.0078 13.9841C16.0078 13.6961 16.1038 13.6001 16.3918 13.6001C17.5438 13.6001 18.5998 13.6001 19.7518 13.6001C20.0398 13.6001 20.1358 13.6961 20.1358 13.9841C20.1358 15.1361 20.1358 16.1921 20.1358 17.3441Z" fill="#361452"/>
<path d="M20.1361 6.40001C20.1361 6.78401 20.0401 6.88001 19.6561 6.88001C19.0801 6.88001 18.6001 6.88001 18.0241 6.88001C17.4481 6.88001 16.9681 6.88001 16.3921 6.88001C16.1041 6.88001 15.9121 6.78401 15.9121 6.40001C15.9121 5.34401 15.9121 4.28801 15.9121 3.13601C15.9121 2.84801 16.0081 2.65601 16.3921 2.65601C17.4481 2.65601 18.6001 2.65601 19.6561 2.65601C20.0401 2.65601 20.1361 2.75201 20.1361 3.13601C20.1361 4.28801 20.1361 5.34401 20.1361 6.40001Z" fill="#361452"/>
<path d="M38.6638 22.624C37.7038 22.624 36.7438 22.624 35.8798 22.624C35.6878 22.624 35.5918 22.528 35.5918 22.336C35.5918 21.664 35.5918 20.992 35.5918 20.32C35.5918 20.128 35.6878 20.032 35.8798 20.032C36.8398 20.032 37.7998 20.032 38.6638 20.032C38.6638 20.896 38.6638 21.76 38.6638 22.624Z" fill="white"/>
<path d="M38.6641 22.6239C38.6641 21.7599 38.6641 20.9919 38.6641 20.1279C38.7601 20.1279 38.7601 20.3199 38.7601 20.3199C38.7601 20.9919 38.7601 21.6639 38.7601 22.3359C38.7601 22.4319 38.7601 22.5279 38.6641 22.6239Z" fill="#F4BC75"/>
<path d="M31.1756 22.624C30.7916 22.624 30.3116 22.624 29.9276 22.624C29.7356 22.624 29.6396 22.528 29.6396 22.336C29.6396 21.664 29.6396 20.992 29.6396 20.32C29.6396 20.128 29.7356 20.032 29.9276 20.032C30.7916 20.032 31.7516 20.032 32.6156 20.032C32.8076 20.032 32.9036 20.128 32.9036 20.32C32.9036 20.992 32.9036 21.664 32.9036 22.336C32.9036 22.528 32.8076 22.624 32.6156 22.624C32.0396 22.624 31.6556 22.624 31.1756 22.624Z" fill="white"/>
<path d="M35.5915 17.0559C35.4955 16.2879 35.5915 15.4239 35.5915 14.6559C36.2635 14.5599 36.9355 14.6559 37.7035 14.6559C37.9915 14.6559 38.4715 14.5599 38.6635 14.7519C38.8555 14.9439 38.7595 15.4239 38.7595 15.7119C38.7595 16.0959 38.7595 16.4799 38.7595 16.9599C38.7595 17.0559 38.7595 17.2479 38.5675 17.2479C37.5115 17.1519 36.5515 17.1519 35.5915 17.0559Z" fill="white"/>
<path d="M35.5918 17.0561C36.4558 17.0561 37.4158 17.0561 38.2798 17.0561C38.5678 17.0561 38.6638 16.9601 38.6638 16.6721C38.6638 16.0961 38.6638 15.5201 38.6638 14.9441C38.6638 14.6561 38.5678 14.6561 38.3758 14.6561C37.4158 14.6561 36.5518 14.6561 35.5918 14.6561C35.6878 14.5601 35.7838 14.5601 35.8798 14.5601C36.7438 14.5601 37.5118 14.5601 38.3758 14.5601C38.6638 14.5601 38.7598 14.6561 38.7598 14.9441C38.7598 15.6161 38.7598 16.2881 38.7598 16.8641C38.7598 17.0561 38.7598 17.1521 38.5678 17.1521C37.5118 17.1521 36.6478 17.1521 35.5918 17.0561C35.6878 17.1521 35.5918 17.1521 35.5918 17.0561Z" fill="#F4BC75"/>
<path d="M31.1756 14.5601C31.6556 14.5601 32.0396 14.5601 32.5196 14.5601C32.8076 14.5601 32.8076 14.6561 32.8076 14.8481C32.8076 15.5201 32.8076 16.1921 32.8076 16.7681C32.8076 16.9601 32.7116 17.0561 32.5196 17.0561C31.6556 17.0561 30.7916 17.0561 29.9276 17.0561C29.7356 17.0561 29.6396 16.9601 29.6396 16.7681C29.6396 16.0961 29.6396 15.4241 29.6396 14.8481C29.6396 14.6561 29.7356 14.5601 29.9276 14.5601C30.3116 14.5601 30.7916 14.5601 31.1756 14.5601Z" fill="white"/>
<path d="M31.1759 28.0959C30.6959 28.0959 30.3119 28.0959 29.8319 28.0959C29.6399 28.0959 29.5439 27.9999 29.5439 27.8079C29.5439 27.1359 29.5439 26.4639 29.5439 25.7919C29.5439 25.5999 29.6399 25.5039 29.8319 25.5039C30.6959 25.5039 31.5599 25.5039 32.4239 25.5039C32.6159 25.5039 32.7119 25.5999 32.7119 25.7919C32.7119 26.4639 32.7119 27.1359 32.7119 27.8079C32.7119 27.9999 32.6159 28.0959 32.4239 28.0959C32.1359 28.0959 31.6559 28.0959 31.1759 28.0959Z" fill="white"/>
<path d="M10.9198 14.752C11.3998 14.752 11.7838 14.752 12.2638 14.752C12.5518 14.752 12.5518 14.848 12.5518 15.04C12.5518 15.712 12.5518 16.384 12.5518 16.96C12.5518 17.152 12.4558 17.248 12.2638 17.248C11.3998 17.248 10.5358 17.248 9.67179 17.248C9.47979 17.248 9.38379 17.152 9.38379 16.96C9.38379 16.288 9.38379 15.616 9.38379 15.04C9.38379 14.848 9.47979 14.752 9.67179 14.752C10.0558 14.752 10.4398 14.752 10.9198 14.752Z" fill="white"/>
<path d="M10.7274 28.288C10.3434 28.288 9.86341 28.288 9.47941 28.288C9.28741 28.288 9.19141 28.288 9.19141 28C9.19141 27.328 9.19141 26.656 9.19141 25.984C9.19141 25.792 9.28741 25.696 9.47941 25.696C10.3434 25.696 11.3034 25.696 12.1674 25.696C12.3594 25.696 12.4554 25.792 12.4554 25.984C12.4554 26.656 12.4554 27.328 12.4554 28C12.4554 28.192 12.3594 28.288 12.1674 28.288C11.6874 28.288 11.2074 28.288 10.7274 28.288Z" fill="white"/>
<path d="M6.31223 17.4399H3.43223C3.33623 17.4399 3.24023 17.3439 3.24023 17.2479V15.0399C3.24023 14.9439 3.33623 14.8479 3.43223 14.8479H6.40823C6.50423 14.8479 6.60023 14.9439 6.60023 15.0399V17.2479C6.60023 17.3439 6.50423 17.4399 6.31223 17.4399Z" fill="white"/>
<path d="M6.31223 22.8159H3.43223C3.33623 22.8159 3.24023 22.7199 3.24023 22.6239V20.4159C3.24023 20.3199 3.33623 20.2239 3.43223 20.2239H6.40823C6.50423 20.2239 6.60023 20.3199 6.60023 20.4159V22.6239C6.60023 22.7199 6.50423 22.8159 6.31223 22.8159Z" fill="white"/>
<path d="M6.40794 28.288H3.52794C3.43194 28.288 3.33594 28.192 3.33594 28.096V25.888C3.33594 25.792 3.43194 25.696 3.52794 25.696H6.50394C6.59994 25.696 6.69594 25.792 6.69594 25.888V28.096C6.69594 28.192 6.59994 28.288 6.40794 28.288Z" fill="white"/>
<path d="M12.3594 22.8159H9.38341C9.28741 22.8159 9.19141 22.7199 9.19141 22.6239V20.4159C9.19141 20.3199 9.28741 20.2239 9.38341 20.2239H12.3594C12.4554 20.2239 12.5514 20.3199 12.5514 20.4159V22.6239C12.5514 22.7199 12.4554 22.8159 12.3594 22.8159Z" fill="white"/>
<path d="M19.5603 5.91999C19.5603 6.20799 19.4643 6.30399 19.1763 6.30399C18.7923 6.30399 18.4083 6.30399 18.0243 6.30399C17.6403 6.30399 17.2563 6.30399 16.8723 6.30399C16.6803 6.30399 16.4883 6.20799 16.4883 5.91999C16.4883 5.15199 16.4883 4.38399 16.4883 3.51999C16.4883 3.32799 16.5843 3.13599 16.8723 3.13599C17.6403 3.13599 18.5043 3.13599 19.2723 3.13599C19.5603 3.13599 19.6563 3.23199 19.6563 3.51999C19.5603 4.38399 19.5603 5.15199 19.5603 5.91999Z" fill="white"/>
<path d="M19.5603 11.4879C19.5603 11.7759 19.4643 11.8719 19.1763 11.8719C18.7923 11.8719 18.4083 11.8719 18.0243 11.8719C17.6403 11.8719 17.2563 11.8719 16.8723 11.8719C16.6803 11.8719 16.4883 11.7759 16.4883 11.4879C16.4883 10.7199 16.4883 9.95186 16.4883 9.08786C16.4883 8.89586 16.5843 8.70386 16.8723 8.70386C17.6403 8.70386 18.5043 8.70386 19.2723 8.70386C19.5603 8.70386 19.6563 8.79986 19.6563 9.08786C19.5603 9.95186 19.5603 10.7199 19.5603 11.4879Z" fill="white"/>
<path d="M19.5603 16.96C19.5603 17.248 19.4643 17.344 19.1763 17.344C18.7923 17.344 18.4083 17.344 18.0243 17.344C17.6403 17.344 17.2563 17.344 16.8723 17.344C16.6803 17.344 16.4883 17.248 16.4883 16.96C16.4883 16.192 16.4883 15.424 16.4883 14.56C16.4883 14.368 16.5843 14.176 16.8723 14.176C17.6403 14.176 18.5043 14.176 19.2723 14.176C19.5603 14.176 19.6563 14.272 19.6563 14.56C19.5603 15.424 19.5603 16.192 19.5603 16.96Z" fill="white"/>
<path d="M25.6081 5.91999C25.6081 6.20799 25.5121 6.30399 25.2241 6.30399C24.8401 6.30399 24.4561 6.30399 24.0721 6.30399C23.6881 6.30399 23.3041 6.30399 22.9201 6.30399C22.7281 6.30399 22.5361 6.20799 22.5361 5.91999C22.5361 5.15199 22.5361 4.38399 22.5361 3.51999C22.5361 3.32799 22.6321 3.13599 22.9201 3.13599C23.6881 3.13599 24.5521 3.13599 25.3201 3.13599C25.6081 3.13599 25.7041 3.23199 25.7041 3.51999C25.6081 4.38399 25.6081 5.15199 25.6081 5.91999Z" fill="white"/>
<path d="M25.6081 11.4879C25.6081 11.7759 25.5121 11.8719 25.2241 11.8719C24.8401 11.8719 24.4561 11.8719 24.0721 11.8719C23.6881 11.8719 23.3041 11.8719 22.9201 11.8719C22.7281 11.8719 22.5361 11.7759 22.5361 11.4879C22.5361 10.7199 22.5361 9.95186 22.5361 9.08786C22.5361 8.89586 22.6321 8.70386 22.9201 8.70386C23.6881 8.70386 24.5521 8.70386 25.3201 8.70386C25.6081 8.70386 25.7041 8.79986 25.7041 9.08786C25.6081 9.95186 25.6081 10.7199 25.6081 11.4879Z" fill="white"/>
<path d="M25.6081 16.96C25.6081 17.248 25.5121 17.344 25.2241 17.344C24.8401 17.344 24.4561 17.344 24.0721 17.344C23.6881 17.344 23.3041 17.344 22.9201 17.344C22.7281 17.344 22.5361 17.248 22.5361 16.96C22.5361 16.192 22.5361 15.424 22.5361 14.56C22.5361 14.368 22.6321 14.176 22.9201 14.176C23.6881 14.176 24.5521 14.176 25.3201 14.176C25.6081 14.176 25.7041 14.272 25.7041 14.56C25.6081 15.424 25.6081 16.192 25.6081 16.96Z" fill="white"/>
</svg>
