<svg width="47" height="48" viewBox="0 0 47 48" fill="none" xmlns="http://www.w3.org/2000/svg">
<path d="M38.4902 8.56537C36.6494 8.56537 35.1768 7.09273 35.1768 5.25192C35.1768 3.41112 36.6494 1.93848 38.4902 1.93848C40.331 1.93848 41.8037 3.41112 41.8037 5.25192C41.8037 7.09273 40.331 8.56537 38.4902 8.56537Z" fill="#361452"/>
<path d="M41.5586 1.93873C41.5586 1.81601 41.6813 1.69329 41.6813 1.69329C42.1722 1.20241 42.5404 0.834246 43.0312 0.343365C43.154 0.220645 43.2767 0.0979248 43.5221 0.343365C43.6448 0.466086 43.6448 0.711526 43.3994 0.834246C42.9085 1.32513 42.5404 1.69329 42.0495 2.18417C41.9268 2.30689 41.804 2.30689 41.6813 2.30689C41.5586 2.06145 41.5586 2.06145 41.5586 1.93873Z" fill="#381754"/>
<path d="M38.736 -0.5158C38.736 -0.147639 38.736 0.0978005 38.736 0.465961C38.736 0.588681 38.736 0.834122 38.4906 0.834122C38.2451 0.834122 38.2451 0.711402 38.2451 0.465961C38.2451 -0.27036 38.2451 -0.883961 38.2451 -1.62028C38.2451 -1.743 38.3678 -1.86572 38.4906 -1.86572C38.736 -1.86572 38.736 -1.743 38.736 -1.62028C38.736 -1.25212 38.736 -0.88396 38.736 -0.5158Z" fill="#391754"/>
<path d="M32.5999 4.88379C32.9681 4.88379 33.2135 4.88379 33.5817 4.88379C33.8271 4.88379 33.9498 5.00651 33.9498 5.12923C33.9498 5.37467 33.8271 5.37467 33.5817 5.37467C32.9681 5.37467 32.2318 5.37467 31.6182 5.37467C31.3727 5.37467 31.25 5.25195 31.25 5.12923C31.25 4.88379 31.3727 4.88379 31.6182 4.88379C31.9863 4.88379 32.2318 4.88379 32.5999 4.88379Z" fill="#361452"/>
<path d="M44.3812 5.00659C44.7493 5.00659 44.9948 5.00659 45.3629 5.00659C45.6084 5.00659 45.7311 5.12931 45.7311 5.25203C45.7311 5.49747 45.6084 5.62019 45.3629 5.62019C44.7493 5.62019 44.013 5.62019 43.3994 5.62019C43.154 5.62019 43.0312 5.49747 43.0312 5.37475C43.0312 5.12931 43.154 5.12931 43.3994 5.12931C43.6449 5.00659 44.013 5.00659 44.3812 5.00659Z" fill="#381653"/>
<path d="M38.2451 11.1426C38.2451 10.7745 38.2451 10.529 38.2451 10.1609C38.2451 9.91544 38.3678 9.79272 38.4906 9.79272C38.736 9.79272 38.736 9.91544 38.736 10.1609C38.736 10.7745 38.736 11.5108 38.736 12.1244C38.736 12.3698 38.6133 12.4926 38.4906 12.4926C38.2451 12.4926 38.2451 12.3698 38.2451 12.1244C38.2451 11.7562 38.2451 11.3881 38.2451 11.1426Z" fill="#391854"/>
<path d="M33.4593 0.0979004C33.582 0.0979004 33.7047 0.22062 33.7047 0.22062C34.1956 0.711501 34.5638 1.07966 35.0547 1.57054C35.1774 1.69326 35.3001 1.81598 35.1774 2.06142C35.0547 2.30686 34.8092 2.06142 34.6865 1.9387C34.1956 1.44782 33.7047 1.07966 33.3366 0.588781C33.2139 0.466061 33.2139 0.34334 33.2139 0.22062C33.2139 0.0978997 33.3366 0.0979004 33.4593 0.0979004Z" fill="#371553"/>
<path d="M33.5812 10.4062C33.4585 10.4062 33.3358 10.4062 33.3358 10.2835C33.2131 10.1608 33.3358 10.0381 33.3358 10.0381C33.8267 9.54719 34.3176 9.05631 34.8084 8.56543C34.9312 8.44271 35.0539 8.44271 35.1766 8.56543C35.2993 8.68815 35.2993 8.81087 35.1766 8.93359C34.6857 9.30175 34.1948 9.91535 33.5812 10.4062Z" fill="#381754"/>
<path d="M43.6444 10.161C43.6444 10.2837 43.6444 10.4064 43.5217 10.4064C43.399 10.4064 43.2763 10.4064 43.2763 10.4064C42.7854 9.91551 42.2945 9.42463 41.6809 8.81103C41.5582 8.68831 41.5582 8.56559 41.6809 8.44287C41.8036 8.32015 41.9264 8.32015 42.0491 8.44287C42.54 8.93375 43.0308 9.42463 43.5217 9.91551C43.5217 10.0382 43.6444 10.0382 43.6444 10.161Z" fill="#361552"/>
<path d="M37.8771 2.55225C37.9998 2.55225 37.9998 2.55225 38.1226 2.55225C38.368 2.55225 38.6134 2.55225 38.7362 2.67497C39.227 2.67497 39.5952 2.79769 39.9634 3.16585C40.8224 3.90217 41.3133 4.76121 41.0678 5.86569C40.8224 6.97017 40.2088 7.7065 39.1043 8.07466C37.8771 8.44282 36.5272 7.82922 36.0363 6.60201C35.4227 5.49753 35.7909 3.90217 36.7726 3.16585C37.0181 3.04313 37.2635 2.92041 37.509 2.79769C37.6317 2.67497 37.8771 2.67497 37.8771 2.55225Z" fill="white"/>
<path d="M38.7357 2.67488C38.4902 2.67488 38.2448 2.79761 38.1221 2.55216C38.3675 2.55216 38.613 2.42944 38.7357 2.67488Z" fill="#FDCB8A"/>
<path d="M37.8769 2.55225C37.7542 2.67497 37.6315 2.67497 37.5088 2.67497C37.6315 2.55225 37.7542 2.55225 37.8769 2.55225Z" fill="#D6BFB4"/>
<path d="M33.9499 46.3073C30.2683 46.3073 38.8587 46.3073 35.2999 46.3073C34.9317 46.3073 34.809 46.3073 34.809 45.9392C34.809 45.2029 34.809 44.4665 34.809 43.7302C34.809 43.362 34.9317 43.3621 35.1771 43.3621C36.5271 43.3621 37.9997 43.3621 39.3496 43.3621C39.9632 43.3621 39.9632 43.2393 39.9632 42.7485C39.9632 41.8894 39.9632 40.9076 39.9632 40.0486C39.9632 39.5577 39.8405 39.435 39.3496 39.435C38.2451 39.435 38.2452 39.435 38.2452 38.3305C38.2452 32.8081 38.2452 27.163 38.2452 21.6406C38.2452 21.2724 38.3679 21.1497 38.736 21.1497C39.3496 21.1497 39.8405 21.1497 40.4541 21.1497C40.6996 21.1497 40.945 21.1497 41.0677 20.9043C41.1904 20.6588 40.945 20.4134 40.8223 20.2906C37.877 17.959 34.809 15.6273 31.8637 13.2956C29.1639 11.2094 26.5867 9.12311 23.8869 7.03686C23.5187 6.6687 23.1506 6.6687 22.7824 7.03686C17.3827 11.3321 11.8603 15.5046 6.46061 19.7998C6.33789 19.9225 6.21517 20.0452 6.09245 20.1679V20.9043C6.21517 21.1497 6.46061 21.1497 6.70605 21.1497C7.19693 21.1497 7.68781 21.1497 8.05597 21.1497C8.42414 21.1497 8.54685 21.2724 8.54685 21.6406C8.54685 24.8313 8.54685 28.022 8.54685 31.2127C8.54685 33.7899 8.54685 36.367 8.54685 39.0668C8.54685 39.435 8.42414 39.5577 8.05597 39.5577C6.70605 39.5577 6.82877 39.435 6.82877 40.7849C6.82877 41.5213 6.82877 42.2576 6.82877 42.9939C6.82877 43.3621 6.95149 43.6075 7.44237 43.6075C8.7923 43.6075 10.2649 43.6075 11.6149 43.6075C12.1057 43.6075 12.1057 43.7302 12.1057 44.0984C12.1057 44.8347 12.1057 45.4483 12.1057 46.1846C12.1057 46.5528 11.983 46.5528 11.7376 46.5528C10.3877 46.5528 2.779 46.5528 1.42908 46.5528C1.30636 46.5528 1.06092 46.5528 0.938201 46.6755C0.815481 46.7982 0.692761 46.9209 0.815481 47.0437C0.815481 47.1664 0.938201 47.2891 1.06092 47.4118C1.18364 47.4118 1.42908 47.4118 1.5518 47.4118C17.6282 47.4118 30.0229 47.4118 46.0992 47.4118C46.222 47.4118 46.3447 47.4118 46.4674 47.4118C46.7129 47.4118 46.8356 47.2891 46.8356 47.0437C46.8356 46.7982 46.7128 46.6755 46.3447 46.6755C45.4856 46.3073 34.3181 46.3073 33.9499 46.3073ZM37.6315 34.2808C37.6315 34.6489 37.5088 34.6489 37.1407 34.6489C36.0362 34.6489 34.809 34.6489 33.7045 34.6489C32.6 34.6489 31.3728 34.6489 30.2683 34.6489C29.9002 34.6489 29.7775 34.6489 29.7775 34.158C29.7775 32.44 29.7775 30.7219 29.7775 29.0038C29.7775 28.6356 29.9002 28.5129 30.2683 28.6356C32.6 28.6356 34.9317 28.6356 37.2634 28.6356C37.6315 28.6356 37.7543 28.6356 37.7543 29.0038C37.6315 30.7219 37.6315 32.5627 37.6315 34.2808ZM37.6315 38.9441C37.6315 39.1896 37.5088 39.3123 37.2634 39.3123C36.0362 39.3123 34.9317 39.3123 33.7045 39.3123C32.4773 39.3123 31.3728 39.3123 30.1456 39.3123C29.9002 39.3123 29.7775 39.3123 29.7775 38.9441C29.7775 37.8396 29.7775 36.8579 29.7775 35.7534C29.7775 35.508 29.9002 35.3852 30.1456 35.3852C32.4773 35.3852 34.9317 35.3852 37.2634 35.3852C37.5088 35.3852 37.6315 35.508 37.6315 35.7534C37.6315 36.8579 37.6315 37.8396 37.6315 38.9441ZM9.28318 35.7534C9.28318 35.508 9.4059 35.3852 9.65134 35.3852C11.983 35.3852 14.4374 35.3852 16.7691 35.3852C17.0146 35.3852 17.1373 35.508 17.1373 35.7534C17.1373 36.7352 17.1373 37.8396 17.1373 38.8214C17.1373 39.1896 17.0146 39.1896 16.7691 39.1896C15.5419 39.1896 14.4374 39.1896 13.2102 39.1896C11.983 39.1896 10.8785 39.1896 9.65134 39.1896C9.4059 39.1896 9.28318 39.1896 9.28318 38.8214C9.28318 37.8396 9.28318 36.8579 9.28318 35.7534ZM9.4059 29.0038C9.4059 28.7583 9.52862 28.6356 9.77406 28.6356C11.0013 28.6356 12.1057 28.6356 13.3329 28.6356C14.5601 28.6356 15.6646 28.6356 16.8918 28.6356C17.26 28.6356 17.26 28.7583 17.26 29.0038C17.26 30.7219 17.26 32.44 17.26 34.158C17.26 34.4035 17.26 34.5262 16.8918 34.5262C14.5601 34.5262 12.1057 34.5262 9.77406 34.5262C9.52862 34.5262 9.4059 34.4035 9.4059 34.158C9.4059 32.5627 9.4059 30.7219 9.4059 29.0038ZM9.89678 21.027C14.4374 21.027 18.9781 21.027 23.396 21.027C27.9367 21.027 32.4773 21.027 37.0179 21.027C37.3861 21.027 37.5088 21.1497 37.5088 21.5179C37.5088 23.4814 37.5088 25.4449 37.5088 27.4084C37.5088 27.7766 37.3861 27.8993 37.0179 27.8993C34.809 27.8993 32.4773 27.8993 30.2683 27.8993C29.9002 27.8993 29.532 28.022 29.4093 27.5311C29.2866 27.4084 29.0411 27.4084 28.9184 27.4084C25.2368 27.4084 21.5552 27.4084 17.8736 27.4084C17.6282 27.4084 17.3827 27.4084 17.26 27.6539C17.1373 27.8993 16.8918 27.8993 16.6464 27.8993C14.3147 27.8993 11.983 27.8993 9.65134 27.8993C9.28318 27.8993 9.16046 27.7766 9.16046 27.4084C9.16046 25.4449 9.16046 23.6041 9.16046 21.6406C9.28318 21.1497 9.4059 21.027 9.89678 21.027ZM29.0411 43.3621C29.7775 43.3621 30.6365 43.3621 31.3728 43.3621C32.1091 43.3621 32.9682 43.3621 33.7045 43.3621C33.9499 43.3621 34.0727 43.4848 34.0727 43.7302C34.0727 44.4665 34.0727 45.2029 34.0727 45.9392C34.0727 46.1846 33.9499 46.3073 33.7045 46.3073C32.1091 46.3073 30.6365 46.3073 29.0411 46.3073C28.7957 46.3073 28.673 46.1846 28.673 45.9392C28.673 45.2029 28.673 44.3438 28.673 43.6075C28.673 43.3621 28.7957 43.3621 29.0411 43.3621ZM19.5917 43.3621C20.9416 43.3621 22.1688 43.3621 23.5187 43.3621C24.8686 43.3621 26.2186 43.3621 27.5685 43.3621C27.8139 43.3621 27.9367 43.362 27.9367 43.7302C27.9367 44.4665 27.9367 45.2029 27.9367 45.9392C27.9367 46.1846 27.9367 46.3073 27.5685 46.3073C24.8686 46.3073 22.1688 46.3073 19.469 46.3073C19.1008 46.3073 19.1008 46.1846 19.1008 45.9392C19.1008 45.2029 19.1008 44.4665 19.1008 43.7302C19.1008 43.362 19.2235 43.3621 19.5917 43.3621ZM13.4557 43.3621C14.192 43.3621 14.9283 43.3621 15.6646 43.3621C16.401 43.3621 17.26 43.3621 17.9963 43.3621C18.2418 43.3621 18.3645 43.362 18.3645 43.7302C18.3645 44.4665 18.3645 45.3256 18.3645 46.0619C18.3645 46.4301 18.2418 46.4301 17.9963 46.4301C16.5237 46.4301 14.9283 46.4301 13.4557 46.4301C13.2102 46.4301 13.0875 46.3073 13.0875 46.0619C13.0875 45.3256 13.0875 44.5893 13.0875 43.8529C12.9648 43.3621 13.0875 43.3621 13.4557 43.3621Z" fill="#361452"/>
<path d="M39.2265 40.1714C39.1038 40.1714 38.9811 40.1714 38.8584 40.1714C28.6726 40.1714 18.4868 40.1714 8.30102 40.1714C8.1783 40.1714 8.05558 40.1714 7.93286 40.1714C7.81014 40.9077 7.81014 41.7667 7.93286 42.5031C8.05558 42.5031 8.1783 42.5031 8.30102 42.5031C18.4868 42.5031 28.6726 42.5031 38.8584 42.5031C38.9811 42.5031 39.1038 42.5031 39.2265 42.5031C39.3492 41.7667 39.3492 40.9077 39.2265 40.1714Z" fill="white"/>
<path d="M23.1507 33.6671C23.1507 31.949 23.1507 30.2309 23.1507 28.5129C23.1507 28.1447 23.028 28.022 22.7825 28.022C21.3099 28.022 19.8372 28.022 18.4873 28.022C18.1191 28.022 18.1191 28.1447 18.1191 28.5129C18.1191 31.949 18.1191 35.3852 18.1191 38.8214C18.1191 39.1895 18.2419 39.1895 18.4873 39.1895C19.9599 39.1895 21.4326 39.1895 22.7825 39.1895C23.1507 39.1895 23.1507 39.0668 23.1507 38.8214C23.1507 37.1033 23.1507 35.3852 23.1507 33.6671Z" fill="white"/>
<path d="M29.0414 28.2675C28.9187 28.1448 28.796 28.1448 28.6733 28.1448C27.2006 28.1448 25.8507 28.1448 24.378 28.1448C24.0099 28.1448 23.8872 28.2675 24.0099 28.5129C24.0099 31.9491 24.0099 35.3853 24.0099 38.8214C24.0099 39.0669 24.0099 39.1896 24.378 39.1896C25.9734 39.1896 27.4461 39.1896 29.0414 39.1896C29.1641 39.0669 29.0414 38.8214 29.0414 38.6987C29.0414 35.3853 29.0414 32.0718 29.0414 28.7584C29.0414 28.6357 28.9187 28.3902 29.0414 28.2675Z" fill="white"/>
<path d="M15.542 13.7865C14.8057 14.2774 14.192 14.891 13.333 15.5046C20.0826 15.5046 26.7095 15.5046 33.5818 15.5046C32.8455 14.891 32.1092 14.4001 31.4956 13.7865C31.3729 13.6638 31.1274 13.7865 31.0047 13.7865C25.9732 13.7865 21.0644 13.7865 16.0329 13.7865C15.9101 13.7865 15.6647 13.6638 15.542 13.7865Z" fill="white"/>
<path d="M30.1454 12.8046C29.4091 12.191 28.6728 11.5774 27.9365 10.9638C27.8138 10.8411 27.691 10.8411 27.5683 10.8411C24.9912 10.8411 22.2913 10.8411 19.7142 10.8411C19.5915 10.8411 19.3461 10.8411 19.2233 10.9638C18.487 11.5774 17.7507 12.0683 17.0144 12.5591C16.8917 12.5591 16.7689 12.6819 16.8917 12.8046C17.0144 12.6819 17.2598 12.8046 17.3825 12.8046C21.4323 12.8046 25.4821 12.8046 29.5318 12.8046C29.7773 12.8046 29.9 12.9273 30.1454 12.8046Z" fill="white"/>
<path d="M33.9502 20.1678C34.1956 20.2905 34.5638 20.1678 34.932 20.1678C36.4046 20.1678 38 20.1678 39.5953 20.1678C39.3499 19.7997 38.9817 19.5542 38.6136 19.3088C37.3864 18.327 36.1592 17.3452 34.932 16.3635C34.6865 16.118 34.3184 16.118 34.0729 16.2408C33.9502 17.5907 33.9502 18.9406 33.9502 20.1678Z" fill="white"/>
<path d="M7.44238 20.1679C7.5651 20.2906 7.68782 20.2906 7.81054 20.2906C9.40591 20.2906 11.0013 20.2906 12.5966 20.2906C12.9648 20.2906 13.0875 20.1679 13.0875 19.7997C13.0875 18.818 13.0875 17.8362 13.0875 16.9772C13.0875 16.7317 13.2102 16.4863 12.9648 16.3636C12.7194 16.2409 12.3512 16.3636 12.1058 16.609C11.124 17.4681 10.0195 18.2044 9.03774 19.0634C8.42414 19.3089 7.93326 19.677 7.44238 20.1679Z" fill="white"/>
<path d="M17.1377 16.3637C17.0149 16.241 16.8922 16.241 16.7695 16.241C15.9105 16.241 15.0514 16.241 14.1924 16.241C13.9469 16.241 13.8242 16.241 13.8242 16.6091C13.8242 17.7136 13.8242 18.9408 13.8242 20.0453C14.9287 20.168 15.9105 20.0453 17.0149 20.0453C17.1377 19.309 17.0149 18.5727 17.0149 17.8363C17.1377 17.3455 17.1377 16.8546 17.1377 16.3637Z" fill="white"/>
<path d="M29.164 16.3637C29.0413 16.241 28.9186 16.241 28.7959 16.241C27.9368 16.241 27.0778 16.241 26.2187 16.241C25.9733 16.241 25.8506 16.241 25.8506 16.6091C25.8506 17.7136 25.8506 18.9408 25.8506 20.0453C26.9551 20.168 27.9368 20.0453 29.0413 20.0453C29.164 19.309 29.0413 18.5727 29.0413 17.8363C29.164 17.3455 29.164 16.8546 29.164 16.3637Z" fill="white"/>
<path d="M21.0648 20.0453C21.0648 18.9408 21.0648 17.7136 21.0648 16.6091C21.0648 16.3637 20.942 16.241 20.6966 16.241C19.8375 16.241 19.1012 16.241 18.2422 16.241C17.9967 16.241 17.874 16.241 17.874 16.6091C17.874 17.7136 17.874 18.9408 17.874 20.0453C18.9785 20.168 19.9603 20.168 21.0648 20.0453Z" fill="white"/>
<path d="M25.1146 20.0453C25.1146 18.9408 25.1146 17.7136 25.1146 16.6091C25.1146 16.3637 24.9918 16.241 24.7464 16.241C23.8874 16.241 23.151 16.241 22.292 16.241C22.0465 16.241 21.9238 16.3637 21.9238 16.6091C21.9238 17.7136 21.9238 18.9408 21.9238 20.0453C23.0283 20.168 24.0101 20.168 25.1146 20.0453Z" fill="white"/>
<path d="M33.2132 20.0453C33.2132 18.9408 33.2132 17.7136 33.2132 16.6091C33.2132 16.3637 33.0905 16.241 32.845 16.241C31.986 16.241 31.2497 16.241 30.3906 16.241C30.1452 16.241 30.0225 16.3637 30.0225 16.6091C30.0225 17.7136 30.0225 18.9408 30.0225 20.0453C31.1269 20.168 32.1087 20.168 33.2132 20.0453Z" fill="white"/>
<path d="M20.3281 10.1049C22.4144 10.1049 24.6233 10.1049 26.7096 10.1049C26.7096 9.9822 26.5869 9.85948 26.5869 9.85948C25.7278 9.24588 24.8688 8.50956 24.1325 7.89596C23.887 7.65052 23.6416 7.65052 23.3961 7.77324C22.4144 8.50956 21.5553 9.24588 20.5736 9.9822C20.3281 9.9822 20.3281 10.1049 20.3281 10.1049Z" fill="#FBB75C"/>
<path d="M15.542 13.7865C16.8919 13.7865 18.3646 13.7865 19.7145 13.7865C23.6415 13.7865 27.5686 13.7865 31.4956 13.7865C31.3729 13.541 31.1275 13.6637 31.0047 13.6637C25.9732 13.6637 21.0644 13.6637 16.0329 13.6637C15.9102 13.6637 15.6647 13.541 15.542 13.7865Z" fill="#FDD39D"/>
<path d="M30.1454 12.8047C25.8502 12.8047 21.555 12.8047 17.3825 12.8047C17.2598 12.8047 17.0143 12.8047 16.8916 12.9274C17.0143 12.9274 17.137 12.9274 17.3825 12.9274C21.555 12.9274 25.7275 12.9274 29.7772 12.9274C29.8999 12.9274 30.0227 13.0501 30.1454 12.8047C30.1454 12.9274 30.1454 12.9274 30.1454 12.8047Z" fill="#C1D0FD"/>
<path d="M29.0407 28.2673C28.918 28.3901 28.918 28.5128 28.918 28.7582C28.918 32.3171 28.918 35.876 28.918 39.4349C29.0407 39.4349 29.0407 39.1894 29.0407 39.1894C29.0407 35.6305 29.0407 32.1944 29.0407 28.6355C29.0407 28.3901 29.0407 28.2673 29.0407 28.2673Z" fill="#D6DFFE"/>
<path d="M33.9499 20.1679C33.9499 18.9407 33.9499 17.5907 33.9499 16.3635C33.8271 16.3635 33.8271 16.4862 33.8271 16.4862C33.8271 17.7134 33.8271 18.8179 33.8271 20.0451L33.9499 20.1679Z" fill="#D6CFDB"/>
<path d="M17.1374 16.3635C17.0146 16.8544 17.1374 17.468 17.0146 17.9589C17.0146 18.6952 17.0146 19.4315 17.0146 20.0451C17.0146 20.0451 17.0146 20.0451 17.1374 20.0451C17.1374 18.8179 17.1374 17.5907 17.1374 16.3635Z" fill="#F4BC75"/>
<path d="M29.1637 16.3635C29.041 16.8544 29.1637 17.3453 29.041 17.8362C29.041 18.5725 29.041 19.3088 29.041 20.0451C29.041 20.0451 29.041 20.0451 29.1637 20.0451C29.2865 18.8179 29.2865 17.5907 29.1637 16.3635Z" fill="#A5B7F6"/>
<path d="M29.164 20.0452C28.0595 20.0452 26.9551 20.0452 25.8506 20.0452C25.8506 20.1679 25.9733 20.1679 26.096 20.1679C27.0778 20.1679 27.9368 20.1679 28.9186 20.1679C29.0413 20.1679 29.164 20.1679 29.164 20.0452Z" fill="#C1CFFD"/>
<path d="M17.1377 20.0452C16.0332 20.0452 14.9287 20.0452 13.8242 20.0452C13.8242 20.1679 13.9469 20.1679 14.0697 20.1679C15.0514 20.1679 15.9105 20.1679 16.8922 20.1679C17.0149 20.1679 17.1377 20.1679 17.1377 20.0452Z" fill="#FDD39C"/>
<path d="M21.0648 20.0452C19.9603 20.0452 18.9785 20.0452 17.874 20.0452C17.874 20.1679 17.9967 20.1679 18.1195 20.1679C18.9785 20.1679 19.9603 20.1679 20.8193 20.1679C20.942 20.1679 21.0648 20.1679 21.0648 20.0452Z" fill="#C1CFFD"/>
<path d="M33.2135 20.0452C32.2318 20.0452 31.1273 20.0452 30.1455 20.0452C30.1455 20.1679 30.2682 20.1679 30.3909 20.1679C31.25 20.1679 32.2318 20.1679 33.0908 20.1679C33.0908 20.1679 33.2135 20.1679 33.2135 20.0452Z" fill="#FDD39C"/>
<path d="M25.1139 20.0452C24.1321 20.0452 23.0277 20.0452 22.0459 20.0452C22.0459 20.1679 22.1686 20.1679 22.2913 20.1679C23.1504 20.1679 24.1321 20.1679 24.9912 20.1679C24.9912 20.1679 25.1139 20.1679 25.1139 20.0452Z" fill="#FDD39C"/>
<path d="M39.2266 40.1714C39.2266 40.9077 39.2266 41.7667 39.2266 42.5031C39.472 42.0122 39.3493 41.644 39.3493 41.1531C39.3493 40.785 39.472 40.4168 39.2266 40.1714Z" fill="#F4BC75"/>
<path d="M7.81063 42.5031C7.81063 41.7667 7.81063 40.9077 7.81063 40.1714C7.56519 40.5395 7.68791 41.0304 7.68791 41.3986C7.68791 41.7667 7.56519 42.1349 7.81063 42.5031Z" fill="#F4BC75"/>
<path d="M21.3096 33.5446C21.3096 33.9127 21.3096 34.1582 21.3096 34.5263C21.3096 34.7718 21.4323 34.8945 21.6777 34.8945C21.9232 34.8945 22.0459 34.7718 22.0459 34.5263C22.0459 33.79 22.0459 33.0537 22.0459 32.3174C22.0459 32.0719 21.9232 31.9492 21.6777 31.9492C21.4323 31.9492 21.3096 32.0719 21.3096 32.3174C21.3096 32.931 21.3096 33.2991 21.3096 33.5446Z" fill="#381754"/>
<path d="M25.7275 33.5444C25.7275 33.1763 25.7275 32.8081 25.7275 32.4399C25.7275 32.1945 25.6048 32.0718 25.3594 32.0718C25.1139 32.0718 24.9912 32.1945 24.9912 32.4399C24.9912 33.1763 24.9912 33.9126 24.9912 34.6489C24.9912 34.8943 25.1139 35.0171 25.3594 35.0171C25.6048 35.0171 25.7275 34.8943 25.7275 34.6489C25.7275 34.2807 25.7275 33.9126 25.7275 33.5444Z" fill="#381754"/>
</svg>
