<svg width="68" height="68" viewBox="0 0 68 68" fill="none" xmlns="http://www.w3.org/2000/svg">
<path d="M43.9609 24.0391V6.10942C43.9599 5.78813 43.8812 5.47186 43.7315 5.18757C43.5818 4.90329 43.3656 4.65942 43.1013 4.47677C42.837 4.29412 42.5324 4.17811 42.2136 4.13863C41.8947 4.09915 41.571 4.13738 41.2702 4.25004L19.3561 15.5922C18.9772 15.7341 18.6504 15.988 18.4193 16.3202C18.1882 16.6523 18.0638 17.047 18.0625 17.4516V28.0235" stroke="#361452" stroke-linecap="round" stroke-linejoin="round"/>
<path d="M37.9844 16.0703H43.9609" stroke="#361452" stroke-linecap="round" stroke-linejoin="round"/>
<path d="M34 24.0391H43.9609" stroke="#361452" stroke-linecap="round" stroke-linejoin="round"/>
<path d="M4.11719 35.9922H10.0938" stroke="#361452" stroke-linecap="round" stroke-linejoin="round"/>
<path d="M4.11719 43.9609H14.0781" stroke="#361452" stroke-linecap="round" stroke-linejoin="round"/>
<path d="M24.0391 13.1642V4.11963" stroke="#361452" stroke-linecap="round" stroke-linejoin="round"/>
<path d="M24.0391 63.8828V32.0078C24.0391 30.9511 23.6193 29.9376 22.8721 29.1904C22.1249 28.4432 21.1114 28.0234 20.0547 28.0234H8.10156C7.04484 28.0234 6.0314 28.4432 5.28418 29.1904C4.53697 29.9376 4.11719 30.9511 4.11719 32.0078V63.8828H28.0234" stroke="#361452" stroke-linecap="round" stroke-linejoin="round"/>
<path d="M51.9296 39.9766H46.5295C45.7019 39.9771 44.9003 40.2657 44.2621 40.7926C43.624 41.3196 43.1891 42.0522 43.0321 42.8648C42.875 43.6774 43.0056 44.5193 43.4014 45.2461C43.7972 45.9729 44.4336 46.5394 45.2014 46.8483L50.6839 49.0423C51.4516 49.3513 52.088 49.9177 52.4838 50.6445C52.8796 51.3714 53.0102 52.2133 52.8532 53.0258C52.6961 53.8384 52.2612 54.571 51.6231 55.098C50.985 55.625 50.1833 55.9135 49.3557 55.9141H43.9609" stroke="#361452" stroke-linecap="round" stroke-linejoin="round"/>
<path d="M47.9453 39.9766V37.9844" stroke="#361452" stroke-linecap="round" stroke-linejoin="round"/>
<path d="M47.9453 57.9062V55.9141" stroke="#361452" stroke-linecap="round" stroke-linejoin="round"/>
<path d="M32.0078 47.9453C32.0078 52.1722 33.6869 56.226 36.6758 59.2148C39.6647 62.2037 43.7184 63.8828 47.9453 63.8828C52.1722 63.8828 56.226 62.2037 59.2148 59.2148C62.2037 56.226 63.8828 52.1722 63.8828 47.9453C63.8828 43.7184 62.2037 39.6647 59.2148 36.6758C56.226 33.6869 52.1722 32.0078 47.9453 32.0078C43.7184 32.0078 39.6647 33.6869 36.6758 36.6758C33.6869 39.6647 32.0078 43.7184 32.0078 47.9453Z" stroke="#361452" stroke-linecap="round" stroke-linejoin="round"/>
</svg>
