<svg width="48" height="48" viewBox="0 0 48 48" fill="none" xmlns="http://www.w3.org/2000/svg">
<path d="M38.976 17.12L46.254 7.70996" stroke="#361452" stroke-linecap="round" stroke-linejoin="round"/>
<path d="M1 40.2898L12.908 25.1338L16.882 27.8338" stroke="#361452" stroke-linecap="round" stroke-linejoin="round"/>
<path d="M35.908 8.45396L46.254 7.70996L47 18.056" stroke="#361452" stroke-linecap="round" stroke-linejoin="round"/>
<path d="M20.696 20.4742C20.696 21.3417 20.8669 22.2007 21.1989 23.0022C21.5309 23.8036 22.0175 24.5319 22.6309 25.1453C23.2443 25.7587 23.9726 26.2453 24.774 26.5773C25.5755 26.9093 26.4345 27.0802 27.302 27.0802C28.1696 27.0802 29.0286 26.9093 29.8301 26.5773C30.6315 26.2453 31.3598 25.7587 31.9732 25.1453C32.5866 24.5319 33.0732 23.8036 33.4052 23.0022C33.7372 22.2007 33.908 21.3417 33.908 20.4742C33.908 19.6067 33.7372 18.7476 33.4052 17.9462C33.0732 17.1447 32.5866 16.4164 31.9732 15.803C31.3598 15.1896 30.6315 14.703 29.8301 14.371C29.0286 14.039 28.1696 13.8682 27.302 13.8682C26.4345 13.8682 25.5755 14.039 24.774 14.371C23.9726 14.703 23.2443 15.1896 22.6309 15.803C22.0175 16.4164 21.5309 17.1447 21.1989 17.9462C20.8669 18.7476 20.696 19.6067 20.696 20.4742Z" stroke="#361452" stroke-linecap="round" stroke-linejoin="round"/>
<path d="M17.4 40.2897C17.437 37.6861 18.4973 35.2016 20.3515 33.3735C22.2058 31.5454 24.7051 30.5205 27.309 30.5205C29.9129 30.5205 32.4122 31.5454 34.2665 33.3735C36.1208 35.2016 37.181 37.6861 37.218 40.2897H17.4Z" stroke="#361452" stroke-linecap="round" stroke-linejoin="round"/>
</svg>
