<svg width="46" height="46" viewBox="0 0 46 46" fill="none" xmlns="http://www.w3.org/2000/svg">
<path d="M12.4792 45.0008C12.4792 41.8311 9.90974 39.2617 6.74011 39.2617C3.57047 39.2617 1.00098 41.8311 1.00098 45.0008" stroke="#361452" stroke-width="0.956522" stroke-linecap="round" stroke-linejoin="round"/>
<path d="M2.91309 33.5219C2.91309 34.5366 3.31619 35.5098 4.03372 36.2273C4.75125 36.9449 5.72443 37.348 6.73917 37.348C7.75391 37.348 8.72709 36.9449 9.44463 36.2273C10.1622 35.5098 10.5653 34.5366 10.5653 33.5219C10.5653 32.5071 10.1622 31.534 9.44463 30.8164C8.72709 30.0989 7.75391 29.6958 6.73917 29.6958C5.72443 29.6958 4.75125 30.0989 4.03372 30.8164C3.31619 31.534 2.91309 32.5071 2.91309 33.5219Z" stroke="#361452" stroke-width="0.956522" stroke-linejoin="round"/>
<path d="M28.7391 45.0008C28.7391 41.8311 26.1697 39.2617 23 39.2617C19.8303 39.2617 17.2609 41.8311 17.2609 45.0008" stroke="#361452" stroke-width="0.956522" stroke-linecap="round" stroke-linejoin="round"/>
<path d="M44.999 45.0008C44.999 41.8311 42.4296 39.2617 39.2599 39.2617C36.0904 39.2617 33.5208 41.8311 33.5208 45.0008" stroke="#361452" stroke-width="0.956522" stroke-linecap="round" stroke-linejoin="round"/>
<path d="M19.174 33.5219C19.174 34.5366 19.5771 35.5098 20.2946 36.2273C21.0121 36.9449 21.9853 37.348 23 37.348C24.0148 37.348 24.988 36.9449 25.7055 36.2273C26.423 35.5098 26.8261 34.5366 26.8261 33.5219C26.8261 32.5071 26.423 31.534 25.7055 30.8164C24.988 30.0989 24.0148 29.6958 23 29.6958C21.9853 29.6958 21.0121 30.0989 20.2946 30.8164C19.5771 31.534 19.174 32.5071 19.174 33.5219Z" stroke="#361452" stroke-width="0.956522" stroke-linejoin="round"/>
<path d="M35.4348 33.5219C35.4348 34.5366 35.8379 35.5098 36.5555 36.2273C37.273 36.9449 38.2462 37.348 39.2609 37.348C40.2756 37.348 41.2488 36.9449 41.9664 36.2273C42.6839 35.5098 43.087 34.5366 43.087 33.5219C43.087 32.5071 42.6839 31.534 41.9664 30.8164C41.2488 30.0989 40.2756 29.6958 39.2609 29.6958C38.2462 29.6958 37.273 30.0989 36.5555 30.8164C35.8379 31.534 35.4348 32.5071 35.4348 33.5219Z" stroke="#361452" stroke-width="0.956522" stroke-linejoin="round"/>
<path d="M2.91309 24.9129V14.3911H10.5653V24.9129" stroke="#361452" stroke-width="0.956522" stroke-linecap="round" stroke-linejoin="round"/>
<path d="M19.174 24.913V1H26.8261V24.913" stroke="#361452" stroke-width="0.956522" stroke-linecap="round" stroke-linejoin="round"/>
<path d="M35.4348 24.9133V10.5654H43.087V24.9133" stroke="#361452" stroke-width="0.956522" stroke-linecap="round" stroke-linejoin="round"/>
<path d="M1 24.9131H45" stroke="#361452" stroke-width="0.956522" stroke-linecap="round" stroke-linejoin="round"/>
</svg>
