<svg width="24" height="24" viewBox="0 0 24 24" fill="none" xmlns="http://www.w3.org/2000/svg">
<path d="M7.49199 10.012C7.86693 9.63695 8.07756 9.12833 8.07756 8.598C8.07756 8.06767 7.86693 7.55906 7.49199 7.184L5.36999 5.063C5.18426 4.8772 4.96374 4.72981 4.72104 4.62925C4.47834 4.52869 4.2182 4.47693 3.95549 4.47693C3.69277 4.47693 3.43264 4.52869 3.18993 4.62925C2.94723 4.72981 2.72671 4.8772 2.54099 5.063L1.37799 6.226C0.889932 6.71528 0.585766 7.35805 0.516893 8.04569C0.44802 8.73332 0.618664 9.42365 0.999985 10C4.42515 15.1552 8.84482 19.5748 14 23C14.5764 23.3809 15.2665 23.5513 15.954 23.4822C16.6414 23.4132 17.2839 23.109 17.773 22.621L18.937 21.457C19.3119 21.0819 19.5226 20.5733 19.5226 20.043C19.5226 19.5127 19.3119 19.0041 18.937 18.629L16.816 16.51C16.4409 16.1351 15.9323 15.9244 15.402 15.9244C14.8717 15.9244 14.363 16.1351 13.988 16.51L13.281 17.217C10.909 15.2659 8.7321 13.089 6.78099 10.717L7.49199 10.012Z" stroke="white" stroke-linecap="round" stroke-linejoin="round"/>
</svg>
