<svg width="93" height="92" viewBox="0 0 93 92" fill="none" xmlns="http://www.w3.org/2000/svg">
<circle opacity="0.1" cx="46.8" cy="46" r="46" fill="#DE804B"/>
<path d="M60.3391 33.0586C61.4652 33.9591 62.3276 35.1465 62.8358 36.4959" stroke="#361452" stroke-linecap="round" stroke-linejoin="round"/>
<path d="M62.7857 42.2812C62.254 43.622 61.3703 44.7944 60.2278 45.6748" stroke="#361452" stroke-linecap="round" stroke-linejoin="round"/>
<path d="M34.2616 61.4002C33.1355 60.4996 32.273 59.3122 31.7649 57.9629" stroke="#361452" stroke-linecap="round" stroke-linejoin="round"/>
<path d="M31.8137 52.1777C32.3454 50.837 33.2291 49.6645 34.3716 48.7842" stroke="#361452" stroke-linecap="round" stroke-linejoin="round"/>
<path d="M53.1331 31.1875H55.3206" stroke="#361452" stroke-linecap="round" stroke-linejoin="round"/>
<path d="M40.7375 63.2705H42.925" stroke="#361452" stroke-linecap="round" stroke-linejoin="round"/>
<path d="M50.217 47.2295H54.592" stroke="#361452" stroke-linecap="round" stroke-linejoin="round"/>
<path d="M40.0081 47.2295H44.3831" stroke="#361452" stroke-linecap="round" stroke-linejoin="round"/>
<path d="M47.3 37.75V63.2708" stroke="#361452" stroke-linecap="round" stroke-linejoin="round"/>
<path d="M42.925 42.125L47.3 37.75L51.675 42.125" stroke="#361452" stroke-linecap="round" stroke-linejoin="round"/>
<path d="M45.1125 31.917C45.1125 32.4972 45.343 33.0536 45.7533 33.4638C46.1635 33.874 46.7199 34.1045 47.3 34.1045C47.8802 34.1045 48.4366 33.874 48.8468 33.4638C49.2571 33.0536 49.4875 32.4972 49.4875 31.917C49.4875 31.3368 49.2571 30.7804 48.8468 30.3702C48.4366 29.96 47.8802 29.7295 47.3 29.7295C46.7199 29.7295 46.1635 29.96 45.7533 30.3702C45.343 30.7804 45.1125 31.3368 45.1125 31.917Z" stroke="#361452" stroke-linecap="round" stroke-linejoin="round"/>
</svg>
