<svg width="93" height="92" viewBox="0 0 93 92" fill="none" xmlns="http://www.w3.org/2000/svg">
<circle opacity="0.1" cx="46.6001" cy="46" r="46" fill="#4F70AF"/>
<path d="M54.4582 61.4284L53.3499 62.8125V53.8125H49.4124C49.3052 53.812 49.2004 53.781 49.1102 53.723C49.0201 53.6651 48.9482 53.5827 48.9032 53.4854C48.8582 53.3881 48.8418 53.28 48.856 53.1738C48.8703 53.0675 48.9144 52.9675 48.9834 52.8855L57.8499 41.8125V50.8125H61.7874C61.8949 50.8124 62.0001 50.8431 62.0907 50.9009C62.1812 50.9587 62.2534 51.0412 62.2985 51.1388C62.3436 51.2363 62.3599 51.3447 62.3453 51.4511C62.3308 51.5576 62.2861 51.6577 62.2164 51.7395L61.1081 53.1236L60.554 53.8157" stroke="#361452" stroke-linecap="round" stroke-linejoin="round"/>
<path d="M44.4264 56.7438C42.2293 56.7442 40.0743 56.1414 38.1964 55.0011C36.3184 53.8608 34.7895 52.2269 33.7764 50.2773" stroke="#361452" stroke-linecap="round" stroke-linejoin="round"/>
<path d="M44.4268 32.7441C46.6244 32.7443 48.7798 33.3481 50.6579 34.4894C52.5359 35.6308 54.0645 37.266 55.0768 39.2166" stroke="#361452" stroke-linecap="round" stroke-linejoin="round"/>
<path d="M47.4268 35.7441L44.4268 32.7441L47.4268 29.7441" stroke="#361452" stroke-linecap="round" stroke-linejoin="round"/>
<path d="M41.4268 53.7441L44.4268 56.7441L41.4268 59.7441" stroke="#361452" stroke-linecap="round" stroke-linejoin="round"/>
<path d="M41.3501 41.062C41.3501 42.4544 40.797 43.7897 39.8124 44.7743C38.8278 45.7589 37.4925 46.312 36.1001 46.312C34.7077 46.312 33.3724 45.7589 32.3878 44.7743C31.4032 43.7897 30.8501 42.4544 30.8501 41.062C30.8501 38.812 34.0181 32.362 35.4326 29.5975C35.4955 29.4746 35.5912 29.3715 35.7089 29.2995C35.8267 29.2275 35.9621 29.1895 36.1001 29.1895C36.2381 29.1895 36.3735 29.2275 36.4913 29.2995C36.609 29.3715 36.7047 29.4746 36.7676 29.5975C38.1821 32.362 41.3501 38.809 41.3501 41.062Z" stroke="#361452" stroke-linecap="round" stroke-linejoin="round"/>
<path d="M59.5524 55C59.5524 54.7502 59.3499 54.5477 59.1001 54.5477C58.8503 54.5477 58.6478 54.7502 58.6478 55L59.1001 55L59.5524 55ZM58.7803 64.3198C58.9569 64.4964 59.2433 64.4964 59.4199 64.3198L62.2981 61.4416C62.4747 61.265 62.4747 60.9786 62.2981 60.802C62.1215 60.6254 61.8351 60.6254 61.6585 60.802L59.1001 63.3604L56.5417 60.802C56.3651 60.6254 56.0787 60.6254 55.9021 60.802C55.7255 60.9786 55.7255 61.265 55.9021 61.4416L58.7803 64.3198ZM59.1001 55L58.6478 55L58.6478 64L59.1001 64L59.5524 64L59.5524 55L59.1001 55Z" fill="#361452"/>
</svg>
