<svg width="93" height="92" viewBox="0 0 93 92" fill="none" xmlns="http://www.w3.org/2000/svg">
<g opacity="0.1">
<circle cx="46.3999" cy="46" r="46" fill="url(#paint0_linear_6870_3854)"/>
<circle cx="46.3999" cy="46" r="46" fill="url(#paint1_linear_6870_3854)"/>
</g>
<path d="M55.9369 47.1891C56.02 47.1545 56.1121 47.1479 56.1993 47.1702C56.2865 47.1926 56.364 47.2427 56.4202 47.313C56.4764 47.3833 56.5081 47.47 56.5107 47.56C56.5132 47.65 56.4864 47.7383 56.4343 47.8117C55.9514 48.4764 55.7313 49.2962 55.8162 50.1134C55.9011 50.9306 56.2851 51.6875 56.8944 52.2387C57.3695 51.7684 57.7126 51.1814 57.8893 50.5367C57.9072 50.4752 57.9391 50.4188 57.9825 50.3717C58.026 50.3246 58.0797 50.2883 58.1395 50.2655C58.1994 50.2426 58.2637 50.234 58.3274 50.2402C58.3912 50.2464 58.4526 50.2673 58.5069 50.3013C59.2594 50.7896 59.8773 51.4588 60.3043 52.2477C60.7313 53.0366 60.9536 53.9199 60.9508 54.817C60.9508 56.1852 60.4073 57.4974 59.4398 58.4649C58.4723 59.4324 57.1601 59.976 55.7918 59.976C54.4236 59.976 53.1114 59.4324 52.1439 58.4649C51.1764 57.4974 50.6328 56.1852 50.6328 54.817C50.6696 53.165 51.1923 51.5605 52.1356 50.2039C53.0789 48.8473 54.4011 47.7987 55.9369 47.1891Z" stroke="#361452" stroke-linecap="round" stroke-linejoin="round"/>
<path d="M48.5 49.041H32.4583C32.0716 49.041 31.7006 48.8874 31.4271 48.6139C31.1536 48.3404 31 47.9695 31 47.5827V43.2077C31 42.4341 31.3073 41.6923 31.8543 41.1453C32.4013 40.5983 33.1431 40.291 33.9167 40.291H55.7917C56.5652 40.291 57.3071 40.5983 57.8541 41.1453C58.401 41.6923 58.7083 42.4341 58.7083 43.2077V43.9368" stroke="#361452" stroke-linecap="round" stroke-linejoin="round"/>
<path d="M34.646 40.2917L35.1564 35.6746C35.2171 34.9462 35.549 34.2672 36.0864 33.7719C36.6238 33.2766 37.3276 33.0011 38.0585 33H51.6502C52.381 33.0011 53.0848 33.2766 53.6223 33.7719C54.1597 34.2672 54.4916 34.9462 54.5522 35.6746L55.0627 40.2917" stroke="#361452" stroke-linecap="round" stroke-linejoin="round"/>
<path d="M33.9165 44.6663C33.9165 45.0531 34.0701 45.424 34.3436 45.6975C34.6171 45.971 34.9881 46.1247 35.3748 46.1247C35.7616 46.1247 36.1325 45.971 36.406 45.6975C36.6795 45.424 36.8332 45.0531 36.8332 44.6663C36.8332 44.2796 36.6795 43.9086 36.406 43.6351C36.1325 43.3617 35.7616 43.208 35.3748 43.208C34.9881 43.208 34.6171 43.3617 34.3436 43.6351C34.0701 43.9086 33.9165 44.2796 33.9165 44.6663Z" stroke="#361452" stroke-linecap="round" stroke-linejoin="round"/>
<path d="M53.0296 45.3462C52.8486 45.0026 52.8115 44.6011 52.9265 44.2301C53.0415 43.8591 53.2992 43.549 53.6428 43.368C53.9865 43.187 54.388 43.1499 54.7589 43.2649C55.1299 43.3799 55.44 43.6376 55.6211 43.9812" stroke="#361452" stroke-linecap="round" stroke-linejoin="round"/>
<path d="M38.2915 49.041V51.2285C38.2915 51.8087 38.061 52.3651 37.6508 52.7753C37.2406 53.1855 36.6842 53.416 36.104 53.416C35.5238 53.416 34.9674 53.1855 34.5572 52.7753C34.147 52.3651 33.9165 51.8087 33.9165 51.2285V49.041" stroke="#361452" stroke-linecap="round" stroke-linejoin="round"/>
<path d="M31 37.375L34.6458 40.2917" stroke="#361452" stroke-linecap="round" stroke-linejoin="round"/>
<path d="M58.7083 37.375L55.0625 40.2917" stroke="#361452" stroke-linecap="round" stroke-linejoin="round"/>
<defs>
<linearGradient id="paint0_linear_6870_3854" x1="0.399902" y1="0" x2="111.206" y2="40.3302" gradientUnits="userSpaceOnUse">
<stop offset="0.35" stop-color="#DE804B"/>
<stop offset="1" stop-color="#1E8BDA"/>
</linearGradient>
<linearGradient id="paint1_linear_6870_3854" x1="46.3999" y1="0" x2="46.3999" y2="92" gradientUnits="userSpaceOnUse">
<stop stop-color="white" stop-opacity="0.16"/>
<stop offset="1" stop-color="white" stop-opacity="0.4"/>
</linearGradient>
</defs>
</svg>
