<svg width="93" height="92" viewBox="0 0 93 92" fill="none" xmlns="http://www.w3.org/2000/svg">
<circle opacity="0.1" cx="46.6001" cy="46" r="46" fill="#4F70AF"/>
<path d="M46.5251 38.125C49.0105 38.125 51.0251 36.1103 51.0251 33.625C51.0251 31.1397 49.0105 29.125 46.5251 29.125C44.0399 29.125 42.0251 31.1397 42.0251 33.625C42.0251 36.1103 44.0399 38.125 46.5251 38.125Z" stroke="#361452" stroke-miterlimit="10" stroke-linecap="round" stroke-linejoin="round"/>
<path d="M48.3399 56.4964L38.4533 53.3839C36.8055 52.8346 34.9746 53.7501 34.4254 55.581C33.8761 57.2287 34.7916 59.0596 36.6224 59.6088L46.509 62.7213C48.1568 63.2706 49.9877 62.3551 50.5368 60.5242C50.9031 58.8765 49.9877 57.0456 48.3399 56.4964Z" stroke="#361452" stroke-miterlimit="10" stroke-linecap="round" stroke-linejoin="round"/>
<path d="M38.2751 53.3597V48.5605C38.2751 44.0605 42.0251 40.3105 46.5251 40.3105C51.0251 40.3105 54.7751 44.0605 54.7751 48.5605V52.9028" stroke="#361452" stroke-miterlimit="10" stroke-linecap="round" stroke-linejoin="round"/>
<path d="M42.7751 50.5098V54.7417" stroke="#361452" stroke-miterlimit="10" stroke-linecap="round" stroke-linejoin="round"/>
<path d="M50.2751 50.5098V53.9449" stroke="#361452" stroke-miterlimit="10" stroke-linecap="round" stroke-linejoin="round"/>
<path d="M54.415 59.8141L56.5782 59.1333C58.4089 58.584 59.3244 56.7531 58.7752 55.1053C58.2259 53.2746 56.395 52.3591 54.7473 52.9083L50.9995 54.0882" stroke="#361452" stroke-miterlimit="10" stroke-linecap="round" stroke-linejoin="round"/>
</svg>
