<svg width="93" height="92" viewBox="0 0 93 92" fill="none" xmlns="http://www.w3.org/2000/svg">
<g opacity="0.1">
<circle cx="46.2002" cy="46" r="46" fill="url(#paint0_linear_6870_3839)"/>
<circle cx="46.2002" cy="46" r="46" fill="url(#paint1_linear_6870_3839)"/>
</g>
<g clip-path="url(#clip0_6870_3839)">
<path d="M41.104 32.9167C41.104 33.6902 41.4113 34.4321 41.9583 34.9791C42.5053 35.526 43.2471 35.8333 44.0207 35.8333C44.7942 35.8333 45.5361 35.526 46.0831 34.9791C46.63 34.4321 46.9373 33.6902 46.9373 32.9167C46.9373 32.1431 46.63 31.4013 46.0831 30.8543C45.5361 30.3073 44.7942 30 44.0207 30C43.2471 30 42.5053 30.3073 41.9583 30.8543C41.4113 31.4013 41.104 32.1431 41.104 32.9167Z" stroke="#361452" stroke-linecap="round" stroke-linejoin="round"/>
<path d="M38.9167 43.8542V45.3125C38.9167 45.6993 39.0703 46.0702 39.3438 46.3437C39.6173 46.6172 39.9882 46.7708 40.375 46.7708H43.2917C43.6784 46.7708 44.0494 46.9245 44.3229 47.198C44.5964 47.4715 44.75 47.8424 44.75 48.2292C44.75 48.6159 44.5964 48.9869 44.3229 49.2604C44.0494 49.5339 43.6784 49.6875 43.2917 49.6875H40.375C39.2147 49.6875 38.1019 49.2266 37.2814 48.4061C36.4609 47.5856 36 46.4728 36 45.3125V44.5833C36 43.0362 36.6146 41.5525 37.7085 40.4585C38.8025 39.3646 40.2862 38.75 41.8333 38.75H45.784C47.0635 38.75 48.3076 39.1707 49.3245 39.9473C50.3414 40.7239 51.0748 41.8133 51.4117 43.0477L51.995 45.1725C52.287 46.2398 52.2694 47.3681 51.9443 48.4258C51.6192 49.4834 51 50.4268 50.159 51.1458L48.1858 52.836C48.0422 52.9712 47.8727 53.0759 47.6874 53.1437C47.5022 53.2115 47.3052 53.241 47.1082 53.2304C46.9112 53.2199 46.7185 53.1695 46.5416 53.0823C46.3646 52.9951 46.2072 52.8729 46.0789 52.7231C45.9505 52.5734 45.8539 52.3991 45.7948 52.2109C45.7358 52.0227 45.7155 51.8245 45.7352 51.6283C45.755 51.432 45.8143 51.2418 45.9097 51.0691C46.005 50.8965 46.1344 50.745 46.29 50.6238L48.2646 48.9321C48.6842 48.5726 48.9931 48.1013 49.1552 47.573C49.3173 47.0448 49.3261 46.4814 49.1804 45.9483L48.616 43.8819" stroke="#361452" stroke-linecap="round" stroke-linejoin="round"/>
<path d="M49.7273 51.5088L52.6498 54.9723" stroke="#361452" stroke-linecap="round" stroke-linejoin="round"/>
<path d="M36.7988 36.1865L47.8457 49.2794" stroke="#361452" stroke-linecap="round" stroke-linejoin="round"/>
<path d="M53.7534 54.3544C53.2529 54.5214 52.7981 54.8026 52.425 55.1756C52.0519 55.5487 51.7708 56.0035 51.6038 56.504C51.4487 56.9688 51.396 57.4617 51.4494 57.9488C51.5028 58.4359 51.6609 58.9056 51.9129 59.3259L54.5379 62.8259C54.6519 63.016 54.8077 63.1777 54.9936 63.2986C55.1794 63.4196 55.3903 63.4965 55.6104 63.5236C55.8304 63.5508 56.0538 63.5274 56.2634 63.4553C56.473 63.3831 56.6635 63.2641 56.8202 63.1073L60.3654 59.5621C60.5222 59.4054 60.6412 59.2149 60.7134 59.0053C60.7855 58.7956 60.8089 58.5723 60.7818 58.3523C60.7546 58.1322 60.6777 57.9213 60.5568 57.7354C60.4359 57.5496 60.2742 57.3938 60.084 57.2798L56.584 54.6548C56.162 54.4029 55.6904 54.2456 55.2017 54.1938C54.713 54.1419 54.2188 54.1967 53.7534 54.3544Z" stroke="#361452" stroke-linecap="round" stroke-linejoin="round"/>
<path d="M57.5538 62.3783L56.0955 60.9199" stroke="#361452" stroke-linecap="round" stroke-linejoin="round"/>
<path d="M59.3768 60.555L57.9185 59.0967" stroke="#361452" stroke-linecap="round" stroke-linejoin="round"/>
<path d="M47.6667 56.2493V62.0827C47.6667 62.4695 47.513 62.8404 47.2395 63.1139C46.966 63.3874 46.5951 63.541 46.2083 63.541H41.8333C41.4466 63.541 41.0756 63.3874 40.8021 63.1139C40.5286 62.8404 40.375 62.4695 40.375 62.0827V52.6035" stroke="#361452" stroke-linecap="round" stroke-linejoin="round"/>
<path d="M44.0208 63.541V54.791" stroke="#361452" stroke-linecap="round" stroke-linejoin="round"/>
</g>
<defs>
<linearGradient id="paint0_linear_6870_3839" x1="0.200195" y1="0" x2="111.006" y2="40.3302" gradientUnits="userSpaceOnUse">
<stop offset="0.35" stop-color="#DE804B"/>
<stop offset="1" stop-color="#1E8BDA"/>
</linearGradient>
<linearGradient id="paint1_linear_6870_3839" x1="46.2002" y1="0" x2="46.2002" y2="92" gradientUnits="userSpaceOnUse">
<stop stop-color="white" stop-opacity="0.16"/>
<stop offset="1" stop-color="white" stop-opacity="0.4"/>
</linearGradient>
<clipPath id="clip0_6870_3839">
<rect width="35" height="35" fill="white" transform="translate(29 29)"/>
</clipPath>
</defs>
</svg>
