<svg width="93" height="92" viewBox="0 0 93 92" fill="none" xmlns="http://www.w3.org/2000/svg">
<circle opacity="0.1" cx="46.8" cy="46" r="46" fill="#DE804B"/>
<path d="M55.321 42.1247C55.321 41.9313 55.2441 41.7458 55.1074 41.6091C54.9706 41.4723 54.7852 41.3955 54.5918 41.3955H50.946V37.7497C50.946 37.5563 50.8691 37.3708 50.7324 37.2341C50.5957 37.0973 50.4102 37.0205 50.2168 37.0205H44.3835C44.1901 37.0205 44.0046 37.0973 43.8679 37.2341C43.7311 37.3708 43.6543 37.5563 43.6543 37.7497V41.3955H40.0085C39.8151 41.3955 39.6296 41.4723 39.4929 41.6091C39.3561 41.7458 39.2793 41.9313 39.2793 42.1247V47.958C39.2793 48.1514 39.3561 48.3369 39.4929 48.4736C39.6296 48.6104 39.8151 48.6872 40.0085 48.6872H43.6543V52.333C43.6543 52.5264 43.7311 52.7119 43.8679 52.8486C44.0046 52.9854 44.1901 53.0622 44.3835 53.0622H50.2168C50.4102 53.0622 50.5957 52.9854 50.7324 52.8486C50.8691 52.7119 50.946 52.5264 50.946 52.333V48.6872H54.5918C54.7852 48.6872 54.9706 48.6104 55.1074 48.4736C55.2441 48.3369 55.321 48.1514 55.321 47.958V42.1247Z" stroke="#361452" stroke-linecap="round" stroke-linejoin="round"/>
<path d="M31.9875 34.5051V45.6424C32.0304 49.3225 33.2032 52.9005 35.3471 55.8919C37.491 58.8833 40.5024 61.1435 43.9736 62.3666L45.6084 62.9703C46.7005 63.3714 47.8996 63.3714 48.9917 62.9703L50.6265 62.3666C54.0977 61.1435 57.1091 58.8833 59.253 55.8919C61.3969 52.9005 62.5697 49.3225 62.6125 45.6424V34.5051C62.6111 34.0676 62.4812 33.64 62.2391 33.2756C61.997 32.9111 61.6532 32.6257 61.2505 32.4547C56.8326 30.6116 52.0867 29.6844 47.3 29.7291C42.5134 29.6844 37.7674 30.6116 33.3496 32.4547C32.9468 32.6257 32.6031 32.9111 32.361 33.2756C32.1189 33.64 31.989 34.0676 31.9875 34.5051Z" stroke="#361452" stroke-linecap="round" stroke-linejoin="round"/>
</svg>
