<svg width="93" height="92" viewBox="0 0 93 92" fill="none" xmlns="http://www.w3.org/2000/svg">
<g opacity="0.1">
<circle cx="46.3999" cy="46" r="46" fill="url(#paint0_linear_6870_3854)"/>
<circle cx="46.3999" cy="46" r="46" fill="url(#paint1_linear_6870_3854)"/>
</g>
<g clip-path="url(#clip0_6870_3854)">
<path d="M29.4937 62.9066C31.6524 62.9066 33.6672 61.7399 34.9624 60.1357C36.2576 61.7399 38.1285 62.9066 40.4312 62.9066C42.7338 62.9066 44.6046 61.7399 45.8999 60.1357C47.1952 61.7399 49.0661 62.9066 51.3687 62.9066C53.6712 62.9066 55.5421 61.7399 56.8374 60.1357C58.1327 61.7399 60.0036 62.9066 62.3062 62.9066" stroke="#361452" stroke-miterlimit="10" stroke-linecap="round" stroke-linejoin="round"/>
<path d="M38.5353 45.2601C38.3742 45.2601 38.2437 45.1296 38.2437 44.9684C38.2437 44.8073 38.3742 44.6768 38.5353 44.6768" stroke="#361452" stroke-miterlimit="10" stroke-linecap="round" stroke-linejoin="round"/>
<path d="M38.5356 45.2601C38.6967 45.2601 38.8273 45.1296 38.8273 44.9684C38.8273 44.8073 38.6967 44.6768 38.5356 44.6768" stroke="#361452" stroke-miterlimit="10" stroke-linecap="round" stroke-linejoin="round"/>
<path d="M53.1183 45.2601C52.9572 45.2601 52.8267 45.1296 52.8267 44.9684C52.8267 44.8073 52.9572 44.6768 53.1183 44.6768" stroke="#361452" stroke-miterlimit="10" stroke-linecap="round" stroke-linejoin="round"/>
<path d="M53.1187 45.2601C53.2798 45.2601 53.4103 45.1296 53.4103 44.9684C53.4103 44.8073 53.2798 44.6768 53.1187 44.6768" stroke="#361452" stroke-miterlimit="10" stroke-linecap="round" stroke-linejoin="round"/>
<path d="M57.5662 39.1357H34.2329V52.5524H57.5662V39.1357Z" stroke="#361452" stroke-miterlimit="10" stroke-linecap="round" stroke-linejoin="round"/>
<path d="M34.2329 52.5518V56.3434" stroke="#361452" stroke-miterlimit="10" stroke-linecap="round" stroke-linejoin="round"/>
<path d="M57.5669 52.5518V56.3434" stroke="#361452" stroke-miterlimit="10" stroke-linecap="round" stroke-linejoin="round"/>
<path d="M60.8475 39.1354C60.8475 34.7604 48.8892 30.0938 45.9725 30.0938C43.0558 30.0938 30.9517 34.7604 30.9517 39.1354H60.8475Z" stroke="#361452" stroke-miterlimit="10" stroke-linecap="round" stroke-linejoin="round"/>
<path d="M42.9829 56.3441V46.4274C42.9829 44.8233 44.2954 43.5107 45.8996 43.5107C47.5037 43.5107 48.8162 44.8233 48.8162 46.4274V56.3441" stroke="#361452" stroke-miterlimit="10" stroke-linecap="round" stroke-linejoin="round"/>
</g>
<defs>
<linearGradient id="paint0_linear_6870_3854" x1="0.399902" y1="0" x2="111.206" y2="40.3302" gradientUnits="userSpaceOnUse">
<stop offset="0.35" stop-color="#DE804B"/>
<stop offset="1" stop-color="#1E8BDA"/>
</linearGradient>
<linearGradient id="paint1_linear_6870_3854" x1="46.3999" y1="0" x2="46.3999" y2="92" gradientUnits="userSpaceOnUse">
<stop stop-color="white" stop-opacity="0.16"/>
<stop offset="1" stop-color="white" stop-opacity="0.4"/>
</linearGradient>
<clipPath id="clip0_6870_3854">
<rect width="35" height="35" fill="white" transform="translate(28.3999 29)"/>
</clipPath>
</defs>
</svg>
