<svg width="28" height="28" viewBox="0 0 28 28" fill="none" xmlns="http://www.w3.org/2000/svg">
<path d="M13.7305 2.99414C15.2682 2.99505 16.78 3.37476 18.1328 4.09863L18.4014 4.24805C19.7324 5.01676 20.8515 6.10245 21.6611 7.40625L21.8184 7.66992C22.6375 9.09092 23.0683 10.7028 23.0664 12.3428L23.0615 12.6504C23.0143 14.0806 22.6379 15.4814 21.9629 16.7441L21.8135 17.0127C21.0439 18.3437 19.9586 19.4617 18.6543 20.2695L18.3906 20.4268H18.3896C16.8978 21.2882 16.2155 22.2344 15.0898 24.2109L13.7705 26.5654L13.7686 26.5693C13.766 26.574 13.7613 26.5786 13.7539 26.583C13.7453 26.588 13.7368 26.5898 13.7295 26.5898L13.7061 26.583C13.7009 26.5795 13.6947 26.5738 13.6895 26.5654C11.7593 23.1433 11.139 21.7538 9.42676 20.6455L9.06836 20.4268L8.80469 20.2695C7.50092 19.4599 6.41519 18.3409 5.64551 17.0098C4.82445 15.5897 4.39158 13.979 4.39062 12.3389L4.39551 12.0312C4.44193 10.6 4.81787 9.19829 5.49219 7.93457L5.64062 7.66602C6.40842 6.33417 7.49339 5.21389 8.7959 4.40332L9.05957 4.24512C10.3908 3.4763 11.8899 3.04931 13.4238 2.99902L13.7305 2.99414Z" stroke="white"/>
<circle cx="14" cy="12" r="3.5" stroke="white"/>
</svg>
