<svg width="28" height="28" viewBox="0 0 28 28" fill="none" xmlns="http://www.w3.org/2000/svg">
<g clip-path="url(#clip0_1976_10414)">
<path d="M0.582031 27.4167H27.4154" stroke="white" stroke-linecap="round" stroke-linejoin="round"/>
<path d="M8.75 27.4167V6.41667C8.75 6.10725 8.87292 5.8105 9.09171 5.59171C9.3105 5.37292 9.60725 5.25 9.91667 5.25H18.0833C18.3928 5.25 18.6895 5.37292 18.9083 5.59171C19.1271 5.8105 19.25 6.10725 19.25 6.41667V27.4167" stroke="white" stroke-linecap="round" stroke-linejoin="round"/>
<path d="M26.2487 27.4167V16.3333C26.2487 16.1786 26.1872 16.0303 26.0778 15.9209C25.9684 15.8115 25.8201 15.75 25.6654 15.75H22.1654C22.0107 15.75 21.8623 15.8115 21.7529 15.9209C21.6435 16.0303 21.582 16.1786 21.582 16.3333V27.4167" stroke="white" stroke-linecap="round" stroke-linejoin="round"/>
<path d="M6.41667 27.4167V16.3333C6.41667 16.1786 6.35521 16.0303 6.24581 15.9209C6.13642 15.8115 5.98804 15.75 5.83333 15.75H2.33333C2.17862 15.75 2.03025 15.8115 1.92085 15.9209C1.81146 16.0303 1.75 16.1786 1.75 16.3333V27.4167" stroke="white" stroke-linecap="round" stroke-linejoin="round"/>
<path d="M5.25 15.75V14.5833" stroke="white" stroke-linecap="round" stroke-linejoin="round"/>
<path d="M22.75 15.75V14.5833" stroke="white" stroke-linecap="round" stroke-linejoin="round"/>
<path d="M15.75 5.25002V3.50002C15.75 3.34531 15.6885 3.19694 15.5791 3.08754C15.4697 2.97815 15.3214 2.91669 15.1667 2.91669H12.8333C12.6786 2.91669 12.5303 2.97815 12.4209 3.08754C12.3115 3.19694 12.25 3.34531 12.25 3.50002V5.25002" stroke="white" stroke-linecap="round" stroke-linejoin="round"/>
<path d="M14.582 2.91659V0.583252" stroke="white" stroke-linecap="round" stroke-linejoin="round"/>
<path d="M11.082 8.75H16.9154" stroke="white" stroke-linecap="round" stroke-linejoin="round"/>
<path d="M11.082 12.25H16.9154" stroke="white" stroke-linecap="round" stroke-linejoin="round"/>
<path d="M11.082 15.75H16.9154" stroke="white" stroke-linecap="round" stroke-linejoin="round"/>
<path d="M11.082 19.25H16.9154" stroke="white" stroke-linecap="round" stroke-linejoin="round"/>
<path d="M11.082 22.75H16.9154" stroke="white" stroke-linecap="round" stroke-linejoin="round"/>
</g>
<defs>
<clipPath id="clip0_1976_10414">
<rect width="28" height="28" fill="white"/>
</clipPath>
</defs>
</svg>
