<svg width="40" height="31" viewBox="0 0 40 31" fill="none" xmlns="http://www.w3.org/2000/svg">
<path d="M17.986 22.1427C17.986 17.6147 13.1793 13.4218 6.85533 15.6023C7.354 9.5184 12.8013 5.08211 17.7207 4.06372L17.986 4.00832V1L17.6173 1.03891C12.5007 1.58109 8.34 3.72404 5.46 7.04368C2.58067 10.3613 1 14.8346 1 20.0063C1 25.862 4.964 30.0714 10.3333 30.0714C14.7307 30.0714 17.9867 26.7043 17.9867 22.1433L17.986 22.1427ZM39.346 22.1427C39.346 17.6147 34.5393 13.4218 28.2153 15.6023C28.714 9.5184 34.1613 5.08211 39.0807 4.06372L39.346 4.00832V1L38.9773 1.03891C33.8607 1.58109 29.7 3.72404 26.82 7.04368C23.9407 10.3613 22.36 14.8346 22.36 20.0063C22.36 25.862 26.324 30.0714 31.6933 30.0714C36.0907 30.0714 39.3467 26.7043 39.3467 22.1433L39.346 22.1427Z" stroke="#555770"/>
</svg>
