<svg width="24" height="20" viewBox="0 0 24 20" fill="none" xmlns="http://www.w3.org/2000/svg">
<path d="M16.6494 0.75C17.8507 0.75 18.9959 1.28468 19.8076 2.16406L19.998 2.37012L20.2725 2.31543C20.9292 2.18409 21.565 1.99991 22.1797 1.75391C21.8377 2.21162 21.4081 2.60108 20.9014 2.89062L21.1855 3.82324C21.6492 3.79012 22.0836 3.71472 22.499 3.6123C22.1182 4.00872 21.7094 4.3828 21.2793 4.74121L21.0996 4.89062V5.72461C21.0996 12.0345 16.3164 19.2498 7.5752 19.25C5.64184 19.25 3.78098 18.8327 2.07422 18.1084C4.14763 17.9316 6.0748 17.1777 7.5918 15.9365L8.61719 15.0977L7.29297 15.0508C5.6729 14.9929 4.20606 14.0389 3.48047 12.6738C3.52133 12.674 3.56109 12.6748 3.59961 12.6748C4.10121 12.6748 4.52598 12.5904 4.95703 12.5186L4.97266 11.5352C3.17791 11.1762 1.76255 9.76085 1.45996 7.95117C1.98512 8.14044 2.54833 8.24995 3.14941 8.25H4.72559L3.43848 7.3418C2.28229 6.52566 1.47461 5.17122 1.47461 3.625C1.47461 3.06301 1.57291 2.53822 1.76562 2.0459C4.29936 4.82023 7.82263 6.60598 11.8223 6.82422L12.4668 6.85938L12.3398 6.22656C12.2631 5.84279 12.2002 5.517 12.2002 5.2002C12.2002 2.70639 14.2208 0.75021 16.6494 0.75Z" stroke="#5C5F68"/>
</svg>
