<svg width="24" height="24" viewBox="0 0 24 24" fill="none" xmlns="http://www.w3.org/2000/svg">
<path d="M12 3.5C15.1756 3.5 17.6146 3.60738 19.4033 3.73438L19.5986 3.75293C21.6028 3.98674 23.1662 5.59328 23.3271 7.65332L23.3955 8.63965C23.458 9.66599 23.5 10.8069 23.5 12C23.5 13.2361 23.4549 14.416 23.3887 15.4707L23.3164 16.4805C23.1562 18.4737 21.6714 20.027 19.7246 20.251L19.5352 20.2686C17.7288 20.3941 15.2058 20.5 12 20.5C9.59549 20.5 7.5751 20.4402 5.95312 20.3574L4.46484 20.2686C2.48926 20.1312 0.947862 18.6357 0.703125 16.6719L0.683594 16.4805C0.580321 15.1959 0.5 13.6478 0.5 12C0.5 10.4092 0.574733 8.91073 0.672852 7.65332L0.693359 7.45605C0.943536 5.42593 2.56482 3.87865 4.59668 3.73438L6.06152 3.64453C7.65098 3.56068 9.61827 3.5 12 3.5ZM10.5 14.1582L14.4561 12L10.5 9.84082V14.1582Z" stroke="#5C5F68"/>
</svg>
