<svg width="48" height="48" viewBox="0 0 48 48" fill="none" xmlns="http://www.w3.org/2000/svg">
<path d="M15 16.5C15 18.8869 15.9482 21.1761 17.636 22.864C19.3239 24.5518 21.6131 25.5 24 25.5C26.3869 25.5 28.6761 24.5518 30.364 22.864C32.0518 21.1761 33 18.8869 33 16.5C33 14.1131 32.0518 11.8239 30.364 10.136C28.6761 8.44821 26.3869 7.5 24 7.5C21.6131 7.5 19.3239 8.44821 17.636 10.136C15.9482 11.8239 15 14.1131 15 16.5Z" fill="white" fill-opacity="0.2" stroke="white" stroke-linecap="round" stroke-linejoin="round"/>
<path d="M21 13.5H27" stroke="white" stroke-linecap="round" stroke-linejoin="round"/>
<path d="M24 7.5V1.5" stroke="white" stroke-linecap="round" stroke-linejoin="round"/>
<path d="M1.5 16.5H15" stroke="white" stroke-linecap="round" stroke-linejoin="round"/>
<path d="M9 16.5V19.5" stroke="white" stroke-linecap="round" stroke-linejoin="round"/>
<path d="M46.5 16.5H33" stroke="white" stroke-linecap="round" stroke-linejoin="round"/>
<path d="M39 16.5V19.5" stroke="white" stroke-linecap="round" stroke-linejoin="round"/>
<path d="M1.5 46.5L10.5 27" stroke="white" stroke-linecap="round" stroke-linejoin="round"/>
<path d="M46.5 46.5L37.5 27" stroke="white" stroke-linecap="round" stroke-linejoin="round"/>
<path d="M24 40.5V46.5" stroke="white" stroke-linecap="round" stroke-linejoin="round"/>
<path d="M24 30V34.5" stroke="white" stroke-linecap="round" stroke-linejoin="round"/>
</svg>
