<svg width="58" height="53" viewBox="0 0 58 53" fill="none" xmlns="http://www.w3.org/2000/svg">
<path d="M29.1368 31.4401C21.6568 31.4401 14.3128 31.4401 6.83277 31.4401C5.20077 31.4401 4.38477 30.6241 4.38477 28.9921C4.38477 20.2881 4.38477 11.5841 4.38477 3.01612C4.38477 1.38412 5.20077 0.568115 6.83277 0.568115C21.7928 0.568115 36.7528 0.568115 51.7128 0.568115C53.3448 0.568115 54.0248 1.38411 54.0248 2.88012C54.0248 11.5841 54.0248 20.2881 54.0248 28.9921C54.0248 30.4881 53.2088 31.3041 51.7128 31.3041C44.2328 31.4401 36.6168 31.4401 29.1368 31.4401ZM29.2728 30.4881C36.7528 30.4881 44.0968 30.4881 51.5768 30.4881C52.8008 30.4881 53.2088 30.0801 53.2088 28.8561C53.2088 20.2881 53.2088 11.7201 53.2088 3.15211C53.2088 1.79211 52.8008 1.52011 51.5768 1.52011C36.6168 1.52011 21.7928 1.52011 6.96877 1.52011C5.60877 1.52011 5.33677 1.79211 5.33677 3.15211C5.33677 11.7201 5.33677 20.2881 5.33677 28.8561C5.33677 30.2161 5.60877 30.4881 6.96877 30.4881C14.4488 30.4881 21.7928 30.4881 29.2728 30.4881Z" fill="#361452"/>
<path d="M30.9043 51.8402V51.2962C30.9043 51.1602 30.9043 51.0242 30.9043 50.8882V43.0002C30.9043 41.7762 31.3123 41.3682 32.5363 41.3682H40.2883C41.3763 41.3682 41.9203 41.9122 41.9203 43.0002V51.8402H30.9043Z" fill="white"/>
<path d="M36.6164 41.6402C37.8404 41.6402 39.0644 41.6402 40.2884 41.6402C41.1044 41.6402 41.5124 41.9122 41.5124 42.8642C41.5124 45.7202 41.5124 48.5762 41.5124 51.4322C38.1124 51.4322 34.7124 51.4322 31.3124 51.4322C31.3124 51.2962 31.3124 51.0242 31.3124 50.8882C31.3124 48.3042 31.3124 45.5842 31.3124 43.0002C31.3124 42.0482 31.5844 41.7762 32.5364 41.7762C33.8964 41.6402 35.2564 41.6402 36.6164 41.6402ZM36.6164 40.8242H32.5364C31.0404 40.8242 30.3604 41.5042 30.3604 42.8642C30.3604 45.4482 30.3604 48.1682 30.3604 50.7522C30.3604 50.8882 30.3604 51.0242 30.3604 51.1602V51.2962V52.1122H31.1764H41.3763H42.1924V51.2962V49.1202V42.7282C42.1924 41.3682 41.5124 40.6882 40.1524 40.6882L36.6164 40.8242Z" fill="#361452"/>
<path d="M46 51.8402V51.1602C46 51.0242 46 50.8882 46 50.7522V42.8642C46 41.6402 46.408 41.0962 47.632 41.0962H55.384C56.744 41.0962 56.88 42.0482 56.88 42.4562C56.88 44.6322 56.88 46.6722 56.88 48.8482V51.7042L46 51.8402Z" fill="white"/>
<path d="M51.7121 41.6402C52.9361 41.6402 54.1601 41.6402 55.3841 41.6402C56.0641 41.6402 56.4721 41.9122 56.4721 42.5922C56.4721 45.4482 56.4721 48.4402 56.4721 51.4322C53.0721 51.4322 49.8081 51.4322 46.4081 51.4322C46.4081 51.1602 46.4081 51.0242 46.4081 50.8882C46.4081 48.3042 46.4081 45.5842 46.4081 43.0002C46.4081 42.0482 46.6801 41.7762 47.6321 41.7762C48.9921 41.6402 50.3521 41.6402 51.7121 41.6402ZM51.7121 40.8242H47.6321C46.1361 40.8242 45.4561 41.5042 45.4561 43.0002C45.4561 45.5842 45.4561 48.3042 45.4561 50.8882C45.4561 51.0242 45.4561 51.1602 45.4561 51.2962V51.4322V52.2482H46.2721H56.3361H57.1521V51.4322V49.1202C57.1521 46.9442 57.1521 44.7682 57.1521 42.5922C57.1521 41.7762 56.6081 40.8242 55.1121 40.8242H51.7121Z" fill="#361452"/>
<path d="M15.9453 51.8402V43.0002C15.9453 41.7762 16.3533 41.3682 17.5773 41.3682H25.3293C26.4173 41.3682 26.9613 41.9122 26.9613 43.0002V51.0242C26.9613 51.1602 26.9613 51.2962 26.9613 51.4322V52.1122H15.9453V51.8402Z" fill="white"/>
<path d="M21.5209 41.6402C22.7449 41.6402 24.1049 41.6402 25.3289 41.6402C26.2809 41.6402 26.5529 41.9122 26.5529 42.8642C26.5529 45.5842 26.5529 48.1682 26.5529 50.8882C26.5529 51.0242 26.5529 51.1602 26.5529 51.4322C23.1529 51.4322 19.8889 51.4322 16.3529 51.4322C16.3529 51.2962 16.3529 51.0242 16.3529 50.8882C16.3529 48.3042 16.3529 45.5842 16.3529 43.0002C16.3529 42.0482 16.6249 41.7762 17.5769 41.7762C18.9369 41.6402 20.1609 41.6402 21.5209 41.6402ZM21.5209 40.8242H17.7129C16.2169 40.8242 15.6729 41.5042 15.6729 43.0002C15.6729 44.9042 15.6729 46.6722 15.6729 48.5762V50.8882V51.4322V52.2482H16.4889H26.6889H27.5049V51.4322V51.2962C27.5049 51.1602 27.5049 51.0242 27.5049 50.8882C27.5049 48.1682 27.5049 45.5842 27.5049 42.8642C27.5049 41.5042 26.8249 40.8242 25.4649 40.8242H21.5209Z" fill="#361452"/>
<path d="M0.984375 51.8402V51.2962C0.984375 51.1602 0.984375 51.0242 0.984375 50.8882V42.8642C0.984375 41.7762 1.52837 41.2322 2.61637 41.2322H10.5044C11.7284 41.2322 12.0004 42.0482 12.0004 42.5922C12.0004 44.9042 12.0004 47.3522 12.0004 49.6642V51.0242C12.0004 51.1602 12.0004 51.1602 12.0004 51.2962V51.7042L11.5924 51.8402H0.984375Z" fill="white"/>
<path d="M6.42443 41.6402C7.78443 41.6402 9.00843 41.6402 10.3684 41.6402C11.0484 41.6402 11.4564 41.9122 11.4564 42.5922C11.4564 45.4482 11.4564 48.3042 11.4564 51.0242C11.4564 51.1602 11.4564 51.1602 11.4564 51.2962C8.05643 51.2962 4.79243 51.2962 1.39243 51.2962C1.39243 51.1602 1.39243 51.0242 1.39243 50.8882C1.39243 48.1682 1.39243 45.4482 1.39243 42.8642C1.39243 42.0482 1.66443 41.7762 2.48043 41.7762C3.84043 41.6402 5.20043 41.6402 6.42443 41.6402ZM6.42443 40.8242H2.48043C1.12043 40.8242 0.44043 41.5042 0.44043 42.8642C0.44043 45.5842 0.44043 48.3042 0.44043 50.8882C0.44043 51.0242 0.44043 51.1602 0.44043 51.2962V51.4322V52.2482H1.25643H11.3204H12.1364L12.2724 51.4322V51.2962C12.2724 51.1602 12.2724 51.1602 12.2724 51.0242V49.1202C12.2724 46.9442 12.2724 44.7682 12.2724 42.5922C12.2724 42.0482 12.0004 40.8242 10.3684 40.8242H6.42443Z" fill="#361452"/>
<path d="M41.9205 46.5359V42.864C41.9205 41.64 41.3765 41.232 40.2885 41.232H38.5205V38.512C38.5205 36.472 38.7925 36.2 40.8325 36.2H47.4965C48.7205 36.2 49.2645 36.744 49.2645 37.968V41.3679H47.7685H47.2245C46.4085 41.3679 45.8645 41.912 45.8645 42.728C45.8645 43.408 45.8645 44.088 45.8645 44.768V46.672L41.9205 46.5359Z" fill="white"/>
<path d="M44.7763 36.472C45.7283 36.472 46.6803 36.472 47.6323 36.472C48.7203 36.472 48.9923 36.744 48.9923 37.832C48.9923 38.784 48.9923 39.736 48.9923 40.824C48.5843 40.824 48.3123 40.824 48.0403 40.824C47.9043 40.824 47.6323 40.824 47.4963 40.824C46.4083 40.824 45.7283 41.504 45.5923 42.592C45.5923 43.544 45.5923 44.496 45.5923 45.448C45.5923 45.584 45.5923 45.856 45.5923 45.992C44.5043 45.992 43.4163 45.992 42.4643 45.992C42.4643 44.904 42.4643 43.816 42.4643 42.728C42.4643 41.232 41.7843 40.688 40.2883 40.688C40.1523 40.688 40.0163 40.688 39.8803 40.688C39.6083 40.688 39.3363 40.688 39.0643 40.688C39.0643 39.872 39.0643 39.056 39.0643 38.376C39.0643 36.608 39.2003 36.472 40.9683 36.472C42.1923 36.472 43.5523 36.472 44.7763 36.472ZM44.7763 35.52H42.8723H40.9683C38.6563 35.52 38.1123 36.064 38.1123 38.376V40.688V41.504H38.9283H39.4723H39.8803H40.2883C41.2403 41.504 41.5123 41.776 41.5123 42.728V45.176V45.992V46.808H42.3283H45.4563H46.2723V45.992V45.448V44.496C46.2723 43.816 46.2723 43.136 46.2723 42.456C46.2723 41.776 46.5443 41.504 47.2243 41.504C47.3603 41.504 47.6323 41.504 47.7683 41.504H48.1763H48.7203H49.5363V40.688V39.6V37.696C49.5363 36.2 48.8563 35.384 47.2243 35.384L44.7763 35.52Z" fill="#361452"/>
<path d="M12.0006 46.536V42.864C12.0006 41.64 11.4566 41.232 10.3686 41.232H8.60059V39.736C8.60059 38.92 8.60059 38.104 8.60059 37.288C8.60059 36.472 9.28059 35.928 9.96059 35.928C11.1846 35.928 12.5446 35.928 13.7686 35.928C15.1286 35.928 16.4886 35.928 17.9846 35.928C18.8006 35.928 19.3446 36.472 19.3446 37.288C19.3446 38.104 19.3446 38.92 19.3446 39.6V41.096H17.4406C16.3526 41.096 15.8086 41.64 15.8086 42.728C15.8086 43.408 15.8086 43.952 15.8086 44.632V46.536H12.0006Z" fill="white"/>
<path d="M13.9046 36.472C15.2646 36.472 16.6246 36.472 17.9846 36.472C18.5286 36.472 18.9366 36.88 18.9366 37.424C18.9366 38.512 18.9366 39.6 18.9366 40.824C18.6646 40.824 18.2566 40.824 17.9846 40.824C17.8486 40.824 17.5766 40.824 17.4406 40.824C16.0806 40.824 15.4006 41.504 15.4006 42.864C15.4006 43.816 15.4006 44.632 15.4006 45.584C15.4006 45.72 15.4006 45.992 15.4006 46.128C14.3126 46.128 13.3606 46.128 12.2726 46.128C12.2726 45.04 12.2726 43.952 12.2726 42.864C12.2726 41.368 11.5926 40.688 10.0966 40.688C9.96064 40.688 9.82464 40.688 9.68864 40.688C9.41664 40.688 9.14464 40.688 8.87264 40.688C8.87264 39.464 8.87264 38.376 8.87264 37.288C8.87264 36.744 9.28064 36.472 9.82464 36.472C11.3206 36.472 12.6806 36.472 13.9046 36.472ZM13.9046 35.52C12.5446 35.52 11.3206 35.52 9.96064 35.52C8.87264 35.52 8.19264 36.2 8.05664 37.288C8.05664 38.104 8.05664 38.92 8.05664 39.736C8.05664 40.008 8.05664 40.416 8.05664 40.688V41.504H8.87264H9.28064H9.96064H10.3686C11.3206 41.504 11.5926 41.776 11.5926 42.728C11.5926 43.408 11.5926 44.224 11.5926 44.904V45.992V46.808H12.4086H15.5366H16.3526V45.992V45.448V44.632C16.3526 43.952 16.3526 43.408 16.3526 42.728C16.3526 41.912 16.6246 41.64 17.4406 41.64H17.9846H18.3926H18.9366H19.7526V40.824V39.736C19.7526 38.92 19.7526 38.104 19.7526 37.288C19.7526 36.2 18.9366 35.52 17.8486 35.52C16.7606 35.52 15.4006 35.52 13.9046 35.52Z" fill="#361452"/>
<path d="M27.0963 46.536V45.176C27.0963 44.36 27.0963 43.68 27.0963 42.864C27.0963 42.592 27.0963 42.32 26.9603 42.048C26.8243 41.504 26.2803 41.096 25.7363 41.096C25.4643 41.096 24.6483 41.096 24.6483 41.096H23.6963V39.6C23.6963 38.784 23.6963 37.968 23.6963 37.288C23.6963 36.472 24.3763 35.928 25.3283 35.928H32.9443C34.0323 35.928 34.5763 36.472 34.5763 37.56C34.5763 38.24 34.5763 39.056 34.5763 39.736V41.232H32.5363C31.5843 41.232 31.0403 41.776 31.0403 42.728C31.0403 43.272 31.0403 45.448 31.0403 45.448V46.4H27.0963V46.536Z" fill="white"/>
<path d="M31.4486 36.472C31.8566 36.472 32.2646 36.472 32.6726 36.472C33.4886 36.472 33.8966 36.88 33.8966 37.696C33.8966 38.784 33.8966 39.736 33.8966 40.824C33.4886 40.824 33.2166 40.824 32.9446 40.824C32.8086 40.824 32.5366 40.824 32.4006 40.824C31.1766 40.824 30.4966 41.504 30.4966 42.728C30.4966 43.68 30.4966 44.632 30.4966 45.584C30.4966 45.72 30.4966 45.992 30.4966 46.128C29.5446 46.128 28.5926 46.128 27.5046 46.128C27.5046 45.04 27.5046 43.952 27.5046 42.864C27.5046 42.592 27.5046 42.184 27.3686 41.912C27.0966 41.232 26.4166 40.688 25.7366 40.688C25.4646 40.688 25.3286 40.688 25.0566 40.688C24.6486 40.688 24.3766 40.688 23.9686 40.688C23.9686 39.464 23.9686 38.376 23.9686 37.288C23.9686 36.744 24.5126 36.472 25.0566 36.336C25.7366 36.336 26.4166 36.336 27.0966 36.336C27.9126 36.336 28.7286 36.336 29.5446 36.336C30.2246 36.472 30.9046 36.472 31.4486 36.472ZM31.4486 35.52H30.4966H29.5446H28.3206H27.0966C26.4166 35.52 25.7366 35.52 25.0566 35.52C23.8326 35.52 23.0166 36.2 23.0166 37.288C23.0166 38.104 23.0166 38.92 23.0166 39.736C23.0166 40.008 23.0166 40.416 23.0166 40.688V41.504H23.8326H24.3766H24.9206C25.1926 41.504 25.3286 41.504 25.6006 41.504C26.0086 41.504 26.4166 41.776 26.4166 42.048C26.4166 42.184 26.4166 42.456 26.4166 42.728C26.4166 43.544 26.4166 44.224 26.4166 45.04V45.992V46.808H27.2326H30.2246H31.0406V45.992V45.448V44.632C31.0406 43.952 31.0406 43.408 31.0406 42.728C31.0406 42.048 31.3126 41.64 32.1286 41.64H32.6726H33.0806H33.6246H34.4406V40.824V39.872C34.4406 39.192 34.4406 38.376 34.4406 37.696C34.4406 36.336 33.6246 35.656 32.4006 35.656C32.4006 35.52 31.8566 35.52 31.4486 35.52Z" fill="#361452"/>
<path d="M21.1123 16.3442C21.1123 13.8962 21.1123 11.4482 21.1123 9.00021C21.1123 7.36821 22.4723 6.68821 23.8323 7.50421C28.0483 9.95221 32.2643 12.4002 36.6163 14.8482C37.1603 15.1202 37.5683 15.5282 37.5683 16.2082C37.5683 17.0242 37.2963 17.4322 36.6163 17.8402C33.4883 19.6082 30.4963 21.3762 27.3683 23.1442C26.1443 23.8242 24.9203 24.5042 23.6963 25.1842C22.3363 25.8642 21.1123 25.1842 21.1123 23.6882C21.1123 21.2402 21.1123 18.7922 21.1123 16.3442ZM22.0643 16.3442C22.0643 18.7922 22.0643 21.2402 22.0643 23.6882C22.0643 24.7762 22.4723 25.0482 23.4243 24.5042C27.6403 22.0562 31.8563 19.6082 36.0723 17.2962C36.8883 16.7522 36.8883 16.2082 36.0723 15.8002C31.8563 13.3522 27.6403 10.9042 23.4243 8.45621C22.6083 7.91221 22.0643 8.18421 22.0643 9.27221C22.0643 11.4482 22.0643 13.8962 22.0643 16.3442Z" fill="#361452"/>
<path d="M22.0645 16.3441C22.0645 13.8961 22.0645 11.4481 22.0645 9.00009C22.0645 8.04809 22.4725 7.77609 23.4245 8.18409C27.6405 10.6321 31.8565 13.0801 36.0725 15.5281C36.8885 16.0721 36.8885 16.6161 36.0725 17.0241C31.8565 19.4721 27.6405 21.9201 23.4245 24.2321C22.4725 24.7761 22.0645 24.5041 22.0645 23.4161C22.0645 21.2401 22.0645 18.7921 22.0645 16.3441Z" fill="white"/>
</svg>
