<svg width="21" height="20" viewBox="0 0 21 20" fill="none" xmlns="http://www.w3.org/2000/svg">
<path d="M18.9007 16.6668C18.9007 16.9983 18.769 17.3162 18.5346 17.5507C18.3002 17.7851 17.9822 17.9168 17.6507 17.9168C17.3192 17.9168 17.0013 17.7851 16.7668 17.5507C16.5324 17.3162 16.4007 16.9983 16.4007 16.6668V6.86677C16.4009 6.82611 16.3891 6.7863 16.3669 6.75224C16.3447 6.71818 16.313 6.69137 16.2757 6.67511C16.237 6.65864 16.1943 6.6538 16.1528 6.6612C16.1114 6.6686 16.073 6.68791 16.0424 6.71677L5.20905 17.5501C5.09305 17.6667 4.95523 17.7592 4.80346 17.8225C4.65168 17.8858 4.48893 17.9186 4.3245 17.9189C4.16006 17.9193 3.99716 17.8873 3.84509 17.8248C3.69302 17.7622 3.55476 17.6703 3.43822 17.5543C3.20284 17.32 3.07016 17.0018 3.06938 16.6697C3.0686 16.3376 3.19977 16.0188 3.43405 15.7834L14.2674 4.95011C14.29 4.91693 14.302 4.87773 14.302 4.83761C14.302 4.79748 14.29 4.75828 14.2674 4.72511C14.2511 4.68784 14.2243 4.65615 14.1902 4.63394C14.1562 4.61173 14.1164 4.59997 14.0757 4.60011H4.31738C3.98586 4.60011 3.66792 4.46841 3.4335 4.23399C3.19908 3.99957 3.06738 3.68163 3.06738 3.35011C3.06738 3.01859 3.19908 2.70064 3.4335 2.46622C3.66792 2.2318 3.98586 2.10011 4.31738 2.10011H16.8174C17.0931 2.09961 17.3663 2.15386 17.6209 2.25972C17.8755 2.36558 18.1066 2.52093 18.3007 2.71677C18.6798 3.1049 18.8947 3.62424 18.9007 4.16677V16.6668Z" fill="#DE804B"/>
</svg>
