<svg width="24" height="24" viewBox="0 0 24 24" fill="none" xmlns="http://www.w3.org/2000/svg">
<mask id="mask0_2465_14828" style="mask-type:alpha" maskUnits="userSpaceOnUse" x="0" y="0" width="24" height="24">
<rect width="24" height="24" transform="matrix(0 -1 -1 0 24 24)" fill="#C4C4C4"/>
</mask>
<g mask="url(#mask0_2465_14828)">
<path d="M15.3587 5.72456C15.5806 5.94645 15.6008 6.29367 15.4192 6.53835L15.3587 6.60845L9.96758 11.9998L15.3587 17.3912C15.5806 17.6131 15.6008 17.9603 15.4192 18.205L15.3587 18.2751C15.1368 18.497 14.7896 18.5172 14.5449 18.3356L14.4748 18.2751L8.64147 12.4418C8.41959 12.2199 8.39941 11.8727 8.58096 11.628L8.64147 11.5579L14.4748 5.72456C14.7189 5.48048 15.1146 5.48048 15.3587 5.72456Z" fill="#22252E"/>
</g>
</svg>
