<svg width="68" height="68" viewBox="0 0 68 68" fill="none" xmlns="http://www.w3.org/2000/svg">
<g clip-path="url(#clip0_6923_7014)">
<path d="M62.333 56.6666C62.333 57.7938 61.8852 58.8748 61.0882 59.6718C60.2912 60.4689 59.2102 60.9166 58.083 60.9166C56.9558 60.9166 55.8748 60.4689 55.0778 59.6718C54.2808 58.8748 53.833 57.7938 53.833 56.6666C53.833 54.3206 58.083 39.6666 58.083 39.6666C58.083 39.6666 62.333 54.3206 62.333 56.6666Z" stroke="#361452" stroke-linecap="round" stroke-linejoin="round"/>
<path d="M58.083 60.9166V66.5833" stroke="#361452" stroke-linecap="round" stroke-linejoin="round"/>
<path d="M43.917 15.5834V66.5834" stroke="#361452" stroke-linecap="round" stroke-linejoin="round"/>
<path d="M9.91699 66.5834V15.5834" stroke="#361452" stroke-linecap="round" stroke-linejoin="round"/>
<path d="M48.167 15.5833H5.66699L9.22849 6.08883C9.4309 5.54887 9.79324 5.08353 10.2671 4.75495C10.741 4.42638 11.3038 4.25022 11.8805 4.25H41.9535C42.5301 4.25022 43.093 4.42638 43.5669 4.75495C44.0407 5.08353 44.4031 5.54887 44.6055 6.08883L48.167 15.5833Z" stroke="#361452" stroke-linecap="round" stroke-linejoin="round"/>
<path d="M35.417 1.41669V4.25002" stroke="#361452" stroke-linecap="round" stroke-linejoin="round"/>
<path d="M24.083 66.5833V58.0833C24.083 57.3319 24.3815 56.6112 24.9129 56.0799C25.4442 55.5485 26.1649 55.25 26.9163 55.25C27.6678 55.25 28.3885 55.5485 28.9198 56.0799C29.4512 56.6112 29.7497 57.3319 29.7497 58.0833V66.5833" stroke="#361452" stroke-linecap="round" stroke-linejoin="round"/>
<path d="M15.583 24.0834H18.4163" stroke="#361452" stroke-linecap="round" stroke-linejoin="round"/>
<path d="M15.583 32.5834H18.4163" stroke="#361452" stroke-linecap="round" stroke-linejoin="round"/>
<path d="M15.583 41.0834H18.4163" stroke="#361452" stroke-linecap="round" stroke-linejoin="round"/>
<path d="M15.583 49.5834H18.4163" stroke="#361452" stroke-linecap="round" stroke-linejoin="round"/>
<path d="M15.583 58.0834H18.4163" stroke="#361452" stroke-linecap="round" stroke-linejoin="round"/>
<path d="M35.417 58.0834H38.2503" stroke="#361452" stroke-linecap="round" stroke-linejoin="round"/>
<path d="M24.083 24.0834H29.7497" stroke="#361452" stroke-linecap="round" stroke-linejoin="round"/>
<path d="M24.083 32.5834H29.7497" stroke="#361452" stroke-linecap="round" stroke-linejoin="round"/>
<path d="M24.083 41.0834H29.7497" stroke="#361452" stroke-linecap="round" stroke-linejoin="round"/>
<path d="M24.083 49.5834H29.7497" stroke="#361452" stroke-linecap="round" stroke-linejoin="round"/>
<path d="M35.417 24.0834H38.2503" stroke="#361452" stroke-linecap="round" stroke-linejoin="round"/>
<path d="M35.417 32.5834H38.2503" stroke="#361452" stroke-linecap="round" stroke-linejoin="round"/>
<path d="M35.417 41.0834H38.2503" stroke="#361452" stroke-linecap="round" stroke-linejoin="round"/>
<path d="M35.417 49.5834H38.2503" stroke="#361452" stroke-linecap="round" stroke-linejoin="round"/>
<path d="M1.41699 66.5834H66.5837" stroke="#361452" stroke-linecap="round" stroke-linejoin="round"/>
</g>
<defs>
<clipPath id="clip0_6923_7014">
<rect width="68" height="68" fill="white"/>
</clipPath>
</defs>
</svg>
