<svg width="32" height="32" viewBox="0 0 32 32" fill="none" xmlns="http://www.w3.org/2000/svg">
<path d="M18.7245 27.8041L18.7378 27.8121C19.8898 28.5458 21.2576 28.8645 22.6152 28.7157C23.9728 28.5669 25.2389 27.9593 26.2045 26.9934L27.0432 26.1534C27.4181 25.7783 27.6288 25.2697 27.6288 24.7394C27.6288 24.209 27.4181 23.7005 27.0432 23.3254L23.5085 19.7894C23.3228 19.6035 23.1022 19.4561 22.8596 19.3555C22.6168 19.2549 22.3566 19.2031 22.0938 19.2031C21.831 19.2031 21.5709 19.2549 21.3282 19.3555C21.0854 19.4561 20.8649 19.6035 20.6792 19.7894C20.3041 20.1643 19.7956 20.375 19.2652 20.375C18.7349 20.375 18.2262 20.1643 17.8512 19.7894L12.1925 14.1334C12.0066 13.9477 11.8592 13.7271 11.7586 13.4843C11.658 13.2417 11.6063 12.9815 11.6063 12.7187C11.6063 12.456 11.658 12.1958 11.7586 11.9531C11.8592 11.7103 12.0066 11.4898 12.1925 11.3041C12.5674 10.929 12.7781 10.4204 12.7781 9.89007C12.7781 9.35973 12.5674 8.85112 12.1925 8.47607L8.6565 4.94007C8.28145 4.56512 7.77284 4.35449 7.2425 4.35449C6.71218 4.35449 6.20357 4.56512 5.8285 4.94007L4.9885 5.78007C4.02262 6.74564 3.41506 8.01184 3.26622 9.36944C3.11737 10.7271 3.43613 12.0948 4.16984 13.2467L4.17784 13.2601C8.0531 18.9929 12.991 23.9298 18.7245 27.8041Z" stroke="#144D78" stroke-linecap="round" stroke-linejoin="round"/>
</svg>
