<svg width="68" height="68" viewBox="0 0 68 68" fill="none" xmlns="http://www.w3.org/2000/svg">
<path d="M41.9131 24.9565C41.9131 25.2563 41.794 25.5438 41.582 25.7558C41.37 25.9678 41.0824 26.0869 40.7826 26.0869H18.1737C17.8738 26.0869 17.5863 25.9678 17.3743 25.7558C17.1623 25.5438 17.0432 25.2563 17.0432 24.9565V13.652C17.0432 12.1529 17.6387 10.7153 18.6987 9.65526C19.7587 8.59526 21.1964 7.99976 22.6955 7.99976H58.8698C59.0415 7.9998 59.211 8.03897 59.3653 8.11428C59.5196 8.18959 59.6547 8.29906 59.7604 8.43439C59.8661 8.56972 59.9396 8.72735 59.9753 8.89531C60.0109 9.06328 60.0079 9.23716 59.9663 9.40377L58.2164 16.4126C58.168 16.6059 58.0693 16.7831 57.9303 16.926C57.7914 17.069 57.617 17.1726 57.4251 17.2265L41.9131 21.5651V24.9565Z" stroke="#361452" stroke-linecap="round" stroke-linejoin="round"/>
<path d="M50.9565 19.0327V29.4781C50.9565 29.7779 50.8374 30.0654 50.6254 30.2774C50.4134 30.4894 50.1259 30.6085 49.8261 30.6085H23.8257C22.6265 30.6085 21.4764 30.1321 20.6284 29.2841C19.7804 28.4361 19.304 27.286 19.304 26.0867" stroke="#361452" stroke-linecap="round" stroke-linejoin="round"/>
<path d="M55.4788 22.6956V27.2174" stroke="#361452" stroke-linecap="round" stroke-linejoin="round"/>
<path d="M26.0865 35.1304H35.1301" stroke="#361452" stroke-linecap="round" stroke-linejoin="round"/>
<path d="M30.609 35.1304V46.8418C30.6096 47.3634 30.4299 47.8692 30.1002 48.2734C29.7706 48.6776 29.3113 48.9554 28.8003 49.0598L8 53.2175" stroke="#361452" stroke-linecap="round" stroke-linejoin="round"/>
<path d="M8 46.4351V60.0004" stroke="#361452" stroke-linecap="round" stroke-linejoin="round"/>
</svg>
