<svg width="24" height="24" viewBox="0 0 24 24" fill="none" xmlns="http://www.w3.org/2000/svg">
<mask id="mask0_2465_13051" style="mask-type:alpha" maskUnits="userSpaceOnUse" x="0" y="0" width="24" height="24">
<rect y="24" width="24" height="24" transform="rotate(-90 0 24)" fill="#C4C4C4"/>
</mask>
<g mask="url(#mask0_2465_13051)">
<path d="M8.64134 5.72456C8.41945 5.94645 8.39928 6.29367 8.58083 6.53835L8.64134 6.60845L14.0324 11.9998L8.64134 17.3912C8.41945 17.6131 8.39928 17.9603 8.58083 18.205L8.64134 18.2751C8.86323 18.497 9.21045 18.5172 9.45513 18.3356L9.52522 18.2751L15.3586 12.4418C15.5804 12.2199 15.6006 11.8727 15.4191 11.628L15.3586 11.5579L9.52522 5.72456C9.28115 5.48048 8.88542 5.48048 8.64134 5.72456Z" fill="#22252E"/>
</g>
</svg>
