<svg width="58" height="44" viewBox="0 0 58 44" fill="none" xmlns="http://www.w3.org/2000/svg">
<path d="M3.02441 31.656C3.02441 30.296 3.02441 28.936 3.02441 27.44C3.02441 27.032 3.16041 26.896 3.56841 26.896C5.20041 26.896 6.96841 26.896 8.60041 26.896C9.00841 26.896 9.14441 27.032 9.14441 27.576C9.14441 28.936 9.14441 30.296 9.14441 31.792C9.14441 32.2 9.00841 32.336 8.60041 32.336C7.78441 32.336 6.96841 32.336 6.15241 32.336C5.33641 32.336 4.52041 32.336 3.70441 32.336C3.29641 32.336 3.02441 32.064 3.02441 31.656Z" fill="#361452"/>
<path d="M9.28041 23.904C9.28041 24.312 9.14441 24.584 8.60041 24.584C7.78441 24.584 6.96841 24.584 6.15241 24.584C5.33641 24.584 4.38441 24.584 3.56841 24.584C3.16041 24.584 3.02441 24.448 3.02441 24.04C3.02441 22.68 3.02441 21.32 3.02441 19.96C3.02441 19.552 3.29641 19.28 3.70441 19.28C5.33641 19.28 6.96841 19.28 8.60041 19.28C9.00841 19.28 9.28041 19.416 9.28041 19.96C9.28041 21.184 9.28041 22.544 9.28041 23.904Z" fill="#361452"/>
<path d="M17.7121 27.576C17.7121 28.936 17.7121 30.296 17.7121 31.656C17.7121 32.064 17.5761 32.336 17.0321 32.336C15.4001 32.336 13.7681 32.336 12.1361 32.336C11.7281 32.336 11.4561 32.2 11.4561 31.656C11.4561 30.296 11.4561 28.936 11.4561 27.576C11.4561 27.168 11.5921 26.896 12.1361 26.896C12.9521 26.896 13.7681 26.896 14.5841 26.896C15.4001 26.896 16.2161 26.896 17.0321 26.896C17.4401 26.896 17.7121 27.032 17.7121 27.576Z" fill="#361452"/>
<path d="M17.7121 39.4079C17.7121 39.9519 17.5761 40.0879 17.0321 40.0879C15.4001 40.0879 13.7681 40.0879 12.1361 40.0879C11.5921 40.0879 11.4561 39.9519 11.4561 39.4079C11.4561 38.0479 11.4561 36.8239 11.4561 35.4639C11.4561 34.9199 11.7281 34.7839 12.1361 34.7839C12.9521 34.7839 13.7681 34.7839 14.5841 34.7839C15.4001 34.7839 16.2161 34.7839 17.0321 34.7839C17.4401 34.7839 17.7121 34.9199 17.7121 35.4639C17.7121 36.6879 17.7121 38.0479 17.7121 39.4079Z" fill="#361452"/>
<path d="M27.2324 18.5999H22.4724C22.0644 18.5999 21.9284 18.7359 21.9284 19.1439V23.9039C21.9284 24.3119 22.0644 24.448 22.4724 24.448H27.2324C27.6404 24.448 27.7764 24.3119 27.7764 23.9039V19.1439C27.7764 18.7359 27.6404 18.5999 27.2324 18.5999ZM35.8004 10.9839H31.0404C30.6324 10.9839 30.4964 11.1199 30.4964 11.5279V16.2879C30.4964 16.5599 30.6324 16.6959 30.7684 16.8319C30.7684 16.8319 30.9044 16.8319 31.0404 16.8319H35.8004C36.2084 16.8319 36.3444 16.6959 36.3444 16.2879V11.5279C36.3444 11.1199 36.2084 10.9839 35.8004 10.9839ZM35.8004 18.5999H31.0404C30.6324 18.5999 30.4964 18.7359 30.4964 19.1439V23.9039C30.4964 24.3119 30.6324 24.448 31.0404 24.448H35.6644C36.0724 24.448 36.3444 24.3119 36.3444 23.9039V19.1439C36.3444 18.7359 36.2084 18.5999 35.8004 18.5999ZM35.8004 18.5999H31.0404C30.6324 18.5999 30.4964 18.7359 30.4964 19.1439V23.9039C30.4964 24.3119 30.6324 24.448 31.0404 24.448H35.6644C36.0724 24.448 36.3444 24.3119 36.3444 23.9039V19.1439C36.3444 18.7359 36.2084 18.5999 35.8004 18.5999ZM35.8004 10.9839H31.0404C30.6324 10.9839 30.4964 11.1199 30.4964 11.5279V16.2879C30.3604 16.5599 30.4964 16.6959 30.7684 16.8319C30.7684 16.8319 30.9044 16.8319 31.0404 16.8319H35.8004C36.2084 16.8319 36.3444 16.6959 36.3444 16.2879V11.5279C36.3444 11.1199 36.2084 10.9839 35.8004 10.9839ZM27.0964 10.9839H22.4724C22.0644 10.9839 21.9284 11.1199 21.9284 11.5279V16.1519C21.9284 16.5599 22.2004 16.8319 22.6084 16.8319H27.2324C27.6404 16.8319 27.9124 16.6959 27.9124 16.1519V11.5279C27.7764 11.1199 27.5044 10.9839 27.0964 10.9839ZM27.2324 18.5999H22.4724C22.0644 18.5999 21.9284 18.7359 21.9284 19.1439V23.9039C21.9284 24.3119 22.0644 24.448 22.4724 24.448H27.2324C27.6404 24.448 27.7764 24.3119 27.7764 23.9039V19.1439C27.7764 18.7359 27.6404 18.5999 27.2324 18.5999ZM27.2324 18.5999H22.4724C22.0644 18.5999 21.9284 18.7359 21.9284 19.1439V23.9039C21.9284 24.3119 22.0644 24.448 22.4724 24.448H27.2324C27.6404 24.448 27.7764 24.3119 27.7764 23.9039V19.1439C27.7764 18.7359 27.6404 18.5999 27.2324 18.5999ZM27.0964 10.9839H22.4724C22.0644 10.9839 21.9284 11.1199 21.9284 11.5279V16.1519C21.9284 16.5599 22.2004 16.8319 22.6084 16.8319H27.2324C27.6404 16.8319 27.9124 16.6959 27.9124 16.1519V11.5279C27.7764 11.1199 27.5044 10.9839 27.0964 10.9839ZM35.8004 10.9839H31.0404C30.6324 10.9839 30.4964 11.1199 30.4964 11.5279V16.2879C30.3604 16.5599 30.4964 16.6959 30.7684 16.8319C30.7684 16.8319 30.9044 16.8319 31.0404 16.8319H35.8004C36.2084 16.8319 36.3444 16.6959 36.3444 16.2879V11.5279C36.3444 11.1199 36.2084 10.9839 35.8004 10.9839ZM35.8004 18.5999H31.0404C30.6324 18.5999 30.4964 18.7359 30.4964 19.1439V23.9039C30.4964 24.3119 30.6324 24.448 31.0404 24.448H35.6644C36.0724 24.448 36.3444 24.3119 36.3444 23.9039V19.1439C36.3444 18.7359 36.2084 18.5999 35.8004 18.5999ZM46.0004 19.1439H40.8324C40.4244 19.1439 40.2884 19.2799 40.2884 19.6879V23.9039C40.2884 24.3119 40.5604 24.448 40.9684 24.448H46.0004C46.4084 24.448 46.5444 24.3119 46.5444 23.9039V19.6879C46.5444 19.2799 46.4084 19.1439 46.0004 19.1439ZM45.8644 26.8959H40.9684C40.5604 26.8959 40.2884 27.0319 40.2884 27.5759V31.6559C40.2884 32.0639 40.5604 32.3359 40.9684 32.3359H45.8644C46.2724 32.3359 46.5444 32.1999 46.5444 31.6559V27.5759C46.5444 27.1679 46.4084 26.8959 45.8644 26.8959ZM45.8644 34.784H40.8324C40.4244 34.784 40.2884 34.9199 40.2884 35.3279V39.408C40.2884 39.8159 40.4244 40.0879 40.9684 40.0879H45.8644C46.4084 40.0879 46.5444 39.8159 46.5444 39.408V35.464C46.5444 34.92 46.4084 34.784 45.8644 34.784ZM54.2964 19.1439H49.4004C48.9924 19.1439 48.7204 19.2799 48.7204 19.8239V23.9039C48.7204 24.4479 48.8564 24.5839 49.4004 24.5839H54.2964C54.8404 24.5839 54.9764 24.4479 54.9764 23.9039V19.8239C54.9764 19.4159 54.8404 19.1439 54.2964 19.1439ZM54.2964 26.8959H49.4004C48.9924 26.8959 48.7204 27.0319 48.7204 27.5759V31.6559C48.7204 32.0639 48.8564 32.3359 49.4004 32.3359H54.2964C54.8404 32.3359 54.9764 32.0639 54.9764 31.6559V27.5759C54.9764 27.0319 54.8404 26.7599 54.2964 26.8959ZM54.2964 26.8959H49.4004C48.9924 26.8959 48.7204 27.0319 48.7204 27.5759V31.6559C48.7204 32.0639 48.8564 32.3359 49.4004 32.3359H54.2964C54.8404 32.3359 54.9764 32.0639 54.9764 31.6559V27.5759C54.9764 27.0319 54.8404 26.7599 54.2964 26.8959ZM54.2964 19.1439H49.4004C48.9924 19.1439 48.7204 19.2799 48.7204 19.8239V23.9039C48.7204 24.4479 48.8564 24.5839 49.4004 24.5839H54.2964C54.8404 24.5839 54.9764 24.4479 54.9764 23.9039V19.8239C54.9764 19.4159 54.8404 19.1439 54.2964 19.1439ZM45.8644 34.784H40.8324C40.4244 34.784 40.2884 34.9199 40.2884 35.3279V39.408C40.2884 39.8159 40.4244 40.0879 40.9684 40.0879H45.8644C46.4084 40.0879 46.5444 39.8159 46.5444 39.408V35.464C46.5444 34.92 46.4084 34.784 45.8644 34.784ZM45.8644 26.8959H40.9684C40.5604 26.8959 40.2884 27.0319 40.2884 27.5759V31.6559C40.2884 32.0639 40.5604 32.3359 40.9684 32.3359H45.8644C46.2724 32.3359 46.5444 32.1999 46.5444 31.6559V27.5759C46.5444 27.1679 46.4084 26.8959 45.8644 26.8959ZM46.0004 19.1439H40.8324C40.4244 19.1439 40.2884 19.2799 40.2884 19.6879V23.9039C40.2884 24.3119 40.5604 24.448 40.9684 24.448H46.0004C46.4084 24.448 46.5444 24.3119 46.5444 23.9039V19.6879C46.5444 19.2799 46.4084 19.1439 46.0004 19.1439ZM35.8004 18.5999H31.0404C30.6324 18.5999 30.4964 18.7359 30.4964 19.1439V23.9039C30.4964 24.3119 30.6324 24.448 31.0404 24.448H35.6644C36.0724 24.448 36.3444 24.3119 36.3444 23.9039V19.1439C36.3444 18.7359 36.2084 18.5999 35.8004 18.5999ZM35.8004 10.9839H31.0404C30.6324 10.9839 30.4964 11.1199 30.4964 11.5279V16.2879C30.3604 16.5599 30.4964 16.6959 30.7684 16.8319C30.7684 16.8319 30.9044 16.8319 31.0404 16.8319H35.8004C36.2084 16.8319 36.3444 16.6959 36.3444 16.2879V11.5279C36.3444 11.1199 36.2084 10.9839 35.8004 10.9839ZM27.0964 10.9839H22.4724C22.0644 10.9839 21.9284 11.1199 21.9284 11.5279V16.1519C21.9284 16.5599 22.2004 16.8319 22.6084 16.8319H27.2324C27.6404 16.8319 27.9124 16.6959 27.9124 16.1519V11.5279C27.7764 11.1199 27.5044 10.9839 27.0964 10.9839ZM27.2324 18.5999H22.4724C22.0644 18.5999 21.9284 18.7359 21.9284 19.1439V23.9039C21.9284 24.3119 22.0644 24.448 22.4724 24.448H27.2324C27.6404 24.448 27.7764 24.3119 27.7764 23.9039V19.1439C27.7764 18.7359 27.6404 18.5999 27.2324 18.5999ZM27.2324 18.5999H22.4724C22.0644 18.5999 21.9284 18.7359 21.9284 19.1439V23.9039C21.9284 24.3119 22.0644 24.448 22.4724 24.448H27.2324C27.6404 24.448 27.7764 24.3119 27.7764 23.9039V19.1439C27.7764 18.7359 27.6404 18.5999 27.2324 18.5999ZM27.0964 10.9839H22.4724C22.0644 10.9839 21.9284 11.1199 21.9284 11.5279V16.1519C21.9284 16.5599 22.2004 16.8319 22.6084 16.8319H27.2324C27.6404 16.8319 27.9124 16.6959 27.9124 16.1519V11.5279C27.7764 11.1199 27.5044 10.9839 27.0964 10.9839ZM35.8004 10.9839H31.0404C30.6324 10.9839 30.4964 11.1199 30.4964 11.5279V16.2879C30.3604 16.5599 30.4964 16.6959 30.7684 16.8319C30.7684 16.8319 30.9044 16.8319 31.0404 16.8319H35.8004C36.2084 16.8319 36.3444 16.6959 36.3444 16.2879V11.5279C36.3444 11.1199 36.2084 10.9839 35.8004 10.9839ZM35.8004 18.5999H31.0404C30.6324 18.5999 30.4964 18.7359 30.4964 19.1439V23.9039C30.4964 24.3119 30.6324 24.448 31.0404 24.448H35.6644C36.0724 24.448 36.3444 24.3119 36.3444 23.9039V19.1439C36.3444 18.7359 36.2084 18.5999 35.8004 18.5999ZM46.0004 19.1439H40.8324C40.4244 19.1439 40.2884 19.2799 40.2884 19.6879V23.9039C40.2884 24.3119 40.5604 24.448 40.9684 24.448H46.0004C46.4084 24.448 46.5444 24.3119 46.5444 23.9039V19.6879C46.5444 19.2799 46.4084 19.1439 46.0004 19.1439ZM45.8644 26.8959H40.9684C40.5604 26.8959 40.2884 27.0319 40.2884 27.5759V31.6559C40.2884 32.0639 40.5604 32.3359 40.9684 32.3359H45.8644C46.2724 32.3359 46.5444 32.1999 46.5444 31.6559V27.5759C46.5444 27.1679 46.4084 26.8959 45.8644 26.8959ZM45.8644 34.784H40.8324C40.4244 34.784 40.2884 34.9199 40.2884 35.3279V39.408C40.2884 39.8159 40.4244 40.0879 40.9684 40.0879H45.8644C46.4084 40.0879 46.5444 39.8159 46.5444 39.408V35.464C46.5444 34.92 46.4084 34.784 45.8644 34.784ZM54.2964 19.1439H49.4004C48.9924 19.1439 48.7204 19.2799 48.7204 19.8239V23.9039C48.7204 24.4479 48.8564 24.5839 49.4004 24.5839H54.2964C54.8404 24.5839 54.9764 24.4479 54.9764 23.9039V19.8239C54.9764 19.4159 54.8404 19.1439 54.2964 19.1439ZM54.2964 26.8959H49.4004C48.9924 26.8959 48.7204 27.0319 48.7204 27.5759V31.6559C48.7204 32.0639 48.8564 32.3359 49.4004 32.3359H54.2964C54.8404 32.3359 54.9764 32.0639 54.9764 31.6559V27.5759C54.9764 27.0319 54.8404 26.7599 54.2964 26.8959ZM54.2964 26.8959H49.4004C48.9924 26.8959 48.7204 27.0319 48.7204 27.5759V31.6559C48.7204 32.0639 48.8564 32.3359 49.4004 32.3359H54.2964C54.8404 32.3359 54.9764 32.0639 54.9764 31.6559V27.5759C54.9764 27.0319 54.8404 26.7599 54.2964 26.8959ZM54.2964 19.1439H49.4004C48.9924 19.1439 48.7204 19.2799 48.7204 19.8239V23.9039C48.7204 24.4479 48.8564 24.5839 49.4004 24.5839H54.2964C54.8404 24.5839 54.9764 24.4479 54.9764 23.9039V19.8239C54.9764 19.4159 54.8404 19.1439 54.2964 19.1439ZM45.8644 34.784H40.8324C40.4244 34.784 40.2884 34.9199 40.2884 35.3279V39.408C40.2884 39.8159 40.4244 40.0879 40.9684 40.0879H45.8644C46.4084 40.0879 46.5444 39.8159 46.5444 39.408V35.464C46.5444 34.92 46.4084 34.784 45.8644 34.784ZM45.8644 26.8959H40.9684C40.5604 26.8959 40.2884 27.0319 40.2884 27.5759V31.6559C40.2884 32.0639 40.5604 32.3359 40.9684 32.3359H45.8644C46.2724 32.3359 46.5444 32.1999 46.5444 31.6559V27.5759C46.5444 27.1679 46.4084 26.8959 45.8644 26.8959ZM46.0004 19.1439H40.8324C40.4244 19.1439 40.2884 19.2799 40.2884 19.6879V23.9039C40.2884 24.3119 40.5604 24.448 40.9684 24.448H46.0004C46.4084 24.448 46.5444 24.3119 46.5444 23.9039V19.6879C46.5444 19.2799 46.4084 19.1439 46.0004 19.1439ZM35.8004 18.5999H31.0404C30.6324 18.5999 30.4964 18.7359 30.4964 19.1439V23.9039C30.4964 24.3119 30.6324 24.448 31.0404 24.448H35.6644C36.0724 24.448 36.3444 24.3119 36.3444 23.9039V19.1439C36.3444 18.7359 36.2084 18.5999 35.8004 18.5999ZM35.8004 10.9839H31.0404C30.6324 10.9839 30.4964 11.1199 30.4964 11.5279V16.2879C30.3604 16.5599 30.4964 16.6959 30.7684 16.8319C30.7684 16.8319 30.9044 16.8319 31.0404 16.8319H35.8004C36.2084 16.8319 36.3444 16.6959 36.3444 16.2879V11.5279C36.3444 11.1199 36.2084 10.9839 35.8004 10.9839ZM27.0964 10.9839H22.4724C22.0644 10.9839 21.9284 11.1199 21.9284 11.5279V16.1519C21.9284 16.5599 22.2004 16.8319 22.6084 16.8319H27.2324C27.6404 16.8319 27.9124 16.6959 27.9124 16.1519V11.5279C27.7764 11.1199 27.5044 10.9839 27.0964 10.9839ZM27.2324 18.5999H22.4724C22.0644 18.5999 21.9284 18.7359 21.9284 19.1439V23.9039C21.9284 24.3119 22.0644 24.448 22.4724 24.448H27.2324C27.6404 24.448 27.7764 24.3119 27.7764 23.9039V19.1439C27.7764 18.7359 27.6404 18.5999 27.2324 18.5999ZM27.2324 18.5999H22.4724C22.0644 18.5999 21.9284 18.7359 21.9284 19.1439V23.9039C21.9284 24.3119 22.0644 24.448 22.4724 24.448H27.2324C27.6404 24.448 27.7764 24.3119 27.7764 23.9039V19.1439C27.7764 18.7359 27.6404 18.5999 27.2324 18.5999ZM27.0964 10.9839H22.4724C22.0644 10.9839 21.9284 11.1199 21.9284 11.5279V16.1519C21.9284 16.5599 22.2004 16.8319 22.6084 16.8319H27.2324C27.6404 16.8319 27.9124 16.6959 27.9124 16.1519V11.5279C27.7764 11.1199 27.5044 10.9839 27.0964 10.9839ZM35.8004 10.9839H31.0404C30.6324 10.9839 30.4964 11.1199 30.4964 11.5279V16.2879C30.3604 16.5599 30.4964 16.6959 30.7684 16.8319C30.7684 16.8319 30.9044 16.8319 31.0404 16.8319H35.8004C36.2084 16.8319 36.3444 16.6959 36.3444 16.2879V11.5279C36.3444 11.1199 36.2084 10.9839 35.8004 10.9839ZM35.8004 18.5999H31.0404C30.6324 18.5999 30.4964 18.7359 30.4964 19.1439V23.9039C30.4964 24.3119 30.6324 24.448 31.0404 24.448H35.6644C36.0724 24.448 36.3444 24.3119 36.3444 23.9039V19.1439C36.3444 18.7359 36.2084 18.5999 35.8004 18.5999ZM46.0004 19.1439H40.8324C40.4244 19.1439 40.2884 19.2799 40.2884 19.6879V23.9039C40.2884 24.3119 40.5604 24.448 40.9684 24.448H46.0004C46.4084 24.448 46.5444 24.3119 46.5444 23.9039V19.6879C46.5444 19.2799 46.4084 19.1439 46.0004 19.1439ZM45.8644 26.8959H40.9684C40.5604 26.8959 40.2884 27.0319 40.2884 27.5759V31.6559C40.2884 32.0639 40.5604 32.3359 40.9684 32.3359H45.8644C46.2724 32.3359 46.5444 32.1999 46.5444 31.6559V27.5759C46.5444 27.1679 46.4084 26.8959 45.8644 26.8959ZM45.8644 34.784H40.8324C40.4244 34.784 40.2884 34.9199 40.2884 35.3279V39.408C40.2884 39.8159 40.4244 40.0879 40.9684 40.0879H45.8644C46.4084 40.0879 46.5444 39.8159 46.5444 39.408V35.464C46.5444 34.92 46.4084 34.784 45.8644 34.784ZM54.2964 19.1439H49.4004C48.9924 19.1439 48.7204 19.2799 48.7204 19.8239V23.9039C48.7204 24.4479 48.8564 24.5839 49.4004 24.5839H54.2964C54.8404 24.5839 54.9764 24.4479 54.9764 23.9039V19.8239C54.9764 19.4159 54.8404 19.1439 54.2964 19.1439ZM54.2964 26.8959H49.4004C48.9924 26.8959 48.7204 27.0319 48.7204 27.5759V31.6559C48.7204 32.0639 48.8564 32.3359 49.4004 32.3359H54.2964C54.8404 32.3359 54.9764 32.0639 54.9764 31.6559V27.5759C54.9764 27.0319 54.8404 26.7599 54.2964 26.8959ZM54.2964 26.8959H49.4004C48.9924 26.8959 48.7204 27.0319 48.7204 27.5759V31.6559C48.7204 32.0639 48.8564 32.3359 49.4004 32.3359H54.2964C54.8404 32.3359 54.9764 32.0639 54.9764 31.6559V27.5759C54.9764 27.0319 54.8404 26.7599 54.2964 26.8959ZM54.2964 19.1439H49.4004C48.9924 19.1439 48.7204 19.2799 48.7204 19.8239V23.9039C48.7204 24.4479 48.8564 24.5839 49.4004 24.5839H54.2964C54.8404 24.5839 54.9764 24.4479 54.9764 23.9039V19.8239C54.9764 19.4159 54.8404 19.1439 54.2964 19.1439ZM45.8644 34.784H40.8324C40.4244 34.784 40.2884 34.9199 40.2884 35.3279V39.408C40.2884 39.8159 40.4244 40.0879 40.9684 40.0879H45.8644C46.4084 40.0879 46.5444 39.8159 46.5444 39.408V35.464C46.5444 34.92 46.4084 34.784 45.8644 34.784ZM45.8644 26.8959H40.9684C40.5604 26.8959 40.2884 27.0319 40.2884 27.5759V31.6559C40.2884 32.0639 40.5604 32.3359 40.9684 32.3359H45.8644C46.2724 32.3359 46.5444 32.1999 46.5444 31.6559V27.5759C46.5444 27.1679 46.4084 26.8959 45.8644 26.8959ZM46.0004 19.1439H40.8324C40.4244 19.1439 40.2884 19.2799 40.2884 19.6879V23.9039C40.2884 24.3119 40.5604 24.448 40.9684 24.448H46.0004C46.4084 24.448 46.5444 24.3119 46.5444 23.9039V19.6879C46.5444 19.2799 46.4084 19.1439 46.0004 19.1439ZM35.8004 18.5999H31.0404C30.6324 18.5999 30.4964 18.7359 30.4964 19.1439V23.9039C30.4964 24.3119 30.6324 24.448 31.0404 24.448H35.6644C36.0724 24.448 36.3444 24.3119 36.3444 23.9039V19.1439C36.3444 18.7359 36.2084 18.5999 35.8004 18.5999ZM35.8004 10.9839H31.0404C30.6324 10.9839 30.4964 11.1199 30.4964 11.5279V16.2879C30.3604 16.5599 30.4964 16.6959 30.7684 16.8319C30.7684 16.8319 30.9044 16.8319 31.0404 16.8319H35.8004C36.2084 16.8319 36.3444 16.6959 36.3444 16.2879V11.5279C36.3444 11.1199 36.2084 10.9839 35.8004 10.9839ZM27.0964 10.9839H22.4724C22.0644 10.9839 21.9284 11.1199 21.9284 11.5279V16.1519C21.9284 16.5599 22.2004 16.8319 22.6084 16.8319H27.2324C27.6404 16.8319 27.9124 16.6959 27.9124 16.1519V11.5279C27.7764 11.1199 27.5044 10.9839 27.0964 10.9839ZM27.2324 18.5999H22.4724C22.0644 18.5999 21.9284 18.7359 21.9284 19.1439V23.9039C21.9284 24.3119 22.0644 24.448 22.4724 24.448H27.2324C27.6404 24.448 27.7764 24.3119 27.7764 23.9039V19.1439C27.7764 18.7359 27.6404 18.5999 27.2324 18.5999ZM56.7444 16.5599H39.4724C39.0644 16.5599 38.7924 16.4239 38.7924 16.0159V1.46395C38.7924 0.647948 38.7924 0.647949 37.9764 0.647949H20.0244C19.2084 0.647949 19.2084 0.647948 19.2084 1.46395V15.8799C19.2084 16.4239 19.0724 16.5599 18.5284 16.5599H1.25643C0.98443 16.5599 0.71243 16.5599 0.44043 16.8319V43.216C0.71243 43.4879 0.98443 43.4879 1.25643 43.4879H56.7444C57.5604 43.4879 57.5604 43.488 57.5604 42.672V17.5119C57.5604 16.5599 57.5604 16.5599 56.7444 16.5599ZM19.2084 41.8559C19.2084 42.3999 19.0724 42.4 18.6644 42.4H1.93643C1.52843 42.4 1.39243 42.264 1.39243 41.8559V17.9199C1.39243 17.5119 1.52843 17.3759 1.93643 17.3759H18.6644C19.2084 17.3759 19.2084 17.5119 19.2084 17.9199V41.8559ZM37.9764 41.992C37.9764 42.264 37.9764 42.5359 37.5684 42.5359H33.7604C33.3524 42.5359 33.3524 42.3999 33.3524 42.1279V37.0959C33.3524 35.4639 32.4004 34.104 30.9044 33.424C29.4084 32.744 27.9124 32.88 26.4164 33.832C25.3284 34.512 24.7844 35.5999 24.7844 36.9599V42.1279C24.7844 42.5359 24.6484 42.672 24.2404 42.672H20.5684C20.1604 42.672 20.1604 42.5359 20.1604 42.1279V30.7039C20.1604 30.2959 20.2964 30.2959 20.5684 30.2959H37.4324C37.8404 30.2959 37.9764 30.4319 37.9764 30.84V41.992ZM37.9764 25.9439C37.9764 26.3519 37.8404 26.4879 37.4324 26.4879H20.5684C20.1604 26.4879 20.0244 26.3519 20.0244 25.9439V2.00795C20.0244 1.59995 20.1604 1.46395 20.5684 1.46395H37.4324C37.8404 1.46395 37.9764 1.59995 37.9764 2.00795V25.9439ZM56.7444 41.992C56.7444 42.4 56.4724 42.4 56.2004 42.4H39.4724C38.9284 42.4 38.9284 42.264 38.9284 41.8559V17.9199C38.9284 17.5119 38.9284 17.3759 39.4724 17.3759H56.2004C56.6084 17.3759 56.7444 17.5119 56.7444 17.9199V41.992ZM54.2964 26.8959H49.4004C48.9924 26.8959 48.7204 27.0319 48.7204 27.5759V31.6559C48.7204 32.0639 48.8564 32.3359 49.4004 32.3359H54.2964C54.8404 32.3359 54.9764 32.0639 54.9764 31.6559V27.5759C54.9764 27.0319 54.8404 26.7599 54.2964 26.8959ZM54.2964 19.1439H49.4004C48.9924 19.1439 48.7204 19.2799 48.7204 19.8239V23.9039C48.7204 24.4479 48.8564 24.5839 49.4004 24.5839H54.2964C54.8404 24.5839 54.9764 24.4479 54.9764 23.9039V19.8239C54.9764 19.4159 54.8404 19.1439 54.2964 19.1439ZM45.8644 34.784H40.8324C40.4244 34.784 40.2884 34.9199 40.2884 35.3279V39.408C40.2884 39.8159 40.4244 40.0879 40.9684 40.0879H45.8644C46.4084 40.0879 46.5444 39.8159 46.5444 39.408V35.464C46.5444 34.92 46.4084 34.784 45.8644 34.784ZM45.8644 26.8959H40.9684C40.5604 26.8959 40.2884 27.0319 40.2884 27.5759V31.6559C40.2884 32.0639 40.5604 32.3359 40.9684 32.3359H45.8644C46.2724 32.3359 46.5444 32.1999 46.5444 31.6559V27.5759C46.5444 27.1679 46.4084 26.8959 45.8644 26.8959ZM46.0004 19.1439H40.8324C40.4244 19.1439 40.2884 19.2799 40.2884 19.6879V23.9039C40.2884 24.3119 40.5604 24.448 40.9684 24.448H46.0004C46.4084 24.448 46.5444 24.3119 46.5444 23.9039V19.6879C46.5444 19.2799 46.4084 19.1439 46.0004 19.1439ZM35.8004 18.5999H31.0404C30.6324 18.5999 30.4964 18.7359 30.4964 19.1439V23.9039C30.4964 24.3119 30.6324 24.448 31.0404 24.448H35.6644C36.0724 24.448 36.3444 24.3119 36.3444 23.9039V19.1439C36.3444 18.7359 36.2084 18.5999 35.8004 18.5999ZM35.8004 10.9839H31.0404C30.6324 10.9839 30.4964 11.1199 30.4964 11.5279V16.2879C30.3604 16.5599 30.4964 16.6959 30.7684 16.8319C30.7684 16.8319 30.9044 16.8319 31.0404 16.8319H35.8004C36.2084 16.8319 36.3444 16.6959 36.3444 16.2879V11.5279C36.3444 11.1199 36.2084 10.9839 35.8004 10.9839ZM27.0964 10.9839H22.4724C22.0644 10.9839 21.9284 11.1199 21.9284 11.5279V16.1519C21.9284 16.5599 22.2004 16.8319 22.6084 16.8319H27.2324C27.6404 16.8319 27.9124 16.6959 27.9124 16.1519V11.5279C27.7764 11.1199 27.5044 10.9839 27.0964 10.9839ZM27.2324 18.5999H22.4724C22.0644 18.5999 21.9284 18.7359 21.9284 19.1439V23.9039C21.9284 24.3119 22.0644 24.448 22.4724 24.448H27.2324C27.6404 24.448 27.7764 24.3119 27.7764 23.9039V19.1439C27.7764 18.7359 27.6404 18.5999 27.2324 18.5999ZM27.2324 18.5999H22.4724C22.0644 18.5999 21.9284 18.7359 21.9284 19.1439V23.9039C21.9284 24.3119 22.0644 24.448 22.4724 24.448H27.2324C27.6404 24.448 27.7764 24.3119 27.7764 23.9039V19.1439C27.7764 18.7359 27.6404 18.5999 27.2324 18.5999ZM27.0964 10.9839H22.4724C22.0644 10.9839 21.9284 11.1199 21.9284 11.5279V16.1519C21.9284 16.5599 22.2004 16.8319 22.6084 16.8319H27.2324C27.6404 16.8319 27.9124 16.6959 27.9124 16.1519V11.5279C27.7764 11.1199 27.5044 10.9839 27.0964 10.9839ZM35.8004 10.9839H31.0404C30.6324 10.9839 30.4964 11.1199 30.4964 11.5279V16.2879C30.3604 16.5599 30.4964 16.6959 30.7684 16.8319C30.7684 16.8319 30.9044 16.8319 31.0404 16.8319H35.8004C36.2084 16.8319 36.3444 16.6959 36.3444 16.2879V11.5279C36.3444 11.1199 36.2084 10.9839 35.8004 10.9839ZM35.8004 18.5999H31.0404C30.6324 18.5999 30.4964 18.7359 30.4964 19.1439V23.9039C30.4964 24.3119 30.6324 24.448 31.0404 24.448H35.6644C36.0724 24.448 36.3444 24.3119 36.3444 23.9039V19.1439C36.3444 18.7359 36.2084 18.5999 35.8004 18.5999ZM46.0004 19.1439H40.8324C40.4244 19.1439 40.2884 19.2799 40.2884 19.6879V23.9039C40.2884 24.3119 40.5604 24.448 40.9684 24.448H46.0004C46.4084 24.448 46.5444 24.3119 46.5444 23.9039V19.6879C46.5444 19.2799 46.4084 19.1439 46.0004 19.1439ZM45.8644 26.8959H40.9684C40.5604 26.8959 40.2884 27.0319 40.2884 27.5759V31.6559C40.2884 32.0639 40.5604 32.3359 40.9684 32.3359H45.8644C46.2724 32.3359 46.5444 32.1999 46.5444 31.6559V27.5759C46.5444 27.1679 46.4084 26.8959 45.8644 26.8959ZM45.8644 34.784H40.8324C40.4244 34.784 40.2884 34.9199 40.2884 35.3279V39.408C40.2884 39.8159 40.4244 40.0879 40.9684 40.0879H45.8644C46.4084 40.0879 46.5444 39.8159 46.5444 39.408V35.464C46.5444 34.92 46.4084 34.784 45.8644 34.784ZM54.2964 19.1439H49.4004C48.9924 19.1439 48.7204 19.2799 48.7204 19.8239V23.9039C48.7204 24.4479 48.8564 24.5839 49.4004 24.5839H54.2964C54.8404 24.5839 54.9764 24.4479 54.9764 23.9039V19.8239C54.9764 19.4159 54.8404 19.1439 54.2964 19.1439ZM54.2964 26.8959H49.4004C48.9924 26.8959 48.7204 27.0319 48.7204 27.5759V31.6559C48.7204 32.0639 48.8564 32.3359 49.4004 32.3359H54.2964C54.8404 32.3359 54.9764 32.0639 54.9764 31.6559V27.5759C54.9764 27.0319 54.8404 26.7599 54.2964 26.8959ZM54.2964 26.8959H49.4004C48.9924 26.8959 48.7204 27.0319 48.7204 27.5759V31.6559C48.7204 32.0639 48.8564 32.3359 49.4004 32.3359H54.2964C54.8404 32.3359 54.9764 32.0639 54.9764 31.6559V27.5759C54.9764 27.0319 54.8404 26.7599 54.2964 26.8959ZM54.2964 19.1439H49.4004C48.9924 19.1439 48.7204 19.2799 48.7204 19.8239V23.9039C48.7204 24.4479 48.8564 24.5839 49.4004 24.5839H54.2964C54.8404 24.5839 54.9764 24.4479 54.9764 23.9039V19.8239C54.9764 19.4159 54.8404 19.1439 54.2964 19.1439ZM45.8644 34.784H40.8324C40.4244 34.784 40.2884 34.9199 40.2884 35.3279V39.408C40.2884 39.8159 40.4244 40.0879 40.9684 40.0879H45.8644C46.4084 40.0879 46.5444 39.8159 46.5444 39.408V35.464C46.5444 34.92 46.4084 34.784 45.8644 34.784ZM45.8644 26.8959H40.9684C40.5604 26.8959 40.2884 27.0319 40.2884 27.5759V31.6559C40.2884 32.0639 40.5604 32.3359 40.9684 32.3359H45.8644C46.2724 32.3359 46.5444 32.1999 46.5444 31.6559V27.5759C46.5444 27.1679 46.4084 26.8959 45.8644 26.8959ZM46.0004 19.1439H40.8324C40.4244 19.1439 40.2884 19.2799 40.2884 19.6879V23.9039C40.2884 24.3119 40.5604 24.448 40.9684 24.448H46.0004C46.4084 24.448 46.5444 24.3119 46.5444 23.9039V19.6879C46.5444 19.2799 46.4084 19.1439 46.0004 19.1439ZM35.8004 18.5999H31.0404C30.6324 18.5999 30.4964 18.7359 30.4964 19.1439V23.9039C30.4964 24.3119 30.6324 24.448 31.0404 24.448H35.6644C36.0724 24.448 36.3444 24.3119 36.3444 23.9039V19.1439C36.3444 18.7359 36.2084 18.5999 35.8004 18.5999ZM35.8004 10.9839H31.0404C30.6324 10.9839 30.4964 11.1199 30.4964 11.5279V16.2879C30.3604 16.5599 30.4964 16.6959 30.7684 16.8319C30.7684 16.8319 30.9044 16.8319 31.0404 16.8319H35.8004C36.2084 16.8319 36.3444 16.6959 36.3444 16.2879V11.5279C36.3444 11.1199 36.2084 10.9839 35.8004 10.9839ZM27.0964 10.9839H22.4724C22.0644 10.9839 21.9284 11.1199 21.9284 11.5279V16.1519C21.9284 16.5599 22.2004 16.8319 22.6084 16.8319H27.2324C27.6404 16.8319 27.9124 16.6959 27.9124 16.1519V11.5279C27.7764 11.1199 27.5044 10.9839 27.0964 10.9839ZM27.2324 18.5999H22.4724C22.0644 18.5999 21.9284 18.7359 21.9284 19.1439V23.9039C21.9284 24.3119 22.0644 24.448 22.4724 24.448H27.2324C27.6404 24.448 27.7764 24.3119 27.7764 23.9039V19.1439C27.7764 18.7359 27.6404 18.5999 27.2324 18.5999ZM27.2324 18.5999H22.4724C22.0644 18.5999 21.9284 18.7359 21.9284 19.1439V23.9039C21.9284 24.3119 22.0644 24.448 22.4724 24.448H27.2324C27.6404 24.448 27.7764 24.3119 27.7764 23.9039V19.1439C27.7764 18.7359 27.6404 18.5999 27.2324 18.5999ZM27.0964 10.9839H22.4724C22.0644 10.9839 21.9284 11.1199 21.9284 11.5279V16.1519C21.9284 16.5599 22.2004 16.8319 22.6084 16.8319H27.2324C27.6404 16.8319 27.9124 16.6959 27.9124 16.1519V11.5279C27.7764 11.1199 27.5044 10.9839 27.0964 10.9839ZM35.8004 10.9839H31.0404C30.6324 10.9839 30.4964 11.1199 30.4964 11.5279V16.2879C30.3604 16.5599 30.4964 16.6959 30.7684 16.8319C30.7684 16.8319 30.9044 16.8319 31.0404 16.8319H35.8004C36.2084 16.8319 36.3444 16.6959 36.3444 16.2879V11.5279C36.3444 11.1199 36.2084 10.9839 35.8004 10.9839ZM35.8004 18.5999H31.0404C30.6324 18.5999 30.4964 18.7359 30.4964 19.1439V23.9039C30.4964 24.3119 30.6324 24.448 31.0404 24.448H35.6644C36.0724 24.448 36.3444 24.3119 36.3444 23.9039V19.1439C36.3444 18.7359 36.2084 18.5999 35.8004 18.5999ZM46.0004 19.1439H40.8324C40.4244 19.1439 40.2884 19.2799 40.2884 19.6879V23.9039C40.2884 24.3119 40.5604 24.448 40.9684 24.448H46.0004C46.4084 24.448 46.5444 24.3119 46.5444 23.9039V19.6879C46.5444 19.2799 46.4084 19.1439 46.0004 19.1439ZM45.8644 26.8959H40.9684C40.5604 26.8959 40.2884 27.0319 40.2884 27.5759V31.6559C40.2884 32.0639 40.5604 32.3359 40.9684 32.3359H45.8644C46.2724 32.3359 46.5444 32.1999 46.5444 31.6559V27.5759C46.5444 27.1679 46.4084 26.8959 45.8644 26.8959ZM45.8644 34.784H40.8324C40.4244 34.784 40.2884 34.9199 40.2884 35.3279V39.408C40.2884 39.8159 40.4244 40.0879 40.9684 40.0879H45.8644C46.4084 40.0879 46.5444 39.8159 46.5444 39.408V35.464C46.5444 34.92 46.4084 34.784 45.8644 34.784ZM54.2964 19.1439H49.4004C48.9924 19.1439 48.7204 19.2799 48.7204 19.8239V23.9039C48.7204 24.4479 48.8564 24.5839 49.4004 24.5839H54.2964C54.8404 24.5839 54.9764 24.4479 54.9764 23.9039V19.8239C54.9764 19.4159 54.8404 19.1439 54.2964 19.1439ZM54.2964 26.8959H49.4004C48.9924 26.8959 48.7204 27.0319 48.7204 27.5759V31.6559C48.7204 32.0639 48.8564 32.3359 49.4004 32.3359H54.2964C54.8404 32.3359 54.9764 32.0639 54.9764 31.6559V27.5759C54.9764 27.0319 54.8404 26.7599 54.2964 26.8959ZM54.2964 26.8959H49.4004C48.9924 26.8959 48.7204 27.0319 48.7204 27.5759V31.6559C48.7204 32.0639 48.8564 32.3359 49.4004 32.3359H54.2964C54.8404 32.3359 54.9764 32.0639 54.9764 31.6559V27.5759C54.9764 27.0319 54.8404 26.7599 54.2964 26.8959ZM54.2964 19.1439H49.4004C48.9924 19.1439 48.7204 19.2799 48.7204 19.8239V23.9039C48.7204 24.4479 48.8564 24.5839 49.4004 24.5839H54.2964C54.8404 24.5839 54.9764 24.4479 54.9764 23.9039V19.8239C54.9764 19.4159 54.8404 19.1439 54.2964 19.1439ZM45.8644 34.784H40.8324C40.4244 34.784 40.2884 34.9199 40.2884 35.3279V39.408C40.2884 39.8159 40.4244 40.0879 40.9684 40.0879H45.8644C46.4084 40.0879 46.5444 39.8159 46.5444 39.408V35.464C46.5444 34.92 46.4084 34.784 45.8644 34.784ZM45.8644 26.8959H40.9684C40.5604 26.8959 40.2884 27.0319 40.2884 27.5759V31.6559C40.2884 32.0639 40.5604 32.3359 40.9684 32.3359H45.8644C46.2724 32.3359 46.5444 32.1999 46.5444 31.6559V27.5759C46.5444 27.1679 46.4084 26.8959 45.8644 26.8959ZM46.0004 19.1439H40.8324C40.4244 19.1439 40.2884 19.2799 40.2884 19.6879V23.9039C40.2884 24.3119 40.5604 24.448 40.9684 24.448H46.0004C46.4084 24.448 46.5444 24.3119 46.5444 23.9039V19.6879C46.5444 19.2799 46.4084 19.1439 46.0004 19.1439ZM35.8004 18.5999H31.0404C30.6324 18.5999 30.4964 18.7359 30.4964 19.1439V23.9039C30.4964 24.3119 30.6324 24.448 31.0404 24.448H35.6644C36.0724 24.448 36.3444 24.3119 36.3444 23.9039V19.1439C36.3444 18.7359 36.2084 18.5999 35.8004 18.5999ZM35.8004 10.9839H31.0404C30.6324 10.9839 30.4964 11.1199 30.4964 11.5279V16.2879C30.3604 16.5599 30.4964 16.6959 30.7684 16.8319C30.7684 16.8319 30.9044 16.8319 31.0404 16.8319H35.8004C36.2084 16.8319 36.3444 16.6959 36.3444 16.2879V11.5279C36.3444 11.1199 36.2084 10.9839 35.8004 10.9839ZM27.0964 10.9839H22.4724C22.0644 10.9839 21.9284 11.1199 21.9284 11.5279V16.1519C21.9284 16.5599 22.2004 16.8319 22.6084 16.8319H27.2324C27.6404 16.8319 27.9124 16.6959 27.9124 16.1519V11.5279C27.7764 11.1199 27.5044 10.9839 27.0964 10.9839ZM27.2324 18.5999H22.4724C22.0644 18.5999 21.9284 18.7359 21.9284 19.1439V23.9039C21.9284 24.3119 22.0644 24.448 22.4724 24.448H27.2324C27.6404 24.448 27.7764 24.3119 27.7764 23.9039V19.1439C27.7764 18.7359 27.6404 18.5999 27.2324 18.5999ZM27.2324 18.5999H22.4724C22.0644 18.5999 21.9284 18.7359 21.9284 19.1439V23.9039C21.9284 24.3119 22.0644 24.448 22.4724 24.448H27.2324C27.6404 24.448 27.7764 24.3119 27.7764 23.9039V19.1439C27.7764 18.7359 27.6404 18.5999 27.2324 18.5999ZM27.0964 10.9839H22.4724C22.0644 10.9839 21.9284 11.1199 21.9284 11.5279V16.1519C21.9284 16.5599 22.2004 16.8319 22.6084 16.8319H27.2324C27.6404 16.8319 27.9124 16.6959 27.9124 16.1519V11.5279C27.7764 11.1199 27.5044 10.9839 27.0964 10.9839ZM35.8004 10.9839H31.0404C30.6324 10.9839 30.4964 11.1199 30.4964 11.5279V16.2879C30.3604 16.5599 30.4964 16.6959 30.7684 16.8319C30.7684 16.8319 30.9044 16.8319 31.0404 16.8319H35.8004C36.2084 16.8319 36.3444 16.6959 36.3444 16.2879V11.5279C36.3444 11.1199 36.2084 10.9839 35.8004 10.9839ZM35.8004 18.5999H31.0404C30.6324 18.5999 30.4964 18.7359 30.4964 19.1439V23.9039C30.4964 24.3119 30.6324 24.448 31.0404 24.448H35.6644C36.0724 24.448 36.3444 24.3119 36.3444 23.9039V19.1439C36.3444 18.7359 36.2084 18.5999 35.8004 18.5999ZM46.0004 19.1439H40.8324C40.4244 19.1439 40.2884 19.2799 40.2884 19.6879V23.9039C40.2884 24.3119 40.5604 24.448 40.9684 24.448H46.0004C46.4084 24.448 46.5444 24.3119 46.5444 23.9039V19.6879C46.5444 19.2799 46.4084 19.1439 46.0004 19.1439ZM45.8644 26.8959H40.9684C40.5604 26.8959 40.2884 27.0319 40.2884 27.5759V31.6559C40.2884 32.0639 40.5604 32.3359 40.9684 32.3359H45.8644C46.2724 32.3359 46.5444 32.1999 46.5444 31.6559V27.5759C46.5444 27.1679 46.4084 26.8959 45.8644 26.8959ZM45.8644 34.784H40.8324C40.4244 34.784 40.2884 34.9199 40.2884 35.3279V39.408C40.2884 39.8159 40.4244 40.0879 40.9684 40.0879H45.8644C46.4084 40.0879 46.5444 39.8159 46.5444 39.408V35.464C46.5444 34.92 46.4084 34.784 45.8644 34.784ZM54.2964 19.1439H49.4004C48.9924 19.1439 48.7204 19.2799 48.7204 19.8239V23.9039C48.7204 24.4479 48.8564 24.5839 49.4004 24.5839H54.2964C54.8404 24.5839 54.9764 24.4479 54.9764 23.9039V19.8239C54.9764 19.4159 54.8404 19.1439 54.2964 19.1439ZM54.2964 26.8959H49.4004C48.9924 26.8959 48.7204 27.0319 48.7204 27.5759V31.6559C48.7204 32.0639 48.8564 32.3359 49.4004 32.3359H54.2964C54.8404 32.3359 54.9764 32.0639 54.9764 31.6559V27.5759C54.9764 27.0319 54.8404 26.7599 54.2964 26.8959ZM54.2964 19.1439H49.4004C48.9924 19.1439 48.7204 19.2799 48.7204 19.8239V23.9039C48.7204 24.4479 48.8564 24.5839 49.4004 24.5839H54.2964C54.8404 24.5839 54.9764 24.4479 54.9764 23.9039V19.8239C54.9764 19.4159 54.8404 19.1439 54.2964 19.1439ZM54.2964 26.8959H49.4004C48.9924 26.8959 48.7204 27.0319 48.7204 27.5759V31.6559C48.7204 32.0639 48.8564 32.3359 49.4004 32.3359H54.2964C54.8404 32.3359 54.9764 32.0639 54.9764 31.6559V27.5759C54.9764 27.0319 54.8404 26.7599 54.2964 26.8959ZM45.8644 34.784H40.8324C40.4244 34.784 40.2884 34.9199 40.2884 35.3279V39.408C40.2884 39.8159 40.4244 40.0879 40.9684 40.0879H45.8644C46.4084 40.0879 46.5444 39.8159 46.5444 39.408V35.464C46.5444 34.92 46.4084 34.784 45.8644 34.784ZM45.8644 26.8959H40.9684C40.5604 26.8959 40.2884 27.0319 40.2884 27.5759V31.6559C40.2884 32.0639 40.5604 32.3359 40.9684 32.3359H45.8644C46.2724 32.3359 46.5444 32.1999 46.5444 31.6559V27.5759C46.5444 27.1679 46.4084 26.8959 45.8644 26.8959ZM46.0004 19.1439H40.8324C40.4244 19.1439 40.2884 19.2799 40.2884 19.6879V23.9039C40.2884 24.3119 40.5604 24.448 40.9684 24.448H46.0004C46.4084 24.448 46.5444 24.3119 46.5444 23.9039V19.6879C46.5444 19.2799 46.4084 19.1439 46.0004 19.1439ZM35.8004 18.5999H31.0404C30.6324 18.5999 30.4964 18.7359 30.4964 19.1439V23.9039C30.4964 24.3119 30.6324 24.448 31.0404 24.448H35.6644C36.0724 24.448 36.3444 24.3119 36.3444 23.9039V19.1439C36.3444 18.7359 36.2084 18.5999 35.8004 18.5999ZM35.8004 10.9839H31.0404C30.6324 10.9839 30.4964 11.1199 30.4964 11.5279V16.2879C30.3604 16.5599 30.4964 16.6959 30.7684 16.8319C30.7684 16.8319 30.9044 16.8319 31.0404 16.8319H35.8004C36.2084 16.8319 36.3444 16.6959 36.3444 16.2879V11.5279C36.3444 11.1199 36.2084 10.9839 35.8004 10.9839ZM27.2324 18.5999H22.4724C22.0644 18.5999 21.9284 18.7359 21.9284 19.1439V23.9039C21.9284 24.3119 22.0644 24.448 22.4724 24.448H27.2324C27.6404 24.448 27.7764 24.3119 27.7764 23.9039V19.1439C27.7764 18.7359 27.6404 18.5999 27.2324 18.5999ZM27.2324 18.5999H22.4724C22.0644 18.5999 21.9284 18.7359 21.9284 19.1439V23.9039C21.9284 24.3119 22.0644 24.448 22.4724 24.448H27.2324C27.6404 24.448 27.7764 24.3119 27.7764 23.9039V19.1439C27.7764 18.7359 27.6404 18.5999 27.2324 18.5999ZM35.8004 10.9839H31.0404C30.6324 10.9839 30.4964 11.1199 30.4964 11.5279V16.2879C30.4964 16.5599 30.6324 16.6959 30.7684 16.8319C30.7684 16.8319 30.9044 16.8319 31.0404 16.8319H35.8004C36.2084 16.8319 36.3444 16.6959 36.3444 16.2879V11.5279C36.3444 11.1199 36.2084 10.9839 35.8004 10.9839ZM35.8004 18.5999H31.0404C30.6324 18.5999 30.4964 18.7359 30.4964 19.1439V23.9039C30.4964 24.3119 30.6324 24.448 31.0404 24.448H35.6644C36.0724 24.448 36.3444 24.3119 36.3444 23.9039V19.1439C36.3444 18.7359 36.2084 18.5999 35.8004 18.5999ZM35.8004 18.5999H31.0404C30.6324 18.5999 30.4964 18.7359 30.4964 19.1439V23.9039C30.4964 24.3119 30.6324 24.448 31.0404 24.448H35.6644C36.0724 24.448 36.3444 24.3119 36.3444 23.9039V19.1439C36.3444 18.7359 36.2084 18.5999 35.8004 18.5999ZM35.8004 10.9839H31.0404C30.6324 10.9839 30.4964 11.1199 30.4964 11.5279V16.2879C30.4964 16.5599 30.6324 16.6959 30.7684 16.8319C30.7684 16.8319 30.9044 16.8319 31.0404 16.8319H35.8004C36.2084 16.8319 36.3444 16.6959 36.3444 16.2879V11.5279C36.3444 11.1199 36.2084 10.9839 35.8004 10.9839ZM27.2324 18.5999H22.4724C22.0644 18.5999 21.9284 18.7359 21.9284 19.1439V23.9039C21.9284 24.3119 22.0644 24.448 22.4724 24.448H27.2324C27.6404 24.448 27.7764 24.3119 27.7764 23.9039V19.1439C27.7764 18.7359 27.6404 18.5999 27.2324 18.5999ZM36.6164 3.91195V8.39995C36.6164 8.67195 36.6164 8.94395 36.3444 8.94395C36.2084 9.07995 36.0724 9.07995 35.8004 9.07995H31.1764C30.6324 9.07995 30.4964 8.80795 30.4964 8.39995V3.63995C30.4964 3.23195 30.6324 2.95995 31.1764 2.95995H35.8004C36.2084 2.95995 36.4804 3.09595 36.4804 3.23195C36.7524 3.50395 36.6164 3.63995 36.6164 3.91195ZM54.2964 40.0879C52.6644 40.0879 51.0324 40.0879 49.4004 40.0879C48.8564 40.0879 48.7204 39.952 48.7204 39.408C48.7204 38.048 48.7204 36.824 48.7204 35.464C48.7204 34.92 48.9924 34.784 49.4004 34.784C50.2164 34.784 51.0324 34.784 51.8484 34.784C52.6644 34.784 53.4804 34.784 54.2964 34.784C54.7044 34.784 54.9764 34.92 54.9764 35.464C54.9764 36.824 54.9764 38.184 54.9764 39.544C54.9764 39.952 54.7044 40.0879 54.2964 40.0879Z" fill="#361452"/>
<path d="M40.2881 23.904C40.2881 22.544 40.2881 21.184 40.2881 19.688C40.2881 19.28 40.4241 19.144 40.8321 19.144C42.6001 19.144 44.2321 19.144 46.0001 19.144C46.4081 19.144 46.5441 19.28 46.5441 19.688C46.5441 21.048 46.5441 22.544 46.5441 23.904C46.5441 24.312 46.4081 24.448 46.0001 24.448C45.1841 24.448 44.2321 24.448 43.4161 24.448C42.6001 24.448 41.7841 24.448 40.9681 24.448C40.5601 24.448 40.2881 24.312 40.2881 23.904Z" fill="#FEFEFE"/>
<path d="M40.2881 31.656C40.2881 30.296 40.2881 28.936 40.2881 27.576C40.2881 27.168 40.4241 26.896 40.9681 26.896C42.6001 26.896 44.2321 26.896 45.8641 26.896C46.4081 26.896 46.5441 27.168 46.5441 27.576C46.5441 28.936 46.5441 30.296 46.5441 31.656C46.5441 32.064 46.4081 32.336 45.8641 32.336C45.0481 32.336 44.2321 32.336 43.4161 32.336C42.6001 32.336 41.7841 32.336 40.9681 32.336C40.5601 32.336 40.2881 32.064 40.2881 31.656Z" fill="#FEFEFE"/>
<path d="M46.5441 39.4079C46.5441 39.9519 46.4081 40.0879 45.8641 40.0879C44.2321 40.0879 42.6001 40.0879 40.9681 40.0879C40.5601 40.0879 40.2881 39.9519 40.2881 39.4079C40.2881 38.0479 40.2881 36.6879 40.2881 35.3279C40.2881 34.9199 40.4241 34.7839 40.8321 34.7839C41.6481 34.7839 42.6001 34.7839 43.4161 34.7839C44.2321 34.7839 45.0481 34.7839 45.8641 34.7839C46.4081 34.7839 46.5441 35.0559 46.5441 35.4639C46.5441 36.8239 46.5441 38.0479 46.5441 39.4079Z" fill="#FEFEFE"/>
<path d="M54.9767 31.656C54.9767 32.064 54.8407 32.336 54.2967 32.336C52.6647 32.336 51.0327 32.336 49.4007 32.336C48.9927 32.336 48.7207 32.2 48.7207 31.656C48.7207 30.296 48.7207 28.936 48.7207 27.576C48.7207 27.168 48.8567 26.896 49.4007 26.896C50.2167 26.896 51.0327 26.896 51.8487 26.896C52.6647 26.896 53.4807 26.896 54.2967 26.896C54.8407 26.896 54.9767 27.168 54.9767 27.576C54.9767 28.936 54.9767 30.296 54.9767 31.656Z" fill="#FEFEFE"/>
<path d="M48.7207 23.7681C48.7207 22.4081 48.7207 21.0481 48.7207 19.6881C48.7207 19.2801 48.8567 19.0081 49.4007 19.0081C51.0327 19.0081 52.6647 19.0081 54.2967 19.0081C54.7047 19.0081 54.9767 19.1441 54.9767 19.6881C54.9767 21.0481 54.9767 22.4081 54.9767 23.7681C54.9767 24.3121 54.7047 24.4481 54.2967 24.4481C53.4807 24.4481 52.6647 24.4481 51.8487 24.4481C51.0327 24.4481 50.2167 24.4481 49.4007 24.4481C48.8567 24.4481 48.7207 24.3121 48.7207 23.7681Z" fill="#FEFEFE"/>
<path d="M3.16016 39.5439C3.16016 38.1839 3.16016 36.6879 3.16016 35.3279C3.16016 34.9199 3.29616 34.7839 3.70416 34.7839C5.47216 34.7839 7.10416 34.7839 8.87216 34.7839C9.28016 34.7839 9.41616 34.9199 9.41616 35.3279C9.28016 36.6879 9.28016 38.1839 9.28016 39.5439C9.28016 39.9519 9.14416 40.0879 8.73616 40.0879C7.92016 40.0879 6.96816 40.0879 6.15216 40.0879C5.33616 40.0879 4.52016 40.0879 3.70416 40.0879" fill="#FEFEFE"/>
<path d="M9.28041 23.904C9.28041 24.312 9.14441 24.584 8.60041 24.584C7.78441 24.584 6.96841 24.584 6.15241 24.584C5.33641 24.584 4.38441 24.584 3.56841 24.584C3.16041 24.584 3.02441 24.448 3.02441 24.04C3.02441 22.68 3.02441 21.32 3.02441 19.96C3.02441 19.552 3.29641 19.28 3.70441 19.28C5.33641 19.28 6.96841 19.28 8.60041 19.28C9.00841 19.28 9.28041 19.416 9.28041 19.96C9.28041 21.184 9.28041 22.544 9.28041 23.904Z" fill="#FEFEFE"/>
<path d="M17.7121 27.576C17.7121 28.936 17.7121 30.296 17.7121 31.656C17.7121 32.064 17.5761 32.336 17.0321 32.336C15.4001 32.336 13.7681 32.336 12.1361 32.336C11.7281 32.336 11.4561 32.2 11.4561 31.656C11.4561 30.296 11.4561 28.936 11.4561 27.576C11.4561 27.168 11.5921 26.896 12.1361 26.896C12.9521 26.896 13.7681 26.896 14.5841 26.896C15.4001 26.896 16.2161 26.896 17.0321 26.896C17.4401 26.896 17.7121 27.032 17.7121 27.576Z" fill="#FEFEFE"/>
<path d="M17.0321 40.0879C15.4001 40.0879 13.7681 40.0879 12.1361 40.0879C11.5921 40.0879 11.4561 39.9519 11.4561 39.4079C11.4561 38.0479 11.4561 36.8239 11.4561 35.4639C11.4561 34.9199 11.7281 34.7839 12.1361 34.7839C12.9521 34.7839 13.7681 34.7839 14.5841 34.7839C15.4001 34.7839 16.2161 34.7839 17.0321 34.7839C17.4401 34.7839 17.7121 34.9199 17.7121 35.4639C17.7121 36.8239 17.7121 38.1839 17.7121 39.5439C17.7121 39.9519 17.4401 40.0879 17.0321 40.0879Z" fill="#FEFEFE"/>
<path d="M27.7767 19.1439C27.7767 20.7759 27.7767 22.2719 27.7767 23.9039C27.7767 24.3119 27.6407 24.4479 27.2327 24.4479C25.6007 24.4479 24.1047 24.4479 22.4727 24.4479C22.0647 24.4479 21.9287 24.3119 21.9287 23.9039C21.9287 23.0879 21.9287 22.2719 21.9287 21.4559C21.9287 20.6399 21.9287 19.9599 21.9287 19.1439C21.9287 18.7359 22.0647 18.5999 22.4727 18.5999C24.1047 18.5999 25.6007 18.5999 27.2327 18.5999C27.6407 18.5999 27.7767 18.7359 27.7767 19.1439Z" fill="#FEFEFE"/>
<path d="M27.776 3.91195C27.776 5.40795 27.776 6.90395 27.776 8.39995C27.776 8.94395 27.64 9.07995 27.096 9.07995C26.28 9.07995 25.6 9.07995 24.784 9.07995C23.968 9.07995 23.288 9.07995 22.472 9.07995C22.064 9.07995 21.792 8.94395 21.792 8.39995C21.792 6.90395 21.792 5.40795 21.792 3.77595C21.792 3.36795 21.928 3.09595 22.472 3.09595C23.968 3.09595 25.6 3.09595 27.096 3.09595C27.64 3.23195 27.776 3.50395 27.776 3.91195Z" fill="#FEFEFE"/>
<path d="M30.4963 16.2879C30.4963 15.4719 30.4963 14.6559 30.4963 13.8399C30.4963 13.0239 30.4963 12.3439 30.4963 11.5279C30.4963 11.1199 30.6323 10.9839 31.0403 10.9839C32.6723 10.9839 34.1683 10.9839 35.8003 10.9839C36.2083 10.9839 36.3443 11.1199 36.3443 11.5279C36.3443 13.1599 36.3443 14.6559 36.3443 16.2879C36.3443 16.6959 36.0723 16.8319 35.8003 16.8319C34.1683 16.8319 32.6723 16.8319 31.0403 16.8319C30.6323 16.8319 30.3603 16.6959 30.4963 16.2879Z" fill="#FEFEFE"/>
<path d="M36.3441 23.9039C36.3441 24.3119 36.0721 24.4479 35.6641 24.4479C34.1681 24.4479 32.5361 24.4479 31.0401 24.4479C30.6321 24.4479 30.4961 24.3119 30.4961 23.9039C30.4961 23.0879 30.4961 22.2719 30.4961 21.4559C30.4961 20.6399 30.4961 19.9599 30.4961 19.1439C30.4961 18.7359 30.6321 18.5999 31.0401 18.5999C32.6721 18.5999 34.1681 18.5999 35.8001 18.5999C36.2081 18.5999 36.3441 18.7359 36.3441 19.1439C36.3441 20.7759 36.3441 22.2719 36.3441 23.9039Z" fill="#FEFEFE"/>
<path d="M29.0004 42.3999C28.0484 42.3999 26.9604 42.3999 26.0084 42.3999C25.7364 42.3999 25.6004 42.3999 25.6004 42.1279C25.6004 40.3599 25.4644 38.4559 25.7364 36.6879C26.0084 34.3759 28.8644 33.0159 30.9044 34.3759C31.9924 35.0559 32.4004 36.1439 32.4004 37.3679C32.4004 38.9999 32.4004 40.4959 32.4004 42.1279C32.4004 42.5359 32.2644 42.5359 31.8564 42.5359C30.9044 42.3999 29.9524 42.3999 29.0004 42.3999Z" fill="white"/>
<path d="M37.8404 29.2081C37.7044 29.3441 37.4324 29.3441 37.2964 29.3441C31.7204 29.3441 26.1444 29.3441 20.5684 29.3441C20.1604 29.3441 20.0244 29.2081 20.0244 28.8001C20.0244 28.3921 20.0244 27.9841 20.0244 27.5761C20.1604 27.4401 20.4324 27.5761 20.5684 27.5761C26.1444 27.5761 31.5844 27.5761 37.1604 27.5761C37.8404 27.5761 37.8404 27.5761 37.8404 28.2561C37.8404 28.3921 37.9764 28.8001 37.8404 29.2081Z" fill="white"/>
<path d="M37.8404 29.208C37.8404 28.8 37.8404 28.392 37.8404 27.984C37.8404 27.576 37.7044 27.576 37.2964 27.576C36.6164 27.576 35.9364 27.576 35.2564 27.576C30.2244 27.576 25.0564 27.576 20.0244 27.576C20.1604 27.304 20.2964 27.44 20.5684 27.44C26.1444 27.44 31.7204 27.44 37.4324 27.44C37.8404 27.44 37.9764 27.576 37.9764 27.984C37.8404 28.256 38.1124 28.664 37.8404 29.208Z" fill="#FEF0DD"/>
<path d="M54.9767 31.656C54.9767 32.064 54.8407 32.336 54.2967 32.336C52.6647 32.336 51.0327 32.336 49.4007 32.336C48.9927 32.336 48.7207 32.2 48.7207 31.656C48.7207 30.296 48.7207 28.936 48.7207 27.576C48.7207 27.168 48.8567 26.896 49.4007 26.896C50.2167 26.896 51.0327 26.896 51.8487 26.896C52.6647 26.896 53.4807 26.896 54.2967 26.896C54.8407 26.896 54.9767 27.168 54.9767 27.576C54.9767 28.936 54.9767 30.296 54.9767 31.656Z" fill="#361452"/>
<path d="M46.5441 31.656C46.5441 32.064 46.4081 32.336 45.8641 32.336C45.0481 32.336 44.2321 32.336 43.4161 32.336C42.6001 32.336 41.7841 32.336 40.9681 32.336C40.4241 32.336 40.2881 32.2 40.2881 31.656C40.2881 30.296 40.2881 28.936 40.2881 27.576C40.2881 27.168 40.4241 26.896 40.9681 26.896C42.6001 26.896 44.2321 26.896 45.8641 26.896C46.4081 26.896 46.5441 27.168 46.5441 27.576C46.5441 28.936 46.5441 30.296 46.5441 31.656Z" fill="#361452"/>
<path d="M54.2967 24.4481C53.4807 24.4481 52.6647 24.4481 51.8487 24.4481C51.0327 24.4481 50.2167 24.4481 49.4007 24.4481C48.8567 24.4481 48.7207 24.3121 48.7207 23.7681C48.7207 22.4081 48.7207 21.0481 48.7207 19.6881C48.7207 19.2801 48.8567 19.0081 49.4007 19.0081C51.0327 19.0081 52.6647 19.0081 54.2967 19.0081C54.7047 19.0081 54.9767 19.1441 54.9767 19.6881C54.9767 21.0481 54.9767 22.4081 54.9767 23.7681C54.9767 24.3121 54.7047 24.4481 54.2967 24.4481Z" fill="#361452"/>
<path d="M46.5448 23.904C46.5448 24.312 46.4088 24.448 46.0008 24.448C45.1848 24.448 44.2328 24.448 43.4168 24.448C42.6008 24.448 41.7848 24.448 40.9688 24.448C40.5608 24.448 40.4248 24.312 40.4248 23.904C40.4248 22.544 40.4248 21.184 40.4248 19.688C40.4248 19.28 40.5608 19.144 40.9688 19.144C42.7368 19.144 44.3688 19.144 46.1368 19.144C46.5448 19.144 46.6808 19.28 46.6808 19.688C46.5448 21.048 46.5448 22.544 46.5448 23.904Z" fill="#361452"/>
<path d="M45.8641 40.0879C44.2321 40.0879 42.6001 40.0879 40.9681 40.0879C40.5601 40.0879 40.2881 39.9519 40.2881 39.4079C40.2881 38.0479 40.2881 36.6879 40.2881 35.3279C40.2881 34.9199 40.4241 34.7839 40.8321 34.7839C41.6481 34.7839 42.6001 34.7839 43.4161 34.7839C44.2321 34.7839 45.0481 34.7839 45.8641 34.7839C46.4081 34.7839 46.5441 35.0559 46.5441 35.4639C46.5441 36.8239 46.5441 38.0479 46.5441 39.4079C46.5441 39.9519 46.4081 40.0879 45.8641 40.0879Z" fill="#361452"/>
<path d="M17.7121 31.656C17.7121 32.064 17.5761 32.336 17.0321 32.336C15.4001 32.336 13.7681 32.336 12.1361 32.336C11.7281 32.336 11.4561 32.2 11.4561 31.656C11.4561 30.296 11.4561 28.936 11.4561 27.576C11.4561 27.168 11.5921 26.896 12.1361 26.896C12.9521 26.896 13.7681 26.896 14.5841 26.896C15.4001 26.896 16.2161 26.896 17.0321 26.896C17.5761 26.896 17.7121 27.032 17.7121 27.576C17.7121 28.936 17.7121 30.296 17.7121 31.656Z" fill="#361452"/>
<path d="M9.41616 39.5439C9.41616 39.9519 9.14416 40.0879 8.73616 40.0879C7.92016 40.0879 6.96816 40.0879 6.15216 40.0879C5.33616 40.0879 4.52016 40.0879 3.70416 40.0879C3.29616 40.0879 3.16016 40.0879 3.16016 39.5439C3.16016 38.1839 3.16016 36.6879 3.16016 35.3279C3.16016 34.9199 3.29616 34.7839 3.70416 34.7839C5.47216 34.7839 7.10416 34.7839 8.87216 34.7839C9.28016 34.7839 9.41616 34.9199 9.41616 35.3279C9.41616 36.6879 9.41616 38.1839 9.41616 39.5439Z" fill="#361452"/>
<path d="M9.28041 23.904C9.28041 24.312 9.14441 24.584 8.60041 24.584C7.78441 24.584 6.96841 24.584 6.15241 24.584C5.33641 24.584 4.38441 24.584 3.56841 24.584C3.16041 24.584 3.02441 24.448 3.02441 24.04C3.02441 22.68 3.02441 21.32 3.02441 19.96C3.02441 19.552 3.29641 19.28 3.70441 19.28C5.33641 19.28 6.96841 19.28 8.60041 19.28C9.00841 19.28 9.28041 19.416 9.28041 19.96C9.28041 21.184 9.28041 22.544 9.28041 23.904Z" fill="#361452"/>
<path d="M17.8488 23.904C17.8488 24.312 17.5768 24.584 17.0328 24.584C16.2168 24.584 15.4008 24.584 14.5848 24.584C13.7688 24.584 12.9528 24.584 12.1368 24.584C11.7288 24.584 11.5928 24.448 11.5928 24.04C11.5928 22.68 11.5928 21.32 11.5928 19.96C11.5928 19.552 11.7288 19.28 12.2728 19.28C13.9048 19.28 15.5368 19.28 17.1688 19.28C17.7128 19.28 17.8488 19.416 17.8488 19.96C17.8488 21.32 17.8488 22.544 17.8488 23.904Z" fill="#361452"/>
<path d="M17.0321 40.0879C15.4001 40.0879 13.7681 40.0879 12.1361 40.0879C11.5921 40.0879 11.4561 39.9519 11.4561 39.4079C11.4561 38.0479 11.4561 36.8239 11.4561 35.4639C11.4561 34.9199 11.7281 34.7839 12.1361 34.7839C12.9521 34.7839 13.7681 34.7839 14.5841 34.7839C15.4001 34.7839 16.2161 34.7839 17.0321 34.7839C17.4401 34.7839 17.7121 34.9199 17.7121 35.4639C17.7121 36.8239 17.7121 38.1839 17.7121 39.5439C17.7121 39.9519 17.4401 40.0879 17.0321 40.0879Z" fill="#361452"/>
<path d="M36.3441 16.2879C36.3441 16.6959 36.0721 16.8319 35.8001 16.8319C34.1681 16.8319 32.6721 16.8319 31.0401 16.8319C30.6321 16.8319 30.4961 16.6959 30.4961 16.2879C30.4961 15.4719 30.4961 14.6559 30.4961 13.8399C30.4961 13.0239 30.4961 12.3439 30.4961 11.5279C30.4961 11.1199 30.6321 10.9839 31.0401 10.9839C32.6721 10.9839 34.1681 10.9839 35.8001 10.9839C36.2081 10.9839 36.3441 11.1199 36.3441 11.5279C36.3441 13.0239 36.3441 14.6559 36.3441 16.2879Z" fill="#361552"/>
<path d="M36.3441 23.9039C36.3441 24.3119 36.0721 24.4479 35.6641 24.4479C34.1681 24.4479 32.5361 24.4479 31.0401 24.4479C30.6321 24.4479 30.4961 24.3119 30.4961 23.9039C30.4961 23.0879 30.4961 22.2719 30.4961 21.4559C30.4961 20.6399 30.4961 19.9599 30.4961 19.1439C30.4961 18.7359 30.6321 18.5999 31.0401 18.5999C32.6721 18.5999 34.1681 18.5999 35.8001 18.5999C36.2081 18.5999 36.3441 18.7359 36.3441 19.1439C36.3441 20.7759 36.3441 22.2719 36.3441 23.9039Z" fill="#361452"/>
<path d="M27.7767 23.9039C27.7767 24.3119 27.6407 24.4479 27.2327 24.4479C25.6007 24.4479 24.1047 24.4479 22.4727 24.4479C22.0647 24.4479 21.9287 24.3119 21.9287 23.9039C21.9287 23.0879 21.9287 22.2719 21.9287 21.4559C21.9287 20.6399 21.9287 19.9599 21.9287 19.1439C21.9287 18.7359 22.0647 18.5999 22.4727 18.5999C24.1047 18.5999 25.6007 18.5999 27.2327 18.5999C27.6407 18.5999 27.7767 18.7359 27.7767 19.1439C27.7767 20.7759 27.7767 22.2719 27.7767 23.9039Z" fill="#361452"/>
<path d="M27.776 8.39995C27.776 8.94395 27.64 9.07995 27.096 9.07995C26.28 9.07995 25.6 9.07995 24.784 9.07995C23.968 9.07995 23.288 9.07995 22.472 9.07995C22.064 9.07995 21.792 8.94395 21.792 8.39995C21.792 6.90395 21.792 5.40795 21.792 3.77595C21.792 3.36795 21.928 3.09595 22.472 3.09595C23.968 3.09595 25.6 3.09595 27.096 3.09595C27.64 3.09595 27.776 3.23195 27.776 3.77595C27.776 5.40795 27.776 6.90395 27.776 8.39995Z" fill="#361452"/>
<path d="M54.0249 31.3839C52.6649 31.3839 51.3049 31.3839 50.0809 31.3839C49.8089 31.3839 49.6729 31.2479 49.6729 30.9759C49.6729 30.0239 49.6729 29.0719 49.6729 28.1199C49.6729 27.8479 49.8089 27.7119 50.0809 27.7119C51.4409 27.7119 52.8009 27.7119 54.0249 27.7119C54.0249 28.9359 54.0249 30.1599 54.0249 31.3839Z" fill="white"/>
<path d="M54.0244 31.3839C54.0244 30.1599 54.0244 29.0719 54.0244 27.8479C54.1604 27.8479 54.1604 28.1199 54.1604 28.1199C54.1604 29.0719 54.1604 30.0239 54.1604 30.9759C54.1604 31.1119 54.1604 31.2479 54.0244 31.3839Z" fill="#F4BC75"/>
<path d="M43.4162 31.3839C42.8722 31.3839 42.1922 31.3839 41.6482 31.3839C41.3762 31.3839 41.2402 31.2479 41.2402 30.9759C41.2402 30.0239 41.2402 29.0719 41.2402 28.1199C41.2402 27.8479 41.3762 27.7119 41.6482 27.7119C42.8722 27.7119 44.2322 27.7119 45.4562 27.7119C45.7282 27.7119 45.8642 27.8479 45.8642 28.1199C45.8642 29.0719 45.8642 30.0239 45.8642 30.9759C45.8642 31.2479 45.7282 31.3839 45.4562 31.3839C44.6402 31.3839 44.0962 31.3839 43.4162 31.3839Z" fill="white"/>
<path d="M49.6727 23.4958C49.5367 22.4078 49.6727 21.1838 49.6727 20.0958C50.6247 19.9598 51.5768 20.0958 52.6648 20.0958C53.0728 20.0958 53.7528 19.9598 54.0248 20.2318C54.2968 20.5038 54.1607 21.1838 54.1607 21.5918C54.1607 22.1358 54.1607 22.6798 54.1607 23.3598C54.1607 23.4958 54.1607 23.7678 53.8887 23.7678C52.3927 23.6318 51.0327 23.6318 49.6727 23.4958Z" fill="white"/>
<path d="M49.6729 23.496C50.8969 23.496 52.2569 23.496 53.4809 23.496C53.8889 23.496 54.0249 23.36 54.0249 22.952C54.0249 22.136 54.0249 21.32 54.0249 20.504C54.0249 20.096 53.8888 20.096 53.6168 20.096C52.2568 20.096 51.0329 20.096 49.6729 20.096C49.8089 19.96 49.9449 19.96 50.0809 19.96C51.3049 19.96 52.3928 19.96 53.6168 19.96C54.0248 19.96 54.1609 20.096 54.1609 20.504C54.1609 21.456 54.1609 22.408 54.1609 23.224C54.1609 23.496 54.1608 23.632 53.8888 23.632C52.3928 23.632 51.1689 23.632 49.6729 23.496C49.8089 23.632 49.6729 23.632 49.6729 23.496Z" fill="#F4BC75"/>
<path d="M43.4162 19.96C44.0962 19.96 44.6402 19.96 45.3202 19.96C45.7282 19.96 45.7282 20.096 45.7282 20.368C45.7282 21.32 45.7282 22.272 45.7282 23.088C45.7282 23.36 45.5922 23.496 45.3202 23.496C44.0962 23.496 42.8722 23.496 41.6482 23.496C41.3762 23.496 41.2402 23.36 41.2402 23.088C41.2402 22.136 41.2402 21.184 41.2402 20.368C41.2402 20.096 41.3762 19.96 41.6482 19.96C42.1922 19.96 42.8722 19.96 43.4162 19.96Z" fill="white"/>
<path d="M43.4165 39.1359C42.7365 39.1359 42.1925 39.1359 41.5125 39.1359C41.2405 39.1359 41.1045 38.9999 41.1045 38.7279C41.1045 37.7759 41.1045 36.8239 41.1045 35.8719C41.1045 35.5999 41.2405 35.4639 41.5125 35.4639C42.7365 35.4639 43.9605 35.4639 45.1845 35.4639C45.4565 35.4639 45.5925 35.5999 45.5925 35.8719C45.5925 36.8239 45.5925 37.7759 45.5925 38.7279C45.5925 38.9999 45.4565 39.1359 45.1845 39.1359C44.7765 39.1359 44.0965 39.1359 43.4165 39.1359Z" fill="white"/>
<path d="M14.7199 20.2319C15.3999 20.2319 15.9439 20.2319 16.6239 20.2319C17.0319 20.2319 17.0319 20.3679 17.0319 20.6399C17.0319 21.5919 17.0319 22.5439 17.0319 23.3599C17.0319 23.6319 16.8959 23.7679 16.6239 23.7679C15.3999 23.7679 14.1759 23.7679 12.9519 23.7679C12.6799 23.7679 12.5439 23.6319 12.5439 23.3599C12.5439 22.4079 12.5439 21.4559 12.5439 20.6399C12.5439 20.3679 12.6799 20.2319 12.9519 20.2319C13.4959 20.2319 14.0399 20.2319 14.7199 20.2319Z" fill="white"/>
<path d="M14.4485 39.4078C13.9045 39.4078 13.2245 39.4078 12.6805 39.4078C12.4085 39.4078 12.2725 39.4078 12.2725 38.9998C12.2725 38.0478 12.2725 37.0958 12.2725 36.1438C12.2725 35.8718 12.4085 35.7358 12.6805 35.7358C13.9045 35.7358 15.2645 35.7358 16.4885 35.7358C16.7605 35.7358 16.8965 35.8718 16.8965 36.1438C16.8965 37.0958 16.8965 38.0478 16.8965 38.9998C16.8965 39.2718 16.7605 39.4078 16.4885 39.4078C15.8085 39.4078 15.1285 39.4078 14.4485 39.4078Z" fill="white"/>
<path d="M8.19282 24.0399H4.11282C3.97682 24.0399 3.84082 23.9039 3.84082 23.7679V20.6399C3.84082 20.5039 3.97682 20.3679 4.11282 20.3679H8.32882C8.46482 20.3679 8.60082 20.5039 8.60082 20.6399V23.7679C8.60082 23.9039 8.46482 24.0399 8.19282 24.0399Z" fill="white"/>
<path d="M8.19282 31.6559H4.11282C3.97682 31.6559 3.84082 31.5199 3.84082 31.3839V28.2559C3.84082 28.1199 3.97682 27.9839 4.11282 27.9839H8.32882C8.46482 27.9839 8.60082 28.1199 8.60082 28.2559V31.3839C8.60082 31.5199 8.46482 31.6559 8.19282 31.6559Z" fill="white"/>
<path d="M8.32856 39.4078H4.24856C4.11256 39.4078 3.97656 39.2718 3.97656 39.1358V36.0078C3.97656 35.8718 4.11256 35.7358 4.24856 35.7358H8.46456C8.60056 35.7358 8.73656 35.8718 8.73656 36.0078V39.1358C8.73656 39.2718 8.60056 39.4078 8.32856 39.4078Z" fill="white"/>
<path d="M16.7605 31.6559H12.5445C12.4085 31.6559 12.2725 31.5199 12.2725 31.3839V28.2559C12.2725 28.1199 12.4085 27.9839 12.5445 27.9839H16.7605C16.8965 27.9839 17.0325 28.1199 17.0325 28.2559V31.3839C17.0325 31.5199 16.8965 31.6559 16.7605 31.6559Z" fill="white"/>
<path d="M26.9604 7.71988C26.9604 8.12788 26.8244 8.26388 26.4164 8.26388C25.8724 8.26388 25.3284 8.26388 24.7844 8.26388C24.2404 8.26388 23.6964 8.26388 23.1524 8.26388C22.8804 8.26388 22.6084 8.12788 22.6084 7.71988C22.6084 6.63188 22.6084 5.54388 22.6084 4.31988C22.6084 4.04788 22.7444 3.77588 23.1524 3.77588C24.2404 3.77588 25.4644 3.77588 26.5524 3.77588C26.9604 3.77588 27.0964 3.91188 27.0964 4.31988C26.9604 5.54388 26.9604 6.63188 26.9604 7.71988Z" fill="white"/>
<path d="M26.9604 15.6081C26.9604 16.0161 26.8244 16.1521 26.4164 16.1521C25.8724 16.1521 25.3284 16.1521 24.7844 16.1521C24.2404 16.1521 23.6964 16.1521 23.1524 16.1521C22.8804 16.1521 22.6084 16.0161 22.6084 15.6081C22.6084 14.5201 22.6084 13.4321 22.6084 12.2081C22.6084 11.9361 22.7444 11.6641 23.1524 11.6641C24.2404 11.6641 25.4644 11.6641 26.5524 11.6641C26.9604 11.6641 27.0964 11.8001 27.0964 12.2081C26.9604 13.4321 26.9604 14.5201 26.9604 15.6081Z" fill="white"/>
<path d="M26.9604 23.36C26.9604 23.768 26.8244 23.904 26.4164 23.904C25.8724 23.904 25.3284 23.904 24.7844 23.904C24.2404 23.904 23.6964 23.904 23.1524 23.904C22.8804 23.904 22.6084 23.768 22.6084 23.36C22.6084 22.272 22.6084 21.184 22.6084 19.96C22.6084 19.688 22.7444 19.416 23.1524 19.416C24.2404 19.416 25.4644 19.416 26.5524 19.416C26.9604 19.416 27.0964 19.552 27.0964 19.96C26.9604 21.184 26.9604 22.272 26.9604 23.36Z" fill="white"/>
<path d="M35.5288 7.71988C35.5288 8.12788 35.3928 8.26388 34.9848 8.26388C34.4408 8.26388 33.8968 8.26388 33.3528 8.26388C32.8088 8.26388 32.2648 8.26388 31.7208 8.26388C31.4488 8.26388 31.1768 8.12788 31.1768 7.71988C31.1768 6.63188 31.1768 5.54388 31.1768 4.31988C31.1768 4.04788 31.3128 3.77588 31.7208 3.77588C32.8088 3.77588 34.0328 3.77588 35.1208 3.77588C35.5288 3.77588 35.6648 3.91188 35.6648 4.31988C35.5288 5.54388 35.5288 6.63188 35.5288 7.71988Z" fill="white"/>
<path d="M35.5288 15.6081C35.5288 16.0161 35.3928 16.1521 34.9848 16.1521C34.4408 16.1521 33.8968 16.1521 33.3528 16.1521C32.8088 16.1521 32.2648 16.1521 31.7208 16.1521C31.4488 16.1521 31.1768 16.0161 31.1768 15.6081C31.1768 14.5201 31.1768 13.4321 31.1768 12.2081C31.1768 11.9361 31.3128 11.6641 31.7208 11.6641C32.8088 11.6641 34.0328 11.6641 35.1208 11.6641C35.5288 11.6641 35.6648 11.8001 35.6648 12.2081C35.5288 13.4321 35.5288 14.5201 35.5288 15.6081Z" fill="white"/>
<path d="M35.5288 23.36C35.5288 23.768 35.3928 23.904 34.9848 23.904C34.4408 23.904 33.8968 23.904 33.3528 23.904C32.8088 23.904 32.2648 23.904 31.7208 23.904C31.4488 23.904 31.1768 23.768 31.1768 23.36C31.1768 22.272 31.1768 21.184 31.1768 19.96C31.1768 19.688 31.3128 19.416 31.7208 19.416C32.8088 19.416 34.0328 19.416 35.1208 19.416C35.5288 19.416 35.6648 19.552 35.6648 19.96C35.5288 21.184 35.5288 22.272 35.5288 23.36Z" fill="white"/>
</svg>
