<svg width="68" height="68" viewBox="0 0 68 68" fill="none" xmlns="http://www.w3.org/2000/svg">
<g clip-path="url(#clip0_2008_8881)">
<path d="M63.7503 1.4165H4.25033C2.68552 1.4165 1.41699 2.68503 1.41699 4.24984V38.2498C1.41699 39.8146 2.68552 41.0832 4.25033 41.0832H63.7503C65.3151 41.0832 66.5837 39.8146 66.5837 38.2498V4.24984C66.5837 2.68503 65.3151 1.4165 63.7503 1.4165Z" stroke="white" stroke-width="1.5" stroke-linecap="round" stroke-linejoin="round"/>
<path d="M61.8999 64.824C61.9519 65.0328 61.9558 65.2507 61.9111 65.4612C61.8663 65.6717 61.7743 65.8692 61.6418 66.0388C61.5094 66.2084 61.34 66.3456 61.1466 66.44C60.9532 66.5344 60.7409 66.5834 60.5257 66.5835H7.48854C7.27335 66.5834 7.06101 66.5344 6.86762 66.44C6.67423 66.3456 6.50488 66.2084 6.37243 66.0388C6.23998 65.8692 6.1479 65.6717 6.10319 65.4612C6.05847 65.2507 6.0623 65.0328 6.11437 64.824L9.65604 50.6573C9.73251 50.3507 9.90931 50.0785 10.1583 49.8839C10.4073 49.6893 10.7142 49.5836 11.0302 49.5835H56.984C57.3 49.5836 57.6069 49.6893 57.8559 49.8839C58.1049 50.0785 58.2817 50.3507 58.3582 50.6573L61.8999 64.824Z" stroke="white" stroke-width="1.5" stroke-linecap="round" stroke-linejoin="round"/>
<path d="M1.41699 32.5835H66.5837" stroke="white" stroke-width="1.5" stroke-linecap="round" stroke-linejoin="round"/>
<path d="M15.583 55.25H18.4163" stroke="white" stroke-width="1.5" stroke-linecap="round" stroke-linejoin="round"/>
<path d="M12.75 60.9165H15.5833" stroke="white" stroke-width="1.5" stroke-linecap="round" stroke-linejoin="round"/>
<path d="M24.083 55.25H26.9163" stroke="white" stroke-width="1.5" stroke-linecap="round" stroke-linejoin="round"/>
<path d="M32.583 55.25H35.4163" stroke="white" stroke-width="1.5" stroke-linecap="round" stroke-linejoin="round"/>
<path d="M41.083 55.25H43.9163" stroke="white" stroke-width="1.5" stroke-linecap="round" stroke-linejoin="round"/>
<path d="M49.583 55.25H52.4163" stroke="white" stroke-width="1.5" stroke-linecap="round" stroke-linejoin="round"/>
<path d="M21.25 60.9165H46.75" stroke="white" stroke-width="1.5" stroke-linecap="round" stroke-linejoin="round"/>
<path d="M52.417 60.9165H55.2503" stroke="white" stroke-width="1.5" stroke-linecap="round" stroke-linejoin="round"/>
</g>
<defs>
<clipPath id="clip0_2008_8881">
<rect width="68" height="68" fill="white"/>
</clipPath>
</defs>
</svg>
