<svg width="68" height="68" viewBox="0 0 68 68" fill="none" xmlns="http://www.w3.org/2000/svg">
<path d="M7.08333 32.5834H60.9167C61.6681 32.5834 62.3888 32.8819 62.9201 33.4132C63.4515 33.9446 63.75 34.6653 63.75 35.4167V46.75H4.25V35.4167C4.25 34.6653 4.54851 33.9446 5.07986 33.4132C5.61122 32.8819 6.33189 32.5834 7.08333 32.5834Z" stroke="#361452" stroke-linecap="round" stroke-linejoin="round"/>
<path d="M66.5837 46.75V51C66.5837 51.7514 66.2851 52.4721 65.7538 53.0035C65.2224 53.5348 64.5018 53.8333 63.7503 53.8333H4.25033C3.49888 53.8333 2.77821 53.5348 2.24686 53.0035C1.7155 52.4721 1.41699 51.7514 1.41699 51V46.75H66.5837Z" stroke="#361452" stroke-linecap="round" stroke-linejoin="round"/>
<path d="M4.25 53.8334V59.5" stroke="#361452" stroke-linecap="round" stroke-linejoin="round"/>
<path d="M63.75 53.8334V59.5" stroke="#361452" stroke-linecap="round" stroke-linejoin="round"/>
<path d="M7.08398 32.5833V18.4167C7.08398 16.9138 7.68101 15.4724 8.74371 14.4097C9.80642 13.347 11.2478 12.75 12.7507 12.75H55.2506C56.7535 12.75 58.1949 13.347 59.2576 14.4097C60.3203 15.4724 60.9173 16.9138 60.9173 18.4167V32.5833" stroke="#361452" stroke-linecap="round" stroke-linejoin="round"/>
<path d="M34 29.75C34 30.5014 33.7015 31.2221 33.1701 31.7534C32.6388 32.2848 31.9181 32.5833 31.1667 32.5833H15.5833C14.8319 32.5833 14.1112 32.2848 13.5799 31.7534C13.0485 31.2221 12.75 30.5014 12.75 29.75V27.3983C12.75 23.5166 21.165 22.6666 23.375 22.6666C24.6783 22.6666 34 23.545 34 27.3983V29.75Z" stroke="#361452" stroke-linecap="round" stroke-linejoin="round"/>
<path d="M55.25 29.75C55.25 30.5014 54.9515 31.2221 54.4201 31.7534C53.8888 32.2848 53.1681 32.5833 52.4167 32.5833H36.8333C36.0819 32.5833 35.3612 32.2848 34.8299 31.7534C34.2985 31.2221 34 30.5014 34 29.75V27.3983C34 23.5166 42.5 22.6666 44.625 22.6666C45.9283 22.6666 55.25 23.545 55.25 27.3983V29.75Z" stroke="#361452" stroke-linecap="round" stroke-linejoin="round"/>
<path d="M7.08398 18.4167V8.5" stroke="#361452" stroke-linecap="round" stroke-linejoin="round"/>
<path d="M60.917 18.4167V8.5" stroke="#361452" stroke-linecap="round" stroke-linejoin="round"/>
</svg>
