<svg width="80" height="80" viewBox="0 0 80 80" fill="none" xmlns="http://www.w3.org/2000/svg">
<path d="M15.2168 10V17.8261" stroke="#361452" stroke-linecap="round" stroke-linejoin="round"/>
<path d="M36.0869 10V17.8261" stroke="#361452" stroke-linecap="round" stroke-linejoin="round"/>
<path d="M20.4346 25.6521H30.8694" stroke="#361452" stroke-linecap="round" stroke-linejoin="round"/>
<path d="M25.6523 51.7392V59.5653C25.6523 62.3328 26.7517 64.9869 28.7086 66.9438C30.6655 68.9007 33.3196 70.0001 36.0871 70.0001C38.8546 70.0001 41.5087 68.9007 43.4656 66.9438C45.4225 64.9869 46.5219 62.3328 46.5219 59.5653V57.6088C46.5226 53.9766 47.9658 50.4935 50.534 47.9252C53.1023 45.3569 56.5855 43.9138 60.2176 43.9131H70.0002" stroke="#361452" stroke-linecap="round" stroke-linejoin="round"/>
<path d="M20.4346 43.021V49.1306C20.4346 49.8224 20.7094 50.486 21.1986 50.9752C21.6879 51.4644 22.3514 51.7393 23.0433 51.7393H28.2607C28.9525 51.7393 29.6161 51.4644 30.1053 50.9752C30.5945 50.486 30.8694 49.8224 30.8694 49.1306V43.021" stroke="#361452" stroke-linecap="round" stroke-linejoin="round"/>
<path d="M41.3043 28.261C41.3043 32.4122 39.6553 36.3934 36.7199 39.3287C33.7846 42.2641 29.8034 43.9132 25.6522 43.9132C21.501 43.9132 17.5198 42.2641 14.5844 39.3287C11.6491 36.3934 10 32.4122 10 28.261V20.4349C10 19.743 10.2748 19.0795 10.7641 18.5902C11.2533 18.101 11.9168 17.8262 12.6087 17.8262H38.6957C39.3875 17.8262 40.0511 18.101 40.5403 18.5902C41.0295 19.0795 41.3043 19.743 41.3043 20.4349V28.261Z" stroke="#361452" stroke-linecap="round" stroke-linejoin="round"/>
</svg>
