<svg width="32" height="32" viewBox="0 0 32 32" fill="none" xmlns="http://www.w3.org/2000/svg">
<path d="M28.5332 22.9333C28.4718 23.2343 28.3083 23.5048 28.0705 23.6991C27.8326 23.8935 27.535 23.9998 27.2279 24H7.94653C7.7489 23.9998 7.55379 23.9558 7.37529 23.8709C7.1968 23.7861 7.03939 23.6627 6.91446 23.5095C6.78953 23.3564 6.70021 23.1774 6.65294 22.9855C6.60568 22.7936 6.60167 22.5936 6.6412 22.4L9.41853 9.06667C9.47996 8.76573 9.6434 8.49522 9.88124 8.30087C10.1191 8.10652 10.4167 8.00024 10.7239 8H29.9999C30.1975 8.00016 30.3926 8.04424 30.5711 8.12907C30.7496 8.2139 30.907 8.33734 31.0319 8.49047C31.1569 8.6436 31.2462 8.82259 31.2934 9.01448C31.3407 9.20637 31.3447 9.40637 31.3052 9.6L28.5332 22.9333Z" stroke="#144D78" stroke-linecap="round" stroke-linejoin="round"/>
<path d="M9.90234 8.28271L16.725 15.6307C17.1633 16.1026 17.7575 16.3999 18.3978 16.4678C19.0382 16.5357 19.6816 16.3695 20.209 16L31.0023 8.44538" stroke="#144D78" stroke-linecap="round" stroke-linejoin="round"/>
<path d="M0.666992 9.3335H6.00033" stroke="#144D78" stroke-linecap="round" stroke-linejoin="round"/>
<path d="M0.666992 13.3335H4.66699" stroke="#144D78" stroke-linecap="round" stroke-linejoin="round"/>
<path d="M0.666992 17.3335H3.33366" stroke="#144D78" stroke-linecap="round" stroke-linejoin="round"/>
</svg>
