<svg width="68" height="68" viewBox="0 0 68 68" fill="none" xmlns="http://www.w3.org/2000/svg">
<g clip-path="url(#clip0_7870_5325)">
<path d="M35.3599 32.0167C35.1818 32.2163 34.9635 32.3761 34.7194 32.4855C34.4752 32.5949 34.2107 32.6514 33.9432 32.6514C33.6757 32.6514 33.4112 32.5949 33.167 32.4855C32.9229 32.3761 32.7046 32.2163 32.5265 32.0167L24.0265 23.5167C23.1769 22.7166 22.6119 21.6608 22.4176 20.51C22.2232 19.3592 22.4101 18.1765 22.9499 17.1417C23.3931 16.3517 24.0101 15.6727 24.7542 15.1561C25.4983 14.6394 26.3501 14.2987 27.2452 14.1595C28.1403 14.0203 29.0553 14.0864 29.9212 14.3527C30.787 14.619 31.581 15.0785 32.2432 15.6967L33.8582 17.2267L35.4732 15.6967C36.1354 15.0785 36.9294 14.619 37.7952 14.3527C38.6611 14.0864 39.5761 14.0203 40.4712 14.1595C41.3663 14.2987 42.2181 14.6394 42.9622 15.1561C43.7063 15.6727 44.3233 16.3517 44.7665 17.1417C45.3063 18.1765 45.4932 19.3592 45.2988 20.51C45.1045 21.6608 44.5395 22.7166 43.6899 23.5167L35.3599 32.0167Z" stroke="#361452" stroke-linecap="round" stroke-linejoin="round"/>
<path d="M1.41699 28.3334V24.9334C1.42675 24.4862 1.54223 24.0477 1.75398 23.6538C1.96574 23.2598 2.26776 22.9216 2.63533 22.6667L32.3853 1.92673C32.8596 1.5977 33.4231 1.42139 34.0003 1.42139C34.5776 1.42139 35.141 1.5977 35.6153 1.92673L65.3653 22.6667C65.7406 22.9271 66.0474 23.2744 66.2596 23.6789C66.4717 24.0834 66.5829 24.5333 66.5837 24.9901V28.3334" stroke="#361452" stroke-linecap="round" stroke-linejoin="round"/>
<path d="M7.08398 38.25C7.08398 39.3662 7.30384 40.4715 7.73101 41.5028C8.15817 42.5341 8.78428 43.4711 9.57358 44.2604C10.3629 45.0497 11.2999 45.6758 12.3312 46.103C13.3624 46.5301 14.4677 46.75 15.584 46.75C16.7002 46.75 17.8055 46.5301 18.8368 46.103C19.8681 45.6758 20.8051 45.0497 21.5944 44.2604C22.3837 43.4711 23.0098 42.5341 23.437 41.5028C23.8641 40.4715 24.084 39.3662 24.084 38.25C24.084 37.1338 23.8641 36.0285 23.437 34.9972C23.0098 33.9659 22.3837 33.0289 21.5944 32.2396C20.8051 31.4503 19.8681 30.8242 18.8368 30.397C17.8055 29.9699 16.7002 29.75 15.584 29.75C14.4677 29.75 13.3624 29.9699 12.3312 30.397C11.2999 30.8242 10.3629 31.4503 9.57358 32.2396C8.78428 33.0289 8.15817 33.9659 7.73101 34.9972C7.30384 36.0285 7.08398 37.1338 7.08398 38.25Z" stroke="#361452" stroke-linecap="round" stroke-linejoin="round"/>
<path d="M8.24512 34C9.57051 35.3522 11.1535 36.425 12.9006 37.155C14.6477 37.8849 16.5234 38.2573 18.4168 38.25C20.3655 38.2566 22.2946 37.8612 24.0835 37.0883" stroke="#361452" stroke-linecap="round" stroke-linejoin="round"/>
<path d="M62.7306 47.1467C61.6024 45.2889 61.0411 43.1422 61.1156 40.97V38.4483C61.1156 36.1414 60.1991 33.9289 58.5679 32.2977C56.9366 30.6664 54.7242 29.75 52.4172 29.75C50.1103 29.75 47.8978 30.6664 46.2666 32.2977C44.6353 33.9289 43.7189 36.1414 43.7189 38.4483V40.97C43.7187 41.923 43.6142 42.8731 43.4072 43.8033" stroke="#361452" stroke-linecap="round" stroke-linejoin="round"/>
<path d="M43.7188 39.8933C45.3704 39.8909 47.0022 39.5329 48.5032 38.8435C50.0041 38.1541 51.339 37.1496 52.4171 35.8983C53.4952 37.1496 54.83 38.1541 56.331 38.8435C57.8319 39.5329 59.4637 39.8909 61.1154 39.8933" stroke="#361452" stroke-linecap="round" stroke-linejoin="round"/>
<path d="M44.7959 39.8367C44.9606 41.7446 45.8348 43.5214 47.246 44.816C48.6571 46.1106 50.5025 46.8289 52.4176 46.8289C54.3326 46.8289 56.178 46.1106 57.5891 44.816C59.0003 43.5214 59.8746 41.7446 60.0392 39.8367" stroke="#361452" stroke-linecap="round" stroke-linejoin="round"/>
<path d="M21.3353 50.8017C19.5483 50.0163 17.6205 49.6018 15.6686 49.5834C11.9114 49.5834 8.30804 51.0759 5.65127 53.7327C2.99451 56.3895 1.50195 59.9928 1.50195 63.75" stroke="#361452" stroke-linecap="round" stroke-linejoin="round"/>
<path d="M46.665 50.8017C48.452 50.0163 50.3798 49.6018 52.3317 49.5834C56.0889 49.5834 59.6923 51.0759 62.3491 53.7327C65.0058 56.3895 66.4984 59.9928 66.4984 63.75" stroke="#361452" stroke-linecap="round" stroke-linejoin="round"/>
<path d="M27.625 50.2917C27.625 51.9825 28.2967 53.604 29.4922 54.7996C30.6877 55.9951 32.3092 56.6667 34 56.6667C35.6908 56.6667 37.3123 55.9951 38.5078 54.7996C39.7033 53.604 40.375 51.9825 40.375 50.2917C40.375 48.601 39.7033 46.9795 38.5078 45.7839C37.3123 44.5884 35.6908 43.9167 34 43.9167C32.3092 43.9167 30.6877 44.5884 29.4922 45.7839C28.2967 46.9795 27.625 48.601 27.625 50.2917Z" stroke="#361452" stroke-linecap="round" stroke-linejoin="round"/>
<path d="M22.667 66.5834C23.723 64.4579 25.3513 62.6694 27.3685 61.4192C29.3858 60.1689 31.712 59.5065 34.0853 59.5065C36.4586 59.5065 38.7848 60.1689 40.8021 61.4192C42.8194 62.6694 44.4477 64.4579 45.5037 66.5834" stroke="#361452" stroke-linecap="round" stroke-linejoin="round"/>
</g>
<defs>
<clipPath id="clip0_7870_5325">
<rect width="68" height="68" fill="white"/>
</clipPath>
</defs>
</svg>
