<svg width="80" height="80" viewBox="0 0 80 80" fill="none" xmlns="http://www.w3.org/2000/svg">
<path d="M34.7826 43.7083H10V58.1687" stroke="#361452" stroke-linecap="round" stroke-linejoin="round"/>
<path d="M10 45.0227V30.5623H42.6087" stroke="#361452" stroke-linecap="round" stroke-linejoin="round"/>
<path d="M10 30.5622V17.4163H38.6957V30.5622" stroke="#361452" stroke-linecap="round" stroke-linejoin="round"/>
<path d="M20.4346 17.4163V30.5622" stroke="#361452" stroke-linecap="round" stroke-linejoin="round"/>
<path d="M30.8691 30.5623V43.7082" stroke="#361452" stroke-linecap="round" stroke-linejoin="round"/>
<path d="M20.4346 43.7083V56.8542" stroke="#361452" stroke-linecap="round" stroke-linejoin="round"/>
<path d="M51.7388 58.1687V70" stroke="#361452" stroke-linecap="round" stroke-linejoin="round"/>
<path d="M53.0437 25.6852C53.73 26.4696 54.6974 26.9471 55.7331 27.0126C56.7688 27.0782 57.7879 26.7265 58.5663 26.0349L68.6463 16.8222C69.3884 16.1217 69.8308 15.1575 69.8798 14.1339C69.9288 13.1103 69.5806 12.1076 68.9088 11.3383C68.2371 10.569 67.2946 10.0935 66.281 10.0124C65.2673 9.93129 64.2622 10.251 63.4784 10.9039L53.4089 20.1192C53.0222 20.4605 52.706 20.8751 52.4784 21.3396C52.2508 21.804 52.1162 22.3091 52.0823 22.8259C52.0483 23.3428 52.1158 23.8613 52.2807 24.3519C52.4457 24.8425 52.7049 25.2956 53.0437 25.6852Z" stroke="#361452" stroke-linecap="round" stroke-linejoin="round"/>
<path d="M53.0847 25.7141L60.5847 34.4377C60.8101 34.7029 60.9235 35.0465 60.9005 35.395C60.8776 35.7434 60.7202 36.0689 60.4621 36.3018L51.6577 44.1289" stroke="#361452" stroke-linecap="round" stroke-linejoin="round"/>
<path d="M45.2981 35.4892C45.5054 34.8385 45.8815 34.2553 46.3874 33.8001C46.8933 33.3449 47.5107 33.0342 48.1757 32.9002C48.8407 32.7661 49.5291 32.8136 50.1698 33.0377C50.8105 33.2617 51.3802 33.6543 51.8199 34.1747L60.9503 43.3768C61.4731 43.8164 61.8685 44.3901 62.0949 45.0372C62.3213 45.6844 62.3704 46.3812 62.2368 47.054C62.1033 47.7269 61.7922 48.3511 61.3362 48.8607C60.8802 49.3703 60.2963 49.7465 59.646 49.9497L37.3912 58.6655C36.7234 58.9284 36.3894 58.5919 36.6503 57.9162L45.2981 35.4892Z" stroke="#361452" stroke-linecap="round" stroke-linejoin="round"/>
<path d="M56.9983 56.854H70V69.9999H10V56.854H29.5652H30.8696V69.9999" stroke="#361452" stroke-linecap="round" stroke-linejoin="round"/>
</svg>
