<svg width="48" height="48" viewBox="0 0 48 48" fill="none" xmlns="http://www.w3.org/2000/svg">
<path d="M18 46.5V31.5C18 30.7044 18.3161 29.9413 18.8787 29.3787C19.4413 28.8161 20.2044 28.5 21 28.5H42C42.7956 28.5 43.5587 28.8161 44.1213 29.3787C44.6839 29.9413 45 30.7044 45 31.5V46.5H12" stroke="#22252E" stroke-width="1.5" stroke-linecap="round" stroke-linejoin="round"/>
<path d="M3 19.5V46.5" stroke="#22252E" stroke-width="1.5" stroke-linecap="round" stroke-linejoin="round"/>
<path d="M27 28.5001V21.0381" stroke="#22252E" stroke-width="1.5" stroke-linecap="round" stroke-linejoin="round"/>
<path d="M6 10.5C6 12.8869 6.94821 15.1761 8.63604 16.864C10.3239 18.5518 12.6131 19.5 15 19.5C17.3869 19.5 19.6761 18.5518 21.364 16.864C23.0518 15.1761 24 12.8869 24 10.5C24 8.11305 23.0518 5.82387 21.364 4.13604C19.6761 2.44821 17.3869 1.5 15 1.5C12.6131 1.5 10.3239 2.44821 8.63604 4.13604C6.94821 5.82387 6 8.11305 6 10.5Z" stroke="#22252E" stroke-width="1.5" stroke-linecap="round" stroke-linejoin="round"/>
<path d="M15 7.5V13.5" stroke="#22252E" stroke-width="1.5" stroke-linecap="round" stroke-linejoin="round"/>
<path d="M12 10.5H18" stroke="#22252E" stroke-width="1.5" stroke-linecap="round" stroke-linejoin="round"/>
<path d="M9 28.5H12" stroke="#22252E" stroke-width="1.5" stroke-linecap="round" stroke-linejoin="round"/>
<path d="M9 37.5H12" stroke="#22252E" stroke-width="1.5" stroke-linecap="round" stroke-linejoin="round"/>
<path d="M25.5 40.5381H28.5" stroke="#22252E" stroke-width="1.5" stroke-linecap="round" stroke-linejoin="round"/>
<path d="M34.5 40.5381H37.5" stroke="#22252E" stroke-width="1.5" stroke-linecap="round" stroke-linejoin="round"/>
<path d="M25.5 34.5381H28.5" stroke="#22252E" stroke-width="1.5" stroke-linecap="round" stroke-linejoin="round"/>
<path d="M34.5 34.5381H37.5" stroke="#22252E" stroke-width="1.5" stroke-linecap="round" stroke-linejoin="round"/>
</svg>
