<svg width="20" height="20" viewBox="0 0 20 20" fill="none" xmlns="http://www.w3.org/2000/svg">
<path d="M0 10C0 4.47715 4.47715 0 10 0C15.5228 0 20 4.47715 20 10C20 15.5228 15.5228 20 10 20C4.47715 20 0 15.5228 0 10Z" fill="#8B8B8B" fill-opacity="0.2"/>
<rect width="20" height="20" rx="10" fill="#8B8B8B" fill-opacity="0.2"/>
<path d="M9.99935 15.8337C13.221 15.8337 15.8327 13.222 15.8327 10.0003C15.8327 6.77866 13.221 4.16699 9.99935 4.16699C6.77769 4.16699 4.16602 6.77866 4.16602 10.0003C4.16602 13.222 6.77769 15.8337 9.99935 15.8337Z" stroke="white" stroke-width="1.25" stroke-linecap="round" stroke-linejoin="round"/>
<path d="M10 12.3335V10.0001" stroke="white" stroke-width="1.25" stroke-linecap="round" stroke-linejoin="round"/>
<path d="M10 7.66687H10.0058" stroke="white" stroke-width="1.25" stroke-linecap="round" stroke-linejoin="round"/>
</svg>
