<svg width="66" height="45" viewBox="0 0 66 45" fill="none" xmlns="http://www.w3.org/2000/svg">
<path d="M25.2832 12.4787C25.2832 12.0334 25.58 12.0334 25.8769 12.0334C27.0642 12.0334 28.3999 12.0334 29.5872 12.0334C29.884 12.0334 30.1808 12.1819 30.1808 12.4787C30.1808 12.9239 29.884 12.9239 29.5872 12.9239C28.9935 12.9239 28.3999 12.9239 27.6578 12.9239C27.0642 12.9239 26.4705 12.9239 25.8769 12.9239C25.7284 12.9239 25.4316 12.9239 25.2832 12.4787Z" fill="#361452"/>
<path d="M34.1875 12.4787C34.1875 12.1819 34.3359 12.0334 34.7812 12.0334C36.1169 12.0334 37.3042 12.0334 38.6399 12.0334C38.9367 12.0334 39.2335 12.1819 39.2335 12.4787C39.2335 12.9239 38.9367 12.9239 38.6399 12.9239C38.0462 12.9239 37.4526 12.9239 36.7105 12.9239C35.9684 12.9239 35.5232 12.9239 34.7812 12.9239C34.4843 12.9239 34.1875 12.9239 34.1875 12.4787Z" fill="#361452"/>
<path d="M62.8313 26.1326C61.9408 26.1326 61.0503 26.1326 60.1598 26.1326H55.2622C55.4106 25.8358 55.5591 25.6874 55.5591 25.539C57.9337 21.8286 60.3083 18.1183 62.6828 14.408C62.8313 14.1112 63.1281 13.9628 62.8313 13.5176C62.6828 13.2207 62.386 13.2207 62.0892 13.2207C59.2694 13.2207 56.3011 13.2207 53.4813 13.2207C53.1845 13.2207 52.8876 13.0723 52.7392 12.7755C52.294 11.7366 51.7003 10.6977 51.2551 9.65884C50.8099 8.32313 50.0678 7.72948 48.7321 8.0263C48.2869 8.17472 48.2869 7.87789 48.1384 7.58106C47.5448 3.27711 44.2797 0.457275 39.9758 0.457275C32.7036 0.457275 25.4314 0.457275 18.1592 0.457275C16.675 0.457275 16.0814 1.05092 16.0814 2.53505C16.0814 4.16758 16.0814 5.80012 16.0814 7.58106C16.0814 8.0263 15.933 8.32313 15.4877 8.17472C15.1909 8.17472 14.7457 8.17472 14.4489 8.17472C14.0036 8.17472 13.7068 8.32313 13.5584 8.76836C12.9647 10.1041 12.5195 11.4398 11.9258 12.7755C11.7774 13.2207 11.629 13.3691 11.0354 13.3691C7.91871 13.3691 4.80205 13.3691 1.6854 13.3691C1.38857 13.3691 1.09175 13.3691 0.794922 13.666V14.1112C0.943334 14.408 0.943334 14.7049 1.24016 15.0017C2.13063 16.4858 2.87269 17.9699 3.91158 19.3056C5.24729 21.0866 5.69253 23.0159 5.3957 25.0937V25.2421C5.3957 25.6874 5.24729 25.9842 4.65364 25.8358C3.61476 25.8358 2.57587 25.8358 1.6854 25.8358C1.38857 25.8358 0.943334 25.8358 0.794922 26.281V26.7263C1.09175 27.0231 1.38857 27.0231 1.83381 27.0231C21.8695 27.0231 42.0535 27.0231 62.0892 27.0231C62.2376 27.0231 62.386 27.0231 62.386 27.0231C62.6828 27.0231 62.9797 26.8747 62.9797 26.5778C63.4249 26.281 63.1281 26.1326 62.8313 26.1326ZM14.5973 9.36201C14.5973 9.2136 14.7457 9.2136 14.8941 9.2136C15.0425 9.2136 15.1909 9.2136 15.3393 9.2136C26.6187 9.2136 38.0464 9.2136 49.3257 9.2136C49.771 9.2136 50.0678 9.36201 50.2162 9.80725C50.8099 10.9945 51.2551 12.1818 51.9972 13.3691C50.513 13.3691 49.1773 13.3691 47.99 13.3691C47.5448 13.3691 47.3964 13.5176 47.0996 13.8144C46.5059 14.5564 46.0607 15.2985 45.467 16.189C45.3186 16.4858 45.1702 16.4858 44.725 16.4858C36.2655 16.4858 27.806 16.3374 19.3465 16.3374C19.0496 16.3374 18.9012 16.189 18.6044 15.8922C18.1592 15.1501 17.5655 14.408 17.1203 13.666C16.9719 13.3691 16.675 13.2207 16.2298 13.2207C15.0425 13.2207 13.8552 13.2207 12.6679 13.2207C13.5584 12.0334 14.152 10.6977 14.5973 9.36201Z" fill="#361452"/>
<path d="M45.7641 17.3762C46.3578 16.4857 47.0998 15.5952 47.6935 14.7048C47.8419 14.5563 47.9903 14.4079 48.2871 14.4079C52.7395 14.4079 57.0435 14.4079 61.4958 14.4079H61.6442C61.3474 14.8532 61.0506 15.4468 60.7538 15.8921C58.676 19.1571 56.4498 22.4222 54.372 25.6873C54.2236 25.9841 53.9268 26.1325 53.4816 26.1325C38.0467 26.1325 22.6118 26.1325 7.17693 26.1325C6.73169 26.1325 6.43487 25.9841 6.58328 25.5389V25.3904C6.58328 24.0547 6.73169 22.719 6.43487 21.5317C6.28645 20.3444 5.39598 19.3055 4.80233 18.2667C4.06027 16.9309 3.31821 15.7436 2.42773 14.2595C2.72456 14.2595 2.87297 14.2595 3.02138 14.2595C7.47375 14.2595 11.7777 14.2595 16.2301 14.2595C16.6753 14.2595 16.8237 14.4079 17.1206 14.7048C17.5658 15.4468 18.011 16.0405 18.4563 16.6341C18.7531 17.0794 19.0499 17.2278 19.4951 17.2278C21.8697 17.2278 24.3928 17.2278 26.7674 17.3762C27.5094 17.5246 28.2515 17.3762 29.142 17.3762C29.884 17.3762 30.6261 17.3762 31.3681 17.3762C32.8523 17.3762 34.3364 17.3762 35.6721 17.3762C36.4142 17.3762 37.3046 17.3762 38.0467 17.3762C40.5697 17.3762 42.9443 17.3762 45.4673 17.3762C45.3189 17.3762 45.6157 17.5246 45.7641 17.3762Z" fill="white"/>
<path d="M47.3963 6.98757C47.3963 7.13598 47.5447 7.13598 47.5447 7.28439C47.6931 8.17487 47.6931 8.17487 46.8026 8.17487C37.1558 8.17487 27.509 8.17487 18.0106 8.17487C17.417 8.17487 17.2686 8.02645 17.2686 7.43281C17.2686 5.80027 17.2686 4.16773 17.2686 2.38679C17.2686 1.64472 17.5654 1.3479 18.3074 1.3479C25.8765 1.3479 33.4455 1.3479 41.0145 1.3479C42.4986 1.3479 43.6859 1.94155 44.8732 2.83202C44.7248 2.98044 44.428 2.98044 44.2796 2.98044C42.0534 2.98044 39.8272 2.98044 37.601 2.98044C36.859 2.98044 36.859 3.12885 36.859 3.87091C37.0074 5.50344 38.0463 6.39392 39.9756 6.83915C41.6082 6.98757 43.2407 6.83915 44.7248 6.83915C45.6153 6.98757 46.5058 6.83915 47.3963 6.98757Z" fill="white"/>
<path d="M41.9055 4.01929C42.9444 4.01929 44.1317 4.01929 45.1706 4.01929C45.7642 4.01929 46.061 4.1677 46.3579 4.61294C46.6547 5.05817 47.0999 5.50341 46.9515 5.94865C46.8031 6.24547 46.061 6.09706 45.6158 6.09706C43.9833 6.09706 42.2023 6.09706 40.5698 6.09706C39.3825 6.09706 38.492 5.65182 38.0468 4.61294C37.8984 4.1677 37.8984 4.01929 38.3436 4.01929C39.5309 4.01929 40.7182 4.01929 41.9055 4.01929Z" fill="#FBB75C"/>
<path d="M45.7633 17.3762C45.6149 17.5246 45.4665 17.5246 45.1696 17.5246C42.6466 17.5246 40.1236 17.5246 37.749 17.5246C40.1236 17.5246 42.6466 17.5246 45.0212 17.5246C45.318 17.3762 45.6149 17.3762 45.7633 17.3762Z" fill="#E9BC8D"/>
<path d="M47.3962 6.98752C45.17 6.98752 42.9438 6.98752 40.5692 6.98752C40.4208 6.98752 40.124 6.98752 39.9756 6.83911C42.3502 6.83911 44.7248 6.83911 47.0994 6.83911C47.0994 6.83911 47.2478 6.83911 47.3962 6.98752Z" fill="#A5B7F6"/>
<path d="M35.3752 17.5246C33.8911 17.5246 32.407 17.5246 30.9229 17.5246C32.5554 17.3762 34.0395 17.3762 35.3752 17.5246C35.5236 17.3762 35.5236 17.3762 35.3752 17.5246C35.5236 17.5246 35.5236 17.5246 35.3752 17.5246Z" fill="#F9C37E"/>
<path d="M28.8453 17.5246C28.1032 17.5246 27.3612 17.673 26.4707 17.3762C27.3612 17.3762 28.1032 17.3762 28.8453 17.5246C28.9937 17.3762 28.8453 17.3762 28.8453 17.5246Z" fill="#FCBC67"/>
<path d="M35.375 17.5246C35.375 17.3762 35.375 17.3762 35.375 17.5246C36.1171 17.3762 36.8591 17.3762 37.7496 17.3762C37.7496 17.3762 37.7496 17.3762 37.7496 17.5246C37.0075 17.5246 36.2655 17.5246 35.375 17.5246Z" fill="#F2C287"/>
<path d="M28.8447 17.5246C28.8447 17.3762 28.8447 17.3762 28.8447 17.5246C29.5868 17.3762 30.3288 17.3762 31.0709 17.3762C31.0709 17.3762 31.0709 17.3762 31.0709 17.5246C30.3288 17.5246 29.5868 17.5246 28.8447 17.5246Z" fill="#FCC072"/>
<path d="M32.2579 18.5637C33.5936 18.5637 34.6325 19.6026 34.4841 20.9383C34.4841 22.274 33.4452 23.3129 32.1095 23.1645C30.7738 23.1645 29.7349 22.1256 29.8833 20.7899C29.8833 19.4542 30.9222 18.5637 32.2579 18.5637Z" fill="#361452"/>
<path d="M41.1627 18.5637C42.4984 18.5637 43.5373 19.6026 43.5373 20.9383C43.5373 22.274 42.4984 23.3129 41.1627 23.3129C39.827 23.3129 38.7881 22.274 38.7881 20.9383C38.7881 19.4542 39.827 18.5637 41.1627 18.5637Z" fill="#361452"/>
<path d="M25.7277 20.7899C25.7277 22.1256 24.6888 23.1645 23.3531 23.1645C22.0174 23.1645 20.9785 22.1256 20.9785 20.7899C20.9785 19.4542 22.0174 18.4153 23.3531 18.4153C24.6888 18.5637 25.7277 19.4542 25.7277 20.7899Z" fill="#361452"/>
<path d="M33.7427 20.9383C33.7427 21.6804 33.0006 22.4224 32.2585 22.4224C31.5165 22.4224 30.7744 21.6804 30.7744 20.9383C30.7744 20.1962 31.5165 19.4542 32.2585 19.6026C33.0006 19.4542 33.7427 20.1962 33.7427 20.9383Z" fill="#99B1FC"/>
<path d="M41.1628 19.4541C41.9049 19.4541 42.647 20.1962 42.647 20.9382C42.647 21.6803 41.9049 22.4223 41.1628 22.4223C40.4208 22.4223 39.6787 21.6803 39.6787 20.9382C39.6787 20.0478 40.4208 19.4541 41.1628 19.4541Z" fill="#99B1FC"/>
<path d="M24.8374 20.9382C24.8374 21.6803 24.0953 22.4223 23.3533 22.4223C22.6112 22.4223 21.8691 21.6803 21.8691 20.9382C21.8691 20.1962 22.6112 19.4541 23.3533 19.4541C24.2437 19.4541 24.8374 20.1962 24.8374 20.9382Z" fill="#99B1FC"/>
<path d="M64.9093 40.9738C64.7609 40.9738 64.6125 41.2707 64.3157 41.2707C62.2379 41.1222 60.6054 42.1611 59.1213 43.3484C56.8951 45.1294 54.3721 45.2778 51.5522 44.5357C50.5133 44.2389 49.6229 43.4968 48.584 42.9032C47.5451 42.1611 46.3578 41.5675 45.0221 41.2707C43.0927 40.9738 41.3118 41.2707 39.6792 42.458C39.3824 42.7548 38.9372 42.9032 38.6404 43.2C35.8205 45.5746 31.5166 45.5746 28.6967 43.3484C27.5094 42.458 26.1737 41.5675 24.5412 41.2707C22.6118 40.9738 20.8309 41.2707 19.3468 42.3095C18.9015 42.6064 18.4563 42.9032 18.0111 43.2C15.1912 45.2778 11.6293 45.2778 8.66108 43.4968C8.06743 43.2 7.62219 42.7548 7.17695 42.458C5.98965 41.7159 4.80236 41.1222 3.31823 41.2707H3.16982C2.873 41.2707 2.57617 41.1222 2.57617 40.8254C2.57617 40.5286 2.873 40.3802 3.16982 40.3802C4.50553 40.3802 5.84124 40.677 7.02854 41.4191C7.7706 41.8643 8.51266 42.458 9.25473 42.9032C11.7777 44.5357 14.4492 44.5357 16.9722 43.0516C17.5658 42.7548 18.0111 42.458 18.4563 42.0127C21.4245 39.9349 24.9864 39.7865 27.9547 41.7159C28.8451 42.3095 29.7356 43.0516 30.7745 43.4968C33.1491 44.3873 35.3753 44.2389 37.6015 42.9032C38.1951 42.6064 38.6404 42.1611 39.234 41.7159C42.0538 39.9349 44.8737 39.7865 47.8419 41.4191C48.584 41.8643 49.326 42.458 50.0681 42.9032C52.5911 44.5357 55.2625 44.5357 57.7855 43.0516C58.5276 42.6064 59.1213 42.1611 59.7149 41.7159C61.0506 40.8254 62.5347 40.3802 64.0189 40.3802C64.3157 40.3802 64.4641 40.3802 64.7609 40.677C64.9093 40.677 64.9093 40.8254 64.9093 40.9738Z" fill="#361452"/>
<path d="M64.9093 32.9596C64.7609 33.108 64.6125 33.2564 64.3157 33.2564C62.2379 33.2564 60.6054 34.1469 59.1213 35.3342C56.7467 37.1151 54.2237 37.412 51.4038 36.5215C50.5133 36.2247 49.7713 35.7794 49.0292 35.1858C47.9903 34.4437 46.9514 33.7017 45.7641 33.4048C43.0927 32.8112 40.8665 33.4048 38.7888 35.0374C36.4142 36.9667 33.7428 37.2635 30.9229 36.3731C29.7356 35.9278 28.6967 35.1858 27.6579 34.4437C26.0253 33.4048 24.3928 33.108 22.4634 33.2564C20.8309 33.4048 19.4952 34.2953 18.3079 35.1858C15.9333 36.9667 13.4103 37.2635 10.5904 36.5215C9.69996 36.2247 8.9579 35.7794 8.36425 35.3342C6.73172 33.9985 5.09918 33.108 3.02141 33.108C2.72458 33.108 2.57617 32.9596 2.57617 32.6628C2.57617 32.3659 2.873 32.2175 3.16982 32.2175C4.50553 32.2175 5.84124 32.5143 7.02854 33.2564C7.7706 33.7016 8.51266 34.2953 9.25473 34.7405C11.9261 36.3731 14.5976 36.3731 17.269 34.8889C17.7142 34.5921 18.3079 34.2953 18.7531 33.8501C21.5729 31.7723 25.2833 31.7723 28.2515 33.7017C28.8451 33.9985 29.2904 34.4437 29.884 34.7405C32.5555 36.3731 35.2269 36.3731 37.8983 34.8889C38.4919 34.5921 38.9372 34.1469 39.3824 33.8501C42.2023 31.7723 45.7641 31.7723 48.7324 33.7017C49.326 33.9985 49.7713 34.4437 50.3649 34.8889C53.0364 36.5215 55.7078 36.5215 58.3792 35.0374C58.9728 34.7405 59.5665 34.2953 60.1601 33.8501C61.3474 32.9596 62.8316 32.5143 64.3157 32.5143C64.6125 32.5143 64.9093 32.5144 65.2062 32.8112C64.9093 32.6628 64.9093 32.8112 64.9093 32.9596Z" fill="#361452"/>
</svg>
