<svg width="80" height="80" viewBox="0 0 80 80" fill="none" xmlns="http://www.w3.org/2000/svg">
<path d="M70 20.4349C70 21.1267 69.7252 21.7903 69.2359 22.2795C68.7467 22.7687 68.0832 23.0436 67.3913 23.0436H12.6087C11.9168 23.0436 11.2533 22.7687 10.7641 22.2795C10.2748 21.7903 10 21.1267 10 20.4349C10 19.743 10.2748 19.0795 10.7641 18.5902C11.2533 18.101 11.9168 17.8262 12.6087 17.8262H67.3913C68.0832 17.8262 68.7467 18.101 69.2359 18.5902C69.7252 19.0795 70 19.743 70 20.4349Z" stroke="#361452" stroke-linecap="round" stroke-linejoin="round"/>
<path d="M70 43.9131C70 44.605 69.7252 45.2685 69.2359 45.7578C68.7467 46.247 68.0832 46.5218 67.3913 46.5218H12.6087C11.9168 46.5218 11.2533 46.247 10.7641 45.7578C10.2748 45.2685 10 44.605 10 43.9131C10 43.2213 10.2748 42.5577 10.7641 42.0685C11.2533 41.5793 11.9168 41.3044 12.6087 41.3044H67.3913C68.0832 41.3044 68.7467 41.5793 69.2359 42.0685C69.7252 42.5577 70 43.2213 70 43.9131Z" stroke="#361452" stroke-linecap="round" stroke-linejoin="round"/>
<path d="M33.478 51.739V62.1738" stroke="#361452" stroke-linecap="round" stroke-linejoin="round"/>
<path d="M33.4784 64.1306C33.4784 65.6873 32.86 67.1802 31.7592 68.281C30.6585 69.3818 29.1655 70.0002 27.6088 70.0002C26.0521 70.0002 24.5592 69.3818 23.4584 68.281C22.3577 67.1802 21.7393 65.6873 21.7393 64.1306C21.746 63.6138 21.9543 63.1201 22.3198 62.7546C22.6852 62.3891 23.179 62.1808 23.6958 62.1741H33.4784V64.1306Z" stroke="#361452" stroke-linecap="round" stroke-linejoin="round"/>
<path d="M62.1743 51.739V59.5651" stroke="#361452" stroke-linecap="round" stroke-linejoin="round"/>
<path d="M58.2612 64.7826C58.2612 66.1663 58.6735 67.4934 59.4073 68.4718C60.1412 69.4503 61.1365 70 62.1743 70C63.2121 70 64.2074 69.4503 64.9412 68.4718C65.675 67.4934 66.0873 66.1663 66.0873 64.7826C66.0873 63.3988 65.675 62.0718 64.9412 61.0933C64.2074 60.1149 63.2121 59.5652 62.1743 59.5652C61.1365 59.5652 60.1412 60.1149 59.4073 61.0933C58.6735 62.0718 58.2612 63.3988 58.2612 64.7826Z" stroke="#361452" stroke-linecap="round" stroke-linejoin="round"/>
<path d="M46.522 51.739V59.5651" stroke="#361452" stroke-linecap="round" stroke-linejoin="round"/>
<path d="M42.6089 64.7826C42.6089 66.1663 43.0212 67.4934 43.755 68.4718C44.4888 69.4503 45.4841 70 46.5219 70C47.5597 70 48.555 69.4503 49.2889 68.4718C50.0227 67.4934 50.435 66.1663 50.435 64.7826C50.435 63.3988 50.0227 62.0718 49.2889 61.0933C48.555 60.1149 47.5597 59.5652 46.5219 59.5652C45.4841 59.5652 44.4888 60.1149 43.755 61.0933C43.0212 62.0718 42.6089 63.3988 42.6089 64.7826Z" stroke="#361452" stroke-linecap="round" stroke-linejoin="round"/>
<path d="M39.3479 10C39.3479 12.0756 38.5234 14.0662 37.0557 15.5339C35.588 17.0016 33.5975 17.8261 31.5218 17.8261H27.6088C25.5332 17.8261 23.5426 17.0016 22.0749 15.5339C20.6072 14.0662 19.7827 12.0756 19.7827 10H39.3479Z" stroke="#361452" stroke-linecap="round" stroke-linejoin="round"/>
<path d="M33.4783 33.4783C33.4783 35.5539 32.6538 37.5445 31.1861 39.0122C29.7184 40.4798 27.7278 41.3044 25.6522 41.3044H21.7392C19.6636 41.3044 17.673 40.4798 16.2053 39.0122C14.7376 37.5445 13.9131 35.5539 13.9131 33.4783H33.4783Z" stroke="#361452" stroke-linecap="round" stroke-linejoin="round"/>
<path d="M43.9126 28.2607H56.9561V41.3042H43.9126V28.2607Z" stroke="#361452" stroke-linecap="round" stroke-linejoin="round"/>
<path d="M56.9565 30.8696H59.2522C59.9714 30.8613 60.6685 31.1187 61.2098 31.5924C61.7511 32.0661 62.0986 32.7228 62.1858 33.4368C62.2731 34.1508 62.0938 34.8719 61.6825 35.4619C61.2712 36.052 60.6566 36.4696 59.9565 36.6348L56.9565 37.3913" stroke="#361452" stroke-linecap="round" stroke-linejoin="round"/>
</svg>
