<svg width="24" height="25" viewBox="0 0 24 25" fill="none" xmlns="http://www.w3.org/2000/svg">
<g clip-path="url(#clip0_3464_8679)">
<path d="M12 0.909227C8.96308 0.900502 6.04669 2.08955 3.89073 4.21548C1.73478 6.34142 0.515351 9.23059 0.500003 12.249C0.498384 14.6413 1.26607 16.9715 2.691 18.8995L1.255 23.1118L5.674 21.7153C7.40283 22.843 9.40534 23.4869 11.4711 23.5794C13.5368 23.672 15.5895 23.2098 17.4134 22.2413C19.2373 21.2729 20.765 19.834 21.8361 18.0759C22.9071 16.3177 23.4819 14.3053 23.5 12.25C23.4847 9.23148 22.2653 6.34221 20.1093 4.21613C17.9534 2.09004 15.037 0.900766 12 0.909227Z" fill="#2AAF2D"/>
<path d="M18.9069 15.3559C18.8229 15.2187 18.5999 15.1342 18.2649 14.9702C17.9299 14.8062 16.2799 14.0041 15.9739 13.8948C15.6679 13.7854 15.4419 13.7288 15.2189 14.0598C14.9959 14.3907 14.3529 15.1342 14.1569 15.3519C13.9609 15.5696 13.7659 15.6004 13.4309 15.4354C12.4422 15.0477 11.5286 14.4925 10.7309 13.7944C9.9986 13.1287 9.37035 12.3582 8.86686 11.5083C8.66686 11.1783 8.84586 10.9994 9.01386 10.8344C9.36541 10.516 9.65019 10.1316 9.85186 9.70337C9.89665 9.61224 9.91757 9.51136 9.91268 9.41006C9.90778 9.30876 9.87723 9.21033 9.82386 9.1239C9.74286 8.9599 9.07186 7.33183 8.79286 6.67384C8.47686 5.92242 7.06786 5.89658 6.50086 6.50686C4.71186 8.43609 5.12486 10.6217 6.70086 12.6842C6.86886 12.9048 9.02086 16.3528 12.4289 17.6767C15.8369 19.0006 15.8369 18.5583 16.4519 18.5027C18.2189 18.3446 19.4149 16.1938 18.9109 15.3588" fill="white"/>
</g>
<defs>
<clipPath id="clip0_3464_8679">
<rect width="24" height="23.8545" fill="white" transform="translate(0 0.412109)"/>
</clipPath>
</defs>
</svg>
