<svg width="186" height="241" viewBox="0 0 186 241" fill="none" xmlns="http://www.w3.org/2000/svg">
<g opacity="0.4" clip-path="url(#clip0_2008_8835)">
<path d="M153.158 75.9139C153.158 78.4109 152.845 80.5958 152.218 82.4685C152.218 84.3413 151.905 86.5261 151.279 89.0231C150.027 95.2656 148.775 99.6354 147.522 102.132C145.644 106.502 143.765 110.56 141.887 114.305C140.008 118.051 137.504 121.484 134.373 124.605L90.2283 190.152C88.3498 193.273 85.532 195.146 81.7751 195.77C78.6442 196.394 75.5134 195.77 72.3826 193.897C65.4948 188.279 64.2425 182.348 68.6256 176.106L86.4713 148.951C85.2189 148.951 83.6535 149.263 81.7751 149.887C79.8966 149.887 78.3312 149.887 77.0788 149.887C67.0602 149.887 57.9809 148.015 49.8407 144.269C42.9529 141.772 35.1259 137.403 26.3596 131.16C20.7241 126.79 16.341 122.108 13.2102 117.114C8.20088 108.999 4.75698 100.572 2.87849 91.8322C1.62616 88.711 1 85.9019 1 83.4049C1 80.9079 1 78.4109 1 75.9139C1 69.6714 1.31308 64.9895 1.93925 61.8682C3.19157 55.6258 4.4439 51.256 5.69622 48.759C9.4532 40.6438 14.1494 33.1528 19.7849 26.286C21.0372 24.4133 22.6026 22.5406 24.4811 20.6678C26.9858 18.795 29.1773 17.2344 31.0558 15.9859C34.1867 14.1132 37.3175 12.5525 40.4483 11.3041C43.5791 9.4313 46.7099 7.87068 49.8407 6.62219C57.9809 2.87667 67.0602 1.00391 77.0788 1.00391C85.8451 1.00391 94.6114 2.87667 103.378 6.62219C110.265 9.1192 118.093 13.4889 126.859 19.7314C132.494 24.1012 136.877 28.783 140.008 33.777C144.391 41.268 148.148 49.6954 151.279 59.0592C151.905 62.1804 152.218 64.9895 152.218 67.4865C152.845 69.9835 153.158 72.7927 153.158 75.9139Z" stroke="#111111" stroke-miterlimit="10" stroke-dasharray="5 5"/>
<path d="M151.5 75.5039C151.5 116.367 117.928 149.504 76.5 149.504C35.0718 149.504 1.5 116.367 1.5 75.5039C1.5 34.6406 35.0718 1.50391 76.5 1.50391C117.928 1.50391 151.5 34.6406 151.5 75.5039Z" stroke="#111111" stroke-opacity="0.2"/>
<mask id="mask0_2008_8835" style="mask-type:alpha" maskUnits="userSpaceOnUse" x="1" y="1" width="151" height="150">
<path opacity="0.5" fill-rule="evenodd" clip-rule="evenodd" d="M76.5 150.004C118.198 150.004 152 116.65 152 75.5039C152 34.3582 118.198 1.00391 76.5 1.00391C34.802 1.00391 1 34.3582 1 75.5039C1 116.65 34.802 150.004 76.5 150.004Z" fill="#D9D9D9"/>
</mask>
<g mask="url(#mask0_2008_8835)">
<path d="M-9.09659 195.522L263.811 -76.7741M145.102 270.004L418.01 -2.29277M168.094 270.004L441 -2.29277M-28.5107 191.541L244.396 -80.7561M125.688 266.022L398.595 -6.27374M-46.5002 186.404L226.406 -85.892M107.699 260.886L380.605 -11.4107M-64.4907 181.267L208.416 -91.029M89.7093 255.749L362.615 -16.5467M-82.4802 176.131L190.426 -96.166M71.7187 250.612L344.626 -21.6837M-99.1846 170.994L173.721 -101.302M55.0143 245.476L327.92 -26.8207M-118.46 167.141L150.5 -115.499M35.7397 241.623L308.646 -30.6734M-137.735 163.288L135.171 -109.007M16.4641 237.771L282 5.50089M-157.01 159.436L115.897 -112.86M-2.81052 233.918L270.096 -38.3779M-175 154.299L97.9061 -117.996M-20.8 228.782L252.106 -43.5149" stroke="#111111" stroke-opacity="0.7"/>
</g>
<path d="M47.584 208.727L185.444 1.72754" stroke="#111111" stroke-opacity="0.2" stroke-dasharray="5 5"/>
<path d="M56.584 240.724L166.444 75.7241" stroke="#111111" stroke-opacity="0.2" stroke-dasharray="5 5"/>
<path d="M65 123.004C71.6274 123.004 77 117.631 77 111.004C77 104.376 71.6274 99.0039 65 99.0039C58.3726 99.0039 53 104.376 53 111.004C53 117.631 58.3726 123.004 65 123.004Z" stroke="#111111" stroke-miterlimit="10"/>
</g>
<defs>
<clipPath id="clip0_2008_8835">
<rect width="186" height="241" fill="white"/>
</clipPath>
</defs>
</svg>
