<svg width="48" height="48" viewBox="0 0 48 48" fill="none" xmlns="http://www.w3.org/2000/svg">
<path d="M14.5428 10.5601H33.4583C34.5145 10.5601 35.5273 10.9796 36.2741 11.7264C37.0211 12.4732 37.4405 13.4861 37.4405 14.5423V35.449C37.4405 35.977 37.2307 36.4834 36.8573 36.8568C36.4839 37.2302 35.9775 37.44 35.4495 37.44H12.5516C12.0236 37.44 11.5171 37.2302 11.1437 36.8568C10.7703 36.4834 10.5605 35.977 10.5605 35.449V14.5423C10.5605 13.4861 10.9801 12.4732 11.7269 11.7264C12.4737 10.9796 13.4866 10.5601 14.5428 10.5601Z" stroke="white" stroke-linecap="round" stroke-linejoin="round"/>
<path d="M14.8519 11H33.1482C34.1698 11 35.1494 11.2029 35.8718 11.5641C36.5943 11.9253 37 12.4151 37 12.9259V23.0371C37 23.2924 36.7971 23.5374 36.4359 23.7179C36.0747 23.8985 35.5849 24 35.0742 24H12.9259C12.4151 24 11.9253 23.8985 11.5641 23.7179C11.2029 23.5374 11 23.2924 11 23.0371V12.9259C11 12.4151 11.4058 11.9253 12.1282 11.5641C12.8506 11.2029 13.8303 11 14.8519 11Z" fill="white" fill-opacity="0.2" stroke="white" stroke-linecap="round" stroke-linejoin="round"/>
<path d="M1.60059 46.3999L7.57393 41.9199" stroke="white" stroke-linecap="round" stroke-linejoin="round"/>
<path d="M46.4 46.3999L40.4268 41.9199" stroke="white" stroke-linecap="round" stroke-linejoin="round"/>
<path d="M37.4405 24H10.5605" stroke="white" stroke-linecap="round" stroke-linejoin="round"/>
<path d="M24 10.5601V1.6001" stroke="white" stroke-linecap="round" stroke-linejoin="round"/>
<path d="M18.0273 1.6001H29.9741" stroke="white" stroke-linecap="round" stroke-linejoin="round"/>
<path d="M17.2799 31.4663C16.8675 31.4663 16.5332 31.1321 16.5332 30.7197C16.5332 30.3073 16.8675 29.9731 17.2799 29.9731" stroke="white"/>
<path d="M17.2803 31.4663C17.6927 31.4663 18.027 31.1321 18.027 30.7197C18.027 30.3073 17.6927 29.9731 17.2803 29.9731" stroke="white"/>
<path d="M30.7202 31.4663C30.3078 31.4663 29.9736 31.1321 29.9736 30.7197C29.9736 30.3073 30.3078 29.9731 30.7202 29.9731" stroke="white"/>
<path d="M30.7197 31.4663C31.1321 31.4663 31.4663 31.1321 31.4663 30.7197C31.4663 30.3073 31.1321 29.9731 30.7197 29.9731" stroke="white"/>
</svg>
