<svg width="48" height="48" viewBox="0 0 48 48" fill="none" xmlns="http://www.w3.org/2000/svg">
<path d="M1.5 46.5259L6.24 41.0679" stroke="white" stroke-linecap="round" stroke-linejoin="round"/>
<path d="M46.4998 46.5259L41.7598 41.0679" stroke="white" stroke-linecap="round" stroke-linejoin="round"/>
<path d="M43.5 18.0259C43.5 27.9679 36.426 43.5259 24 43.5259C11.574 43.5259 4.5 27.9679 4.5 18.0259C4.5 8.08388 11.574 1.52588 24 1.52588C36.426 1.52588 43.5 8.08388 43.5 18.0259Z" stroke="white" stroke-linecap="round" stroke-linejoin="round"/>
<path d="M24.0003 43.5258C26.2756 43.4744 28.5135 42.9369 30.5639 41.9493C32.6143 40.9617 34.4297 39.5469 35.8883 37.7998C35.0883 33.3998 30.0723 30.0278 24.0003 30.0278C17.9283 30.0278 12.9103 33.3998 12.1123 37.7998C13.5709 39.5469 15.3863 40.9617 17.4367 41.9493C19.4871 42.9369 21.725 43.4744 24.0003 43.5258Z" stroke="white" stroke-linecap="round" stroke-linejoin="round"/>
<path d="M31.5 10.5259H16.5C15.3065 10.5259 14.1619 11 13.318 11.8439C12.4741 12.6878 12 13.8324 12 15.0259C12 16.2194 12.4741 17.3639 13.318 18.2079C14.1619 19.0518 15.3065 19.5259 16.5 19.5259H31.5C32.6935 19.5259 33.8381 19.0518 34.682 18.2079C35.5259 17.3639 36 16.2194 36 15.0259C36 13.8324 35.5259 12.6878 34.682 11.8439C33.8381 11 32.6935 10.5259 31.5 10.5259Z" fill="white" fill-opacity="0.2" stroke="white" stroke-linecap="round" stroke-linejoin="round"/>
</svg>
