<svg width="61" height="62" viewBox="0 0 61 62" fill="none" xmlns="http://www.w3.org/2000/svg">
<path d="M49.9482 11.2008C47.541 11.2008 45.6152 9.27509 45.6152 6.86788C45.6152 4.46068 47.541 2.53491 49.9482 2.53491C52.3554 2.53491 54.2812 4.46068 54.2812 6.86788C54.2812 9.27509 52.3554 11.2008 49.9482 11.2008Z" fill="#361452"/>
<path d="M53.96 2.53498C53.96 2.3745 54.1204 2.21402 54.1204 2.21402C54.7624 1.5721 55.2438 1.09066 55.8857 0.448734C56.0462 0.288254 56.2067 0.127774 56.5276 0.448734C56.6881 0.609215 56.6881 0.930175 56.3672 1.09066C55.7252 1.73258 55.2438 2.21402 54.6019 2.85594C54.4414 3.01642 54.2809 3.01642 54.1204 3.01642C53.96 2.69546 53.96 2.69546 53.96 2.53498Z" fill="#381754"/>
<path d="M50.2689 -0.674657C50.2689 -0.193217 50.2689 0.127743 50.2689 0.609184C50.2689 0.769664 50.2689 1.09063 49.9479 1.09063C49.627 1.09063 49.627 0.930145 49.627 0.609184C49.627 -0.353698 49.627 -1.1561 49.627 -2.11898C49.627 -2.27946 49.7874 -2.43994 49.9479 -2.43994C50.2689 -2.43994 50.2689 -2.27946 50.2689 -2.11898C50.2689 -1.63754 50.2689 -1.1561 50.2689 -0.674657Z" fill="#391754"/>
<path d="M42.2448 6.38647C42.7262 6.38647 43.0472 6.38647 43.5286 6.38647C43.8496 6.38647 44.0101 6.54695 44.0101 6.70743C44.0101 7.0284 43.8496 7.0284 43.5286 7.0284C42.7262 7.0284 41.7633 7.0284 40.9609 7.0284C40.64 7.0284 40.4795 6.86792 40.4795 6.70743C40.4795 6.38647 40.64 6.38647 40.9609 6.38647C41.4424 6.38647 41.7633 6.38647 42.2448 6.38647Z" fill="#361452"/>
<path d="M57.651 6.54688C58.1325 6.54688 58.4534 6.54688 58.9349 6.54688C59.2558 6.54688 59.4163 6.70735 59.4163 6.86784C59.4163 7.1888 59.2558 7.34928 58.9349 7.34928C58.1325 7.34928 57.1696 7.34928 56.3672 7.34928C56.0462 7.34928 55.8857 7.1888 55.8857 7.02831C55.8857 6.70735 56.0462 6.70735 56.3672 6.70735C56.6881 6.54687 57.1696 6.54688 57.651 6.54688Z" fill="#381653"/>
<path d="M49.627 14.5709C49.627 14.0895 49.627 13.7685 49.627 13.2871C49.627 12.9661 49.7874 12.8057 49.9479 12.8057C50.2689 12.8057 50.2689 12.9661 50.2689 13.2871C50.2689 14.0895 50.2689 15.0524 50.2689 15.8548C50.2689 16.1758 50.1084 16.3362 49.9479 16.3362C49.627 16.3362 49.627 16.1758 49.627 15.8548C49.627 15.3733 49.627 14.8919 49.627 14.5709Z" fill="#391854"/>
<path d="M43.3678 0.127686C43.5283 0.127686 43.6888 0.288165 43.6888 0.288165C44.3307 0.930086 44.8122 1.41153 45.4541 2.05345C45.6146 2.21393 45.775 2.37441 45.6146 2.69537C45.4541 3.01633 45.1331 2.69537 44.9726 2.53489C44.3307 1.89297 43.6888 1.41153 43.2074 0.769606C43.0469 0.609126 43.0469 0.448645 43.0469 0.288165C43.0469 0.127685 43.2074 0.127686 43.3678 0.127686Z" fill="#371553"/>
<path d="M43.529 13.6081C43.3685 13.6081 43.208 13.6081 43.208 13.4477C43.0476 13.2872 43.208 13.1267 43.208 13.1267C43.85 12.4848 44.4919 11.8428 45.1338 11.2009C45.2943 11.0404 45.4548 11.0404 45.6152 11.2009C45.7757 11.3614 45.7757 11.5219 45.6152 11.6824C44.9733 12.1638 44.3314 12.9662 43.529 13.6081Z" fill="#381754"/>
<path d="M56.688 13.2873C56.688 13.4477 56.688 13.6082 56.5276 13.6082C56.3671 13.6082 56.2066 13.6082 56.2066 13.6082C55.5647 12.9663 54.9228 12.3244 54.1204 11.522C53.9599 11.3615 53.9599 11.201 54.1204 11.0405C54.2808 10.88 54.4413 10.88 54.6018 11.0405C55.2437 11.6824 55.8856 12.3244 56.5276 12.9663C56.5276 13.1268 56.688 13.1268 56.688 13.2873Z" fill="#361552"/>
<path d="M49.1452 3.3374C49.3057 3.3374 49.3057 3.3374 49.4662 3.3374C49.7871 3.3374 50.1081 3.3374 50.2686 3.49788C50.9105 3.49788 51.3919 3.65836 51.8734 4.1398C52.9967 5.10269 53.6386 6.22605 53.3177 7.67037C52.9967 9.11469 52.1943 10.0776 50.75 10.559C49.1452 11.0405 47.3799 10.2381 46.738 8.63325C45.9356 7.18893 46.417 5.10269 47.7009 4.1398C48.0218 3.97932 48.3428 3.81884 48.6638 3.65836C48.8242 3.49788 49.1452 3.49788 49.1452 3.3374Z" fill="white"/>
<path d="M50.2682 3.49796C49.9473 3.49796 49.6263 3.65844 49.4658 3.33748C49.7868 3.33748 50.1077 3.177 50.2682 3.49796Z" fill="#FDCB8A"/>
<path d="M49.1455 3.3374C48.985 3.49788 48.8245 3.49788 48.6641 3.49788C48.8245 3.3374 48.985 3.3374 49.1455 3.3374Z" fill="#D6BFB4"/>
<path d="M44.0114 60.5558C39.197 60.5558 50.4306 60.5558 45.7767 60.5558C45.2952 60.5558 45.1348 60.5558 45.1348 60.0744C45.1348 59.1115 45.1348 58.1486 45.1348 57.1858C45.1348 56.7043 45.2952 56.7043 45.6162 56.7043C47.3815 56.7043 49.3072 56.7043 51.0725 56.7043C51.8749 56.7043 51.8749 56.5438 51.8749 55.9019C51.8749 54.7786 51.8749 53.4947 51.8749 52.3713C51.8749 51.7294 51.7144 51.5689 51.0725 51.5689C49.6282 51.5689 49.6282 51.569 49.6282 50.1246C49.6282 42.903 49.6282 35.5209 49.6282 28.2993C49.6282 27.8179 49.7887 27.6574 50.2701 27.6574C51.0725 27.6574 51.7144 27.6574 52.5168 27.6574C52.8378 27.6574 53.1588 27.6574 53.3193 27.3364C53.4797 27.0155 53.1588 26.6945 52.9983 26.534C49.1468 23.4849 45.1348 20.4358 41.2832 17.3866C37.7527 14.6585 34.3826 11.9303 30.852 9.20215C30.3706 8.7207 29.8891 8.7207 29.4077 9.20215C22.3465 14.819 15.1249 20.2753 8.0638 25.8921C7.90332 26.0526 7.74284 26.2131 7.58236 26.3735V27.3364C7.74284 27.6574 8.0638 27.6574 8.38476 27.6574C9.02668 27.6574 9.6686 27.6574 10.15 27.6574C10.6315 27.6574 10.792 27.8179 10.792 28.2993C10.792 32.4718 10.792 36.6443 10.792 40.8168C10.792 44.1869 10.792 47.5569 10.792 51.0875C10.792 51.5689 10.6315 51.7294 10.15 51.7294C8.38476 51.7294 8.54524 51.569 8.54524 53.3342C8.54524 54.2971 8.54524 55.26 8.54524 56.2229C8.54524 56.7043 8.70572 57.0253 9.34764 57.0253C11.1129 57.0253 13.0387 57.0253 14.804 57.0253C15.4459 57.0253 15.4459 57.1858 15.4459 57.6672C15.4459 58.6301 15.4459 59.4325 15.4459 60.3954C15.4459 60.8768 15.2854 60.8768 14.9645 60.8768C13.1992 60.8768 3.24939 60.8768 1.48411 60.8768C1.32363 60.8768 1.00267 60.8768 0.842188 61.0373C0.681707 61.1978 0.521227 61.3582 0.681708 61.5187C0.681708 61.6792 0.842188 61.8397 1.00267 62.0002C1.16315 62.0002 1.48411 62.0002 1.64459 62.0002C22.6675 62.0002 38.876 62.0002 59.8989 62.0002C60.0594 62.0002 60.2199 62.0002 60.3804 62.0002C60.7013 62.0002 60.8618 61.8397 60.8618 61.5187C60.8618 61.1978 60.7013 61.0373 60.2199 61.0373C59.0965 60.5558 44.4928 60.5558 44.0114 60.5558ZM48.8258 44.8288C48.8258 45.3102 48.6653 45.3102 48.1839 45.3102C46.7396 45.3102 45.1348 45.3102 43.6904 45.3102C42.2461 45.3102 40.6413 45.3102 39.197 45.3102C38.7155 45.3102 38.5551 45.3102 38.5551 44.6683C38.5551 42.4216 38.5551 40.1748 38.5551 37.9281C38.5551 37.4467 38.7155 37.2862 39.197 37.4467C42.2461 37.4467 45.2952 37.4467 48.3444 37.4467C48.8258 37.4467 48.9863 37.4467 48.9863 37.9281C48.8258 40.1748 48.8258 42.5821 48.8258 44.8288ZM48.8258 50.927C48.8258 51.248 48.6653 51.4085 48.3444 51.4085C46.7396 51.4085 45.2952 51.4085 43.6904 51.4085C42.0856 51.4085 40.6413 51.4085 39.0365 51.4085C38.7155 51.4085 38.5551 51.4085 38.5551 50.927C38.5551 49.4827 38.5551 48.1989 38.5551 46.7545C38.5551 46.4336 38.7155 46.2731 39.0365 46.2731C42.0856 46.2731 45.2952 46.2731 48.3444 46.2731C48.6653 46.2731 48.8258 46.4336 48.8258 46.7545C48.8258 48.1989 48.8258 49.4827 48.8258 50.927ZM11.7548 46.7545C11.7548 46.4336 11.9153 46.2731 12.2363 46.2731C15.2854 46.2731 18.495 46.2731 21.5441 46.2731C21.8651 46.2731 22.0256 46.4336 22.0256 46.7545C22.0256 48.0384 22.0256 49.4827 22.0256 50.7665C22.0256 51.248 21.8651 51.248 21.5441 51.248C19.9393 51.248 18.495 51.248 16.8902 51.248C15.2854 51.248 13.8411 51.248 12.2363 51.248C11.9153 51.248 11.7548 51.248 11.7548 50.7665C11.7548 49.4827 11.7548 48.1989 11.7548 46.7545ZM11.9153 37.9281C11.9153 37.6072 12.0758 37.4467 12.3968 37.4467C14.0016 37.4467 15.4459 37.4467 17.0507 37.4467C18.6555 37.4467 20.0998 37.4467 21.7046 37.4467C22.1861 37.4467 22.1861 37.6072 22.1861 37.9281C22.1861 40.1748 22.1861 42.4216 22.1861 44.6683C22.1861 44.9893 22.1861 45.1497 21.7046 45.1497C18.6555 45.1497 15.4459 45.1497 12.3968 45.1497C12.0758 45.1497 11.9153 44.9893 11.9153 44.6683C11.9153 42.5821 11.9153 40.1748 11.9153 37.9281ZM12.5573 27.4969C18.495 27.4969 24.4328 27.4969 30.2101 27.4969C36.1479 27.4969 42.0856 27.4969 48.0234 27.4969C48.5048 27.4969 48.6653 27.6574 48.6653 28.1388C48.6653 30.7065 48.6653 33.2742 48.6653 35.8419C48.6653 36.3233 48.5048 36.4838 48.0234 36.4838C45.1348 36.4838 42.0856 36.4838 39.197 36.4838C38.7155 36.4838 38.2341 36.6443 38.0736 36.0024C37.9131 35.8419 37.5922 35.8419 37.4317 35.8419C32.6173 35.8419 27.8029 35.8419 22.9885 35.8419C22.6675 35.8419 22.3465 35.8419 22.1861 36.1628C22.0256 36.4838 21.7046 36.4838 21.3837 36.4838C18.3345 36.4838 15.2854 36.4838 12.2363 36.4838C11.7548 36.4838 11.5944 36.3233 11.5944 35.8419C11.5944 33.2742 11.5944 30.867 11.5944 28.2993C11.7548 27.6574 11.9153 27.4969 12.5573 27.4969ZM37.5922 56.7043C38.5551 56.7043 39.6784 56.7043 40.6413 56.7043C41.6042 56.7043 42.7275 56.7043 43.6904 56.7043C44.0114 56.7043 44.1719 56.8648 44.1719 57.1858C44.1719 58.1486 44.1719 59.1115 44.1719 60.0744C44.1719 60.3954 44.0114 60.5558 43.6904 60.5558C41.6042 60.5558 39.6784 60.5558 37.5922 60.5558C37.2712 60.5558 37.1107 60.3954 37.1107 60.0744C37.1107 59.1115 37.1107 57.9882 37.1107 57.0253C37.1107 56.7043 37.2712 56.7043 37.5922 56.7043ZM25.2352 56.7043C27.0005 56.7043 28.6053 56.7043 30.3706 56.7043C32.1358 56.7043 33.9011 56.7043 35.6664 56.7043C35.9874 56.7043 36.1479 56.7043 36.1479 57.1858C36.1479 58.1486 36.1479 59.1115 36.1479 60.0744C36.1479 60.3954 36.1479 60.5558 35.6664 60.5558C32.1358 60.5558 28.6053 60.5558 25.0747 60.5558C24.5933 60.5558 24.5933 60.3954 24.5933 60.0744C24.5933 59.1115 24.5933 58.1486 24.5933 57.1858C24.5933 56.7043 24.7538 56.7043 25.2352 56.7043ZM17.2112 56.7043C18.1741 56.7043 19.1369 56.7043 20.0998 56.7043C21.0627 56.7043 22.1861 56.7043 23.149 56.7043C23.4699 56.7043 23.6304 56.7043 23.6304 57.1858C23.6304 58.1486 23.6304 59.272 23.6304 60.2349C23.6304 60.7163 23.4699 60.7163 23.149 60.7163C21.2232 60.7163 19.1369 60.7163 17.2112 60.7163C16.8902 60.7163 16.7297 60.5558 16.7297 60.2349C16.7297 59.272 16.7297 58.3091 16.7297 57.3462C16.5693 56.7043 16.7297 56.7043 17.2112 56.7043Z" fill="#361452"/>
<path d="M50.912 52.5317C50.7515 52.5317 50.591 52.5317 50.4305 52.5317C37.1107 52.5317 23.7908 52.5317 10.4709 52.5317C10.3105 52.5317 10.15 52.5317 9.9895 52.5317C9.82902 53.4946 9.82902 54.618 9.9895 55.5809C10.15 55.5809 10.3105 55.5809 10.4709 55.5809C23.7908 55.5809 37.1107 55.5809 50.4305 55.5809C50.591 55.5809 50.7515 55.5809 50.912 55.5809C51.0725 54.618 51.0725 53.4946 50.912 52.5317Z" fill="white"/>
<path d="M29.8893 44.0264C29.8893 41.7797 29.8893 39.5329 29.8893 37.2862C29.8893 36.8048 29.7288 36.6443 29.4078 36.6443C27.4821 36.6443 25.5563 36.6443 23.791 36.6443C23.3096 36.6443 23.3096 36.8048 23.3096 37.2862C23.3096 41.7797 23.3096 46.2731 23.3096 50.7666C23.3096 51.248 23.4701 51.248 23.791 51.248C25.7168 51.248 27.6425 51.248 29.4078 51.248C29.8893 51.248 29.8893 51.0875 29.8893 50.7666C29.8893 48.5198 29.8893 46.2731 29.8893 44.0264Z" fill="white"/>
<path d="M37.592 36.9652C37.4315 36.8047 37.2711 36.8047 37.1106 36.8047C35.1848 36.8047 33.4195 36.8047 31.4938 36.8047C31.0123 36.8047 30.8518 36.9652 31.0123 37.2861C31.0123 41.7796 31.0123 46.273 31.0123 50.7665C31.0123 51.0874 31.0123 51.2479 31.4938 51.2479C33.58 51.2479 35.5058 51.2479 37.592 51.2479C37.7525 51.0874 37.592 50.7665 37.592 50.606C37.592 46.273 37.592 41.9401 37.592 37.6071C37.592 37.4466 37.4315 37.1256 37.592 36.9652Z" fill="white"/>
<path d="M19.9394 18.0286C18.9765 18.6705 18.1741 19.4729 17.0508 20.2753C25.8772 20.2753 34.5431 20.2753 43.53 20.2753C42.5672 19.4729 41.6043 18.831 40.8019 18.0286C40.6414 17.8681 40.3204 18.0286 40.1599 18.0286C33.5803 18.0286 27.161 18.0286 20.5813 18.0286C20.4209 18.0286 20.0999 17.8681 19.9394 18.0286Z" fill="white"/>
<path d="M39.037 16.7447C38.0741 15.9423 37.1113 15.1399 36.1484 14.3375C35.9879 14.177 35.8274 14.177 35.6669 14.177C32.2968 14.177 28.7663 14.177 25.3962 14.177C25.2357 14.177 24.9148 14.177 24.7543 14.3375C23.7914 15.1399 22.8285 15.7818 21.8656 16.4237C21.7051 16.4237 21.5447 16.5842 21.7051 16.7447C21.8656 16.5842 22.1866 16.7447 22.3471 16.7447C27.6429 16.7447 32.9388 16.7447 38.2346 16.7447C38.5556 16.7447 38.7161 16.9052 39.037 16.7447Z" fill="white"/>
<path d="M44.0117 26.3736C44.3327 26.5341 44.8141 26.3736 45.2956 26.3736C47.2213 26.3736 49.3076 26.3736 51.3938 26.3736C51.0728 25.8922 50.5914 25.5712 50.11 25.2502C48.5052 23.9664 46.9004 22.6825 45.2956 21.3987C44.9746 21.0777 44.4932 21.0777 44.1722 21.2382C44.0117 23.0035 44.0117 24.7688 44.0117 26.3736Z" fill="white"/>
<path d="M9.34766 26.3735C9.50814 26.534 9.66862 26.534 9.8291 26.534C11.9153 26.534 14.0016 26.534 16.0878 26.534C16.5693 26.534 16.7297 26.3735 16.7297 25.8921C16.7297 24.6083 16.7297 23.3244 16.7297 22.2011C16.7297 21.8801 16.8902 21.5591 16.5693 21.3987C16.2483 21.2382 15.7669 21.3987 15.4459 21.7196C14.1621 22.843 12.7177 23.8059 11.4339 24.9292C10.6315 25.2502 9.98958 25.7316 9.34766 26.3735Z" fill="white"/>
<path d="M22.0254 21.3985C21.8649 21.238 21.7044 21.238 21.5439 21.238C20.4205 21.238 19.2972 21.238 18.1738 21.238C17.8529 21.238 17.6924 21.238 17.6924 21.7195C17.6924 23.1638 17.6924 24.7686 17.6924 26.2129C19.1367 26.3734 20.4205 26.2129 21.8649 26.2129C22.0254 25.25 21.8649 24.2872 21.8649 23.3243C22.0254 22.6824 22.0254 22.0404 22.0254 21.3985Z" fill="white"/>
<path d="M37.7529 21.3985C37.5924 21.238 37.4319 21.238 37.2714 21.238C36.1481 21.238 35.0247 21.238 33.9014 21.238C33.5804 21.238 33.4199 21.238 33.4199 21.7195C33.4199 23.1638 33.4199 24.7686 33.4199 26.2129C34.8642 26.3734 36.1481 26.2129 37.5924 26.2129C37.7529 25.25 37.5924 24.2872 37.5924 23.3243C37.7529 22.6824 37.7529 22.0404 37.7529 21.3985Z" fill="white"/>
<path d="M27.1608 26.2129C27.1608 24.7686 27.1608 23.1638 27.1608 21.7195C27.1608 21.3985 27.0003 21.238 26.6793 21.238C25.556 21.238 24.5931 21.238 23.4697 21.238C23.1488 21.238 22.9883 21.238 22.9883 21.7195C22.9883 23.1638 22.9883 24.7686 22.9883 26.2129C24.4326 26.3734 25.7164 26.3734 27.1608 26.2129Z" fill="white"/>
<path d="M32.4567 26.2129C32.4567 24.7686 32.4567 23.1638 32.4567 21.7195C32.4567 21.3985 32.2962 21.238 31.9752 21.238C30.8519 21.238 29.889 21.238 28.7656 21.238C28.4447 21.238 28.2842 21.3985 28.2842 21.7195C28.2842 23.1638 28.2842 24.7686 28.2842 26.2129C29.7285 26.3734 31.0123 26.3734 32.4567 26.2129Z" fill="white"/>
<path d="M43.0485 26.2129C43.0485 24.7686 43.0485 23.1638 43.0485 21.7195C43.0485 21.3985 42.888 21.238 42.567 21.238C41.4437 21.238 40.4808 21.238 39.3574 21.238C39.0365 21.238 38.876 21.3985 38.876 21.7195C38.876 23.1638 38.876 24.7686 38.876 26.2129C40.3203 26.3734 41.6041 26.3734 43.0485 26.2129Z" fill="white"/>
<path d="M26.1982 13.2141C28.9264 13.2141 31.8151 13.2141 34.5432 13.2141C34.5432 13.0536 34.3827 12.8931 34.3827 12.8931C33.2594 12.0907 32.136 11.1279 31.1731 10.3255C30.8522 10.0045 30.5312 10.0045 30.2103 10.165C28.9264 11.1279 27.803 12.0907 26.5192 13.0536C26.1982 13.0536 26.1982 13.2141 26.1982 13.2141Z" fill="#FBB75C"/>
<path d="M19.9395 18.0285C21.7047 18.0285 23.6305 18.0285 25.3958 18.0285C30.5312 18.0285 35.6665 18.0285 40.8019 18.0285C40.6414 17.7075 40.3205 17.868 40.16 17.868C33.5803 17.868 27.1611 17.868 20.5814 17.868C20.4209 17.868 20.0999 17.7075 19.9395 18.0285Z" fill="#FDD39D"/>
<path d="M39.037 16.7446C33.4201 16.7446 27.8033 16.7446 22.347 16.7446C22.1865 16.7446 21.8656 16.7446 21.7051 16.9051C21.8656 16.9051 22.026 16.9051 22.347 16.9051C27.8033 16.9051 33.2597 16.9051 38.5555 16.9051C38.716 16.9051 38.8765 17.0656 39.037 16.7446C39.037 16.9051 39.037 16.9051 39.037 16.7446Z" fill="#C1D0FD"/>
<path d="M37.5921 36.9653C37.4316 37.1258 37.4316 37.2863 37.4316 37.6073C37.4316 42.2612 37.4316 46.9151 37.4316 51.569C37.5921 51.569 37.5921 51.2481 37.5921 51.2481C37.5921 46.5941 37.5921 42.1007 37.5921 37.4468C37.5921 37.1258 37.5921 36.9653 37.5921 36.9653Z" fill="#D6DFFE"/>
<path d="M44.0111 26.3736C44.0111 24.7688 44.0111 23.0035 44.0111 21.3987C43.8506 21.3987 43.8506 21.5592 43.8506 21.5592C43.8506 23.164 43.8506 24.6083 43.8506 26.2131L44.0111 26.3736Z" fill="#D6CFDB"/>
<path d="M22.0257 21.3987C21.8652 22.0406 22.0257 22.843 21.8652 23.4849C21.8652 24.4478 21.8652 25.4107 21.8652 26.2131C21.8652 26.2131 21.8652 26.2131 22.0257 26.2131C22.0257 24.6083 22.0257 23.0035 22.0257 21.3987Z" fill="#F4BC75"/>
<path d="M37.7523 21.3987C37.5918 22.0406 37.7523 22.6825 37.5918 23.3244C37.5918 24.2873 37.5918 25.2502 37.5918 26.2131C37.5918 26.2131 37.5918 26.2131 37.7523 26.2131C37.9128 24.6083 37.9128 23.0035 37.7523 21.3987Z" fill="#A5B7F6"/>
<path d="M37.7529 26.2131C36.3086 26.2131 34.8642 26.2131 33.4199 26.2131C33.4199 26.3736 33.5804 26.3736 33.7409 26.3736C35.0247 26.3736 36.1481 26.3736 37.4319 26.3736C37.5924 26.3736 37.7529 26.3736 37.7529 26.2131Z" fill="#C1CFFD"/>
<path d="M22.0254 26.2131C20.581 26.2131 19.1367 26.2131 17.6924 26.2131C17.6924 26.3736 17.8529 26.3736 18.0133 26.3736C19.2972 26.3736 20.4205 26.3736 21.7044 26.3736C21.8649 26.3736 22.0254 26.3736 22.0254 26.2131Z" fill="#FDD39C"/>
<path d="M27.1608 26.2131C25.7164 26.2131 24.4326 26.2131 22.9883 26.2131C22.9883 26.3736 23.1488 26.3736 23.3092 26.3736C24.4326 26.3736 25.7164 26.3736 26.8398 26.3736C27.0003 26.3736 27.1608 26.3736 27.1608 26.2131Z" fill="#C1CFFD"/>
<path d="M43.0481 26.2131C41.7643 26.2131 40.32 26.2131 39.0361 26.2131C39.0361 26.3736 39.1966 26.3736 39.3571 26.3736C40.4805 26.3736 41.7643 26.3736 42.8877 26.3736C42.8877 26.3736 43.0481 26.3736 43.0481 26.2131Z" fill="#FDD39C"/>
<path d="M32.4563 26.2131C31.1725 26.2131 29.7282 26.2131 28.4443 26.2131C28.4443 26.3736 28.6048 26.3736 28.7653 26.3736C29.8887 26.3736 31.1725 26.3736 32.2959 26.3736C32.2959 26.3736 32.4563 26.3736 32.4563 26.2131Z" fill="#FDD39C"/>
<path d="M50.9121 52.5317C50.9121 53.4946 50.9121 54.618 50.9121 55.5809C51.2331 54.9389 51.0726 54.4575 51.0726 53.8156C51.0726 53.3341 51.2331 52.8527 50.9121 52.5317Z" fill="#F4BC75"/>
<path d="M9.82951 55.5809C9.82951 54.618 9.82951 53.4946 9.82951 52.5317C9.50855 53.0132 9.66903 53.6551 9.66903 54.1365C9.66903 54.618 9.50855 55.0994 9.82951 55.5809Z" fill="#F4BC75"/>
<path d="M27.4814 43.866C27.4814 44.3475 27.4814 44.6684 27.4814 45.1499C27.4814 45.4708 27.6419 45.6313 27.9629 45.6313C28.2838 45.6313 28.4443 45.4708 28.4443 45.1499C28.4443 44.187 28.4443 43.2241 28.4443 42.2612C28.4443 41.9403 28.2838 41.7798 27.9629 41.7798C27.6419 41.7798 27.4814 41.9403 27.4814 42.2612C27.4814 43.0636 27.4814 43.5451 27.4814 43.866Z" fill="#381754"/>
<path d="M33.2598 43.866C33.2598 43.3845 33.2598 42.9031 33.2598 42.4216C33.2598 42.1007 33.0993 41.9402 32.7783 41.9402C32.4574 41.9402 32.2969 42.1007 32.2969 42.4216C32.2969 43.3845 32.2969 44.3474 32.2969 45.3103C32.2969 45.6312 32.4574 45.7917 32.7783 45.7917C33.0993 45.7917 33.2598 45.6312 33.2598 45.3103C33.2598 44.8288 33.2598 44.3474 33.2598 43.866Z" fill="#381754"/>
</svg>
