<svg width="68" height="68" viewBox="0 0 68 68" fill="none" xmlns="http://www.w3.org/2000/svg">
<g clip-path="url(#clip0_2008_8896)">
<path d="M32.6144 29.5972C31.8153 30.6473 31.3254 31.8999 31.2 33.2136C31.0746 34.5273 31.3187 35.8498 31.9048 37.0322C32.4908 38.2146 33.3955 39.2098 34.5169 39.9055C35.6382 40.6012 36.9317 40.9699 38.2513 40.9699C39.571 40.9699 40.8644 40.6012 41.9857 39.9055C43.1071 39.2098 44.0118 38.2146 44.5978 37.0322C45.1839 35.8498 45.428 34.5273 45.3026 33.2136C45.1772 31.8999 44.6873 30.6473 43.8882 29.5972H32.6144Z" stroke="white" stroke-width="1.5" stroke-linecap="round" stroke-linejoin="round"/>
<path d="M43.9163 29.5972H31.1663L28.333 21.0972L46.7497 23.9305L43.9163 29.5972Z" stroke="white" stroke-width="1.5" stroke-linecap="round" stroke-linejoin="round"/>
<path d="M31.1667 29.5972L26.8232 31.7675" stroke="white" stroke-width="1.5" stroke-linecap="round" stroke-linejoin="round"/>
<path d="M52.4164 66.4302V55.0969C52.4164 52.4668 51.3716 49.9445 49.5119 48.0848C47.6522 46.225 45.1298 45.1802 42.4998 45.1802H41.4883L38.2498 50.8469L34.9291 45.0329C31.3958 44.7324 27.9503 43.7713 24.7716 42.1996L22.2528 40.9416C21.7536 40.6918 21.3085 40.3461 20.9429 39.9242C20.5773 39.5024 20.2985 39.0127 20.1222 38.483C19.9459 37.9534 19.8757 37.3942 19.9155 36.8375C19.9554 36.2807 20.1045 35.7372 20.3544 35.2381L21.2498 33.4332C21.5232 32.8805 21.6732 32.2749 21.6891 31.6585C21.7051 31.042 21.5867 30.4295 21.3422 29.8634C21.0977 29.2972 20.7329 28.7911 20.2732 28.3801C19.8134 27.9691 19.2698 27.6631 18.6799 27.4832C17.6822 27.2116 16.6207 27.2998 15.6815 27.7324C14.7422 28.165 13.9852 28.9143 13.5431 29.8491L12.7498 31.4329C12.0008 32.9307 11.5541 34.5613 11.4354 36.2317C11.3167 37.9021 11.5282 39.5795 12.0578 41.1682C12.5874 42.7568 13.4248 44.2256 14.5222 45.4905C15.6195 46.7555 16.9553 47.7919 18.4533 48.5406L27.8486 53.2411C28.402 53.4426 28.8806 53.8083 29.2204 54.2894C29.5602 54.7704 29.7449 55.3438 29.7498 55.9327V66.4387" stroke="white" stroke-width="1.5" stroke-linecap="round" stroke-linejoin="round"/>
<path d="M43.917 55.0972V66.4305" stroke="white" stroke-width="1.5" stroke-linecap="round" stroke-linejoin="round"/>
<path d="M64.9715 16.0765L35.2215 1.84747C34.8402 1.66533 34.4229 1.5708 34.0003 1.5708C33.5777 1.5708 33.1605 1.66533 32.7792 1.84747L3.02916 16.0765C2.54753 16.3065 2.14068 16.6679 1.85546 17.1191C1.57024 17.5702 1.41825 18.0927 1.41699 18.6265V63.5915C1.41699 64.3429 1.7155 65.0636 2.24686 65.5949C2.77821 66.1263 3.49888 66.4248 4.25033 66.4248H63.7503C64.5018 66.4248 65.2224 66.1263 65.7538 65.5949C66.2851 65.0636 66.5837 64.3429 66.5837 63.5915V18.6321C66.5835 18.0974 66.432 17.5737 66.1467 17.1215C65.8614 16.6692 65.454 16.3069 64.9715 16.0765Z" stroke="white" stroke-width="1.5" stroke-linecap="round" stroke-linejoin="round"/>
</g>
<defs>
<clipPath id="clip0_2008_8896">
<rect width="68" height="68" fill="white"/>
</clipPath>
</defs>
</svg>
