<svg width="48" height="48" viewBox="0 0 48 48" fill="none" xmlns="http://www.w3.org/2000/svg">
<path d="M34.3478 16.5H9.12179C8.3777 16.5306 7.67158 16.8368 7.14076 17.3591C6.60993 17.8814 6.29235 18.5825 6.24979 19.326L2.24979 43.01C2.1904 43.431 2.21922 43.8597 2.33442 44.269C2.44961 44.6783 2.64867 45.0591 2.91895 45.3873C3.18922 45.7155 3.52481 45.9839 3.90438 46.1755C4.28395 46.367 4.69921 46.4775 5.12379 46.5H38.3458C38.7704 46.4775 39.1856 46.367 39.5652 46.1755C39.9448 45.9839 40.2803 45.7155 40.5506 45.3873C40.8209 45.0591 41.02 44.6783 41.1352 44.269C41.2504 43.8597 41.2792 43.431 41.2198 43.01L37.2198 19.326C37.1772 18.5825 36.8596 17.8814 36.3288 17.3591C35.798 16.8368 35.0919 16.5306 34.3478 16.5Z" stroke="#22252E" stroke-width="1.5" stroke-linecap="round" stroke-linejoin="round"/>
<path d="M29.1061 10.614C28.7783 8.89784 27.8636 7.34919 26.5189 6.23365C25.1742 5.11811 23.4832 4.50519 21.7361 4.5C19.9954 4.50524 18.3103 5.11353 16.9677 6.22134C15.6251 7.32915 14.7078 8.86801 14.3721 10.576" stroke="#22252E" stroke-width="1.5" stroke-linecap="round" stroke-linejoin="round"/>
<path d="M41.2363 1.5L36.7363 6V10.5H41.2363L45.7363 6L41.2363 1.5Z" stroke="#22252E" stroke-width="1.5" stroke-linecap="round" stroke-linejoin="round"/>
</svg>
