<svg width="24" height="18" viewBox="0 0 24 18" fill="none" xmlns="http://www.w3.org/2000/svg">
<path d="M12 0.5C15.1756 0.5 17.6146 0.607376 19.4033 0.734375L19.5986 0.75293C21.6028 0.98674 23.1662 2.59328 23.3271 4.65332L23.3955 5.63965C23.458 6.66599 23.5 7.80688 23.5 9C23.5 10.2361 23.4549 11.416 23.3887 12.4707L23.3164 13.4805C23.1562 15.4737 21.6714 17.027 19.7246 17.251L19.5352 17.2686C17.7288 17.3941 15.2058 17.5 12 17.5C9.59549 17.5 7.5751 17.4402 5.95312 17.3574L4.46484 17.2686C2.48926 17.1312 0.947862 15.6357 0.703125 13.6719L0.683594 13.4805C0.580321 12.1959 0.5 10.6478 0.5 9C0.5 7.40917 0.574733 5.91073 0.672852 4.65332L0.693359 4.45605C0.943536 2.42593 2.56482 0.878647 4.59668 0.734375L6.06152 0.644531C7.65098 0.560684 9.61827 0.5 12 0.5ZM10.5 11.1582L14.4561 9L10.5 6.84082V11.1582Z" stroke="#5C5F68"/>
</svg>
