<svg width="24" height="24" viewBox="0 0 24 24" fill="none" xmlns="http://www.w3.org/2000/svg">
<g clip-path="url(#clip0_2008_9097)">
<path d="M16.6494 2.75C17.8507 2.75 18.9959 3.28468 19.8076 4.16406L19.998 4.37012L20.2725 4.31543C20.9292 4.18409 21.565 3.99991 22.1797 3.75391C21.8377 4.21162 21.4081 4.60108 20.9014 4.89062L21.1855 5.82324C21.6492 5.79012 22.0836 5.71472 22.499 5.6123C22.1182 6.00872 21.7094 6.3828 21.2793 6.74121L21.0996 6.89062V7.72461C21.0996 14.0345 16.3164 21.2498 7.5752 21.25C5.64184 21.25 3.78098 20.8327 2.07422 20.1084C4.14763 19.9316 6.0748 19.1777 7.5918 17.9365L8.61719 17.0977L7.29297 17.0508C5.6729 16.9929 4.20606 16.0389 3.48047 14.6738C3.52133 14.674 3.56109 14.6748 3.59961 14.6748C4.10121 14.6748 4.52598 14.5904 4.95703 14.5186L4.97266 13.5352C3.17791 13.1762 1.76255 11.7609 1.45996 9.95117C1.98512 10.1404 2.54833 10.25 3.14941 10.25H4.72559L3.43848 9.3418C2.28229 8.52566 1.47461 7.17122 1.47461 5.625C1.47461 5.06301 1.57291 4.53822 1.76562 4.0459C4.29936 6.82023 7.82263 8.60598 11.8223 8.82422L12.4668 8.85938L12.3398 8.22656C12.2631 7.84279 12.2002 7.517 12.2002 7.2002C12.2002 4.70639 14.2208 2.75021 16.6494 2.75Z" stroke="#5C5F68"/>
</g>
<defs>
<clipPath id="clip0_2008_9097">
<rect width="24" height="24" fill="white"/>
</clipPath>
</defs>
</svg>
