<svg width="68" height="68" viewBox="0 0 68 68" fill="none" xmlns="http://www.w3.org/2000/svg">
<path d="M21.7661 27.7533C21.5604 27.1714 21.243 26.6422 20.8397 26.1916C19.9818 25.2331 18.7351 24.6299 17.3476 24.6299H13.7211C11.4114 24.6299 9.53906 26.5023 9.53906 28.812C9.53906 30.7772 10.9075 32.4774 12.8274 32.8973L18.3487 34.1052C20.4996 34.5758 22.0326 36.4818 22.0326 38.6836C22.0326 41.271 19.9351 43.3702 17.3476 43.3702H14.2241C12.1842 43.3702 10.4488 42.0666 9.80565 40.2467" stroke="white" stroke-width="1.5" stroke-linecap="round" stroke-linejoin="round"/>
<path d="M58.0238 27.7533C57.8181 27.1714 57.5008 26.6422 57.0973 26.1916C56.2394 25.2331 54.9927 24.6299 53.6053 24.6299H49.9789C47.6691 24.6299 45.7969 26.5023 45.7969 28.812C45.7969 30.7772 47.1654 32.4774 49.0852 32.8973L54.6066 34.1052C56.7573 34.5758 58.2905 36.4818 58.2905 38.6836C58.2905 41.271 56.1929 43.3702 53.6053 43.3702H50.4818C48.4421 43.3702 46.7067 42.0666 46.0635 40.2467" stroke="white" stroke-width="1.5" stroke-linecap="round" stroke-linejoin="round"/>
<path d="M27.668 30.8766V37.1235C27.668 40.5734 30.4648 43.3702 33.9147 43.3702C37.3648 43.3702 40.1616 40.5734 40.1616 37.1235V30.8766C40.1616 27.4267 37.3648 24.6299 33.9147 24.6299C30.4648 24.6299 27.668 27.4267 27.668 30.8766Z" stroke="white" stroke-width="1.5" stroke-linecap="round" stroke-linejoin="round"/>
<path d="M7.93193 3.06006H60.0624C60.0624 3.06006 64.9358 3.06006 64.9358 7.93339V60.0639C64.9358 60.0639 64.9358 64.9372 60.0624 64.9372H7.93193C7.93193 64.9372 3.05859 64.9372 3.05859 60.0639V7.93339C3.05859 7.93339 3.05859 3.06006 7.93193 3.06006Z" stroke="white" stroke-width="1.5" stroke-linecap="round" stroke-linejoin="round"/>
</svg>
