<svg width="80" height="80" viewBox="0 0 80 80" fill="none" xmlns="http://www.w3.org/2000/svg">
<path d="M9.43945 51.3598C9.43945 49.7598 9.43945 48.1598 9.43945 46.3998C9.43945 45.9198 9.59945 45.7598 10.0795 45.7598C11.9995 45.7598 14.0795 45.7598 15.9995 45.7598C16.4795 45.7598 16.6395 45.9198 16.6395 46.5598C16.6395 48.1598 16.6395 49.7598 16.6395 51.5198C16.6395 51.9998 16.4795 52.1598 15.9995 52.1598C15.0395 52.1598 14.0795 52.1598 13.1195 52.1598C12.1595 52.1598 11.1995 52.1598 10.2395 52.1598C9.75945 52.1598 9.43945 51.8398 9.43945 51.3598Z" fill="#361452"/>
<path d="M16.7995 42.2398C16.7995 42.7198 16.6395 43.0398 15.9995 43.0398C15.0395 43.0398 14.0795 43.0398 13.1195 43.0398C12.1595 43.0398 11.0395 43.0398 10.0795 43.0398C9.59945 43.0398 9.43945 42.8798 9.43945 42.3998C9.43945 40.7998 9.43945 39.1998 9.43945 37.5998C9.43945 37.1198 9.75945 36.7998 10.2395 36.7998C12.1595 36.7998 14.0795 36.7998 15.9995 36.7998C16.4795 36.7998 16.7995 36.9598 16.7995 37.5998C16.7995 39.0398 16.7995 40.6398 16.7995 42.2398Z" fill="#361452"/>
<path d="M26.7213 46.5598C26.7213 48.1598 26.7213 49.7598 26.7213 51.3598C26.7213 51.8398 26.5613 52.1598 25.9213 52.1598C24.0013 52.1598 22.0813 52.1598 20.1613 52.1598C19.6813 52.1598 19.3613 51.9998 19.3613 51.3598C19.3613 49.7598 19.3613 48.1598 19.3613 46.5598C19.3613 46.0798 19.5213 45.7598 20.1613 45.7598C21.1213 45.7598 22.0813 45.7598 23.0413 45.7598C24.0013 45.7598 24.9613 45.7598 25.9213 45.7598C26.4013 45.7598 26.7213 45.9198 26.7213 46.5598Z" fill="#361452"/>
<path d="M26.7213 60.4798C26.7213 61.1198 26.5613 61.2798 25.9213 61.2798C24.0013 61.2798 22.0813 61.2798 20.1613 61.2798C19.5213 61.2798 19.3613 61.1198 19.3613 60.4798C19.3613 58.8798 19.3613 57.4398 19.3613 55.8398C19.3613 55.1998 19.6813 55.0398 20.1613 55.0398C21.1213 55.0398 22.0813 55.0398 23.0413 55.0398C24.0013 55.0398 24.9613 55.0398 25.9213 55.0398C26.4013 55.0398 26.7213 55.1998 26.7213 55.8398C26.7213 57.2798 26.7213 58.8798 26.7213 60.4798Z" fill="#361452"/>
<path d="M37.9204 35.9999H32.3204C31.8404 35.9999 31.6804 36.1599 31.6804 36.6399V42.2399C31.6804 42.7199 31.8404 42.8799 32.3204 42.8799H37.9204C38.4004 42.8799 38.5604 42.7199 38.5604 42.2399V36.6399C38.5604 36.1599 38.4004 35.9999 37.9204 35.9999ZM48.0004 27.0399H42.4004C41.9204 27.0399 41.7604 27.1999 41.7604 27.6799V33.2799C41.7604 33.5999 41.9204 33.7599 42.0804 33.9199C42.0804 33.9199 42.2404 33.9199 42.4004 33.9199H48.0004C48.4804 33.9199 48.6404 33.7599 48.6404 33.2799V27.6799C48.6404 27.1999 48.4804 27.0399 48.0004 27.0399ZM48.0004 35.9999H42.4004C41.9204 35.9999 41.7604 36.1599 41.7604 36.6399V42.2399C41.7604 42.7199 41.9204 42.8799 42.4004 42.8799H47.8404C48.3204 42.8799 48.6404 42.7199 48.6404 42.2399V36.6399C48.6404 36.1599 48.4804 35.9999 48.0004 35.9999ZM48.0004 35.9999H42.4004C41.9204 35.9999 41.7604 36.1599 41.7604 36.6399V42.2399C41.7604 42.7199 41.9204 42.8799 42.4004 42.8799H47.8404C48.3204 42.8799 48.6404 42.7199 48.6404 42.2399V36.6399C48.6404 36.1599 48.4804 35.9999 48.0004 35.9999ZM48.0004 27.0399H42.4004C41.9204 27.0399 41.7604 27.1999 41.7604 27.6799V33.2799C41.6004 33.5999 41.7604 33.7599 42.0804 33.9199C42.0804 33.9199 42.2404 33.9199 42.4004 33.9199H48.0004C48.4804 33.9199 48.6404 33.7599 48.6404 33.2799V27.6799C48.6404 27.1999 48.4804 27.0399 48.0004 27.0399ZM37.7604 27.0399H32.3204C31.8404 27.0399 31.6804 27.1999 31.6804 27.6799V33.1199C31.6804 33.5999 32.0004 33.9199 32.4804 33.9199H37.9204C38.4004 33.9199 38.7204 33.7599 38.7204 33.1199V27.6799C38.5604 27.1999 38.2404 27.0399 37.7604 27.0399ZM37.9204 35.9999H32.3204C31.8404 35.9999 31.6804 36.1599 31.6804 36.6399V42.2399C31.6804 42.7199 31.8404 42.8799 32.3204 42.8799H37.9204C38.4004 42.8799 38.5604 42.7199 38.5604 42.2399V36.6399C38.5604 36.1599 38.4004 35.9999 37.9204 35.9999ZM37.9204 35.9999H32.3204C31.8404 35.9999 31.6804 36.1599 31.6804 36.6399V42.2399C31.6804 42.7199 31.8404 42.8799 32.3204 42.8799H37.9204C38.4004 42.8799 38.5604 42.7199 38.5604 42.2399V36.6399C38.5604 36.1599 38.4004 35.9999 37.9204 35.9999ZM37.7604 27.0399H32.3204C31.8404 27.0399 31.6804 27.1999 31.6804 27.6799V33.1199C31.6804 33.5999 32.0004 33.9199 32.4804 33.9199H37.9204C38.4004 33.9199 38.7204 33.7599 38.7204 33.1199V27.6799C38.5604 27.1999 38.2404 27.0399 37.7604 27.0399ZM48.0004 27.0399H42.4004C41.9204 27.0399 41.7604 27.1999 41.7604 27.6799V33.2799C41.6004 33.5999 41.7604 33.7599 42.0804 33.9199C42.0804 33.9199 42.2404 33.9199 42.4004 33.9199H48.0004C48.4804 33.9199 48.6404 33.7599 48.6404 33.2799V27.6799C48.6404 27.1999 48.4804 27.0399 48.0004 27.0399ZM48.0004 35.9999H42.4004C41.9204 35.9999 41.7604 36.1599 41.7604 36.6399V42.2399C41.7604 42.7199 41.9204 42.8799 42.4004 42.8799H47.8404C48.3204 42.8799 48.6404 42.7199 48.6404 42.2399V36.6399C48.6404 36.1599 48.4804 35.9999 48.0004 35.9999ZM60.0004 36.6399H53.9204C53.4404 36.6399 53.2804 36.7999 53.2804 37.2799V42.2399C53.2804 42.7199 53.6004 42.8799 54.0804 42.8799H60.0004C60.4804 42.8799 60.6404 42.7199 60.6404 42.2399V37.2799C60.6404 36.7999 60.4804 36.6399 60.0004 36.6399ZM59.8404 45.7599H54.0804C53.6004 45.7599 53.2804 45.9199 53.2804 46.5599V51.3599C53.2804 51.8399 53.6004 52.1599 54.0804 52.1599H59.8404C60.3204 52.1599 60.6404 51.9999 60.6404 51.3599V46.5599C60.6404 46.0799 60.4804 45.7599 59.8404 45.7599ZM59.8404 55.0399H53.9204C53.4404 55.0399 53.2804 55.1999 53.2804 55.6799V60.4799C53.2804 60.9599 53.4404 61.2799 54.0804 61.2799H59.8404C60.4804 61.2799 60.6404 60.9599 60.6404 60.4799V55.8399C60.6404 55.1999 60.4804 55.0399 59.8404 55.0399ZM69.7604 36.6399H64.0004C63.5204 36.6399 63.2004 36.7999 63.2004 37.4399V42.2399C63.2004 42.8799 63.3604 43.0399 64.0004 43.0399H69.7604C70.4004 43.0399 70.5604 42.8799 70.5604 42.2399V37.4399C70.5604 36.9599 70.4004 36.6399 69.7604 36.6399ZM69.7604 45.7599H64.0004C63.5204 45.7599 63.2004 45.9199 63.2004 46.5599V51.3599C63.2004 51.8399 63.3604 52.1599 64.0004 52.1599H69.7604C70.4004 52.1599 70.5604 51.8399 70.5604 51.3599V46.5599C70.5604 45.9199 70.4004 45.5999 69.7604 45.7599ZM69.7604 45.7599H64.0004C63.5204 45.7599 63.2004 45.9199 63.2004 46.5599V51.3599C63.2004 51.8399 63.3604 52.1599 64.0004 52.1599H69.7604C70.4004 52.1599 70.5604 51.8399 70.5604 51.3599V46.5599C70.5604 45.9199 70.4004 45.5999 69.7604 45.7599ZM69.7604 36.6399H64.0004C63.5204 36.6399 63.2004 36.7999 63.2004 37.4399V42.2399C63.2004 42.8799 63.3604 43.0399 64.0004 43.0399H69.7604C70.4004 43.0399 70.5604 42.8799 70.5604 42.2399V37.4399C70.5604 36.9599 70.4004 36.6399 69.7604 36.6399ZM59.8404 55.0399H53.9204C53.4404 55.0399 53.2804 55.1999 53.2804 55.6799V60.4799C53.2804 60.9599 53.4404 61.2799 54.0804 61.2799H59.8404C60.4804 61.2799 60.6404 60.9599 60.6404 60.4799V55.8399C60.6404 55.1999 60.4804 55.0399 59.8404 55.0399ZM59.8404 45.7599H54.0804C53.6004 45.7599 53.2804 45.9199 53.2804 46.5599V51.3599C53.2804 51.8399 53.6004 52.1599 54.0804 52.1599H59.8404C60.3204 52.1599 60.6404 51.9999 60.6404 51.3599V46.5599C60.6404 46.0799 60.4804 45.7599 59.8404 45.7599ZM60.0004 36.6399H53.9204C53.4404 36.6399 53.2804 36.7999 53.2804 37.2799V42.2399C53.2804 42.7199 53.6004 42.8799 54.0804 42.8799H60.0004C60.4804 42.8799 60.6404 42.7199 60.6404 42.2399V37.2799C60.6404 36.7999 60.4804 36.6399 60.0004 36.6399ZM48.0004 35.9999H42.4004C41.9204 35.9999 41.7604 36.1599 41.7604 36.6399V42.2399C41.7604 42.7199 41.9204 42.8799 42.4004 42.8799H47.8404C48.3204 42.8799 48.6404 42.7199 48.6404 42.2399V36.6399C48.6404 36.1599 48.4804 35.9999 48.0004 35.9999ZM48.0004 27.0399H42.4004C41.9204 27.0399 41.7604 27.1999 41.7604 27.6799V33.2799C41.6004 33.5999 41.7604 33.7599 42.0804 33.9199C42.0804 33.9199 42.2404 33.9199 42.4004 33.9199H48.0004C48.4804 33.9199 48.6404 33.7599 48.6404 33.2799V27.6799C48.6404 27.1999 48.4804 27.0399 48.0004 27.0399ZM37.7604 27.0399H32.3204C31.8404 27.0399 31.6804 27.1999 31.6804 27.6799V33.1199C31.6804 33.5999 32.0004 33.9199 32.4804 33.9199H37.9204C38.4004 33.9199 38.7204 33.7599 38.7204 33.1199V27.6799C38.5604 27.1999 38.2404 27.0399 37.7604 27.0399ZM37.9204 35.9999H32.3204C31.8404 35.9999 31.6804 36.1599 31.6804 36.6399V42.2399C31.6804 42.7199 31.8404 42.8799 32.3204 42.8799H37.9204C38.4004 42.8799 38.5604 42.7199 38.5604 42.2399V36.6399C38.5604 36.1599 38.4004 35.9999 37.9204 35.9999ZM37.9204 35.9999H32.3204C31.8404 35.9999 31.6804 36.1599 31.6804 36.6399V42.2399C31.6804 42.7199 31.8404 42.8799 32.3204 42.8799H37.9204C38.4004 42.8799 38.5604 42.7199 38.5604 42.2399V36.6399C38.5604 36.1599 38.4004 35.9999 37.9204 35.9999ZM37.7604 27.0399H32.3204C31.8404 27.0399 31.6804 27.1999 31.6804 27.6799V33.1199C31.6804 33.5999 32.0004 33.9199 32.4804 33.9199H37.9204C38.4004 33.9199 38.7204 33.7599 38.7204 33.1199V27.6799C38.5604 27.1999 38.2404 27.0399 37.7604 27.0399ZM48.0004 27.0399H42.4004C41.9204 27.0399 41.7604 27.1999 41.7604 27.6799V33.2799C41.6004 33.5999 41.7604 33.7599 42.0804 33.9199C42.0804 33.9199 42.2404 33.9199 42.4004 33.9199H48.0004C48.4804 33.9199 48.6404 33.7599 48.6404 33.2799V27.6799C48.6404 27.1999 48.4804 27.0399 48.0004 27.0399ZM48.0004 35.9999H42.4004C41.9204 35.9999 41.7604 36.1599 41.7604 36.6399V42.2399C41.7604 42.7199 41.9204 42.8799 42.4004 42.8799H47.8404C48.3204 42.8799 48.6404 42.7199 48.6404 42.2399V36.6399C48.6404 36.1599 48.4804 35.9999 48.0004 35.9999ZM60.0004 36.6399H53.9204C53.4404 36.6399 53.2804 36.7999 53.2804 37.2799V42.2399C53.2804 42.7199 53.6004 42.8799 54.0804 42.8799H60.0004C60.4804 42.8799 60.6404 42.7199 60.6404 42.2399V37.2799C60.6404 36.7999 60.4804 36.6399 60.0004 36.6399ZM59.8404 45.7599H54.0804C53.6004 45.7599 53.2804 45.9199 53.2804 46.5599V51.3599C53.2804 51.8399 53.6004 52.1599 54.0804 52.1599H59.8404C60.3204 52.1599 60.6404 51.9999 60.6404 51.3599V46.5599C60.6404 46.0799 60.4804 45.7599 59.8404 45.7599ZM59.8404 55.0399H53.9204C53.4404 55.0399 53.2804 55.1999 53.2804 55.6799V60.4799C53.2804 60.9599 53.4404 61.2799 54.0804 61.2799H59.8404C60.4804 61.2799 60.6404 60.9599 60.6404 60.4799V55.8399C60.6404 55.1999 60.4804 55.0399 59.8404 55.0399ZM69.7604 36.6399H64.0004C63.5204 36.6399 63.2004 36.7999 63.2004 37.4399V42.2399C63.2004 42.8799 63.3604 43.0399 64.0004 43.0399H69.7604C70.4004 43.0399 70.5604 42.8799 70.5604 42.2399V37.4399C70.5604 36.9599 70.4004 36.6399 69.7604 36.6399ZM69.7604 45.7599H64.0004C63.5204 45.7599 63.2004 45.9199 63.2004 46.5599V51.3599C63.2004 51.8399 63.3604 52.1599 64.0004 52.1599H69.7604C70.4004 52.1599 70.5604 51.8399 70.5604 51.3599V46.5599C70.5604 45.9199 70.4004 45.5999 69.7604 45.7599ZM69.7604 45.7599H64.0004C63.5204 45.7599 63.2004 45.9199 63.2004 46.5599V51.3599C63.2004 51.8399 63.3604 52.1599 64.0004 52.1599H69.7604C70.4004 52.1599 70.5604 51.8399 70.5604 51.3599V46.5599C70.5604 45.9199 70.4004 45.5999 69.7604 45.7599ZM69.7604 36.6399H64.0004C63.5204 36.6399 63.2004 36.7999 63.2004 37.4399V42.2399C63.2004 42.8799 63.3604 43.0399 64.0004 43.0399H69.7604C70.4004 43.0399 70.5604 42.8799 70.5604 42.2399V37.4399C70.5604 36.9599 70.4004 36.6399 69.7604 36.6399ZM59.8404 55.0399H53.9204C53.4404 55.0399 53.2804 55.1999 53.2804 55.6799V60.4799C53.2804 60.9599 53.4404 61.2799 54.0804 61.2799H59.8404C60.4804 61.2799 60.6404 60.9599 60.6404 60.4799V55.8399C60.6404 55.1999 60.4804 55.0399 59.8404 55.0399ZM59.8404 45.7599H54.0804C53.6004 45.7599 53.2804 45.9199 53.2804 46.5599V51.3599C53.2804 51.8399 53.6004 52.1599 54.0804 52.1599H59.8404C60.3204 52.1599 60.6404 51.9999 60.6404 51.3599V46.5599C60.6404 46.0799 60.4804 45.7599 59.8404 45.7599ZM60.0004 36.6399H53.9204C53.4404 36.6399 53.2804 36.7999 53.2804 37.2799V42.2399C53.2804 42.7199 53.6004 42.8799 54.0804 42.8799H60.0004C60.4804 42.8799 60.6404 42.7199 60.6404 42.2399V37.2799C60.6404 36.7999 60.4804 36.6399 60.0004 36.6399ZM48.0004 35.9999H42.4004C41.9204 35.9999 41.7604 36.1599 41.7604 36.6399V42.2399C41.7604 42.7199 41.9204 42.8799 42.4004 42.8799H47.8404C48.3204 42.8799 48.6404 42.7199 48.6404 42.2399V36.6399C48.6404 36.1599 48.4804 35.9999 48.0004 35.9999ZM48.0004 27.0399H42.4004C41.9204 27.0399 41.7604 27.1999 41.7604 27.6799V33.2799C41.6004 33.5999 41.7604 33.7599 42.0804 33.9199C42.0804 33.9199 42.2404 33.9199 42.4004 33.9199H48.0004C48.4804 33.9199 48.6404 33.7599 48.6404 33.2799V27.6799C48.6404 27.1999 48.4804 27.0399 48.0004 27.0399ZM37.7604 27.0399H32.3204C31.8404 27.0399 31.6804 27.1999 31.6804 27.6799V33.1199C31.6804 33.5999 32.0004 33.9199 32.4804 33.9199H37.9204C38.4004 33.9199 38.7204 33.7599 38.7204 33.1199V27.6799C38.5604 27.1999 38.2404 27.0399 37.7604 27.0399ZM37.9204 35.9999H32.3204C31.8404 35.9999 31.6804 36.1599 31.6804 36.6399V42.2399C31.6804 42.7199 31.8404 42.8799 32.3204 42.8799H37.9204C38.4004 42.8799 38.5604 42.7199 38.5604 42.2399V36.6399C38.5604 36.1599 38.4004 35.9999 37.9204 35.9999ZM37.9204 35.9999H32.3204C31.8404 35.9999 31.6804 36.1599 31.6804 36.6399V42.2399C31.6804 42.7199 31.8404 42.8799 32.3204 42.8799H37.9204C38.4004 42.8799 38.5604 42.7199 38.5604 42.2399V36.6399C38.5604 36.1599 38.4004 35.9999 37.9204 35.9999ZM37.7604 27.0399H32.3204C31.8404 27.0399 31.6804 27.1999 31.6804 27.6799V33.1199C31.6804 33.5999 32.0004 33.9199 32.4804 33.9199H37.9204C38.4004 33.9199 38.7204 33.7599 38.7204 33.1199V27.6799C38.5604 27.1999 38.2404 27.0399 37.7604 27.0399ZM48.0004 27.0399H42.4004C41.9204 27.0399 41.7604 27.1999 41.7604 27.6799V33.2799C41.6004 33.5999 41.7604 33.7599 42.0804 33.9199C42.0804 33.9199 42.2404 33.9199 42.4004 33.9199H48.0004C48.4804 33.9199 48.6404 33.7599 48.6404 33.2799V27.6799C48.6404 27.1999 48.4804 27.0399 48.0004 27.0399ZM48.0004 35.9999H42.4004C41.9204 35.9999 41.7604 36.1599 41.7604 36.6399V42.2399C41.7604 42.7199 41.9204 42.8799 42.4004 42.8799H47.8404C48.3204 42.8799 48.6404 42.7199 48.6404 42.2399V36.6399C48.6404 36.1599 48.4804 35.9999 48.0004 35.9999ZM60.0004 36.6399H53.9204C53.4404 36.6399 53.2804 36.7999 53.2804 37.2799V42.2399C53.2804 42.7199 53.6004 42.8799 54.0804 42.8799H60.0004C60.4804 42.8799 60.6404 42.7199 60.6404 42.2399V37.2799C60.6404 36.7999 60.4804 36.6399 60.0004 36.6399ZM59.8404 45.7599H54.0804C53.6004 45.7599 53.2804 45.9199 53.2804 46.5599V51.3599C53.2804 51.8399 53.6004 52.1599 54.0804 52.1599H59.8404C60.3204 52.1599 60.6404 51.9999 60.6404 51.3599V46.5599C60.6404 46.0799 60.4804 45.7599 59.8404 45.7599ZM59.8404 55.0399H53.9204C53.4404 55.0399 53.2804 55.1999 53.2804 55.6799V60.4799C53.2804 60.9599 53.4404 61.2799 54.0804 61.2799H59.8404C60.4804 61.2799 60.6404 60.9599 60.6404 60.4799V55.8399C60.6404 55.1999 60.4804 55.0399 59.8404 55.0399ZM69.7604 36.6399H64.0004C63.5204 36.6399 63.2004 36.7999 63.2004 37.4399V42.2399C63.2004 42.8799 63.3604 43.0399 64.0004 43.0399H69.7604C70.4004 43.0399 70.5604 42.8799 70.5604 42.2399V37.4399C70.5604 36.9599 70.4004 36.6399 69.7604 36.6399ZM69.7604 45.7599H64.0004C63.5204 45.7599 63.2004 45.9199 63.2004 46.5599V51.3599C63.2004 51.8399 63.3604 52.1599 64.0004 52.1599H69.7604C70.4004 52.1599 70.5604 51.8399 70.5604 51.3599V46.5599C70.5604 45.9199 70.4004 45.5999 69.7604 45.7599ZM69.7604 45.7599H64.0004C63.5204 45.7599 63.2004 45.9199 63.2004 46.5599V51.3599C63.2004 51.8399 63.3604 52.1599 64.0004 52.1599H69.7604C70.4004 52.1599 70.5604 51.8399 70.5604 51.3599V46.5599C70.5604 45.9199 70.4004 45.5999 69.7604 45.7599ZM69.7604 36.6399H64.0004C63.5204 36.6399 63.2004 36.7999 63.2004 37.4399V42.2399C63.2004 42.8799 63.3604 43.0399 64.0004 43.0399H69.7604C70.4004 43.0399 70.5604 42.8799 70.5604 42.2399V37.4399C70.5604 36.9599 70.4004 36.6399 69.7604 36.6399ZM59.8404 55.0399H53.9204C53.4404 55.0399 53.2804 55.1999 53.2804 55.6799V60.4799C53.2804 60.9599 53.4404 61.2799 54.0804 61.2799H59.8404C60.4804 61.2799 60.6404 60.9599 60.6404 60.4799V55.8399C60.6404 55.1999 60.4804 55.0399 59.8404 55.0399ZM59.8404 45.7599H54.0804C53.6004 45.7599 53.2804 45.9199 53.2804 46.5599V51.3599C53.2804 51.8399 53.6004 52.1599 54.0804 52.1599H59.8404C60.3204 52.1599 60.6404 51.9999 60.6404 51.3599V46.5599C60.6404 46.0799 60.4804 45.7599 59.8404 45.7599ZM60.0004 36.6399H53.9204C53.4404 36.6399 53.2804 36.7999 53.2804 37.2799V42.2399C53.2804 42.7199 53.6004 42.8799 54.0804 42.8799H60.0004C60.4804 42.8799 60.6404 42.7199 60.6404 42.2399V37.2799C60.6404 36.7999 60.4804 36.6399 60.0004 36.6399ZM48.0004 35.9999H42.4004C41.9204 35.9999 41.7604 36.1599 41.7604 36.6399V42.2399C41.7604 42.7199 41.9204 42.8799 42.4004 42.8799H47.8404C48.3204 42.8799 48.6404 42.7199 48.6404 42.2399V36.6399C48.6404 36.1599 48.4804 35.9999 48.0004 35.9999ZM48.0004 27.0399H42.4004C41.9204 27.0399 41.7604 27.1999 41.7604 27.6799V33.2799C41.6004 33.5999 41.7604 33.7599 42.0804 33.9199C42.0804 33.9199 42.2404 33.9199 42.4004 33.9199H48.0004C48.4804 33.9199 48.6404 33.7599 48.6404 33.2799V27.6799C48.6404 27.1999 48.4804 27.0399 48.0004 27.0399ZM37.7604 27.0399H32.3204C31.8404 27.0399 31.6804 27.1999 31.6804 27.6799V33.1199C31.6804 33.5999 32.0004 33.9199 32.4804 33.9199H37.9204C38.4004 33.9199 38.7204 33.7599 38.7204 33.1199V27.6799C38.5604 27.1999 38.2404 27.0399 37.7604 27.0399ZM37.9204 35.9999H32.3204C31.8404 35.9999 31.6804 36.1599 31.6804 36.6399V42.2399C31.6804 42.7199 31.8404 42.8799 32.3204 42.8799H37.9204C38.4004 42.8799 38.5604 42.7199 38.5604 42.2399V36.6399C38.5604 36.1599 38.4004 35.9999 37.9204 35.9999ZM72.6404 33.5999H52.3204C51.8404 33.5999 51.5204 33.4399 51.5204 32.9599V15.8399C51.5204 14.8799 51.5204 14.8799 50.5604 14.8799H29.4404C28.4804 14.8799 28.4804 14.8799 28.4804 15.8399V32.7999C28.4804 33.4399 28.3204 33.5999 27.6804 33.5999H7.36039C7.04039 33.5999 6.72039 33.5999 6.40039 33.9199V64.9599C6.72039 65.2799 7.04039 65.2799 7.36039 65.2799H72.6404C73.6004 65.2799 73.6004 65.2799 73.6004 64.3199V34.7199C73.6004 33.5999 73.6004 33.5999 72.6404 33.5999ZM28.4804 63.3599C28.4804 63.9999 28.3204 63.9999 27.8404 63.9999H8.16039C7.68039 63.9999 7.52039 63.8399 7.52039 63.3599V35.1999C7.52039 34.7199 7.68039 34.5599 8.16039 34.5599H27.8404C28.4804 34.5599 28.4804 34.7199 28.4804 35.1999V63.3599ZM50.5604 63.5199C50.5604 63.8399 50.5604 64.1599 50.0804 64.1599H45.6004C45.1204 64.1599 45.1204 63.9999 45.1204 63.6799V57.7599C45.1204 55.8399 44.0004 54.2399 42.2404 53.4399C40.4804 52.6399 38.7204 52.7999 36.9604 53.9199C35.6804 54.7199 35.0404 55.9999 35.0404 57.5999V63.6799C35.0404 64.1599 34.8804 64.3199 34.4004 64.3199H30.0804C29.6004 64.3199 29.6004 64.1599 29.6004 63.6799V50.2399C29.6004 49.7599 29.7604 49.7599 30.0804 49.7599H49.9204C50.4004 49.7599 50.5604 49.9199 50.5604 50.3999V63.5199ZM50.5604 44.6399C50.5604 45.1199 50.4004 45.2799 49.9204 45.2799H30.0804C29.6004 45.2799 29.4404 45.1199 29.4404 44.6399V16.4799C29.4404 15.9999 29.6004 15.8399 30.0804 15.8399H49.9204C50.4004 15.8399 50.5604 15.9999 50.5604 16.4799V44.6399ZM72.6404 63.5199C72.6404 63.9999 72.3204 63.9999 72.0004 63.9999H52.3204C51.6804 63.9999 51.6804 63.8399 51.6804 63.3599V35.1999C51.6804 34.7199 51.6804 34.5599 52.3204 34.5599H72.0004C72.4804 34.5599 72.6404 34.7199 72.6404 35.1999V63.5199ZM69.7604 45.7599H64.0004C63.5204 45.7599 63.2004 45.9199 63.2004 46.5599V51.3599C63.2004 51.8399 63.3604 52.1599 64.0004 52.1599H69.7604C70.4004 52.1599 70.5604 51.8399 70.5604 51.3599V46.5599C70.5604 45.9199 70.4004 45.5999 69.7604 45.7599ZM69.7604 36.6399H64.0004C63.5204 36.6399 63.2004 36.7999 63.2004 37.4399V42.2399C63.2004 42.8799 63.3604 43.0399 64.0004 43.0399H69.7604C70.4004 43.0399 70.5604 42.8799 70.5604 42.2399V37.4399C70.5604 36.9599 70.4004 36.6399 69.7604 36.6399ZM59.8404 55.0399H53.9204C53.4404 55.0399 53.2804 55.1999 53.2804 55.6799V60.4799C53.2804 60.9599 53.4404 61.2799 54.0804 61.2799H59.8404C60.4804 61.2799 60.6404 60.9599 60.6404 60.4799V55.8399C60.6404 55.1999 60.4804 55.0399 59.8404 55.0399ZM59.8404 45.7599H54.0804C53.6004 45.7599 53.2804 45.9199 53.2804 46.5599V51.3599C53.2804 51.8399 53.6004 52.1599 54.0804 52.1599H59.8404C60.3204 52.1599 60.6404 51.9999 60.6404 51.3599V46.5599C60.6404 46.0799 60.4804 45.7599 59.8404 45.7599ZM60.0004 36.6399H53.9204C53.4404 36.6399 53.2804 36.7999 53.2804 37.2799V42.2399C53.2804 42.7199 53.6004 42.8799 54.0804 42.8799H60.0004C60.4804 42.8799 60.6404 42.7199 60.6404 42.2399V37.2799C60.6404 36.7999 60.4804 36.6399 60.0004 36.6399ZM48.0004 35.9999H42.4004C41.9204 35.9999 41.7604 36.1599 41.7604 36.6399V42.2399C41.7604 42.7199 41.9204 42.8799 42.4004 42.8799H47.8404C48.3204 42.8799 48.6404 42.7199 48.6404 42.2399V36.6399C48.6404 36.1599 48.4804 35.9999 48.0004 35.9999ZM48.0004 27.0399H42.4004C41.9204 27.0399 41.7604 27.1999 41.7604 27.6799V33.2799C41.6004 33.5999 41.7604 33.7599 42.0804 33.9199C42.0804 33.9199 42.2404 33.9199 42.4004 33.9199H48.0004C48.4804 33.9199 48.6404 33.7599 48.6404 33.2799V27.6799C48.6404 27.1999 48.4804 27.0399 48.0004 27.0399ZM37.7604 27.0399H32.3204C31.8404 27.0399 31.6804 27.1999 31.6804 27.6799V33.1199C31.6804 33.5999 32.0004 33.9199 32.4804 33.9199H37.9204C38.4004 33.9199 38.7204 33.7599 38.7204 33.1199V27.6799C38.5604 27.1999 38.2404 27.0399 37.7604 27.0399ZM37.9204 35.9999H32.3204C31.8404 35.9999 31.6804 36.1599 31.6804 36.6399V42.2399C31.6804 42.7199 31.8404 42.8799 32.3204 42.8799H37.9204C38.4004 42.8799 38.5604 42.7199 38.5604 42.2399V36.6399C38.5604 36.1599 38.4004 35.9999 37.9204 35.9999ZM37.9204 35.9999H32.3204C31.8404 35.9999 31.6804 36.1599 31.6804 36.6399V42.2399C31.6804 42.7199 31.8404 42.8799 32.3204 42.8799H37.9204C38.4004 42.8799 38.5604 42.7199 38.5604 42.2399V36.6399C38.5604 36.1599 38.4004 35.9999 37.9204 35.9999ZM37.7604 27.0399H32.3204C31.8404 27.0399 31.6804 27.1999 31.6804 27.6799V33.1199C31.6804 33.5999 32.0004 33.9199 32.4804 33.9199H37.9204C38.4004 33.9199 38.7204 33.7599 38.7204 33.1199V27.6799C38.5604 27.1999 38.2404 27.0399 37.7604 27.0399ZM48.0004 27.0399H42.4004C41.9204 27.0399 41.7604 27.1999 41.7604 27.6799V33.2799C41.6004 33.5999 41.7604 33.7599 42.0804 33.9199C42.0804 33.9199 42.2404 33.9199 42.4004 33.9199H48.0004C48.4804 33.9199 48.6404 33.7599 48.6404 33.2799V27.6799C48.6404 27.1999 48.4804 27.0399 48.0004 27.0399ZM48.0004 35.9999H42.4004C41.9204 35.9999 41.7604 36.1599 41.7604 36.6399V42.2399C41.7604 42.7199 41.9204 42.8799 42.4004 42.8799H47.8404C48.3204 42.8799 48.6404 42.7199 48.6404 42.2399V36.6399C48.6404 36.1599 48.4804 35.9999 48.0004 35.9999ZM60.0004 36.6399H53.9204C53.4404 36.6399 53.2804 36.7999 53.2804 37.2799V42.2399C53.2804 42.7199 53.6004 42.8799 54.0804 42.8799H60.0004C60.4804 42.8799 60.6404 42.7199 60.6404 42.2399V37.2799C60.6404 36.7999 60.4804 36.6399 60.0004 36.6399ZM59.8404 45.7599H54.0804C53.6004 45.7599 53.2804 45.9199 53.2804 46.5599V51.3599C53.2804 51.8399 53.6004 52.1599 54.0804 52.1599H59.8404C60.3204 52.1599 60.6404 51.9999 60.6404 51.3599V46.5599C60.6404 46.0799 60.4804 45.7599 59.8404 45.7599ZM59.8404 55.0399H53.9204C53.4404 55.0399 53.2804 55.1999 53.2804 55.6799V60.4799C53.2804 60.9599 53.4404 61.2799 54.0804 61.2799H59.8404C60.4804 61.2799 60.6404 60.9599 60.6404 60.4799V55.8399C60.6404 55.1999 60.4804 55.0399 59.8404 55.0399ZM69.7604 36.6399H64.0004C63.5204 36.6399 63.2004 36.7999 63.2004 37.4399V42.2399C63.2004 42.8799 63.3604 43.0399 64.0004 43.0399H69.7604C70.4004 43.0399 70.5604 42.8799 70.5604 42.2399V37.4399C70.5604 36.9599 70.4004 36.6399 69.7604 36.6399ZM69.7604 45.7599H64.0004C63.5204 45.7599 63.2004 45.9199 63.2004 46.5599V51.3599C63.2004 51.8399 63.3604 52.1599 64.0004 52.1599H69.7604C70.4004 52.1599 70.5604 51.8399 70.5604 51.3599V46.5599C70.5604 45.9199 70.4004 45.5999 69.7604 45.7599ZM69.7604 45.7599H64.0004C63.5204 45.7599 63.2004 45.9199 63.2004 46.5599V51.3599C63.2004 51.8399 63.3604 52.1599 64.0004 52.1599H69.7604C70.4004 52.1599 70.5604 51.8399 70.5604 51.3599V46.5599C70.5604 45.9199 70.4004 45.5999 69.7604 45.7599ZM69.7604 36.6399H64.0004C63.5204 36.6399 63.2004 36.7999 63.2004 37.4399V42.2399C63.2004 42.8799 63.3604 43.0399 64.0004 43.0399H69.7604C70.4004 43.0399 70.5604 42.8799 70.5604 42.2399V37.4399C70.5604 36.9599 70.4004 36.6399 69.7604 36.6399ZM59.8404 55.0399H53.9204C53.4404 55.0399 53.2804 55.1999 53.2804 55.6799V60.4799C53.2804 60.9599 53.4404 61.2799 54.0804 61.2799H59.8404C60.4804 61.2799 60.6404 60.9599 60.6404 60.4799V55.8399C60.6404 55.1999 60.4804 55.0399 59.8404 55.0399ZM59.8404 45.7599H54.0804C53.6004 45.7599 53.2804 45.9199 53.2804 46.5599V51.3599C53.2804 51.8399 53.6004 52.1599 54.0804 52.1599H59.8404C60.3204 52.1599 60.6404 51.9999 60.6404 51.3599V46.5599C60.6404 46.0799 60.4804 45.7599 59.8404 45.7599ZM60.0004 36.6399H53.9204C53.4404 36.6399 53.2804 36.7999 53.2804 37.2799V42.2399C53.2804 42.7199 53.6004 42.8799 54.0804 42.8799H60.0004C60.4804 42.8799 60.6404 42.7199 60.6404 42.2399V37.2799C60.6404 36.7999 60.4804 36.6399 60.0004 36.6399ZM48.0004 35.9999H42.4004C41.9204 35.9999 41.7604 36.1599 41.7604 36.6399V42.2399C41.7604 42.7199 41.9204 42.8799 42.4004 42.8799H47.8404C48.3204 42.8799 48.6404 42.7199 48.6404 42.2399V36.6399C48.6404 36.1599 48.4804 35.9999 48.0004 35.9999ZM48.0004 27.0399H42.4004C41.9204 27.0399 41.7604 27.1999 41.7604 27.6799V33.2799C41.6004 33.5999 41.7604 33.7599 42.0804 33.9199C42.0804 33.9199 42.2404 33.9199 42.4004 33.9199H48.0004C48.4804 33.9199 48.6404 33.7599 48.6404 33.2799V27.6799C48.6404 27.1999 48.4804 27.0399 48.0004 27.0399ZM37.7604 27.0399H32.3204C31.8404 27.0399 31.6804 27.1999 31.6804 27.6799V33.1199C31.6804 33.5999 32.0004 33.9199 32.4804 33.9199H37.9204C38.4004 33.9199 38.7204 33.7599 38.7204 33.1199V27.6799C38.5604 27.1999 38.2404 27.0399 37.7604 27.0399ZM37.9204 35.9999H32.3204C31.8404 35.9999 31.6804 36.1599 31.6804 36.6399V42.2399C31.6804 42.7199 31.8404 42.8799 32.3204 42.8799H37.9204C38.4004 42.8799 38.5604 42.7199 38.5604 42.2399V36.6399C38.5604 36.1599 38.4004 35.9999 37.9204 35.9999ZM37.9204 35.9999H32.3204C31.8404 35.9999 31.6804 36.1599 31.6804 36.6399V42.2399C31.6804 42.7199 31.8404 42.8799 32.3204 42.8799H37.9204C38.4004 42.8799 38.5604 42.7199 38.5604 42.2399V36.6399C38.5604 36.1599 38.4004 35.9999 37.9204 35.9999ZM37.7604 27.0399H32.3204C31.8404 27.0399 31.6804 27.1999 31.6804 27.6799V33.1199C31.6804 33.5999 32.0004 33.9199 32.4804 33.9199H37.9204C38.4004 33.9199 38.7204 33.7599 38.7204 33.1199V27.6799C38.5604 27.1999 38.2404 27.0399 37.7604 27.0399ZM48.0004 27.0399H42.4004C41.9204 27.0399 41.7604 27.1999 41.7604 27.6799V33.2799C41.6004 33.5999 41.7604 33.7599 42.0804 33.9199C42.0804 33.9199 42.2404 33.9199 42.4004 33.9199H48.0004C48.4804 33.9199 48.6404 33.7599 48.6404 33.2799V27.6799C48.6404 27.1999 48.4804 27.0399 48.0004 27.0399ZM48.0004 35.9999H42.4004C41.9204 35.9999 41.7604 36.1599 41.7604 36.6399V42.2399C41.7604 42.7199 41.9204 42.8799 42.4004 42.8799H47.8404C48.3204 42.8799 48.6404 42.7199 48.6404 42.2399V36.6399C48.6404 36.1599 48.4804 35.9999 48.0004 35.9999ZM60.0004 36.6399H53.9204C53.4404 36.6399 53.2804 36.7999 53.2804 37.2799V42.2399C53.2804 42.7199 53.6004 42.8799 54.0804 42.8799H60.0004C60.4804 42.8799 60.6404 42.7199 60.6404 42.2399V37.2799C60.6404 36.7999 60.4804 36.6399 60.0004 36.6399ZM59.8404 45.7599H54.0804C53.6004 45.7599 53.2804 45.9199 53.2804 46.5599V51.3599C53.2804 51.8399 53.6004 52.1599 54.0804 52.1599H59.8404C60.3204 52.1599 60.6404 51.9999 60.6404 51.3599V46.5599C60.6404 46.0799 60.4804 45.7599 59.8404 45.7599ZM59.8404 55.0399H53.9204C53.4404 55.0399 53.2804 55.1999 53.2804 55.6799V60.4799C53.2804 60.9599 53.4404 61.2799 54.0804 61.2799H59.8404C60.4804 61.2799 60.6404 60.9599 60.6404 60.4799V55.8399C60.6404 55.1999 60.4804 55.0399 59.8404 55.0399ZM69.7604 36.6399H64.0004C63.5204 36.6399 63.2004 36.7999 63.2004 37.4399V42.2399C63.2004 42.8799 63.3604 43.0399 64.0004 43.0399H69.7604C70.4004 43.0399 70.5604 42.8799 70.5604 42.2399V37.4399C70.5604 36.9599 70.4004 36.6399 69.7604 36.6399ZM69.7604 45.7599H64.0004C63.5204 45.7599 63.2004 45.9199 63.2004 46.5599V51.3599C63.2004 51.8399 63.3604 52.1599 64.0004 52.1599H69.7604C70.4004 52.1599 70.5604 51.8399 70.5604 51.3599V46.5599C70.5604 45.9199 70.4004 45.5999 69.7604 45.7599ZM69.7604 45.7599H64.0004C63.5204 45.7599 63.2004 45.9199 63.2004 46.5599V51.3599C63.2004 51.8399 63.3604 52.1599 64.0004 52.1599H69.7604C70.4004 52.1599 70.5604 51.8399 70.5604 51.3599V46.5599C70.5604 45.9199 70.4004 45.5999 69.7604 45.7599ZM69.7604 36.6399H64.0004C63.5204 36.6399 63.2004 36.7999 63.2004 37.4399V42.2399C63.2004 42.8799 63.3604 43.0399 64.0004 43.0399H69.7604C70.4004 43.0399 70.5604 42.8799 70.5604 42.2399V37.4399C70.5604 36.9599 70.4004 36.6399 69.7604 36.6399ZM59.8404 55.0399H53.9204C53.4404 55.0399 53.2804 55.1999 53.2804 55.6799V60.4799C53.2804 60.9599 53.4404 61.2799 54.0804 61.2799H59.8404C60.4804 61.2799 60.6404 60.9599 60.6404 60.4799V55.8399C60.6404 55.1999 60.4804 55.0399 59.8404 55.0399ZM59.8404 45.7599H54.0804C53.6004 45.7599 53.2804 45.9199 53.2804 46.5599V51.3599C53.2804 51.8399 53.6004 52.1599 54.0804 52.1599H59.8404C60.3204 52.1599 60.6404 51.9999 60.6404 51.3599V46.5599C60.6404 46.0799 60.4804 45.7599 59.8404 45.7599ZM60.0004 36.6399H53.9204C53.4404 36.6399 53.2804 36.7999 53.2804 37.2799V42.2399C53.2804 42.7199 53.6004 42.8799 54.0804 42.8799H60.0004C60.4804 42.8799 60.6404 42.7199 60.6404 42.2399V37.2799C60.6404 36.7999 60.4804 36.6399 60.0004 36.6399ZM48.0004 35.9999H42.4004C41.9204 35.9999 41.7604 36.1599 41.7604 36.6399V42.2399C41.7604 42.7199 41.9204 42.8799 42.4004 42.8799H47.8404C48.3204 42.8799 48.6404 42.7199 48.6404 42.2399V36.6399C48.6404 36.1599 48.4804 35.9999 48.0004 35.9999ZM48.0004 27.0399H42.4004C41.9204 27.0399 41.7604 27.1999 41.7604 27.6799V33.2799C41.6004 33.5999 41.7604 33.7599 42.0804 33.9199C42.0804 33.9199 42.2404 33.9199 42.4004 33.9199H48.0004C48.4804 33.9199 48.6404 33.7599 48.6404 33.2799V27.6799C48.6404 27.1999 48.4804 27.0399 48.0004 27.0399ZM37.7604 27.0399H32.3204C31.8404 27.0399 31.6804 27.1999 31.6804 27.6799V33.1199C31.6804 33.5999 32.0004 33.9199 32.4804 33.9199H37.9204C38.4004 33.9199 38.7204 33.7599 38.7204 33.1199V27.6799C38.5604 27.1999 38.2404 27.0399 37.7604 27.0399ZM37.9204 35.9999H32.3204C31.8404 35.9999 31.6804 36.1599 31.6804 36.6399V42.2399C31.6804 42.7199 31.8404 42.8799 32.3204 42.8799H37.9204C38.4004 42.8799 38.5604 42.7199 38.5604 42.2399V36.6399C38.5604 36.1599 38.4004 35.9999 37.9204 35.9999ZM37.9204 35.9999H32.3204C31.8404 35.9999 31.6804 36.1599 31.6804 36.6399V42.2399C31.6804 42.7199 31.8404 42.8799 32.3204 42.8799H37.9204C38.4004 42.8799 38.5604 42.7199 38.5604 42.2399V36.6399C38.5604 36.1599 38.4004 35.9999 37.9204 35.9999ZM37.7604 27.0399H32.3204C31.8404 27.0399 31.6804 27.1999 31.6804 27.6799V33.1199C31.6804 33.5999 32.0004 33.9199 32.4804 33.9199H37.9204C38.4004 33.9199 38.7204 33.7599 38.7204 33.1199V27.6799C38.5604 27.1999 38.2404 27.0399 37.7604 27.0399ZM48.0004 27.0399H42.4004C41.9204 27.0399 41.7604 27.1999 41.7604 27.6799V33.2799C41.6004 33.5999 41.7604 33.7599 42.0804 33.9199C42.0804 33.9199 42.2404 33.9199 42.4004 33.9199H48.0004C48.4804 33.9199 48.6404 33.7599 48.6404 33.2799V27.6799C48.6404 27.1999 48.4804 27.0399 48.0004 27.0399ZM48.0004 35.9999H42.4004C41.9204 35.9999 41.7604 36.1599 41.7604 36.6399V42.2399C41.7604 42.7199 41.9204 42.8799 42.4004 42.8799H47.8404C48.3204 42.8799 48.6404 42.7199 48.6404 42.2399V36.6399C48.6404 36.1599 48.4804 35.9999 48.0004 35.9999ZM60.0004 36.6399H53.9204C53.4404 36.6399 53.2804 36.7999 53.2804 37.2799V42.2399C53.2804 42.7199 53.6004 42.8799 54.0804 42.8799H60.0004C60.4804 42.8799 60.6404 42.7199 60.6404 42.2399V37.2799C60.6404 36.7999 60.4804 36.6399 60.0004 36.6399ZM59.8404 45.7599H54.0804C53.6004 45.7599 53.2804 45.9199 53.2804 46.5599V51.3599C53.2804 51.8399 53.6004 52.1599 54.0804 52.1599H59.8404C60.3204 52.1599 60.6404 51.9999 60.6404 51.3599V46.5599C60.6404 46.0799 60.4804 45.7599 59.8404 45.7599ZM59.8404 55.0399H53.9204C53.4404 55.0399 53.2804 55.1999 53.2804 55.6799V60.4799C53.2804 60.9599 53.4404 61.2799 54.0804 61.2799H59.8404C60.4804 61.2799 60.6404 60.9599 60.6404 60.4799V55.8399C60.6404 55.1999 60.4804 55.0399 59.8404 55.0399ZM69.7604 36.6399H64.0004C63.5204 36.6399 63.2004 36.7999 63.2004 37.4399V42.2399C63.2004 42.8799 63.3604 43.0399 64.0004 43.0399H69.7604C70.4004 43.0399 70.5604 42.8799 70.5604 42.2399V37.4399C70.5604 36.9599 70.4004 36.6399 69.7604 36.6399ZM69.7604 45.7599H64.0004C63.5204 45.7599 63.2004 45.9199 63.2004 46.5599V51.3599C63.2004 51.8399 63.3604 52.1599 64.0004 52.1599H69.7604C70.4004 52.1599 70.5604 51.8399 70.5604 51.3599V46.5599C70.5604 45.9199 70.4004 45.5999 69.7604 45.7599ZM69.7604 36.6399H64.0004C63.5204 36.6399 63.2004 36.7999 63.2004 37.4399V42.2399C63.2004 42.8799 63.3604 43.0399 64.0004 43.0399H69.7604C70.4004 43.0399 70.5604 42.8799 70.5604 42.2399V37.4399C70.5604 36.9599 70.4004 36.6399 69.7604 36.6399ZM69.7604 45.7599H64.0004C63.5204 45.7599 63.2004 45.9199 63.2004 46.5599V51.3599C63.2004 51.8399 63.3604 52.1599 64.0004 52.1599H69.7604C70.4004 52.1599 70.5604 51.8399 70.5604 51.3599V46.5599C70.5604 45.9199 70.4004 45.5999 69.7604 45.7599ZM59.8404 55.0399H53.9204C53.4404 55.0399 53.2804 55.1999 53.2804 55.6799V60.4799C53.2804 60.9599 53.4404 61.2799 54.0804 61.2799H59.8404C60.4804 61.2799 60.6404 60.9599 60.6404 60.4799V55.8399C60.6404 55.1999 60.4804 55.0399 59.8404 55.0399ZM59.8404 45.7599H54.0804C53.6004 45.7599 53.2804 45.9199 53.2804 46.5599V51.3599C53.2804 51.8399 53.6004 52.1599 54.0804 52.1599H59.8404C60.3204 52.1599 60.6404 51.9999 60.6404 51.3599V46.5599C60.6404 46.0799 60.4804 45.7599 59.8404 45.7599ZM60.0004 36.6399H53.9204C53.4404 36.6399 53.2804 36.7999 53.2804 37.2799V42.2399C53.2804 42.7199 53.6004 42.8799 54.0804 42.8799H60.0004C60.4804 42.8799 60.6404 42.7199 60.6404 42.2399V37.2799C60.6404 36.7999 60.4804 36.6399 60.0004 36.6399ZM48.0004 35.9999H42.4004C41.9204 35.9999 41.7604 36.1599 41.7604 36.6399V42.2399C41.7604 42.7199 41.9204 42.8799 42.4004 42.8799H47.8404C48.3204 42.8799 48.6404 42.7199 48.6404 42.2399V36.6399C48.6404 36.1599 48.4804 35.9999 48.0004 35.9999ZM48.0004 27.0399H42.4004C41.9204 27.0399 41.7604 27.1999 41.7604 27.6799V33.2799C41.6004 33.5999 41.7604 33.7599 42.0804 33.9199C42.0804 33.9199 42.2404 33.9199 42.4004 33.9199H48.0004C48.4804 33.9199 48.6404 33.7599 48.6404 33.2799V27.6799C48.6404 27.1999 48.4804 27.0399 48.0004 27.0399ZM37.9204 35.9999H32.3204C31.8404 35.9999 31.6804 36.1599 31.6804 36.6399V42.2399C31.6804 42.7199 31.8404 42.8799 32.3204 42.8799H37.9204C38.4004 42.8799 38.5604 42.7199 38.5604 42.2399V36.6399C38.5604 36.1599 38.4004 35.9999 37.9204 35.9999ZM37.9204 35.9999H32.3204C31.8404 35.9999 31.6804 36.1599 31.6804 36.6399V42.2399C31.6804 42.7199 31.8404 42.8799 32.3204 42.8799H37.9204C38.4004 42.8799 38.5604 42.7199 38.5604 42.2399V36.6399C38.5604 36.1599 38.4004 35.9999 37.9204 35.9999ZM48.0004 27.0399H42.4004C41.9204 27.0399 41.7604 27.1999 41.7604 27.6799V33.2799C41.7604 33.5999 41.9204 33.7599 42.0804 33.9199C42.0804 33.9199 42.2404 33.9199 42.4004 33.9199H48.0004C48.4804 33.9199 48.6404 33.7599 48.6404 33.2799V27.6799C48.6404 27.1999 48.4804 27.0399 48.0004 27.0399ZM48.0004 35.9999H42.4004C41.9204 35.9999 41.7604 36.1599 41.7604 36.6399V42.2399C41.7604 42.7199 41.9204 42.8799 42.4004 42.8799H47.8404C48.3204 42.8799 48.6404 42.7199 48.6404 42.2399V36.6399C48.6404 36.1599 48.4804 35.9999 48.0004 35.9999ZM48.0004 35.9999H42.4004C41.9204 35.9999 41.7604 36.1599 41.7604 36.6399V42.2399C41.7604 42.7199 41.9204 42.8799 42.4004 42.8799H47.8404C48.3204 42.8799 48.6404 42.7199 48.6404 42.2399V36.6399C48.6404 36.1599 48.4804 35.9999 48.0004 35.9999ZM48.0004 27.0399H42.4004C41.9204 27.0399 41.7604 27.1999 41.7604 27.6799V33.2799C41.7604 33.5999 41.9204 33.7599 42.0804 33.9199C42.0804 33.9199 42.2404 33.9199 42.4004 33.9199H48.0004C48.4804 33.9199 48.6404 33.7599 48.6404 33.2799V27.6799C48.6404 27.1999 48.4804 27.0399 48.0004 27.0399ZM37.9204 35.9999H32.3204C31.8404 35.9999 31.6804 36.1599 31.6804 36.6399V42.2399C31.6804 42.7199 31.8404 42.8799 32.3204 42.8799H37.9204C38.4004 42.8799 38.5604 42.7199 38.5604 42.2399V36.6399C38.5604 36.1599 38.4004 35.9999 37.9204 35.9999ZM48.9604 18.7199V23.9999C48.9604 24.3199 48.9604 24.6399 48.6404 24.6399C48.4804 24.7999 48.3204 24.7999 48.0004 24.7999H42.5604C41.9204 24.7999 41.7604 24.4799 41.7604 23.9999V18.3999C41.7604 17.9199 41.9204 17.5999 42.5604 17.5999H48.0004C48.4804 17.5999 48.8004 17.7599 48.8004 17.9199C49.1204 18.2399 48.9604 18.3999 48.9604 18.7199ZM69.7604 61.2799C67.8404 61.2799 65.9204 61.2799 64.0004 61.2799C63.3604 61.2799 63.2004 61.1199 63.2004 60.4799C63.2004 58.8799 63.2004 57.4399 63.2004 55.8399C63.2004 55.1999 63.5204 55.0399 64.0004 55.0399C64.9604 55.0399 65.9204 55.0399 66.8804 55.0399C67.8404 55.0399 68.8004 55.0399 69.7604 55.0399C70.2404 55.0399 70.5604 55.1999 70.5604 55.8399C70.5604 57.4399 70.5604 59.0399 70.5604 60.6399C70.5604 61.1199 70.2404 61.2799 69.7604 61.2799Z" fill="#361452"/>
<path d="M53.2812 42.2399C53.2812 40.6399 53.2812 39.0399 53.2812 37.2799C53.2812 36.7999 53.4413 36.6399 53.9213 36.6399C56.0013 36.6399 57.9213 36.6399 60.0013 36.6399C60.4813 36.6399 60.6413 36.7999 60.6413 37.2799C60.6413 38.8799 60.6413 40.6399 60.6413 42.2399C60.6413 42.7199 60.4813 42.8799 60.0013 42.8799C59.0413 42.8799 57.9212 42.8799 56.9612 42.8799C56.0012 42.8799 55.0413 42.8799 54.0813 42.8799C53.6012 42.8799 53.2812 42.7199 53.2812 42.2399Z" fill="#FEFEFE"/>
<path d="M53.2812 51.3598C53.2812 49.7598 53.2812 48.1598 53.2812 46.5598C53.2812 46.0798 53.4412 45.7598 54.0813 45.7598C56.0013 45.7598 57.9213 45.7598 59.8413 45.7598C60.4813 45.7598 60.6413 46.0798 60.6413 46.5598C60.6413 48.1598 60.6413 49.7598 60.6413 51.3598C60.6413 51.8398 60.4813 52.1598 59.8413 52.1598C58.8813 52.1598 57.9212 52.1598 56.9612 52.1598C56.0012 52.1598 55.0413 52.1598 54.0813 52.1598C53.6012 52.1598 53.2812 51.8398 53.2812 51.3598Z" fill="#FEFEFE"/>
<path d="M60.6413 60.48C60.6413 61.12 60.4813 61.28 59.8413 61.28C57.9213 61.28 56.0013 61.28 54.0813 61.28C53.6012 61.28 53.2812 61.12 53.2812 60.48C53.2812 58.88 53.2812 57.28 53.2812 55.68C53.2812 55.2 53.4413 55.04 53.9213 55.04C54.8813 55.04 56.0012 55.04 56.9612 55.04C57.9212 55.04 58.8813 55.04 59.8413 55.04C60.4813 55.04 60.6413 55.36 60.6413 55.84C60.6413 57.44 60.6413 58.88 60.6413 60.48Z" fill="#FEFEFE"/>
<path d="M70.5612 51.3598C70.5612 51.8398 70.4012 52.1598 69.7612 52.1598C67.8412 52.1598 65.9212 52.1598 64.0012 52.1598C63.5212 52.1598 63.2012 51.9998 63.2012 51.3598C63.2012 49.7598 63.2012 48.1598 63.2012 46.5598C63.2012 46.0798 63.3612 45.7598 64.0012 45.7598C64.9612 45.7598 65.9212 45.7598 66.8812 45.7598C67.8412 45.7598 68.8012 45.7598 69.7612 45.7598C70.4012 45.7598 70.5612 46.0798 70.5612 46.5598C70.5612 48.1598 70.5612 49.7598 70.5612 51.3598Z" fill="#FEFEFE"/>
<path d="M63.2012 42.08C63.2012 40.48 63.2012 38.88 63.2012 37.28C63.2012 36.8 63.3612 36.48 64.0012 36.48C65.9212 36.48 67.8412 36.48 69.7612 36.48C70.2412 36.48 70.5612 36.64 70.5612 37.28C70.5612 38.88 70.5612 40.48 70.5612 42.08C70.5612 42.72 70.2412 42.88 69.7612 42.88C68.8012 42.88 67.8412 42.88 66.8812 42.88C65.9212 42.88 64.9612 42.88 64.0012 42.88C63.3612 42.88 63.2012 42.72 63.2012 42.08Z" fill="#FEFEFE"/>
<path d="M9.59961 60.64C9.59961 59.04 9.59961 57.28 9.59961 55.68C9.59961 55.2 9.75961 55.04 10.2396 55.04C12.3196 55.04 14.2396 55.04 16.3196 55.04C16.7996 55.04 16.9596 55.2 16.9596 55.68C16.7996 57.28 16.7996 59.04 16.7996 60.64C16.7996 61.12 16.6396 61.28 16.1596 61.28C15.1996 61.28 14.0796 61.28 13.1196 61.28C12.1596 61.28 11.1996 61.28 10.2396 61.28" fill="#FEFEFE"/>
<path d="M16.7995 42.2398C16.7995 42.7198 16.6395 43.0398 15.9995 43.0398C15.0395 43.0398 14.0795 43.0398 13.1195 43.0398C12.1595 43.0398 11.0395 43.0398 10.0795 43.0398C9.59945 43.0398 9.43945 42.8798 9.43945 42.3998C9.43945 40.7998 9.43945 39.1998 9.43945 37.5998C9.43945 37.1198 9.75945 36.7998 10.2395 36.7998C12.1595 36.7998 14.0795 36.7998 15.9995 36.7998C16.4795 36.7998 16.7995 36.9598 16.7995 37.5998C16.7995 39.0398 16.7995 40.6398 16.7995 42.2398Z" fill="#FEFEFE"/>
<path d="M26.7213 46.5598C26.7213 48.1598 26.7213 49.7598 26.7213 51.3598C26.7213 51.8398 26.5613 52.1598 25.9213 52.1598C24.0013 52.1598 22.0813 52.1598 20.1613 52.1598C19.6813 52.1598 19.3613 51.9998 19.3613 51.3598C19.3613 49.7598 19.3613 48.1598 19.3613 46.5598C19.3613 46.0798 19.5213 45.7598 20.1613 45.7598C21.1213 45.7598 22.0813 45.7598 23.0413 45.7598C24.0013 45.7598 24.9613 45.7598 25.9213 45.7598C26.4013 45.7598 26.7213 45.9198 26.7213 46.5598Z" fill="#FEFEFE"/>
<path d="M25.9213 61.2798C24.0013 61.2798 22.0813 61.2798 20.1613 61.2798C19.5213 61.2798 19.3613 61.1198 19.3613 60.4798C19.3613 58.8798 19.3613 57.4398 19.3613 55.8398C19.3613 55.1998 19.6813 55.0398 20.1613 55.0398C21.1213 55.0398 22.0813 55.0398 23.0413 55.0398C24.0013 55.0398 24.9613 55.0398 25.9213 55.0398C26.4013 55.0398 26.7213 55.1998 26.7213 55.8398C26.7213 57.4398 26.7213 59.0398 26.7213 60.6398C26.7213 61.1198 26.4013 61.2798 25.9213 61.2798Z" fill="#FEFEFE"/>
<path d="M38.5597 36.64C38.5597 38.56 38.5597 40.32 38.5597 42.24C38.5597 42.72 38.3997 42.88 37.9197 42.88C35.9997 42.88 34.2397 42.88 32.3197 42.88C31.8397 42.88 31.6797 42.72 31.6797 42.24C31.6797 41.28 31.6797 40.32 31.6797 39.36C31.6797 38.4 31.6797 37.6 31.6797 36.64C31.6797 36.16 31.8397 36 32.3197 36C34.2397 36 35.9997 36 37.9197 36C38.3997 36 38.5597 36.16 38.5597 36.64Z" fill="#FEFEFE"/>
<path d="M38.5595 18.7198C38.5595 20.4798 38.5595 22.2398 38.5595 23.9998C38.5595 24.6398 38.3995 24.7998 37.7595 24.7998C36.7995 24.7998 35.9995 24.7998 35.0395 24.7998C34.0795 24.7998 33.2795 24.7998 32.3195 24.7998C31.8395 24.7998 31.5195 24.6398 31.5195 23.9998C31.5195 22.2398 31.5195 20.4798 31.5195 18.5598C31.5195 18.0798 31.6795 17.7598 32.3195 17.7598C34.0795 17.7598 35.9995 17.7598 37.7595 17.7598C38.3995 17.9198 38.5595 18.2398 38.5595 18.7198Z" fill="#FEFEFE"/>
<path d="M41.7604 33.28C41.7604 32.32 41.7604 31.36 41.7604 30.4C41.7604 29.44 41.7604 28.64 41.7604 27.68C41.7604 27.2 41.9204 27.04 42.4004 27.04C44.3204 27.04 46.0804 27.04 48.0004 27.04C48.4804 27.04 48.6404 27.2 48.6404 27.68C48.6404 29.6 48.6404 31.36 48.6404 33.28C48.6404 33.76 48.3204 33.92 48.0004 33.92C46.0804 33.92 44.3204 33.92 42.4004 33.92C41.9204 33.92 41.6004 33.76 41.7604 33.28Z" fill="#FEFEFE"/>
<path d="M48.6417 42.24C48.6417 42.72 48.3217 42.88 47.8417 42.88C46.0817 42.88 44.1617 42.88 42.4017 42.88C41.9217 42.88 41.7617 42.72 41.7617 42.24C41.7617 41.28 41.7617 40.32 41.7617 39.36C41.7617 38.4 41.7617 37.6 41.7617 36.64C41.7617 36.16 41.9217 36 42.4017 36C44.3217 36 46.0817 36 48.0017 36C48.4817 36 48.6417 36.16 48.6417 36.64C48.6417 38.56 48.6417 40.32 48.6417 42.24Z" fill="#FEFEFE"/>
<path d="M40.0009 63.9999C38.8809 63.9999 37.6009 63.9999 36.4809 63.9999C36.1609 63.9999 36.0009 63.9999 36.0009 63.6799C36.0009 61.5999 35.8409 59.3599 36.1609 57.2799C36.4809 54.5599 39.8409 52.9599 42.2409 54.5599C43.5209 55.3599 44.0009 56.6399 44.0009 58.0799C44.0009 59.9999 44.0009 61.7599 44.0009 63.6799C44.0009 64.1599 43.8409 64.1599 43.3609 64.1599C42.2409 63.9999 41.1209 63.9999 40.0009 63.9999Z" fill="white"/>
<path d="M50.3995 48.4799C50.2395 48.6399 49.9195 48.6399 49.7595 48.6399C43.1995 48.6399 36.6395 48.6399 30.0795 48.6399C29.5995 48.6399 29.4395 48.4799 29.4395 47.9999C29.4395 47.5199 29.4395 47.0399 29.4395 46.5599C29.5995 46.3999 29.9195 46.5599 30.0795 46.5599C36.6395 46.5599 43.0395 46.5599 49.5995 46.5599C50.3995 46.5599 50.3995 46.5599 50.3995 47.3599C50.3995 47.5199 50.5595 47.9999 50.3995 48.4799Z" fill="white"/>
<path d="M50.3995 48.4799C50.3995 47.9999 50.3995 47.5199 50.3995 47.0399C50.3995 46.5599 50.2395 46.5599 49.7595 46.5599C48.9595 46.5599 48.1595 46.5599 47.3595 46.5599C41.4395 46.5599 35.3595 46.5599 29.4395 46.5599C29.5995 46.2399 29.7595 46.3999 30.0795 46.3999C36.6395 46.3999 43.1995 46.3999 49.9195 46.3999C50.3995 46.3999 50.5595 46.5599 50.5595 47.0399C50.3995 47.3599 50.7195 47.8399 50.3995 48.4799Z" fill="#FEF0DD"/>
<path d="M70.5612 51.3598C70.5612 51.8398 70.4012 52.1598 69.7612 52.1598C67.8412 52.1598 65.9212 52.1598 64.0012 52.1598C63.5212 52.1598 63.2012 51.9998 63.2012 51.3598C63.2012 49.7598 63.2012 48.1598 63.2012 46.5598C63.2012 46.0798 63.3612 45.7598 64.0012 45.7598C64.9612 45.7598 65.9212 45.7598 66.8812 45.7598C67.8412 45.7598 68.8012 45.7598 69.7612 45.7598C70.4012 45.7598 70.5612 46.0798 70.5612 46.5598C70.5612 48.1598 70.5612 49.7598 70.5612 51.3598Z" fill="#361452"/>
<path d="M60.6413 51.3598C60.6413 51.8398 60.4813 52.1598 59.8413 52.1598C58.8813 52.1598 57.9212 52.1598 56.9612 52.1598C56.0012 52.1598 55.0413 52.1598 54.0813 52.1598C53.4412 52.1598 53.2812 51.9998 53.2812 51.3598C53.2812 49.7598 53.2812 48.1598 53.2812 46.5598C53.2812 46.0798 53.4412 45.7598 54.0813 45.7598C56.0013 45.7598 57.9213 45.7598 59.8413 45.7598C60.4813 45.7598 60.6413 46.0798 60.6413 46.5598C60.6413 48.1598 60.6413 49.7598 60.6413 51.3598Z" fill="#361452"/>
<path d="M69.7612 42.88C68.8012 42.88 67.8412 42.88 66.8812 42.88C65.9212 42.88 64.9612 42.88 64.0012 42.88C63.3612 42.88 63.2012 42.72 63.2012 42.08C63.2012 40.48 63.2012 38.88 63.2012 37.28C63.2012 36.8 63.3612 36.48 64.0012 36.48C65.9212 36.48 67.8412 36.48 69.7612 36.48C70.2412 36.48 70.5612 36.64 70.5612 37.28C70.5612 38.88 70.5612 40.48 70.5612 42.08C70.5612 42.72 70.2412 42.88 69.7612 42.88Z" fill="#361452"/>
<path d="M60.6395 42.2399C60.6395 42.7199 60.4795 42.8799 59.9995 42.8799C59.0395 42.8799 57.9194 42.8799 56.9594 42.8799C55.9994 42.8799 55.0394 42.8799 54.0794 42.8799C53.5994 42.8799 53.4395 42.7199 53.4395 42.2399C53.4395 40.6399 53.4395 39.0399 53.4395 37.2799C53.4395 36.7999 53.5994 36.6399 54.0794 36.6399C56.1594 36.6399 58.0794 36.6399 60.1594 36.6399C60.6394 36.6399 60.7995 36.7999 60.7995 37.2799C60.6395 38.8799 60.6395 40.6399 60.6395 42.2399Z" fill="#361452"/>
<path d="M59.8413 61.28C57.9213 61.28 56.0013 61.28 54.0813 61.28C53.6012 61.28 53.2812 61.12 53.2812 60.48C53.2812 58.88 53.2812 57.28 53.2812 55.68C53.2812 55.2 53.4413 55.04 53.9213 55.04C54.8813 55.04 56.0012 55.04 56.9612 55.04C57.9212 55.04 58.8813 55.04 59.8413 55.04C60.4813 55.04 60.6413 55.36 60.6413 55.84C60.6413 57.44 60.6413 58.88 60.6413 60.48C60.6413 61.12 60.4813 61.28 59.8413 61.28Z" fill="#361452"/>
<path d="M26.7213 51.3598C26.7213 51.8398 26.5613 52.1598 25.9213 52.1598C24.0013 52.1598 22.0813 52.1598 20.1613 52.1598C19.6813 52.1598 19.3613 51.9998 19.3613 51.3598C19.3613 49.7598 19.3613 48.1598 19.3613 46.5598C19.3613 46.0798 19.5213 45.7598 20.1613 45.7598C21.1213 45.7598 22.0813 45.7598 23.0413 45.7598C24.0013 45.7598 24.9613 45.7598 25.9213 45.7598C26.5613 45.7598 26.7213 45.9198 26.7213 46.5598C26.7213 48.1598 26.7213 49.7598 26.7213 51.3598Z" fill="#361452"/>
<path d="M16.9596 60.64C16.9596 61.12 16.6396 61.28 16.1596 61.28C15.1996 61.28 14.0796 61.28 13.1196 61.28C12.1596 61.28 11.1996 61.28 10.2396 61.28C9.75961 61.28 9.59961 61.28 9.59961 60.64C9.59961 59.04 9.59961 57.28 9.59961 55.68C9.59961 55.2 9.75961 55.04 10.2396 55.04C12.3196 55.04 14.2396 55.04 16.3196 55.04C16.7996 55.04 16.9596 55.2 16.9596 55.68C16.9596 57.28 16.9596 59.04 16.9596 60.64Z" fill="#361452"/>
<path d="M16.7995 42.2398C16.7995 42.7198 16.6395 43.0398 15.9995 43.0398C15.0395 43.0398 14.0795 43.0398 13.1195 43.0398C12.1595 43.0398 11.0395 43.0398 10.0795 43.0398C9.59945 43.0398 9.43945 42.8798 9.43945 42.3998C9.43945 40.7998 9.43945 39.1998 9.43945 37.5998C9.43945 37.1198 9.75945 36.7998 10.2395 36.7998C12.1595 36.7998 14.0795 36.7998 15.9995 36.7998C16.4795 36.7998 16.7995 36.9598 16.7995 37.5998C16.7995 39.0398 16.7995 40.6398 16.7995 42.2398Z" fill="#361452"/>
<path d="M26.8795 42.2398C26.8795 42.7198 26.5595 43.0398 25.9195 43.0398C24.9595 43.0398 23.9995 43.0398 23.0395 43.0398C22.0795 43.0398 21.1195 43.0398 20.1595 43.0398C19.6795 43.0398 19.5195 42.8798 19.5195 42.3998C19.5195 40.7998 19.5195 39.1998 19.5195 37.5998C19.5195 37.1198 19.6795 36.7998 20.3195 36.7998C22.2395 36.7998 24.1595 36.7998 26.0795 36.7998C26.7195 36.7998 26.8795 36.9598 26.8795 37.5998C26.8795 39.1998 26.8795 40.6398 26.8795 42.2398Z" fill="#361452"/>
<path d="M25.9213 61.2798C24.0013 61.2798 22.0813 61.2798 20.1613 61.2798C19.5213 61.2798 19.3613 61.1198 19.3613 60.4798C19.3613 58.8798 19.3613 57.4398 19.3613 55.8398C19.3613 55.1998 19.6813 55.0398 20.1613 55.0398C21.1213 55.0398 22.0813 55.0398 23.0413 55.0398C24.0013 55.0398 24.9613 55.0398 25.9213 55.0398C26.4013 55.0398 26.7213 55.1998 26.7213 55.8398C26.7213 57.4398 26.7213 59.0398 26.7213 60.6398C26.7213 61.1198 26.4013 61.2798 25.9213 61.2798Z" fill="#361452"/>
<path d="M48.6417 33.28C48.6417 33.76 48.3217 33.92 48.0017 33.92C46.0817 33.92 44.3217 33.92 42.4017 33.92C41.9217 33.92 41.7617 33.76 41.7617 33.28C41.7617 32.32 41.7617 31.36 41.7617 30.4C41.7617 29.44 41.7617 28.64 41.7617 27.68C41.7617 27.2 41.9217 27.04 42.4017 27.04C44.3217 27.04 46.0817 27.04 48.0017 27.04C48.4817 27.04 48.6417 27.2 48.6417 27.68C48.6417 29.44 48.6417 31.36 48.6417 33.28Z" fill="#361552"/>
<path d="M48.6417 42.24C48.6417 42.72 48.3217 42.88 47.8417 42.88C46.0817 42.88 44.1617 42.88 42.4017 42.88C41.9217 42.88 41.7617 42.72 41.7617 42.24C41.7617 41.28 41.7617 40.32 41.7617 39.36C41.7617 38.4 41.7617 37.6 41.7617 36.64C41.7617 36.16 41.9217 36 42.4017 36C44.3217 36 46.0817 36 48.0017 36C48.4817 36 48.6417 36.16 48.6417 36.64C48.6417 38.56 48.6417 40.32 48.6417 42.24Z" fill="#361452"/>
<path d="M38.5597 42.24C38.5597 42.72 38.3997 42.88 37.9197 42.88C35.9997 42.88 34.2397 42.88 32.3197 42.88C31.8397 42.88 31.6797 42.72 31.6797 42.24C31.6797 41.28 31.6797 40.32 31.6797 39.36C31.6797 38.4 31.6797 37.6 31.6797 36.64C31.6797 36.16 31.8397 36 32.3197 36C34.2397 36 35.9997 36 37.9197 36C38.3997 36 38.5597 36.16 38.5597 36.64C38.5597 38.56 38.5597 40.32 38.5597 42.24Z" fill="#361452"/>
<path d="M38.5595 23.9998C38.5595 24.6398 38.3995 24.7998 37.7595 24.7998C36.7995 24.7998 35.9995 24.7998 35.0395 24.7998C34.0795 24.7998 33.2795 24.7998 32.3195 24.7998C31.8395 24.7998 31.5195 24.6398 31.5195 23.9998C31.5195 22.2398 31.5195 20.4798 31.5195 18.5598C31.5195 18.0798 31.6795 17.7598 32.3195 17.7598C34.0795 17.7598 35.9995 17.7598 37.7595 17.7598C38.3995 17.7598 38.5595 17.9198 38.5595 18.5598C38.5595 20.4798 38.5595 22.2398 38.5595 23.9998Z" fill="#361452"/>
<path d="M69.4403 51.04C67.8403 51.04 66.2403 51.04 64.8003 51.04C64.4803 51.04 64.3203 50.88 64.3203 50.56C64.3203 49.44 64.3203 48.32 64.3203 47.2C64.3203 46.88 64.4803 46.72 64.8003 46.72C66.4003 46.72 68.0003 46.72 69.4403 46.72C69.4403 48.16 69.4403 49.6 69.4403 51.04Z" fill="white"/>
<path d="M69.4395 51.0399C69.4395 49.5999 69.4395 48.3199 69.4395 46.8799C69.5995 46.8799 69.5995 47.1999 69.5995 47.1999C69.5995 48.3199 69.5995 49.4399 69.5995 50.5599C69.5995 50.7199 69.5995 50.8799 69.4395 51.0399Z" fill="#F4BC75"/>
<path d="M56.9604 51.04C56.3204 51.04 55.5204 51.04 54.8804 51.04C54.5604 51.04 54.4004 50.88 54.4004 50.56C54.4004 49.44 54.4004 48.32 54.4004 47.2C54.4004 46.88 54.5604 46.72 54.8804 46.72C56.3204 46.72 57.9204 46.72 59.3604 46.72C59.6804 46.72 59.8404 46.88 59.8404 47.2C59.8404 48.32 59.8404 49.44 59.8404 50.56C59.8404 50.88 59.6804 51.04 59.3604 51.04C58.4004 51.04 57.7604 51.04 56.9604 51.04Z" fill="white"/>
<path d="M64.3211 41.7598C64.1611 40.4798 64.3211 39.0398 64.3211 37.7598C65.4411 37.5998 66.5611 37.7598 67.8411 37.7598C68.3211 37.7598 69.1211 37.5998 69.4411 37.9198C69.7611 38.2398 69.6011 39.0398 69.6011 39.5198C69.6011 40.1598 69.6011 40.7998 69.6011 41.5998C69.6011 41.7598 69.6011 42.0798 69.2811 42.0798C67.5211 41.9198 65.9211 41.9198 64.3211 41.7598Z" fill="white"/>
<path d="M64.3203 41.7599C65.7603 41.7599 67.3603 41.7599 68.8003 41.7599C69.2803 41.7599 69.4403 41.5999 69.4403 41.1199C69.4403 40.1599 69.4403 39.1999 69.4403 38.2399C69.4403 37.7599 69.2803 37.7599 68.9603 37.7599C67.3603 37.7599 65.9203 37.7599 64.3203 37.7599C64.4803 37.5999 64.6403 37.5999 64.8003 37.5999C66.2403 37.5999 67.5203 37.5999 68.9603 37.5999C69.4403 37.5999 69.6003 37.7599 69.6003 38.2399C69.6003 39.3599 69.6003 40.4799 69.6003 41.4399C69.6003 41.7599 69.6003 41.9199 69.2803 41.9199C67.5203 41.9199 66.0803 41.9199 64.3203 41.7599C64.4803 41.9199 64.3203 41.9199 64.3203 41.7599Z" fill="#F4BC75"/>
<path d="M56.9604 37.5999C57.7604 37.5999 58.4004 37.5999 59.2004 37.5999C59.6804 37.5999 59.6804 37.7599 59.6804 38.0799C59.6804 39.1999 59.6804 40.3199 59.6804 41.2799C59.6804 41.5999 59.5204 41.7599 59.2004 41.7599C57.7604 41.7599 56.3204 41.7599 54.8804 41.7599C54.5604 41.7599 54.4004 41.5999 54.4004 41.2799C54.4004 40.1599 54.4004 39.0399 54.4004 38.0799C54.4004 37.7599 54.5604 37.5999 54.8804 37.5999C55.5204 37.5999 56.3204 37.5999 56.9604 37.5999Z" fill="white"/>
<path d="M56.9602 60.1598C56.1602 60.1598 55.5202 60.1598 54.7202 60.1598C54.4002 60.1598 54.2402 59.9998 54.2402 59.6798C54.2402 58.5598 54.2402 57.4398 54.2402 56.3198C54.2402 55.9998 54.4002 55.8398 54.7202 55.8398C56.1602 55.8398 57.6002 55.8398 59.0402 55.8398C59.3602 55.8398 59.5202 55.9998 59.5202 56.3198C59.5202 57.4398 59.5202 58.5598 59.5202 59.6798C59.5202 59.9998 59.3602 60.1598 59.0402 60.1598C58.5602 60.1598 57.7602 60.1598 56.9602 60.1598Z" fill="white"/>
<path d="M23.2006 37.9199C24.0006 37.9199 24.6406 37.9199 25.4406 37.9199C25.9206 37.9199 25.9206 38.0799 25.9206 38.3999C25.9206 39.5199 25.9206 40.6399 25.9206 41.5999C25.9206 41.9199 25.7606 42.0799 25.4406 42.0799C24.0006 42.0799 22.5606 42.0799 21.1206 42.0799C20.8006 42.0799 20.6406 41.9199 20.6406 41.5999C20.6406 40.4799 20.6406 39.3599 20.6406 38.3999C20.6406 38.0799 20.8006 37.9199 21.1206 37.9199C21.7606 37.9199 22.4006 37.9199 23.2006 37.9199Z" fill="white"/>
<path d="M22.8803 60.4797C22.2403 60.4797 21.4403 60.4797 20.8003 60.4797C20.4803 60.4797 20.3203 60.4797 20.3203 59.9997C20.3203 58.8797 20.3203 57.7597 20.3203 56.6397C20.3203 56.3197 20.4803 56.1597 20.8003 56.1597C22.2403 56.1597 23.8403 56.1597 25.2803 56.1597C25.6003 56.1597 25.7603 56.3197 25.7603 56.6397C25.7603 57.7597 25.7603 58.8797 25.7603 59.9997C25.7603 60.3197 25.6003 60.4797 25.2803 60.4797C24.4803 60.4797 23.6803 60.4797 22.8803 60.4797Z" fill="white"/>
<path d="M15.5223 42.4001H10.7223C10.5623 42.4001 10.4023 42.2401 10.4023 42.0801V38.4001C10.4023 38.2401 10.5623 38.0801 10.7223 38.0801H15.6823C15.8423 38.0801 16.0023 38.2401 16.0023 38.4001V42.0801C16.0023 42.2401 15.8423 42.4001 15.5223 42.4001Z" fill="white"/>
<path d="M15.5223 51.36H10.7223C10.5623 51.36 10.4023 51.2 10.4023 51.04V47.36C10.4023 47.2 10.5623 47.04 10.7223 47.04H15.6823C15.8423 47.04 16.0023 47.2 16.0023 47.36V51.04C16.0023 51.2 15.8423 51.36 15.5223 51.36Z" fill="white"/>
<path d="M15.6805 60.4799H10.8805C10.7205 60.4799 10.5605 60.3199 10.5605 60.1599V56.4799C10.5605 56.3199 10.7205 56.1599 10.8805 56.1599H15.8405C16.0005 56.1599 16.1605 56.3199 16.1605 56.4799V60.1599C16.1605 60.3199 16.0005 60.4799 15.6805 60.4799Z" fill="white"/>
<path d="M25.6003 51.36H20.6403C20.4803 51.36 20.3203 51.2 20.3203 51.04V47.36C20.3203 47.2 20.4803 47.04 20.6403 47.04H25.6003C25.7603 47.04 25.9203 47.2 25.9203 47.36V51.04C25.9203 51.2 25.7603 51.36 25.6003 51.36Z" fill="white"/>
<path d="M37.6005 23.2001C37.6005 23.6801 37.4405 23.8401 36.9605 23.8401C36.3205 23.8401 35.6805 23.8401 35.0405 23.8401C34.4005 23.8401 33.7605 23.8401 33.1205 23.8401C32.8005 23.8401 32.4805 23.6801 32.4805 23.2001C32.4805 21.9201 32.4805 20.6401 32.4805 19.2001C32.4805 18.8801 32.6405 18.5601 33.1205 18.5601C34.4005 18.5601 35.8405 18.5601 37.1205 18.5601C37.6005 18.5601 37.7605 18.7201 37.7605 19.2001C37.6005 20.6401 37.6005 21.9201 37.6005 23.2001Z" fill="white"/>
<path d="M37.6005 32.4798C37.6005 32.9598 37.4405 33.1198 36.9605 33.1198C36.3205 33.1198 35.6805 33.1198 35.0405 33.1198C34.4005 33.1198 33.7605 33.1198 33.1205 33.1198C32.8005 33.1198 32.4805 32.9598 32.4805 32.4798C32.4805 31.1998 32.4805 29.9198 32.4805 28.4798C32.4805 28.1598 32.6405 27.8398 33.1205 27.8398C34.4005 27.8398 35.8405 27.8398 37.1205 27.8398C37.6005 27.8398 37.7605 27.9998 37.7605 28.4798C37.6005 29.9198 37.6005 31.1998 37.6005 32.4798Z" fill="white"/>
<path d="M37.6005 41.6C37.6005 42.08 37.4405 42.24 36.9605 42.24C36.3205 42.24 35.6805 42.24 35.0405 42.24C34.4005 42.24 33.7605 42.24 33.1205 42.24C32.8005 42.24 32.4805 42.08 32.4805 41.6C32.4805 40.32 32.4805 39.04 32.4805 37.6C32.4805 37.28 32.6405 36.96 33.1205 36.96C34.4005 36.96 35.8405 36.96 37.1205 36.96C37.6005 36.96 37.7605 37.12 37.7605 37.6C37.6005 39.04 37.6005 40.32 37.6005 41.6Z" fill="white"/>
<path d="M47.6805 23.2001C47.6805 23.6801 47.5205 23.8401 47.0405 23.8401C46.4005 23.8401 45.7605 23.8401 45.1205 23.8401C44.4805 23.8401 43.8405 23.8401 43.2005 23.8401C42.8805 23.8401 42.5605 23.6801 42.5605 23.2001C42.5605 21.9201 42.5605 20.6401 42.5605 19.2001C42.5605 18.8801 42.7205 18.5601 43.2005 18.5601C44.4805 18.5601 45.9205 18.5601 47.2005 18.5601C47.6805 18.5601 47.8405 18.7201 47.8405 19.2001C47.6805 20.6401 47.6805 21.9201 47.6805 23.2001Z" fill="white"/>
<path d="M47.6805 32.4798C47.6805 32.9598 47.5205 33.1198 47.0405 33.1198C46.4005 33.1198 45.7605 33.1198 45.1205 33.1198C44.4805 33.1198 43.8405 33.1198 43.2005 33.1198C42.8805 33.1198 42.5605 32.9598 42.5605 32.4798C42.5605 31.1998 42.5605 29.9198 42.5605 28.4798C42.5605 28.1598 42.7205 27.8398 43.2005 27.8398C44.4805 27.8398 45.9205 27.8398 47.2005 27.8398C47.6805 27.8398 47.8405 27.9998 47.8405 28.4798C47.6805 29.9198 47.6805 31.1998 47.6805 32.4798Z" fill="white"/>
<path d="M47.6805 41.6C47.6805 42.08 47.5205 42.24 47.0405 42.24C46.4005 42.24 45.7605 42.24 45.1205 42.24C44.4805 42.24 43.8405 42.24 43.2005 42.24C42.8805 42.24 42.5605 42.08 42.5605 41.6C42.5605 40.32 42.5605 39.04 42.5605 37.6C42.5605 37.28 42.7205 36.96 43.2005 36.96C44.4805 36.96 45.9205 36.96 47.2005 36.96C47.6805 36.96 47.8405 37.12 47.8405 37.6C47.6805 39.04 47.6805 40.32 47.6805 41.6Z" fill="white"/>
<path d="M66.7202 60.4799C66.0802 60.4799 65.2802 60.4799 64.6402 60.4799C64.3202 60.4799 64.1602 60.4799 64.1602 59.9999C64.1602 58.8799 64.1602 57.7599 64.1602 56.6399C64.1602 56.3199 64.3202 56.1599 64.6402 56.1599C66.0802 56.1599 67.6802 56.1599 69.1202 56.1599C69.4402 56.1599 69.6002 56.3199 69.6002 56.6399C69.6002 57.7599 69.6002 58.8799 69.6002 59.9999C69.6002 60.3199 69.4402 60.4799 69.1202 60.4799C68.3202 60.4799 67.5202 60.4799 66.7202 60.4799Z" fill="white"/>
</svg>
