<svg width="68" height="68" viewBox="0 0 68 68" fill="none" xmlns="http://www.w3.org/2000/svg">
<g clip-path="url(#clip0_2008_8872)">
<path d="M43.9167 22.6665C43.9167 23.0422 43.7674 23.4026 43.5017 23.6682C43.2361 23.9339 42.8757 24.0832 42.5 24.0832H14.1667C13.7909 24.0832 13.4306 23.9339 13.1649 23.6682C12.8993 23.4026 12.75 23.0422 12.75 22.6665V8.49984C12.75 6.62122 13.4963 4.81955 14.8247 3.49116C16.153 2.16278 17.9547 1.4165 19.8333 1.4165H65.1667C65.3819 1.41656 65.5942 1.46564 65.7876 1.56002C65.981 1.6544 66.1503 1.79159 66.2828 1.96118C66.4152 2.13078 66.5073 2.32832 66.552 2.53881C66.5967 2.7493 66.5929 2.96721 66.5408 3.176L64.3478 11.9593C64.2872 12.2017 64.1635 12.4237 63.9893 12.6028C63.8152 12.782 63.5967 12.9119 63.3562 12.9793L43.9167 18.4165V22.6665Z" stroke="white" stroke-width="1.5" stroke-linecap="round" stroke-linejoin="round"/>
<path d="M55.2497 15.2432V28.3332C55.2497 28.7089 55.1004 29.0692 54.8347 29.3349C54.5691 29.6006 54.2087 29.7498 53.833 29.7498H21.2497C19.7468 29.7498 18.3054 29.1528 17.2427 28.0901C16.18 27.0274 15.583 25.5861 15.583 24.0832" stroke="white" stroke-width="1.5" stroke-linecap="round" stroke-linejoin="round"/>
<path d="M60.917 19.8335V25.5002" stroke="white" stroke-width="1.5" stroke-linecap="round" stroke-linejoin="round"/>
<path d="M24.083 35.4165H35.4163" stroke="white" stroke-width="1.5" stroke-linecap="round" stroke-linejoin="round"/>
<path d="M29.7503 35.4165V50.0932C29.7511 50.7468 29.5259 51.3807 29.1128 51.8872C28.6997 52.3938 28.1241 52.7419 27.4837 52.8727L1.41699 58.0832" stroke="white" stroke-width="1.5" stroke-linecap="round" stroke-linejoin="round"/>
<path d="M1.41699 49.5835V66.5835" stroke="white" stroke-width="1.5" stroke-linecap="round" stroke-linejoin="round"/>
</g>
<defs>
<clipPath id="clip0_2008_8872">
<rect width="68" height="68" fill="white"/>
</clipPath>
</defs>
</svg>
