<svg width="48" height="44" viewBox="0 0 48 44" fill="none" xmlns="http://www.w3.org/2000/svg">
<path d="M43 37.2801C42.9993 37.0098 42.8915 36.7508 42.7 36.5601C38 32.1601 39.72 16.8201 24 16.8201C8.28001 16.8201 10 32.1601 5.32001 36.5601C5.21877 36.6506 5.1379 36.7616 5.08274 36.8857C5.02758 37.0098 4.99938 37.1442 5.00001 37.2801V42.8201H43V37.2801Z" stroke="#22252E" stroke-width="1.5" stroke-linecap="round" stroke-linejoin="round"/>
<path d="M31.54 18.4601C28.5 16.2401 26.2 7.62008 24.98 2.00008C24.9418 1.76878 24.8219 1.55885 24.6421 1.4084C24.4623 1.25794 24.2345 1.17694 24 1.18008C23.7738 1.17608 23.5533 1.25214 23.3777 1.39486C23.202 1.53758 23.0824 1.73777 23.04 1.96008C21.82 7.62008 19.56 16.2201 16.54 18.4401" stroke="#22252E" stroke-width="1.5" stroke-linecap="round" stroke-linejoin="round"/>
<path d="M5 36.8201H43" stroke="#22252E" stroke-width="1.5" stroke-linecap="round" stroke-linejoin="round"/>
<path d="M20.7002 10.8201H27.3402" stroke="#22252E" stroke-width="1.5" stroke-linecap="round" stroke-linejoin="round"/>
<path d="M1 42.8201H47" stroke="#22252E" stroke-width="1.5" stroke-linecap="round" stroke-linejoin="round"/>
</svg>
