<svg width="68" height="68" viewBox="0 0 68 68" fill="none" xmlns="http://www.w3.org/2000/svg">
<path d="M8.02539 43.656C8.02539 42.296 8.02539 40.936 8.02539 39.44C8.02539 39.032 8.16139 38.896 8.56939 38.896C10.2014 38.896 11.9694 38.896 13.6014 38.896C14.0094 38.896 14.1454 39.032 14.1454 39.576C14.1454 40.936 14.1454 42.296 14.1454 43.792C14.1454 44.2 14.0094 44.336 13.6014 44.336C12.7854 44.336 11.9694 44.336 11.1534 44.336C10.3374 44.336 9.52139 44.336 8.70539 44.336C8.29739 44.336 8.02539 44.064 8.02539 43.656Z" fill="#361452"/>
<path d="M14.2814 35.9039C14.2814 36.3119 14.1454 36.5839 13.6014 36.5839C12.7854 36.5839 11.9694 36.5839 11.1534 36.5839C10.3374 36.5839 9.38539 36.5839 8.56939 36.5839C8.16139 36.5839 8.02539 36.4479 8.02539 36.0399C8.02539 34.6799 8.02539 33.3199 8.02539 31.9599C8.02539 31.5519 8.29739 31.2799 8.70539 31.2799C10.3374 31.2799 11.9694 31.2799 13.6014 31.2799C14.0094 31.2799 14.2814 31.4159 14.2814 31.9599C14.2814 33.1839 14.2814 34.5439 14.2814 35.9039Z" fill="#361452"/>
<path d="M22.713 39.576C22.713 40.936 22.713 42.296 22.713 43.656C22.713 44.064 22.577 44.336 22.033 44.336C20.401 44.336 18.769 44.336 17.137 44.336C16.729 44.336 16.457 44.2 16.457 43.656C16.457 42.296 16.457 40.936 16.457 39.576C16.457 39.168 16.593 38.896 17.137 38.896C17.953 38.896 18.769 38.896 19.585 38.896C20.401 38.896 21.217 38.896 22.033 38.896C22.441 38.896 22.713 39.032 22.713 39.576Z" fill="#361452"/>
<path d="M22.713 51.4079C22.713 51.9519 22.577 52.0879 22.033 52.0879C20.401 52.0879 18.769 52.0879 17.137 52.0879C16.593 52.0879 16.457 51.9519 16.457 51.4079C16.457 50.0479 16.457 48.8239 16.457 47.4639C16.457 46.9199 16.729 46.7839 17.137 46.7839C17.953 46.7839 18.769 46.7839 19.585 46.7839C20.401 46.7839 21.217 46.7839 22.033 46.7839C22.441 46.7839 22.713 46.9199 22.713 47.4639C22.713 48.6879 22.713 50.0479 22.713 51.4079Z" fill="#361452"/>
<path d="M32.2334 30.5999H27.4734C27.0654 30.5999 26.9294 30.7359 26.9294 31.1439V35.9039C26.9294 36.3119 27.0654 36.448 27.4734 36.448H32.2334C32.6414 36.448 32.7774 36.3119 32.7774 35.9039V31.1439C32.7774 30.7359 32.6414 30.5999 32.2334 30.5999ZM40.8014 22.9839H36.0414C35.6334 22.9839 35.4974 23.1199 35.4974 23.5279V28.2879C35.4974 28.5599 35.6334 28.6959 35.7694 28.8319C35.7694 28.8319 35.9054 28.8319 36.0414 28.8319H40.8014C41.2094 28.8319 41.3454 28.6959 41.3454 28.2879V23.5279C41.3454 23.1199 41.2094 22.9839 40.8014 22.9839ZM40.8014 30.5999H36.0414C35.6334 30.5999 35.4974 30.7359 35.4974 31.1439V35.9039C35.4974 36.3119 35.6334 36.448 36.0414 36.448H40.6654C41.0734 36.448 41.3454 36.3119 41.3454 35.9039V31.1439C41.3454 30.7359 41.2094 30.5999 40.8014 30.5999ZM40.8014 30.5999H36.0414C35.6334 30.5999 35.4974 30.7359 35.4974 31.1439V35.9039C35.4974 36.3119 35.6334 36.448 36.0414 36.448H40.6654C41.0734 36.448 41.3454 36.3119 41.3454 35.9039V31.1439C41.3454 30.7359 41.2094 30.5999 40.8014 30.5999ZM40.8014 22.9839H36.0414C35.6334 22.9839 35.4974 23.1199 35.4974 23.5279V28.2879C35.3614 28.5599 35.4974 28.6959 35.7694 28.8319C35.7694 28.8319 35.9054 28.8319 36.0414 28.8319H40.8014C41.2094 28.8319 41.3454 28.6959 41.3454 28.2879V23.5279C41.3454 23.1199 41.2094 22.9839 40.8014 22.9839ZM32.0974 22.9839H27.4734C27.0654 22.9839 26.9294 23.1199 26.9294 23.5279V28.1519C26.9294 28.5599 27.2014 28.8319 27.6094 28.8319H32.2334C32.6414 28.8319 32.9134 28.6959 32.9134 28.1519V23.5279C32.7774 23.1199 32.5054 22.9839 32.0974 22.9839ZM32.2334 30.5999H27.4734C27.0654 30.5999 26.9294 30.7359 26.9294 31.1439V35.9039C26.9294 36.3119 27.0654 36.448 27.4734 36.448H32.2334C32.6414 36.448 32.7774 36.3119 32.7774 35.9039V31.1439C32.7774 30.7359 32.6414 30.5999 32.2334 30.5999ZM32.2334 30.5999H27.4734C27.0654 30.5999 26.9294 30.7359 26.9294 31.1439V35.9039C26.9294 36.3119 27.0654 36.448 27.4734 36.448H32.2334C32.6414 36.448 32.7774 36.3119 32.7774 35.9039V31.1439C32.7774 30.7359 32.6414 30.5999 32.2334 30.5999ZM32.0974 22.9839H27.4734C27.0654 22.9839 26.9294 23.1199 26.9294 23.5279V28.1519C26.9294 28.5599 27.2014 28.8319 27.6094 28.8319H32.2334C32.6414 28.8319 32.9134 28.6959 32.9134 28.1519V23.5279C32.7774 23.1199 32.5054 22.9839 32.0974 22.9839ZM40.8014 22.9839H36.0414C35.6334 22.9839 35.4974 23.1199 35.4974 23.5279V28.2879C35.3614 28.5599 35.4974 28.6959 35.7694 28.8319C35.7694 28.8319 35.9054 28.8319 36.0414 28.8319H40.8014C41.2094 28.8319 41.3454 28.6959 41.3454 28.2879V23.5279C41.3454 23.1199 41.2094 22.9839 40.8014 22.9839ZM40.8014 30.5999H36.0414C35.6334 30.5999 35.4974 30.7359 35.4974 31.1439V35.9039C35.4974 36.3119 35.6334 36.448 36.0414 36.448H40.6654C41.0734 36.448 41.3454 36.3119 41.3454 35.9039V31.1439C41.3454 30.7359 41.2094 30.5999 40.8014 30.5999ZM51.0014 31.1439H45.8334C45.4254 31.1439 45.2894 31.2799 45.2894 31.6879V35.9039C45.2894 36.3119 45.5614 36.448 45.9694 36.448H51.0014C51.4094 36.448 51.5454 36.3119 51.5454 35.9039V31.6879C51.5454 31.2799 51.4094 31.1439 51.0014 31.1439ZM50.8654 38.8959H45.9694C45.5614 38.8959 45.2894 39.0319 45.2894 39.5759V43.6559C45.2894 44.0639 45.5614 44.3359 45.9694 44.3359H50.8654C51.2734 44.3359 51.5454 44.1999 51.5454 43.6559V39.5759C51.5454 39.1679 51.4094 38.8959 50.8654 38.8959ZM50.8654 46.784H45.8334C45.4254 46.784 45.2894 46.9199 45.2894 47.3279V51.408C45.2894 51.8159 45.4254 52.0879 45.9694 52.0879H50.8654C51.4094 52.0879 51.5454 51.8159 51.5454 51.408V47.464C51.5454 46.92 51.4094 46.784 50.8654 46.784ZM59.2974 31.1439H54.4014C53.9934 31.1439 53.7214 31.2799 53.7214 31.8239V35.9039C53.7214 36.4479 53.8574 36.5839 54.4014 36.5839H59.2974C59.8414 36.5839 59.9774 36.4479 59.9774 35.9039V31.8239C59.9774 31.4159 59.8414 31.1439 59.2974 31.1439ZM59.2974 38.8959H54.4014C53.9934 38.8959 53.7214 39.0319 53.7214 39.5759V43.6559C53.7214 44.0639 53.8574 44.3359 54.4014 44.3359H59.2974C59.8414 44.3359 59.9774 44.0639 59.9774 43.6559V39.5759C59.9774 39.0319 59.8414 38.7599 59.2974 38.8959ZM59.2974 38.8959H54.4014C53.9934 38.8959 53.7214 39.0319 53.7214 39.5759V43.6559C53.7214 44.0639 53.8574 44.3359 54.4014 44.3359H59.2974C59.8414 44.3359 59.9774 44.0639 59.9774 43.6559V39.5759C59.9774 39.0319 59.8414 38.7599 59.2974 38.8959ZM59.2974 31.1439H54.4014C53.9934 31.1439 53.7214 31.2799 53.7214 31.8239V35.9039C53.7214 36.4479 53.8574 36.5839 54.4014 36.5839H59.2974C59.8414 36.5839 59.9774 36.4479 59.9774 35.9039V31.8239C59.9774 31.4159 59.8414 31.1439 59.2974 31.1439ZM50.8654 46.784H45.8334C45.4254 46.784 45.2894 46.9199 45.2894 47.3279V51.408C45.2894 51.8159 45.4254 52.0879 45.9694 52.0879H50.8654C51.4094 52.0879 51.5454 51.8159 51.5454 51.408V47.464C51.5454 46.92 51.4094 46.784 50.8654 46.784ZM50.8654 38.8959H45.9694C45.5614 38.8959 45.2894 39.0319 45.2894 39.5759V43.6559C45.2894 44.0639 45.5614 44.3359 45.9694 44.3359H50.8654C51.2734 44.3359 51.5454 44.1999 51.5454 43.6559V39.5759C51.5454 39.1679 51.4094 38.8959 50.8654 38.8959ZM51.0014 31.1439H45.8334C45.4254 31.1439 45.2894 31.2799 45.2894 31.6879V35.9039C45.2894 36.3119 45.5614 36.448 45.9694 36.448H51.0014C51.4094 36.448 51.5454 36.3119 51.5454 35.9039V31.6879C51.5454 31.2799 51.4094 31.1439 51.0014 31.1439ZM40.8014 30.5999H36.0414C35.6334 30.5999 35.4974 30.7359 35.4974 31.1439V35.9039C35.4974 36.3119 35.6334 36.448 36.0414 36.448H40.6654C41.0734 36.448 41.3454 36.3119 41.3454 35.9039V31.1439C41.3454 30.7359 41.2094 30.5999 40.8014 30.5999ZM40.8014 22.9839H36.0414C35.6334 22.9839 35.4974 23.1199 35.4974 23.5279V28.2879C35.3614 28.5599 35.4974 28.6959 35.7694 28.8319C35.7694 28.8319 35.9054 28.8319 36.0414 28.8319H40.8014C41.2094 28.8319 41.3454 28.6959 41.3454 28.2879V23.5279C41.3454 23.1199 41.2094 22.9839 40.8014 22.9839ZM32.0974 22.9839H27.4734C27.0654 22.9839 26.9294 23.1199 26.9294 23.5279V28.1519C26.9294 28.5599 27.2014 28.8319 27.6094 28.8319H32.2334C32.6414 28.8319 32.9134 28.6959 32.9134 28.1519V23.5279C32.7774 23.1199 32.5054 22.9839 32.0974 22.9839ZM32.2334 30.5999H27.4734C27.0654 30.5999 26.9294 30.7359 26.9294 31.1439V35.9039C26.9294 36.3119 27.0654 36.448 27.4734 36.448H32.2334C32.6414 36.448 32.7774 36.3119 32.7774 35.9039V31.1439C32.7774 30.7359 32.6414 30.5999 32.2334 30.5999ZM32.2334 30.5999H27.4734C27.0654 30.5999 26.9294 30.7359 26.9294 31.1439V35.9039C26.9294 36.3119 27.0654 36.448 27.4734 36.448H32.2334C32.6414 36.448 32.7774 36.3119 32.7774 35.9039V31.1439C32.7774 30.7359 32.6414 30.5999 32.2334 30.5999ZM32.0974 22.9839H27.4734C27.0654 22.9839 26.9294 23.1199 26.9294 23.5279V28.1519C26.9294 28.5599 27.2014 28.8319 27.6094 28.8319H32.2334C32.6414 28.8319 32.9134 28.6959 32.9134 28.1519V23.5279C32.7774 23.1199 32.5054 22.9839 32.0974 22.9839ZM40.8014 22.9839H36.0414C35.6334 22.9839 35.4974 23.1199 35.4974 23.5279V28.2879C35.3614 28.5599 35.4974 28.6959 35.7694 28.8319C35.7694 28.8319 35.9054 28.8319 36.0414 28.8319H40.8014C41.2094 28.8319 41.3454 28.6959 41.3454 28.2879V23.5279C41.3454 23.1199 41.2094 22.9839 40.8014 22.9839ZM40.8014 30.5999H36.0414C35.6334 30.5999 35.4974 30.7359 35.4974 31.1439V35.9039C35.4974 36.3119 35.6334 36.448 36.0414 36.448H40.6654C41.0734 36.448 41.3454 36.3119 41.3454 35.9039V31.1439C41.3454 30.7359 41.2094 30.5999 40.8014 30.5999ZM51.0014 31.1439H45.8334C45.4254 31.1439 45.2894 31.2799 45.2894 31.6879V35.9039C45.2894 36.3119 45.5614 36.448 45.9694 36.448H51.0014C51.4094 36.448 51.5454 36.3119 51.5454 35.9039V31.6879C51.5454 31.2799 51.4094 31.1439 51.0014 31.1439ZM50.8654 38.8959H45.9694C45.5614 38.8959 45.2894 39.0319 45.2894 39.5759V43.6559C45.2894 44.0639 45.5614 44.3359 45.9694 44.3359H50.8654C51.2734 44.3359 51.5454 44.1999 51.5454 43.6559V39.5759C51.5454 39.1679 51.4094 38.8959 50.8654 38.8959ZM50.8654 46.784H45.8334C45.4254 46.784 45.2894 46.9199 45.2894 47.3279V51.408C45.2894 51.8159 45.4254 52.0879 45.9694 52.0879H50.8654C51.4094 52.0879 51.5454 51.8159 51.5454 51.408V47.464C51.5454 46.92 51.4094 46.784 50.8654 46.784ZM59.2974 31.1439H54.4014C53.9934 31.1439 53.7214 31.2799 53.7214 31.8239V35.9039C53.7214 36.4479 53.8574 36.5839 54.4014 36.5839H59.2974C59.8414 36.5839 59.9774 36.4479 59.9774 35.9039V31.8239C59.9774 31.4159 59.8414 31.1439 59.2974 31.1439ZM59.2974 38.8959H54.4014C53.9934 38.8959 53.7214 39.0319 53.7214 39.5759V43.6559C53.7214 44.0639 53.8574 44.3359 54.4014 44.3359H59.2974C59.8414 44.3359 59.9774 44.0639 59.9774 43.6559V39.5759C59.9774 39.0319 59.8414 38.7599 59.2974 38.8959ZM59.2974 38.8959H54.4014C53.9934 38.8959 53.7214 39.0319 53.7214 39.5759V43.6559C53.7214 44.0639 53.8574 44.3359 54.4014 44.3359H59.2974C59.8414 44.3359 59.9774 44.0639 59.9774 43.6559V39.5759C59.9774 39.0319 59.8414 38.7599 59.2974 38.8959ZM59.2974 31.1439H54.4014C53.9934 31.1439 53.7214 31.2799 53.7214 31.8239V35.9039C53.7214 36.4479 53.8574 36.5839 54.4014 36.5839H59.2974C59.8414 36.5839 59.9774 36.4479 59.9774 35.9039V31.8239C59.9774 31.4159 59.8414 31.1439 59.2974 31.1439ZM50.8654 46.784H45.8334C45.4254 46.784 45.2894 46.9199 45.2894 47.3279V51.408C45.2894 51.8159 45.4254 52.0879 45.9694 52.0879H50.8654C51.4094 52.0879 51.5454 51.8159 51.5454 51.408V47.464C51.5454 46.92 51.4094 46.784 50.8654 46.784ZM50.8654 38.8959H45.9694C45.5614 38.8959 45.2894 39.0319 45.2894 39.5759V43.6559C45.2894 44.0639 45.5614 44.3359 45.9694 44.3359H50.8654C51.2734 44.3359 51.5454 44.1999 51.5454 43.6559V39.5759C51.5454 39.1679 51.4094 38.8959 50.8654 38.8959ZM51.0014 31.1439H45.8334C45.4254 31.1439 45.2894 31.2799 45.2894 31.6879V35.9039C45.2894 36.3119 45.5614 36.448 45.9694 36.448H51.0014C51.4094 36.448 51.5454 36.3119 51.5454 35.9039V31.6879C51.5454 31.2799 51.4094 31.1439 51.0014 31.1439ZM40.8014 30.5999H36.0414C35.6334 30.5999 35.4974 30.7359 35.4974 31.1439V35.9039C35.4974 36.3119 35.6334 36.448 36.0414 36.448H40.6654C41.0734 36.448 41.3454 36.3119 41.3454 35.9039V31.1439C41.3454 30.7359 41.2094 30.5999 40.8014 30.5999ZM40.8014 22.9839H36.0414C35.6334 22.9839 35.4974 23.1199 35.4974 23.5279V28.2879C35.3614 28.5599 35.4974 28.6959 35.7694 28.8319C35.7694 28.8319 35.9054 28.8319 36.0414 28.8319H40.8014C41.2094 28.8319 41.3454 28.6959 41.3454 28.2879V23.5279C41.3454 23.1199 41.2094 22.9839 40.8014 22.9839ZM32.0974 22.9839H27.4734C27.0654 22.9839 26.9294 23.1199 26.9294 23.5279V28.1519C26.9294 28.5599 27.2014 28.8319 27.6094 28.8319H32.2334C32.6414 28.8319 32.9134 28.6959 32.9134 28.1519V23.5279C32.7774 23.1199 32.5054 22.9839 32.0974 22.9839ZM32.2334 30.5999H27.4734C27.0654 30.5999 26.9294 30.7359 26.9294 31.1439V35.9039C26.9294 36.3119 27.0654 36.448 27.4734 36.448H32.2334C32.6414 36.448 32.7774 36.3119 32.7774 35.9039V31.1439C32.7774 30.7359 32.6414 30.5999 32.2334 30.5999ZM32.2334 30.5999H27.4734C27.0654 30.5999 26.9294 30.7359 26.9294 31.1439V35.9039C26.9294 36.3119 27.0654 36.448 27.4734 36.448H32.2334C32.6414 36.448 32.7774 36.3119 32.7774 35.9039V31.1439C32.7774 30.7359 32.6414 30.5999 32.2334 30.5999ZM32.0974 22.9839H27.4734C27.0654 22.9839 26.9294 23.1199 26.9294 23.5279V28.1519C26.9294 28.5599 27.2014 28.8319 27.6094 28.8319H32.2334C32.6414 28.8319 32.9134 28.6959 32.9134 28.1519V23.5279C32.7774 23.1199 32.5054 22.9839 32.0974 22.9839ZM40.8014 22.9839H36.0414C35.6334 22.9839 35.4974 23.1199 35.4974 23.5279V28.2879C35.3614 28.5599 35.4974 28.6959 35.7694 28.8319C35.7694 28.8319 35.9054 28.8319 36.0414 28.8319H40.8014C41.2094 28.8319 41.3454 28.6959 41.3454 28.2879V23.5279C41.3454 23.1199 41.2094 22.9839 40.8014 22.9839ZM40.8014 30.5999H36.0414C35.6334 30.5999 35.4974 30.7359 35.4974 31.1439V35.9039C35.4974 36.3119 35.6334 36.448 36.0414 36.448H40.6654C41.0734 36.448 41.3454 36.3119 41.3454 35.9039V31.1439C41.3454 30.7359 41.2094 30.5999 40.8014 30.5999ZM51.0014 31.1439H45.8334C45.4254 31.1439 45.2894 31.2799 45.2894 31.6879V35.9039C45.2894 36.3119 45.5614 36.448 45.9694 36.448H51.0014C51.4094 36.448 51.5454 36.3119 51.5454 35.9039V31.6879C51.5454 31.2799 51.4094 31.1439 51.0014 31.1439ZM50.8654 38.8959H45.9694C45.5614 38.8959 45.2894 39.0319 45.2894 39.5759V43.6559C45.2894 44.0639 45.5614 44.3359 45.9694 44.3359H50.8654C51.2734 44.3359 51.5454 44.1999 51.5454 43.6559V39.5759C51.5454 39.1679 51.4094 38.8959 50.8654 38.8959ZM50.8654 46.784H45.8334C45.4254 46.784 45.2894 46.9199 45.2894 47.3279V51.408C45.2894 51.8159 45.4254 52.0879 45.9694 52.0879H50.8654C51.4094 52.0879 51.5454 51.8159 51.5454 51.408V47.464C51.5454 46.92 51.4094 46.784 50.8654 46.784ZM59.2974 31.1439H54.4014C53.9934 31.1439 53.7214 31.2799 53.7214 31.8239V35.9039C53.7214 36.4479 53.8574 36.5839 54.4014 36.5839H59.2974C59.8414 36.5839 59.9774 36.4479 59.9774 35.9039V31.8239C59.9774 31.4159 59.8414 31.1439 59.2974 31.1439ZM59.2974 38.8959H54.4014C53.9934 38.8959 53.7214 39.0319 53.7214 39.5759V43.6559C53.7214 44.0639 53.8574 44.3359 54.4014 44.3359H59.2974C59.8414 44.3359 59.9774 44.0639 59.9774 43.6559V39.5759C59.9774 39.0319 59.8414 38.7599 59.2974 38.8959ZM59.2974 38.8959H54.4014C53.9934 38.8959 53.7214 39.0319 53.7214 39.5759V43.6559C53.7214 44.0639 53.8574 44.3359 54.4014 44.3359H59.2974C59.8414 44.3359 59.9774 44.0639 59.9774 43.6559V39.5759C59.9774 39.0319 59.8414 38.7599 59.2974 38.8959ZM59.2974 31.1439H54.4014C53.9934 31.1439 53.7214 31.2799 53.7214 31.8239V35.9039C53.7214 36.4479 53.8574 36.5839 54.4014 36.5839H59.2974C59.8414 36.5839 59.9774 36.4479 59.9774 35.9039V31.8239C59.9774 31.4159 59.8414 31.1439 59.2974 31.1439ZM50.8654 46.784H45.8334C45.4254 46.784 45.2894 46.9199 45.2894 47.3279V51.408C45.2894 51.8159 45.4254 52.0879 45.9694 52.0879H50.8654C51.4094 52.0879 51.5454 51.8159 51.5454 51.408V47.464C51.5454 46.92 51.4094 46.784 50.8654 46.784ZM50.8654 38.8959H45.9694C45.5614 38.8959 45.2894 39.0319 45.2894 39.5759V43.6559C45.2894 44.0639 45.5614 44.3359 45.9694 44.3359H50.8654C51.2734 44.3359 51.5454 44.1999 51.5454 43.6559V39.5759C51.5454 39.1679 51.4094 38.8959 50.8654 38.8959ZM51.0014 31.1439H45.8334C45.4254 31.1439 45.2894 31.2799 45.2894 31.6879V35.9039C45.2894 36.3119 45.5614 36.448 45.9694 36.448H51.0014C51.4094 36.448 51.5454 36.3119 51.5454 35.9039V31.6879C51.5454 31.2799 51.4094 31.1439 51.0014 31.1439ZM40.8014 30.5999H36.0414C35.6334 30.5999 35.4974 30.7359 35.4974 31.1439V35.9039C35.4974 36.3119 35.6334 36.448 36.0414 36.448H40.6654C41.0734 36.448 41.3454 36.3119 41.3454 35.9039V31.1439C41.3454 30.7359 41.2094 30.5999 40.8014 30.5999ZM40.8014 22.9839H36.0414C35.6334 22.9839 35.4974 23.1199 35.4974 23.5279V28.2879C35.3614 28.5599 35.4974 28.6959 35.7694 28.8319C35.7694 28.8319 35.9054 28.8319 36.0414 28.8319H40.8014C41.2094 28.8319 41.3454 28.6959 41.3454 28.2879V23.5279C41.3454 23.1199 41.2094 22.9839 40.8014 22.9839ZM32.0974 22.9839H27.4734C27.0654 22.9839 26.9294 23.1199 26.9294 23.5279V28.1519C26.9294 28.5599 27.2014 28.8319 27.6094 28.8319H32.2334C32.6414 28.8319 32.9134 28.6959 32.9134 28.1519V23.5279C32.7774 23.1199 32.5054 22.9839 32.0974 22.9839ZM32.2334 30.5999H27.4734C27.0654 30.5999 26.9294 30.7359 26.9294 31.1439V35.9039C26.9294 36.3119 27.0654 36.448 27.4734 36.448H32.2334C32.6414 36.448 32.7774 36.3119 32.7774 35.9039V31.1439C32.7774 30.7359 32.6414 30.5999 32.2334 30.5999ZM61.7454 28.5599H44.4734C44.0654 28.5599 43.7934 28.4239 43.7934 28.0159V13.4639C43.7934 12.6479 43.7934 12.6479 42.9774 12.6479H25.0254C24.2094 12.6479 24.2094 12.6479 24.2094 13.4639V27.8799C24.2094 28.4239 24.0734 28.5599 23.5294 28.5599H6.25741C5.98541 28.5599 5.71341 28.5599 5.44141 28.8319V55.216C5.71341 55.4879 5.98541 55.4879 6.25741 55.4879H61.7454C62.5614 55.4879 62.5614 55.488 62.5614 54.672V29.5119C62.5614 28.5599 62.5614 28.5599 61.7454 28.5599ZM24.2094 53.8559C24.2094 54.3999 24.0734 54.4 23.6654 54.4H6.93741C6.52941 54.4 6.39341 54.264 6.39341 53.8559V29.9199C6.39341 29.5119 6.52941 29.3759 6.93741 29.3759H23.6654C24.2094 29.3759 24.2094 29.5119 24.2094 29.9199V53.8559ZM42.9774 53.992C42.9774 54.264 42.9774 54.5359 42.5694 54.5359H38.7614C38.3534 54.5359 38.3534 54.3999 38.3534 54.1279V49.0959C38.3534 47.4639 37.4014 46.104 35.9054 45.424C34.4094 44.744 32.9134 44.88 31.4174 45.832C30.3294 46.512 29.7854 47.5999 29.7854 48.9599V54.1279C29.7854 54.5359 29.6494 54.672 29.2414 54.672H25.5694C25.1614 54.672 25.1614 54.5359 25.1614 54.1279V42.7039C25.1614 42.2959 25.2974 42.2959 25.5694 42.2959H42.4334C42.8414 42.2959 42.9774 42.4319 42.9774 42.84V53.992ZM42.9774 37.9439C42.9774 38.3519 42.8414 38.4879 42.4334 38.4879H25.5694C25.1614 38.4879 25.0254 38.3519 25.0254 37.9439V14.0079C25.0254 13.5999 25.1614 13.4639 25.5694 13.4639H42.4334C42.8414 13.4639 42.9774 13.5999 42.9774 14.0079V37.9439ZM61.7454 53.992C61.7454 54.4 61.4734 54.4 61.2014 54.4H44.4734C43.9294 54.4 43.9294 54.264 43.9294 53.8559V29.9199C43.9294 29.5119 43.9294 29.3759 44.4734 29.3759H61.2014C61.6094 29.3759 61.7454 29.5119 61.7454 29.9199V53.992ZM59.2974 38.8959H54.4014C53.9934 38.8959 53.7214 39.0319 53.7214 39.5759V43.6559C53.7214 44.0639 53.8574 44.3359 54.4014 44.3359H59.2974C59.8414 44.3359 59.9774 44.0639 59.9774 43.6559V39.5759C59.9774 39.0319 59.8414 38.7599 59.2974 38.8959ZM59.2974 31.1439H54.4014C53.9934 31.1439 53.7214 31.2799 53.7214 31.8239V35.9039C53.7214 36.4479 53.8574 36.5839 54.4014 36.5839H59.2974C59.8414 36.5839 59.9774 36.4479 59.9774 35.9039V31.8239C59.9774 31.4159 59.8414 31.1439 59.2974 31.1439ZM50.8654 46.784H45.8334C45.4254 46.784 45.2894 46.9199 45.2894 47.3279V51.408C45.2894 51.8159 45.4254 52.0879 45.9694 52.0879H50.8654C51.4094 52.0879 51.5454 51.8159 51.5454 51.408V47.464C51.5454 46.92 51.4094 46.784 50.8654 46.784ZM50.8654 38.8959H45.9694C45.5614 38.8959 45.2894 39.0319 45.2894 39.5759V43.6559C45.2894 44.0639 45.5614 44.3359 45.9694 44.3359H50.8654C51.2734 44.3359 51.5454 44.1999 51.5454 43.6559V39.5759C51.5454 39.1679 51.4094 38.8959 50.8654 38.8959ZM51.0014 31.1439H45.8334C45.4254 31.1439 45.2894 31.2799 45.2894 31.6879V35.9039C45.2894 36.3119 45.5614 36.448 45.9694 36.448H51.0014C51.4094 36.448 51.5454 36.3119 51.5454 35.9039V31.6879C51.5454 31.2799 51.4094 31.1439 51.0014 31.1439ZM40.8014 30.5999H36.0414C35.6334 30.5999 35.4974 30.7359 35.4974 31.1439V35.9039C35.4974 36.3119 35.6334 36.448 36.0414 36.448H40.6654C41.0734 36.448 41.3454 36.3119 41.3454 35.9039V31.1439C41.3454 30.7359 41.2094 30.5999 40.8014 30.5999ZM40.8014 22.9839H36.0414C35.6334 22.9839 35.4974 23.1199 35.4974 23.5279V28.2879C35.3614 28.5599 35.4974 28.6959 35.7694 28.8319C35.7694 28.8319 35.9054 28.8319 36.0414 28.8319H40.8014C41.2094 28.8319 41.3454 28.6959 41.3454 28.2879V23.5279C41.3454 23.1199 41.2094 22.9839 40.8014 22.9839ZM32.0974 22.9839H27.4734C27.0654 22.9839 26.9294 23.1199 26.9294 23.5279V28.1519C26.9294 28.5599 27.2014 28.8319 27.6094 28.8319H32.2334C32.6414 28.8319 32.9134 28.6959 32.9134 28.1519V23.5279C32.7774 23.1199 32.5054 22.9839 32.0974 22.9839ZM32.2334 30.5999H27.4734C27.0654 30.5999 26.9294 30.7359 26.9294 31.1439V35.9039C26.9294 36.3119 27.0654 36.448 27.4734 36.448H32.2334C32.6414 36.448 32.7774 36.3119 32.7774 35.9039V31.1439C32.7774 30.7359 32.6414 30.5999 32.2334 30.5999ZM32.2334 30.5999H27.4734C27.0654 30.5999 26.9294 30.7359 26.9294 31.1439V35.9039C26.9294 36.3119 27.0654 36.448 27.4734 36.448H32.2334C32.6414 36.448 32.7774 36.3119 32.7774 35.9039V31.1439C32.7774 30.7359 32.6414 30.5999 32.2334 30.5999ZM32.0974 22.9839H27.4734C27.0654 22.9839 26.9294 23.1199 26.9294 23.5279V28.1519C26.9294 28.5599 27.2014 28.8319 27.6094 28.8319H32.2334C32.6414 28.8319 32.9134 28.6959 32.9134 28.1519V23.5279C32.7774 23.1199 32.5054 22.9839 32.0974 22.9839ZM40.8014 22.9839H36.0414C35.6334 22.9839 35.4974 23.1199 35.4974 23.5279V28.2879C35.3614 28.5599 35.4974 28.6959 35.7694 28.8319C35.7694 28.8319 35.9054 28.8319 36.0414 28.8319H40.8014C41.2094 28.8319 41.3454 28.6959 41.3454 28.2879V23.5279C41.3454 23.1199 41.2094 22.9839 40.8014 22.9839ZM40.8014 30.5999H36.0414C35.6334 30.5999 35.4974 30.7359 35.4974 31.1439V35.9039C35.4974 36.3119 35.6334 36.448 36.0414 36.448H40.6654C41.0734 36.448 41.3454 36.3119 41.3454 35.9039V31.1439C41.3454 30.7359 41.2094 30.5999 40.8014 30.5999ZM51.0014 31.1439H45.8334C45.4254 31.1439 45.2894 31.2799 45.2894 31.6879V35.9039C45.2894 36.3119 45.5614 36.448 45.9694 36.448H51.0014C51.4094 36.448 51.5454 36.3119 51.5454 35.9039V31.6879C51.5454 31.2799 51.4094 31.1439 51.0014 31.1439ZM50.8654 38.8959H45.9694C45.5614 38.8959 45.2894 39.0319 45.2894 39.5759V43.6559C45.2894 44.0639 45.5614 44.3359 45.9694 44.3359H50.8654C51.2734 44.3359 51.5454 44.1999 51.5454 43.6559V39.5759C51.5454 39.1679 51.4094 38.8959 50.8654 38.8959ZM50.8654 46.784H45.8334C45.4254 46.784 45.2894 46.9199 45.2894 47.3279V51.408C45.2894 51.8159 45.4254 52.0879 45.9694 52.0879H50.8654C51.4094 52.0879 51.5454 51.8159 51.5454 51.408V47.464C51.5454 46.92 51.4094 46.784 50.8654 46.784ZM59.2974 31.1439H54.4014C53.9934 31.1439 53.7214 31.2799 53.7214 31.8239V35.9039C53.7214 36.4479 53.8574 36.5839 54.4014 36.5839H59.2974C59.8414 36.5839 59.9774 36.4479 59.9774 35.9039V31.8239C59.9774 31.4159 59.8414 31.1439 59.2974 31.1439ZM59.2974 38.8959H54.4014C53.9934 38.8959 53.7214 39.0319 53.7214 39.5759V43.6559C53.7214 44.0639 53.8574 44.3359 54.4014 44.3359H59.2974C59.8414 44.3359 59.9774 44.0639 59.9774 43.6559V39.5759C59.9774 39.0319 59.8414 38.7599 59.2974 38.8959ZM59.2974 38.8959H54.4014C53.9934 38.8959 53.7214 39.0319 53.7214 39.5759V43.6559C53.7214 44.0639 53.8574 44.3359 54.4014 44.3359H59.2974C59.8414 44.3359 59.9774 44.0639 59.9774 43.6559V39.5759C59.9774 39.0319 59.8414 38.7599 59.2974 38.8959ZM59.2974 31.1439H54.4014C53.9934 31.1439 53.7214 31.2799 53.7214 31.8239V35.9039C53.7214 36.4479 53.8574 36.5839 54.4014 36.5839H59.2974C59.8414 36.5839 59.9774 36.4479 59.9774 35.9039V31.8239C59.9774 31.4159 59.8414 31.1439 59.2974 31.1439ZM50.8654 46.784H45.8334C45.4254 46.784 45.2894 46.9199 45.2894 47.3279V51.408C45.2894 51.8159 45.4254 52.0879 45.9694 52.0879H50.8654C51.4094 52.0879 51.5454 51.8159 51.5454 51.408V47.464C51.5454 46.92 51.4094 46.784 50.8654 46.784ZM50.8654 38.8959H45.9694C45.5614 38.8959 45.2894 39.0319 45.2894 39.5759V43.6559C45.2894 44.0639 45.5614 44.3359 45.9694 44.3359H50.8654C51.2734 44.3359 51.5454 44.1999 51.5454 43.6559V39.5759C51.5454 39.1679 51.4094 38.8959 50.8654 38.8959ZM51.0014 31.1439H45.8334C45.4254 31.1439 45.2894 31.2799 45.2894 31.6879V35.9039C45.2894 36.3119 45.5614 36.448 45.9694 36.448H51.0014C51.4094 36.448 51.5454 36.3119 51.5454 35.9039V31.6879C51.5454 31.2799 51.4094 31.1439 51.0014 31.1439ZM40.8014 30.5999H36.0414C35.6334 30.5999 35.4974 30.7359 35.4974 31.1439V35.9039C35.4974 36.3119 35.6334 36.448 36.0414 36.448H40.6654C41.0734 36.448 41.3454 36.3119 41.3454 35.9039V31.1439C41.3454 30.7359 41.2094 30.5999 40.8014 30.5999ZM40.8014 22.9839H36.0414C35.6334 22.9839 35.4974 23.1199 35.4974 23.5279V28.2879C35.3614 28.5599 35.4974 28.6959 35.7694 28.8319C35.7694 28.8319 35.9054 28.8319 36.0414 28.8319H40.8014C41.2094 28.8319 41.3454 28.6959 41.3454 28.2879V23.5279C41.3454 23.1199 41.2094 22.9839 40.8014 22.9839ZM32.0974 22.9839H27.4734C27.0654 22.9839 26.9294 23.1199 26.9294 23.5279V28.1519C26.9294 28.5599 27.2014 28.8319 27.6094 28.8319H32.2334C32.6414 28.8319 32.9134 28.6959 32.9134 28.1519V23.5279C32.7774 23.1199 32.5054 22.9839 32.0974 22.9839ZM32.2334 30.5999H27.4734C27.0654 30.5999 26.9294 30.7359 26.9294 31.1439V35.9039C26.9294 36.3119 27.0654 36.448 27.4734 36.448H32.2334C32.6414 36.448 32.7774 36.3119 32.7774 35.9039V31.1439C32.7774 30.7359 32.6414 30.5999 32.2334 30.5999ZM32.2334 30.5999H27.4734C27.0654 30.5999 26.9294 30.7359 26.9294 31.1439V35.9039C26.9294 36.3119 27.0654 36.448 27.4734 36.448H32.2334C32.6414 36.448 32.7774 36.3119 32.7774 35.9039V31.1439C32.7774 30.7359 32.6414 30.5999 32.2334 30.5999ZM32.0974 22.9839H27.4734C27.0654 22.9839 26.9294 23.1199 26.9294 23.5279V28.1519C26.9294 28.5599 27.2014 28.8319 27.6094 28.8319H32.2334C32.6414 28.8319 32.9134 28.6959 32.9134 28.1519V23.5279C32.7774 23.1199 32.5054 22.9839 32.0974 22.9839ZM40.8014 22.9839H36.0414C35.6334 22.9839 35.4974 23.1199 35.4974 23.5279V28.2879C35.3614 28.5599 35.4974 28.6959 35.7694 28.8319C35.7694 28.8319 35.9054 28.8319 36.0414 28.8319H40.8014C41.2094 28.8319 41.3454 28.6959 41.3454 28.2879V23.5279C41.3454 23.1199 41.2094 22.9839 40.8014 22.9839ZM40.8014 30.5999H36.0414C35.6334 30.5999 35.4974 30.7359 35.4974 31.1439V35.9039C35.4974 36.3119 35.6334 36.448 36.0414 36.448H40.6654C41.0734 36.448 41.3454 36.3119 41.3454 35.9039V31.1439C41.3454 30.7359 41.2094 30.5999 40.8014 30.5999ZM51.0014 31.1439H45.8334C45.4254 31.1439 45.2894 31.2799 45.2894 31.6879V35.9039C45.2894 36.3119 45.5614 36.448 45.9694 36.448H51.0014C51.4094 36.448 51.5454 36.3119 51.5454 35.9039V31.6879C51.5454 31.2799 51.4094 31.1439 51.0014 31.1439ZM50.8654 38.8959H45.9694C45.5614 38.8959 45.2894 39.0319 45.2894 39.5759V43.6559C45.2894 44.0639 45.5614 44.3359 45.9694 44.3359H50.8654C51.2734 44.3359 51.5454 44.1999 51.5454 43.6559V39.5759C51.5454 39.1679 51.4094 38.8959 50.8654 38.8959ZM50.8654 46.784H45.8334C45.4254 46.784 45.2894 46.9199 45.2894 47.3279V51.408C45.2894 51.8159 45.4254 52.0879 45.9694 52.0879H50.8654C51.4094 52.0879 51.5454 51.8159 51.5454 51.408V47.464C51.5454 46.92 51.4094 46.784 50.8654 46.784ZM59.2974 31.1439H54.4014C53.9934 31.1439 53.7214 31.2799 53.7214 31.8239V35.9039C53.7214 36.4479 53.8574 36.5839 54.4014 36.5839H59.2974C59.8414 36.5839 59.9774 36.4479 59.9774 35.9039V31.8239C59.9774 31.4159 59.8414 31.1439 59.2974 31.1439ZM59.2974 38.8959H54.4014C53.9934 38.8959 53.7214 39.0319 53.7214 39.5759V43.6559C53.7214 44.0639 53.8574 44.3359 54.4014 44.3359H59.2974C59.8414 44.3359 59.9774 44.0639 59.9774 43.6559V39.5759C59.9774 39.0319 59.8414 38.7599 59.2974 38.8959ZM59.2974 38.8959H54.4014C53.9934 38.8959 53.7214 39.0319 53.7214 39.5759V43.6559C53.7214 44.0639 53.8574 44.3359 54.4014 44.3359H59.2974C59.8414 44.3359 59.9774 44.0639 59.9774 43.6559V39.5759C59.9774 39.0319 59.8414 38.7599 59.2974 38.8959ZM59.2974 31.1439H54.4014C53.9934 31.1439 53.7214 31.2799 53.7214 31.8239V35.9039C53.7214 36.4479 53.8574 36.5839 54.4014 36.5839H59.2974C59.8414 36.5839 59.9774 36.4479 59.9774 35.9039V31.8239C59.9774 31.4159 59.8414 31.1439 59.2974 31.1439ZM50.8654 46.784H45.8334C45.4254 46.784 45.2894 46.9199 45.2894 47.3279V51.408C45.2894 51.8159 45.4254 52.0879 45.9694 52.0879H50.8654C51.4094 52.0879 51.5454 51.8159 51.5454 51.408V47.464C51.5454 46.92 51.4094 46.784 50.8654 46.784ZM50.8654 38.8959H45.9694C45.5614 38.8959 45.2894 39.0319 45.2894 39.5759V43.6559C45.2894 44.0639 45.5614 44.3359 45.9694 44.3359H50.8654C51.2734 44.3359 51.5454 44.1999 51.5454 43.6559V39.5759C51.5454 39.1679 51.4094 38.8959 50.8654 38.8959ZM51.0014 31.1439H45.8334C45.4254 31.1439 45.2894 31.2799 45.2894 31.6879V35.9039C45.2894 36.3119 45.5614 36.448 45.9694 36.448H51.0014C51.4094 36.448 51.5454 36.3119 51.5454 35.9039V31.6879C51.5454 31.2799 51.4094 31.1439 51.0014 31.1439ZM40.8014 30.5999H36.0414C35.6334 30.5999 35.4974 30.7359 35.4974 31.1439V35.9039C35.4974 36.3119 35.6334 36.448 36.0414 36.448H40.6654C41.0734 36.448 41.3454 36.3119 41.3454 35.9039V31.1439C41.3454 30.7359 41.2094 30.5999 40.8014 30.5999ZM40.8014 22.9839H36.0414C35.6334 22.9839 35.4974 23.1199 35.4974 23.5279V28.2879C35.3614 28.5599 35.4974 28.6959 35.7694 28.8319C35.7694 28.8319 35.9054 28.8319 36.0414 28.8319H40.8014C41.2094 28.8319 41.3454 28.6959 41.3454 28.2879V23.5279C41.3454 23.1199 41.2094 22.9839 40.8014 22.9839ZM32.0974 22.9839H27.4734C27.0654 22.9839 26.9294 23.1199 26.9294 23.5279V28.1519C26.9294 28.5599 27.2014 28.8319 27.6094 28.8319H32.2334C32.6414 28.8319 32.9134 28.6959 32.9134 28.1519V23.5279C32.7774 23.1199 32.5054 22.9839 32.0974 22.9839ZM32.2334 30.5999H27.4734C27.0654 30.5999 26.9294 30.7359 26.9294 31.1439V35.9039C26.9294 36.3119 27.0654 36.448 27.4734 36.448H32.2334C32.6414 36.448 32.7774 36.3119 32.7774 35.9039V31.1439C32.7774 30.7359 32.6414 30.5999 32.2334 30.5999ZM32.2334 30.5999H27.4734C27.0654 30.5999 26.9294 30.7359 26.9294 31.1439V35.9039C26.9294 36.3119 27.0654 36.448 27.4734 36.448H32.2334C32.6414 36.448 32.7774 36.3119 32.7774 35.9039V31.1439C32.7774 30.7359 32.6414 30.5999 32.2334 30.5999ZM32.0974 22.9839H27.4734C27.0654 22.9839 26.9294 23.1199 26.9294 23.5279V28.1519C26.9294 28.5599 27.2014 28.8319 27.6094 28.8319H32.2334C32.6414 28.8319 32.9134 28.6959 32.9134 28.1519V23.5279C32.7774 23.1199 32.5054 22.9839 32.0974 22.9839ZM40.8014 22.9839H36.0414C35.6334 22.9839 35.4974 23.1199 35.4974 23.5279V28.2879C35.3614 28.5599 35.4974 28.6959 35.7694 28.8319C35.7694 28.8319 35.9054 28.8319 36.0414 28.8319H40.8014C41.2094 28.8319 41.3454 28.6959 41.3454 28.2879V23.5279C41.3454 23.1199 41.2094 22.9839 40.8014 22.9839ZM40.8014 30.5999H36.0414C35.6334 30.5999 35.4974 30.7359 35.4974 31.1439V35.9039C35.4974 36.3119 35.6334 36.448 36.0414 36.448H40.6654C41.0734 36.448 41.3454 36.3119 41.3454 35.9039V31.1439C41.3454 30.7359 41.2094 30.5999 40.8014 30.5999ZM51.0014 31.1439H45.8334C45.4254 31.1439 45.2894 31.2799 45.2894 31.6879V35.9039C45.2894 36.3119 45.5614 36.448 45.9694 36.448H51.0014C51.4094 36.448 51.5454 36.3119 51.5454 35.9039V31.6879C51.5454 31.2799 51.4094 31.1439 51.0014 31.1439ZM50.8654 38.8959H45.9694C45.5614 38.8959 45.2894 39.0319 45.2894 39.5759V43.6559C45.2894 44.0639 45.5614 44.3359 45.9694 44.3359H50.8654C51.2734 44.3359 51.5454 44.1999 51.5454 43.6559V39.5759C51.5454 39.1679 51.4094 38.8959 50.8654 38.8959ZM50.8654 46.784H45.8334C45.4254 46.784 45.2894 46.9199 45.2894 47.3279V51.408C45.2894 51.8159 45.4254 52.0879 45.9694 52.0879H50.8654C51.4094 52.0879 51.5454 51.8159 51.5454 51.408V47.464C51.5454 46.92 51.4094 46.784 50.8654 46.784ZM59.2974 31.1439H54.4014C53.9934 31.1439 53.7214 31.2799 53.7214 31.8239V35.9039C53.7214 36.4479 53.8574 36.5839 54.4014 36.5839H59.2974C59.8414 36.5839 59.9774 36.4479 59.9774 35.9039V31.8239C59.9774 31.4159 59.8414 31.1439 59.2974 31.1439ZM59.2974 38.8959H54.4014C53.9934 38.8959 53.7214 39.0319 53.7214 39.5759V43.6559C53.7214 44.0639 53.8574 44.3359 54.4014 44.3359H59.2974C59.8414 44.3359 59.9774 44.0639 59.9774 43.6559V39.5759C59.9774 39.0319 59.8414 38.7599 59.2974 38.8959ZM59.2974 31.1439H54.4014C53.9934 31.1439 53.7214 31.2799 53.7214 31.8239V35.9039C53.7214 36.4479 53.8574 36.5839 54.4014 36.5839H59.2974C59.8414 36.5839 59.9774 36.4479 59.9774 35.9039V31.8239C59.9774 31.4159 59.8414 31.1439 59.2974 31.1439ZM59.2974 38.8959H54.4014C53.9934 38.8959 53.7214 39.0319 53.7214 39.5759V43.6559C53.7214 44.0639 53.8574 44.3359 54.4014 44.3359H59.2974C59.8414 44.3359 59.9774 44.0639 59.9774 43.6559V39.5759C59.9774 39.0319 59.8414 38.7599 59.2974 38.8959ZM50.8654 46.784H45.8334C45.4254 46.784 45.2894 46.9199 45.2894 47.3279V51.408C45.2894 51.8159 45.4254 52.0879 45.9694 52.0879H50.8654C51.4094 52.0879 51.5454 51.8159 51.5454 51.408V47.464C51.5454 46.92 51.4094 46.784 50.8654 46.784ZM50.8654 38.8959H45.9694C45.5614 38.8959 45.2894 39.0319 45.2894 39.5759V43.6559C45.2894 44.0639 45.5614 44.3359 45.9694 44.3359H50.8654C51.2734 44.3359 51.5454 44.1999 51.5454 43.6559V39.5759C51.5454 39.1679 51.4094 38.8959 50.8654 38.8959ZM51.0014 31.1439H45.8334C45.4254 31.1439 45.2894 31.2799 45.2894 31.6879V35.9039C45.2894 36.3119 45.5614 36.448 45.9694 36.448H51.0014C51.4094 36.448 51.5454 36.3119 51.5454 35.9039V31.6879C51.5454 31.2799 51.4094 31.1439 51.0014 31.1439ZM40.8014 30.5999H36.0414C35.6334 30.5999 35.4974 30.7359 35.4974 31.1439V35.9039C35.4974 36.3119 35.6334 36.448 36.0414 36.448H40.6654C41.0734 36.448 41.3454 36.3119 41.3454 35.9039V31.1439C41.3454 30.7359 41.2094 30.5999 40.8014 30.5999ZM40.8014 22.9839H36.0414C35.6334 22.9839 35.4974 23.1199 35.4974 23.5279V28.2879C35.3614 28.5599 35.4974 28.6959 35.7694 28.8319C35.7694 28.8319 35.9054 28.8319 36.0414 28.8319H40.8014C41.2094 28.8319 41.3454 28.6959 41.3454 28.2879V23.5279C41.3454 23.1199 41.2094 22.9839 40.8014 22.9839ZM32.2334 30.5999H27.4734C27.0654 30.5999 26.9294 30.7359 26.9294 31.1439V35.9039C26.9294 36.3119 27.0654 36.448 27.4734 36.448H32.2334C32.6414 36.448 32.7774 36.3119 32.7774 35.9039V31.1439C32.7774 30.7359 32.6414 30.5999 32.2334 30.5999ZM32.2334 30.5999H27.4734C27.0654 30.5999 26.9294 30.7359 26.9294 31.1439V35.9039C26.9294 36.3119 27.0654 36.448 27.4734 36.448H32.2334C32.6414 36.448 32.7774 36.3119 32.7774 35.9039V31.1439C32.7774 30.7359 32.6414 30.5999 32.2334 30.5999ZM40.8014 22.9839H36.0414C35.6334 22.9839 35.4974 23.1199 35.4974 23.5279V28.2879C35.4974 28.5599 35.6334 28.6959 35.7694 28.8319C35.7694 28.8319 35.9054 28.8319 36.0414 28.8319H40.8014C41.2094 28.8319 41.3454 28.6959 41.3454 28.2879V23.5279C41.3454 23.1199 41.2094 22.9839 40.8014 22.9839ZM40.8014 30.5999H36.0414C35.6334 30.5999 35.4974 30.7359 35.4974 31.1439V35.9039C35.4974 36.3119 35.6334 36.448 36.0414 36.448H40.6654C41.0734 36.448 41.3454 36.3119 41.3454 35.9039V31.1439C41.3454 30.7359 41.2094 30.5999 40.8014 30.5999ZM40.8014 30.5999H36.0414C35.6334 30.5999 35.4974 30.7359 35.4974 31.1439V35.9039C35.4974 36.3119 35.6334 36.448 36.0414 36.448H40.6654C41.0734 36.448 41.3454 36.3119 41.3454 35.9039V31.1439C41.3454 30.7359 41.2094 30.5999 40.8014 30.5999ZM40.8014 22.9839H36.0414C35.6334 22.9839 35.4974 23.1199 35.4974 23.5279V28.2879C35.4974 28.5599 35.6334 28.6959 35.7694 28.8319C35.7694 28.8319 35.9054 28.8319 36.0414 28.8319H40.8014C41.2094 28.8319 41.3454 28.6959 41.3454 28.2879V23.5279C41.3454 23.1199 41.2094 22.9839 40.8014 22.9839ZM32.2334 30.5999H27.4734C27.0654 30.5999 26.9294 30.7359 26.9294 31.1439V35.9039C26.9294 36.3119 27.0654 36.448 27.4734 36.448H32.2334C32.6414 36.448 32.7774 36.3119 32.7774 35.9039V31.1439C32.7774 30.7359 32.6414 30.5999 32.2334 30.5999ZM41.6174 15.9119V20.3999C41.6174 20.6719 41.6174 20.9439 41.3454 20.9439C41.2094 21.0799 41.0734 21.0799 40.8014 21.0799H36.1774C35.6334 21.0799 35.4974 20.8079 35.4974 20.3999V15.6399C35.4974 15.2319 35.6334 14.9599 36.1774 14.9599H40.8014C41.2094 14.9599 41.4814 15.0959 41.4814 15.2319C41.7534 15.5039 41.6174 15.6399 41.6174 15.9119ZM59.2974 52.0879C57.6654 52.0879 56.0334 52.0879 54.4014 52.0879C53.8574 52.0879 53.7214 51.952 53.7214 51.408C53.7214 50.048 53.7214 48.824 53.7214 47.464C53.7214 46.92 53.9934 46.784 54.4014 46.784C55.2174 46.784 56.0334 46.784 56.8494 46.784C57.6654 46.784 58.4814 46.784 59.2974 46.784C59.7054 46.784 59.9774 46.92 59.9774 47.464C59.9774 48.824 59.9774 50.184 59.9774 51.544C59.9774 51.952 59.7054 52.0879 59.2974 52.0879Z" fill="#361452"/>
<path d="M45.2891 35.904C45.2891 34.544 45.2891 33.184 45.2891 31.688C45.2891 31.28 45.4251 31.144 45.8331 31.144C47.6011 31.144 49.2331 31.144 51.0011 31.144C51.4091 31.144 51.5451 31.28 51.5451 31.688C51.5451 33.048 51.5451 34.544 51.5451 35.904C51.5451 36.312 51.4091 36.448 51.0011 36.448C50.1851 36.448 49.2331 36.448 48.4171 36.448C47.6011 36.448 46.7851 36.448 45.9691 36.448C45.5611 36.448 45.2891 36.312 45.2891 35.904Z" fill="#FEFEFE"/>
<path d="M45.2891 43.656C45.2891 42.296 45.2891 40.936 45.2891 39.576C45.2891 39.168 45.4251 38.896 45.9691 38.896C47.6011 38.896 49.2331 38.896 50.8651 38.896C51.4091 38.896 51.5451 39.168 51.5451 39.576C51.5451 40.936 51.5451 42.296 51.5451 43.656C51.5451 44.064 51.4091 44.336 50.8651 44.336C50.0491 44.336 49.2331 44.336 48.4171 44.336C47.6011 44.336 46.7851 44.336 45.9691 44.336C45.5611 44.336 45.2891 44.064 45.2891 43.656Z" fill="#FEFEFE"/>
<path d="M51.5451 51.4079C51.5451 51.9519 51.4091 52.0879 50.8651 52.0879C49.2331 52.0879 47.6011 52.0879 45.9691 52.0879C45.5611 52.0879 45.2891 51.9519 45.2891 51.4079C45.2891 50.0479 45.2891 48.6879 45.2891 47.3279C45.2891 46.9199 45.4251 46.7839 45.8331 46.7839C46.6491 46.7839 47.6011 46.7839 48.4171 46.7839C49.2331 46.7839 50.0491 46.7839 50.8651 46.7839C51.4091 46.7839 51.5451 47.0559 51.5451 47.4639C51.5451 48.8239 51.5451 50.0479 51.5451 51.4079Z" fill="#FEFEFE"/>
<path d="M59.9787 43.656C59.9787 44.064 59.8427 44.336 59.2987 44.336C57.6667 44.336 56.0347 44.336 54.4027 44.336C53.9947 44.336 53.7227 44.2 53.7227 43.656C53.7227 42.296 53.7227 40.936 53.7227 39.576C53.7227 39.168 53.8587 38.896 54.4027 38.896C55.2187 38.896 56.0347 38.896 56.8507 38.896C57.6667 38.896 58.4827 38.896 59.2987 38.896C59.8427 38.896 59.9787 39.168 59.9787 39.576C59.9787 40.936 59.9787 42.296 59.9787 43.656Z" fill="#FEFEFE"/>
<path d="M53.7227 35.7681C53.7227 34.4081 53.7227 33.0481 53.7227 31.6881C53.7227 31.2801 53.8587 31.0081 54.4027 31.0081C56.0347 31.0081 57.6667 31.0081 59.2987 31.0081C59.7067 31.0081 59.9787 31.1441 59.9787 31.6881C59.9787 33.0481 59.9787 34.4081 59.9787 35.7681C59.9787 36.3121 59.7067 36.4481 59.2987 36.4481C58.4827 36.4481 57.6667 36.4481 56.8507 36.4481C56.0347 36.4481 55.2187 36.4481 54.4027 36.4481C53.8587 36.4481 53.7227 36.3121 53.7227 35.7681Z" fill="#FEFEFE"/>
<path d="M8.16016 51.5439C8.16016 50.1839 8.16016 48.6879 8.16016 47.3279C8.16016 46.9199 8.29616 46.7839 8.70416 46.7839C10.4722 46.7839 12.1042 46.7839 13.8722 46.7839C14.2802 46.7839 14.4162 46.9199 14.4162 47.3279C14.2802 48.6879 14.2802 50.1839 14.2802 51.5439C14.2802 51.9519 14.1442 52.0879 13.7362 52.0879C12.9202 52.0879 11.9682 52.0879 11.1522 52.0879C10.3362 52.0879 9.52016 52.0879 8.70416 52.0879" fill="#FEFEFE"/>
<path d="M14.2814 35.9039C14.2814 36.3119 14.1454 36.5839 13.6014 36.5839C12.7854 36.5839 11.9694 36.5839 11.1534 36.5839C10.3374 36.5839 9.38539 36.5839 8.56939 36.5839C8.16139 36.5839 8.02539 36.4479 8.02539 36.0399C8.02539 34.6799 8.02539 33.3199 8.02539 31.9599C8.02539 31.5519 8.29739 31.2799 8.70539 31.2799C10.3374 31.2799 11.9694 31.2799 13.6014 31.2799C14.0094 31.2799 14.2814 31.4159 14.2814 31.9599C14.2814 33.1839 14.2814 34.5439 14.2814 35.9039Z" fill="#FEFEFE"/>
<path d="M22.713 39.576C22.713 40.936 22.713 42.296 22.713 43.656C22.713 44.064 22.577 44.336 22.033 44.336C20.401 44.336 18.769 44.336 17.137 44.336C16.729 44.336 16.457 44.2 16.457 43.656C16.457 42.296 16.457 40.936 16.457 39.576C16.457 39.168 16.593 38.896 17.137 38.896C17.953 38.896 18.769 38.896 19.585 38.896C20.401 38.896 21.217 38.896 22.033 38.896C22.441 38.896 22.713 39.032 22.713 39.576Z" fill="#FEFEFE"/>
<path d="M22.033 52.0879C20.401 52.0879 18.769 52.0879 17.137 52.0879C16.593 52.0879 16.457 51.9519 16.457 51.4079C16.457 50.0479 16.457 48.8239 16.457 47.4639C16.457 46.9199 16.729 46.7839 17.137 46.7839C17.953 46.7839 18.769 46.7839 19.585 46.7839C20.401 46.7839 21.217 46.7839 22.033 46.7839C22.441 46.7839 22.713 46.9199 22.713 47.4639C22.713 48.8239 22.713 50.1839 22.713 51.5439C22.713 51.9519 22.441 52.0879 22.033 52.0879Z" fill="#FEFEFE"/>
<path d="M32.7777 31.1439C32.7777 32.7759 32.7777 34.2719 32.7777 35.9039C32.7777 36.3119 32.6417 36.4479 32.2337 36.4479C30.6017 36.4479 29.1057 36.4479 27.4737 36.4479C27.0657 36.4479 26.9297 36.3119 26.9297 35.9039C26.9297 35.0879 26.9297 34.2719 26.9297 33.4559C26.9297 32.6399 26.9297 31.9599 26.9297 31.1439C26.9297 30.7359 27.0657 30.5999 27.4737 30.5999C29.1057 30.5999 30.6017 30.5999 32.2337 30.5999C32.6417 30.5999 32.7777 30.7359 32.7777 31.1439Z" fill="#FEFEFE"/>
<path d="M32.777 15.9119C32.777 17.4079 32.777 18.9039 32.777 20.3999C32.777 20.9439 32.641 21.0799 32.097 21.0799C31.281 21.0799 30.601 21.0799 29.785 21.0799C28.969 21.0799 28.289 21.0799 27.473 21.0799C27.065 21.0799 26.793 20.9439 26.793 20.3999C26.793 18.9039 26.793 17.4079 26.793 15.7759C26.793 15.3679 26.929 15.0959 27.473 15.0959C28.969 15.0959 30.601 15.0959 32.097 15.0959C32.641 15.2319 32.777 15.5039 32.777 15.9119Z" fill="#FEFEFE"/>
<path d="M35.4983 28.2879C35.4983 27.4719 35.4983 26.6559 35.4983 25.8399C35.4983 25.0239 35.4983 24.3439 35.4983 23.5279C35.4983 23.1199 35.6343 22.9839 36.0423 22.9839C37.6743 22.9839 39.1703 22.9839 40.8023 22.9839C41.2103 22.9839 41.3463 23.1199 41.3463 23.5279C41.3463 25.1599 41.3463 26.6559 41.3463 28.2879C41.3463 28.6959 41.0743 28.8319 40.8023 28.8319C39.1703 28.8319 37.6743 28.8319 36.0423 28.8319C35.6343 28.8319 35.3623 28.6959 35.4983 28.2879Z" fill="#FEFEFE"/>
<path d="M41.3441 35.9039C41.3441 36.3119 41.0721 36.4479 40.6641 36.4479C39.1681 36.4479 37.5361 36.4479 36.0401 36.4479C35.6321 36.4479 35.4961 36.3119 35.4961 35.9039C35.4961 35.0879 35.4961 34.2719 35.4961 33.4559C35.4961 32.6399 35.4961 31.9599 35.4961 31.1439C35.4961 30.7359 35.6321 30.5999 36.0401 30.5999C37.6721 30.5999 39.1681 30.5999 40.8001 30.5999C41.2081 30.5999 41.3441 30.7359 41.3441 31.1439C41.3441 32.7759 41.3441 34.2719 41.3441 35.9039Z" fill="#FEFEFE"/>
<path d="M34.0024 54.3999C33.0504 54.3999 31.9624 54.3999 31.0104 54.3999C30.7384 54.3999 30.6024 54.3999 30.6024 54.1279C30.6024 52.3599 30.4664 50.4559 30.7384 48.6879C31.0104 46.3759 33.8664 45.0159 35.9064 46.3759C36.9944 47.0559 37.4024 48.1439 37.4024 49.3679C37.4024 50.9999 37.4024 52.4959 37.4024 54.1279C37.4024 54.5359 37.2664 54.5359 36.8584 54.5359C35.9064 54.3999 34.9544 54.3999 34.0024 54.3999Z" fill="white"/>
<path d="M42.8414 41.2079C42.7054 41.3439 42.4334 41.3439 42.2974 41.3439C36.7214 41.3439 31.1454 41.3439 25.5694 41.3439C25.1614 41.3439 25.0254 41.2079 25.0254 40.7999C25.0254 40.3919 25.0254 39.9839 25.0254 39.5759C25.1614 39.4399 25.4334 39.5759 25.5694 39.5759C31.1454 39.5759 36.5854 39.5759 42.1614 39.5759C42.8414 39.5759 42.8414 39.5759 42.8414 40.2559C42.8414 40.3919 42.9774 40.7999 42.8414 41.2079Z" fill="white"/>
<path d="M42.8414 41.208C42.8414 40.8 42.8414 40.392 42.8414 39.984C42.8414 39.576 42.7054 39.576 42.2974 39.576C41.6174 39.576 40.9374 39.576 40.2574 39.576C35.2254 39.576 30.0574 39.576 25.0254 39.576C25.1614 39.304 25.2974 39.44 25.5694 39.44C31.1454 39.44 36.7214 39.44 42.4334 39.44C42.8414 39.44 42.9774 39.576 42.9774 39.984C42.8414 40.256 43.1134 40.664 42.8414 41.208Z" fill="#FEF0DD"/>
<path d="M59.9787 43.656C59.9787 44.064 59.8427 44.336 59.2987 44.336C57.6667 44.336 56.0347 44.336 54.4027 44.336C53.9947 44.336 53.7227 44.2 53.7227 43.656C53.7227 42.296 53.7227 40.936 53.7227 39.576C53.7227 39.168 53.8587 38.896 54.4027 38.896C55.2187 38.896 56.0347 38.896 56.8507 38.896C57.6667 38.896 58.4827 38.896 59.2987 38.896C59.8427 38.896 59.9787 39.168 59.9787 39.576C59.9787 40.936 59.9787 42.296 59.9787 43.656Z" fill="#361452"/>
<path d="M51.5451 43.656C51.5451 44.064 51.4091 44.336 50.8651 44.336C50.0491 44.336 49.2331 44.336 48.4171 44.336C47.6011 44.336 46.7851 44.336 45.9691 44.336C45.4251 44.336 45.2891 44.2 45.2891 43.656C45.2891 42.296 45.2891 40.936 45.2891 39.576C45.2891 39.168 45.4251 38.896 45.9691 38.896C47.6011 38.896 49.2331 38.896 50.8651 38.896C51.4091 38.896 51.5451 39.168 51.5451 39.576C51.5451 40.936 51.5451 42.296 51.5451 43.656Z" fill="#361452"/>
<path d="M59.2987 36.4481C58.4827 36.4481 57.6667 36.4481 56.8507 36.4481C56.0347 36.4481 55.2187 36.4481 54.4027 36.4481C53.8587 36.4481 53.7227 36.3121 53.7227 35.7681C53.7227 34.4081 53.7227 33.0481 53.7227 31.6881C53.7227 31.2801 53.8587 31.0081 54.4027 31.0081C56.0347 31.0081 57.6667 31.0081 59.2987 31.0081C59.7067 31.0081 59.9787 31.1441 59.9787 31.6881C59.9787 33.0481 59.9787 34.4081 59.9787 35.7681C59.9787 36.3121 59.7067 36.4481 59.2987 36.4481Z" fill="#361452"/>
<path d="M51.5458 35.904C51.5458 36.312 51.4098 36.448 51.0018 36.448C50.1858 36.448 49.2338 36.448 48.4178 36.448C47.6018 36.448 46.7858 36.448 45.9698 36.448C45.5618 36.448 45.4258 36.312 45.4258 35.904C45.4258 34.544 45.4258 33.184 45.4258 31.688C45.4258 31.28 45.5618 31.144 45.9698 31.144C47.7378 31.144 49.3698 31.144 51.1378 31.144C51.5458 31.144 51.6818 31.28 51.6818 31.688C51.5458 33.048 51.5458 34.544 51.5458 35.904Z" fill="#361452"/>
<path d="M50.8651 52.0879C49.2331 52.0879 47.6011 52.0879 45.9691 52.0879C45.5611 52.0879 45.2891 51.9519 45.2891 51.4079C45.2891 50.0479 45.2891 48.6879 45.2891 47.3279C45.2891 46.9199 45.4251 46.7839 45.8331 46.7839C46.6491 46.7839 47.6011 46.7839 48.4171 46.7839C49.2331 46.7839 50.0491 46.7839 50.8651 46.7839C51.4091 46.7839 51.5451 47.0559 51.5451 47.4639C51.5451 48.8239 51.5451 50.0479 51.5451 51.4079C51.5451 51.9519 51.4091 52.0879 50.8651 52.0879Z" fill="#361452"/>
<path d="M22.713 43.656C22.713 44.064 22.577 44.336 22.033 44.336C20.401 44.336 18.769 44.336 17.137 44.336C16.729 44.336 16.457 44.2 16.457 43.656C16.457 42.296 16.457 40.936 16.457 39.576C16.457 39.168 16.593 38.896 17.137 38.896C17.953 38.896 18.769 38.896 19.585 38.896C20.401 38.896 21.217 38.896 22.033 38.896C22.577 38.896 22.713 39.032 22.713 39.576C22.713 40.936 22.713 42.296 22.713 43.656Z" fill="#361452"/>
<path d="M14.4162 51.5439C14.4162 51.9519 14.1442 52.0879 13.7362 52.0879C12.9202 52.0879 11.9682 52.0879 11.1522 52.0879C10.3362 52.0879 9.52016 52.0879 8.70416 52.0879C8.29616 52.0879 8.16016 52.0879 8.16016 51.5439C8.16016 50.1839 8.16016 48.6879 8.16016 47.3279C8.16016 46.9199 8.29616 46.7839 8.70416 46.7839C10.4722 46.7839 12.1042 46.7839 13.8722 46.7839C14.2802 46.7839 14.4162 46.9199 14.4162 47.3279C14.4162 48.6879 14.4162 50.1839 14.4162 51.5439Z" fill="#361452"/>
<path d="M14.2814 35.9039C14.2814 36.3119 14.1454 36.5839 13.6014 36.5839C12.7854 36.5839 11.9694 36.5839 11.1534 36.5839C10.3374 36.5839 9.38539 36.5839 8.56939 36.5839C8.16139 36.5839 8.02539 36.4479 8.02539 36.0399C8.02539 34.6799 8.02539 33.3199 8.02539 31.9599C8.02539 31.5519 8.29739 31.2799 8.70539 31.2799C10.3374 31.2799 11.9694 31.2799 13.6014 31.2799C14.0094 31.2799 14.2814 31.4159 14.2814 31.9599C14.2814 33.1839 14.2814 34.5439 14.2814 35.9039Z" fill="#361452"/>
<path d="M22.8497 35.904C22.8497 36.312 22.5778 36.584 22.0338 36.584C21.2178 36.584 20.4017 36.584 19.5857 36.584C18.7697 36.584 17.9538 36.584 17.1378 36.584C16.7298 36.584 16.5938 36.448 16.5938 36.04C16.5938 34.68 16.5938 33.32 16.5938 31.96C16.5938 31.552 16.7297 31.28 17.2738 31.28C18.9058 31.28 20.5377 31.28 22.1697 31.28C22.7137 31.28 22.8497 31.416 22.8497 31.96C22.8497 33.32 22.8497 34.544 22.8497 35.904Z" fill="#361452"/>
<path d="M22.033 52.0879C20.401 52.0879 18.769 52.0879 17.137 52.0879C16.593 52.0879 16.457 51.9519 16.457 51.4079C16.457 50.0479 16.457 48.8239 16.457 47.4639C16.457 46.9199 16.729 46.7839 17.137 46.7839C17.953 46.7839 18.769 46.7839 19.585 46.7839C20.401 46.7839 21.217 46.7839 22.033 46.7839C22.441 46.7839 22.713 46.9199 22.713 47.4639C22.713 48.8239 22.713 50.1839 22.713 51.5439C22.713 51.9519 22.441 52.0879 22.033 52.0879Z" fill="#361452"/>
<path d="M41.3441 28.2879C41.3441 28.6959 41.0721 28.8319 40.8001 28.8319C39.1681 28.8319 37.6721 28.8319 36.0401 28.8319C35.6321 28.8319 35.4961 28.6959 35.4961 28.2879C35.4961 27.4719 35.4961 26.6559 35.4961 25.8399C35.4961 25.0239 35.4961 24.3439 35.4961 23.5279C35.4961 23.1199 35.6321 22.9839 36.0401 22.9839C37.6721 22.9839 39.1681 22.9839 40.8001 22.9839C41.2081 22.9839 41.3441 23.1199 41.3441 23.5279C41.3441 25.0239 41.3441 26.6559 41.3441 28.2879Z" fill="#361552"/>
<path d="M41.3441 35.9039C41.3441 36.3119 41.0721 36.4479 40.6641 36.4479C39.1681 36.4479 37.5361 36.4479 36.0401 36.4479C35.6321 36.4479 35.4961 36.3119 35.4961 35.9039C35.4961 35.0879 35.4961 34.2719 35.4961 33.4559C35.4961 32.6399 35.4961 31.9599 35.4961 31.1439C35.4961 30.7359 35.6321 30.5999 36.0401 30.5999C37.6721 30.5999 39.1681 30.5999 40.8001 30.5999C41.2081 30.5999 41.3441 30.7359 41.3441 31.1439C41.3441 32.7759 41.3441 34.2719 41.3441 35.9039Z" fill="#361452"/>
<path d="M32.7777 35.9039C32.7777 36.3119 32.6417 36.4479 32.2337 36.4479C30.6017 36.4479 29.1057 36.4479 27.4737 36.4479C27.0657 36.4479 26.9297 36.3119 26.9297 35.9039C26.9297 35.0879 26.9297 34.2719 26.9297 33.4559C26.9297 32.6399 26.9297 31.9599 26.9297 31.1439C26.9297 30.7359 27.0657 30.5999 27.4737 30.5999C29.1057 30.5999 30.6017 30.5999 32.2337 30.5999C32.6417 30.5999 32.7777 30.7359 32.7777 31.1439C32.7777 32.7759 32.7777 34.2719 32.7777 35.9039Z" fill="#361452"/>
<path d="M32.777 20.3999C32.777 20.9439 32.641 21.0799 32.097 21.0799C31.281 21.0799 30.601 21.0799 29.785 21.0799C28.969 21.0799 28.289 21.0799 27.473 21.0799C27.065 21.0799 26.793 20.9439 26.793 20.3999C26.793 18.9039 26.793 17.4079 26.793 15.7759C26.793 15.3679 26.929 15.0959 27.473 15.0959C28.969 15.0959 30.601 15.0959 32.097 15.0959C32.641 15.0959 32.777 15.2319 32.777 15.7759C32.777 17.4079 32.777 18.9039 32.777 20.3999Z" fill="#361452"/>
<path d="M59.0258 43.3839C57.6658 43.3839 56.3058 43.3839 55.0818 43.3839C54.8098 43.3839 54.6738 43.2479 54.6738 42.9759C54.6738 42.0239 54.6738 41.0719 54.6738 40.1199C54.6738 39.8479 54.8098 39.7119 55.0818 39.7119C56.4418 39.7119 57.8018 39.7119 59.0258 39.7119C59.0258 40.9359 59.0258 42.1599 59.0258 43.3839Z" fill="white"/>
<path d="M59.0254 43.3839C59.0254 42.1599 59.0254 41.0719 59.0254 39.8479C59.1614 39.8479 59.1614 40.1199 59.1614 40.1199C59.1614 41.0719 59.1614 42.0239 59.1614 42.9759C59.1614 43.1119 59.1614 43.2479 59.0254 43.3839Z" fill="#F4BC75"/>
<path d="M48.4182 43.3839C47.8742 43.3839 47.1942 43.3839 46.6502 43.3839C46.3782 43.3839 46.2422 43.2479 46.2422 42.9759C46.2422 42.0239 46.2422 41.0719 46.2422 40.1199C46.2422 39.8479 46.3782 39.7119 46.6502 39.7119C47.8742 39.7119 49.2342 39.7119 50.4582 39.7119C50.7302 39.7119 50.8662 39.8479 50.8662 40.1199C50.8662 41.0719 50.8662 42.0239 50.8662 42.9759C50.8662 43.2479 50.7302 43.3839 50.4582 43.3839C49.6422 43.3839 49.0982 43.3839 48.4182 43.3839Z" fill="white"/>
<path d="M54.6737 35.4958C54.5377 34.4078 54.6737 33.1838 54.6737 32.0958C55.6257 31.9598 56.5777 32.0958 57.6657 32.0958C58.0737 32.0958 58.7537 31.9598 59.0257 32.2318C59.2977 32.5038 59.1617 33.1838 59.1617 33.5918C59.1617 34.1358 59.1617 34.6798 59.1617 35.3598C59.1617 35.4958 59.1617 35.7678 58.8897 35.7678C57.3937 35.6318 56.0337 35.6318 54.6737 35.4958Z" fill="white"/>
<path d="M54.6738 35.496C55.8978 35.496 57.2578 35.496 58.4818 35.496C58.8898 35.496 59.0258 35.36 59.0258 34.952C59.0258 34.136 59.0258 33.32 59.0258 32.504C59.0258 32.096 58.8898 32.096 58.6178 32.096C57.2578 32.096 56.0338 32.096 54.6738 32.096C54.8098 31.96 54.9458 31.96 55.0818 31.96C56.3058 31.96 57.3938 31.96 58.6178 31.96C59.0258 31.96 59.1618 32.096 59.1618 32.504C59.1618 33.456 59.1618 34.408 59.1618 35.224C59.1618 35.496 59.1618 35.632 58.8898 35.632C57.3938 35.632 56.1698 35.632 54.6738 35.496C54.8098 35.632 54.6738 35.632 54.6738 35.496Z" fill="#F4BC75"/>
<path d="M48.4182 31.96C49.0982 31.96 49.6422 31.96 50.3222 31.96C50.7302 31.96 50.7302 32.096 50.7302 32.368C50.7302 33.32 50.7302 34.272 50.7302 35.088C50.7302 35.36 50.5942 35.496 50.3222 35.496C49.0982 35.496 47.8742 35.496 46.6502 35.496C46.3782 35.496 46.2422 35.36 46.2422 35.088C46.2422 34.136 46.2422 33.184 46.2422 32.368C46.2422 32.096 46.3782 31.96 46.6502 31.96C47.1942 31.96 47.8742 31.96 48.4182 31.96Z" fill="white"/>
<path d="M48.4175 51.136C47.7375 51.136 47.1935 51.136 46.5135 51.136C46.2415 51.136 46.1055 51 46.1055 50.728C46.1055 49.776 46.1055 48.824 46.1055 47.872C46.1055 47.6 46.2415 47.464 46.5135 47.464C47.7375 47.464 48.9615 47.464 50.1855 47.464C50.4575 47.464 50.5935 47.6 50.5935 47.872C50.5935 48.824 50.5935 49.776 50.5935 50.728C50.5935 51 50.4575 51.136 50.1855 51.136C49.7775 51.136 49.0975 51.136 48.4175 51.136Z" fill="white"/>
<path d="M19.7209 32.2319C20.4009 32.2319 20.9449 32.2319 21.6249 32.2319C22.0329 32.2319 22.0329 32.3679 22.0329 32.6399C22.0329 33.5919 22.0329 34.5439 22.0329 35.3599C22.0329 35.6319 21.8969 35.7679 21.6249 35.7679C20.4009 35.7679 19.1769 35.7679 17.9529 35.7679C17.6809 35.7679 17.5449 35.6319 17.5449 35.3599C17.5449 34.4079 17.5449 33.4559 17.5449 32.6399C17.5449 32.3679 17.6809 32.2319 17.9529 32.2319C18.4969 32.2319 19.0409 32.2319 19.7209 32.2319Z" fill="white"/>
<path d="M19.4494 51.408C18.9054 51.408 18.2254 51.408 17.6814 51.408C17.4094 51.408 17.2734 51.408 17.2734 51C17.2734 50.048 17.2734 49.096 17.2734 48.144C17.2734 47.872 17.4094 47.736 17.6814 47.736C18.9054 47.736 20.2654 47.736 21.4894 47.736C21.7614 47.736 21.8974 47.872 21.8974 48.144C21.8974 49.096 21.8974 50.048 21.8974 51C21.8974 51.272 21.7614 51.408 21.4894 51.408C20.8094 51.408 20.1294 51.408 19.4494 51.408Z" fill="white"/>
<path d="M13.1938 36.0399H9.1138C8.9778 36.0399 8.8418 35.9039 8.8418 35.7679V32.6399C8.8418 32.5039 8.9778 32.3679 9.1138 32.3679H13.3298C13.4658 32.3679 13.6018 32.5039 13.6018 32.6399V35.7679C13.6018 35.9039 13.4658 36.0399 13.1938 36.0399Z" fill="white"/>
<path d="M13.1938 43.6559H9.1138C8.9778 43.6559 8.8418 43.5199 8.8418 43.3839V40.2559C8.8418 40.1199 8.9778 39.9839 9.1138 39.9839H13.3298C13.4658 39.9839 13.6018 40.1199 13.6018 40.2559V43.3839C13.6018 43.5199 13.4658 43.6559 13.1938 43.6559Z" fill="white"/>
<path d="M13.3286 51.4078H9.24856C9.11256 51.4078 8.97656 51.2718 8.97656 51.1358V48.0078C8.97656 47.8718 9.11256 47.7358 9.24856 47.7358H13.4646C13.6006 47.7358 13.7366 47.8718 13.7366 48.0078V51.1358C13.7366 51.2718 13.6006 51.4078 13.3286 51.4078Z" fill="white"/>
<path d="M21.7614 43.6559H17.5454C17.4094 43.6559 17.2734 43.5199 17.2734 43.3839V40.2559C17.2734 40.1199 17.4094 39.9839 17.5454 39.9839H21.7614C21.8974 39.9839 22.0334 40.1199 22.0334 40.2559V43.3839C22.0334 43.5199 21.8974 43.6559 21.7614 43.6559Z" fill="white"/>
<path d="M31.9614 19.72C31.9614 20.128 31.8254 20.264 31.4174 20.264C30.8734 20.264 30.3294 20.264 29.7854 20.264C29.2414 20.264 28.6974 20.264 28.1534 20.264C27.8814 20.264 27.6094 20.128 27.6094 19.72C27.6094 18.632 27.6094 17.544 27.6094 16.32C27.6094 16.048 27.7454 15.776 28.1534 15.776C29.2414 15.776 30.4654 15.776 31.5534 15.776C31.9614 15.776 32.0974 15.912 32.0974 16.32C31.9614 17.544 31.9614 18.632 31.9614 19.72Z" fill="white"/>
<path d="M31.9614 27.6079C31.9614 28.0159 31.8254 28.1519 31.4174 28.1519C30.8734 28.1519 30.3294 28.1519 29.7854 28.1519C29.2414 28.1519 28.6974 28.1519 28.1534 28.1519C27.8814 28.1519 27.6094 28.0159 27.6094 27.6079C27.6094 26.5199 27.6094 25.4319 27.6094 24.2079C27.6094 23.9359 27.7454 23.6639 28.1534 23.6639C29.2414 23.6639 30.4654 23.6639 31.5534 23.6639C31.9614 23.6639 32.0974 23.7999 32.0974 24.2079C31.9614 25.4319 31.9614 26.5199 31.9614 27.6079Z" fill="white"/>
<path d="M31.9614 35.3599C31.9614 35.7679 31.8254 35.9039 31.4174 35.9039C30.8734 35.9039 30.3294 35.9039 29.7854 35.9039C29.2414 35.9039 28.6974 35.9039 28.1534 35.9039C27.8814 35.9039 27.6094 35.7679 27.6094 35.3599C27.6094 34.2719 27.6094 33.1839 27.6094 31.9599C27.6094 31.6879 27.7454 31.4159 28.1534 31.4159C29.2414 31.4159 30.4654 31.4159 31.5534 31.4159C31.9614 31.4159 32.0974 31.5519 32.0974 31.9599C31.9614 33.1839 31.9614 34.2719 31.9614 35.3599Z" fill="white"/>
<path d="M40.5297 19.7199C40.5297 20.1279 40.3937 20.2639 39.9857 20.2639C39.4417 20.2639 38.8977 20.2639 38.3537 20.2639C37.8097 20.2639 37.2657 20.2639 36.7217 20.2639C36.4497 20.2639 36.1777 20.1279 36.1777 19.7199C36.1777 18.6319 36.1777 17.5439 36.1777 16.3199C36.1777 16.0479 36.3137 15.7759 36.7217 15.7759C37.8097 15.7759 39.0337 15.7759 40.1217 15.7759C40.5297 15.7759 40.6657 15.9119 40.6657 16.3199C40.5297 17.5439 40.5297 18.6319 40.5297 19.7199Z" fill="white"/>
<path d="M40.5297 27.6081C40.5297 28.0161 40.3937 28.1521 39.9857 28.1521C39.4417 28.1521 38.8977 28.1521 38.3537 28.1521C37.8097 28.1521 37.2657 28.1521 36.7217 28.1521C36.4497 28.1521 36.1777 28.0161 36.1777 27.6081C36.1777 26.5201 36.1777 25.4321 36.1777 24.2081C36.1777 23.9361 36.3137 23.6641 36.7217 23.6641C37.8097 23.6641 39.0337 23.6641 40.1217 23.6641C40.5297 23.6641 40.6657 23.8001 40.6657 24.2081C40.5297 25.4321 40.5297 26.5201 40.5297 27.6081Z" fill="white"/>
<path d="M40.5297 35.36C40.5297 35.768 40.3937 35.904 39.9857 35.904C39.4417 35.904 38.8977 35.904 38.3537 35.904C37.8097 35.904 37.2657 35.904 36.7217 35.904C36.4497 35.904 36.1777 35.768 36.1777 35.36C36.1777 34.272 36.1777 33.184 36.1777 31.96C36.1777 31.688 36.3137 31.416 36.7217 31.416C37.8097 31.416 39.0337 31.416 40.1217 31.416C40.5297 31.416 40.6657 31.552 40.6657 31.96C40.5297 33.184 40.5297 34.272 40.5297 35.36Z" fill="white"/>
<path d="M56.7112 51.4081C56.1672 51.4081 55.4872 51.4081 54.9432 51.4081C54.6712 51.4081 54.5352 51.4081 54.5352 51.0001C54.5352 50.0481 54.5352 49.0961 54.5352 48.1441C54.5352 47.8721 54.6712 47.7361 54.9432 47.7361C56.1672 47.7361 57.5272 47.7361 58.7512 47.7361C59.0232 47.7361 59.1592 47.8721 59.1592 48.1441C59.1592 49.0961 59.1592 50.0481 59.1592 51.0001C59.1592 51.2721 59.0232 51.4081 58.7512 51.4081C58.0712 51.4081 57.3912 51.4081 56.7112 51.4081Z" fill="white"/>
</svg>
