<svg width="21" height="49" viewBox="0 0 21 49" fill="none" xmlns="http://www.w3.org/2000/svg">
<path d="M4.78887 1.512C5.78151 6.512 1 9.632 1 9.632C2.17632 10.4058 3.15109 11.4721 3.83726 12.7358C4.52343 13.9995 4.89964 15.4212 4.93231 16.874C4.86604 18.3185 4.47553 19.7264 3.79239 20.9838C3.10925 22.2413 2.15266 23.3129 1 24.112C2.17573 24.8864 3.15004 25.9529 3.83613 27.2165C4.52223 28.48 4.8988 29.9014 4.93231 31.354C4.86574 32.7982 4.4751 34.2057 3.79197 35.4627C3.10885 36.7198 2.15241 37.7911 1 38.59C1 38.59 5.86183 42.59 4.86537 47.5" stroke="white" stroke-width="2" stroke-linecap="round" stroke-linejoin="round"/>
<path d="M19.787 1.5C20.7815 6.5 16 9.62 16 9.62C17.1767 10.3935 18.1518 11.4598 18.8383 12.7235C19.5248 13.9872 19.9013 15.409 19.9342 16.862C19.8677 18.3067 19.4769 19.7147 18.7935 20.9722C18.11 22.2296 17.153 23.3011 16 24.1C17.1761 24.8742 18.1508 25.9406 18.8372 27.2041C19.5236 28.4677 19.9005 29.8892 19.9342 31.342C19.8666 32.7853 19.4752 34.1917 18.7918 35.4477C18.1083 36.7036 17.152 37.7739 16 38.572C16 38.572 20.8618 42.594 19.8654 47.5" stroke="white" stroke-width="2" stroke-linecap="round" stroke-linejoin="round"/>
</svg>
