<svg width="24" height="24" viewBox="0 0 24 24" fill="none" xmlns="http://www.w3.org/2000/svg">
<path d="M11.95 6.75C13.6069 6.75 14.95 5.40685 14.95 3.75C14.95 2.09315 13.6069 0.75 11.95 0.75C10.2932 0.75 8.95001 2.09315 8.95001 3.75C8.95001 5.40685 10.2932 6.75 11.95 6.75Z" stroke="#22252E" stroke-miterlimit="10" stroke-linecap="round" stroke-linejoin="round"/>
<path d="M13.1599 18.9974L6.56879 16.9224C5.47028 16.5562 4.24972 17.1665 3.88355 18.3871C3.51738 19.4856 4.12766 20.7062 5.34822 21.0723L11.9393 23.1473C13.0378 23.5135 14.2584 22.9032 14.6245 21.6826C14.8687 20.5841 14.2584 19.3635 13.1599 18.9974Z" stroke="#22252E" stroke-miterlimit="10" stroke-linecap="round" stroke-linejoin="round"/>
<path d="M6.45001 16.906V13.7065C6.45001 10.7065 8.95001 8.20654 11.95 8.20654C14.95 8.20654 17.45 10.7065 17.45 13.7065V16.6014" stroke="#22252E" stroke-miterlimit="10" stroke-linecap="round" stroke-linejoin="round"/>
<path d="M9.45001 15.0068V17.8281" stroke="#22252E" stroke-miterlimit="10" stroke-linecap="round" stroke-linejoin="round"/>
<path d="M14.45 15.0068V17.2969" stroke="#22252E" stroke-miterlimit="10" stroke-linecap="round" stroke-linejoin="round"/>
<path d="M17.21 21.2094L18.6521 20.7555C19.8726 20.3893 20.4829 19.1687 20.1168 18.0702C19.7506 16.8497 18.53 16.2394 17.4315 16.6055L14.933 17.3921" stroke="#22252E" stroke-miterlimit="10" stroke-linecap="round" stroke-linejoin="round"/>
</svg>
